<?xml version="1.0" encoding="UTF-8" standalone="no"?>
<svg width="226.483mm" height="170.039mm"
 viewBox="0 0 642 482"
 xmlns="http://www.w3.org/2000/svg" xmlns:xlink="http://www.w3.org/1999/xlink"  version="1.2" baseProfile="tiny">
<title>Qt SVG Document</title>
<desc>Generated with Qt</desc>
<defs>
</defs>
<g fill="none" stroke="black" stroke-width="1" fill-rule="evenodd" stroke-linecap="square" stroke-linejoin="bevel" >

<g fill="none" stroke="#000000" stroke-opacity="1" stroke-width="1" stroke-linecap="square" stroke-linejoin="bevel" transform="matrix(1,0,0,1,0,0)"
font-family="Ubuntu" font-size="11" font-weight="400" font-style="normal" 
>
</g>

<g fill="none" stroke="#000000" stroke-opacity="1" stroke-width="1" stroke-linecap="square" stroke-linejoin="bevel" transform="matrix(1.00313,0,0,1.00313,0,0)"
font-family="Ubuntu" font-size="11" font-weight="400" font-style="normal" 
>
</g>

<g fill="none" stroke="#000000" stroke-opacity="1" stroke-width="1" stroke-linecap="round" stroke-linejoin="round" transform="matrix(1.00313,0,0,1.00313,0,0)"
font-family="Ubuntu" font-size="11" font-weight="400" font-style="normal" 
>
<polyline fill="none" vector-effect="none" points="60.5,432.5 66.5,432.5 " />
<polyline fill="none" vector-effect="none" points="618.5,432.5 612.5,432.5 " />
</g>

<g fill="none" stroke="#000000" stroke-opacity="1" stroke-width="1" stroke-linecap="square" stroke-linejoin="bevel" transform="matrix(1.00313,0,0,1.00313,0,0)"
font-family="Ubuntu" font-size="11" font-weight="400" font-style="normal" 
>
</g>

<g fill="none" stroke="#000000" stroke-opacity="1" stroke-width="1" stroke-linecap="square" stroke-linejoin="bevel" transform="matrix(1.00313,0,0,1.00313,43.1344,437.864)"
font-family="Ubuntu" font-size="11" font-weight="400" font-style="normal" 
>
</g>

<g fill="none" stroke="#000000" stroke-opacity="1" stroke-width="1" stroke-linecap="square" stroke-linejoin="bevel" transform="matrix(1.00313,0,0,1.00313,43.1344,437.864)"
font-family="Ubuntu" font-size="11" font-weight="400" font-style="normal" 
>
</g>

<g fill="none" stroke="#000000" stroke-opacity="1" stroke-width="1" stroke-linecap="square" stroke-linejoin="bevel" transform="matrix(1.00313,0,0,1.00313,43.1344,437.864)"
font-family="Ubuntu" font-size="11" font-weight="400" font-style="normal" 
>
</g>

<g fill="none" stroke="#000000" stroke-opacity="1" stroke-width="1" stroke-linecap="square" stroke-linejoin="bevel" transform="matrix(1.00313,0,0,1.00313,43.1344,437.864)"
font-family="Ubuntu" font-size="11" font-weight="400" font-style="normal" 
>
</g>

<g fill="none" stroke="#000000" stroke-opacity="1" stroke-width="1" stroke-linecap="square" stroke-linejoin="bevel" transform="matrix(1.00313,0,0,1.00313,43.1344,437.864)"
font-family="Ubuntu" font-size="11" font-weight="400" font-style="normal" 
>
</g>

<g fill="none" stroke="#000000" stroke-opacity="1" stroke-width="1" stroke-linecap="square" stroke-linejoin="bevel" transform="matrix(1.00313,0,0,1.00313,43.1344,437.864)"
font-family="Sans" font-size="9" font-weight="400" font-style="normal" 
>
<text fill="#000000" fill-opacity="1" stroke="none" xml:space="preserve" x="0" y="0" font-family="Sans" font-size="9" font-weight="400" font-style="normal" 
 >-1</text>
</g>

<g fill="none" stroke="#000000" stroke-opacity="1" stroke-width="1" stroke-linecap="square" stroke-linejoin="bevel" transform="matrix(1.00313,0,0,1.00313,43.1344,437.864)"
font-family="Ubuntu" font-size="11" font-weight="400" font-style="normal" 
>
</g>

<g fill="none" stroke="#000000" stroke-opacity="1" stroke-width="1" stroke-linecap="square" stroke-linejoin="bevel" transform="matrix(1.00313,0,0,1.00313,0,0)"
font-family="Ubuntu" font-size="11" font-weight="400" font-style="normal" 
>
</g>

<g fill="none" stroke="#000000" stroke-opacity="1" stroke-width="1" stroke-linecap="round" stroke-linejoin="round" transform="matrix(1.00313,0,0,1.00313,0,0)"
font-family="Ubuntu" font-size="11" font-weight="400" font-style="normal" 
>
<polyline fill="none" vector-effect="none" points="60.5,393.5 66.5,393.5 " />
<polyline fill="none" vector-effect="none" points="618.5,393.5 612.5,393.5 " />
</g>

<g fill="none" stroke="#000000" stroke-opacity="1" stroke-width="1" stroke-linecap="square" stroke-linejoin="bevel" transform="matrix(1.00313,0,0,1.00313,0,0)"
font-family="Ubuntu" font-size="11" font-weight="400" font-style="normal" 
>
</g>

<g fill="none" stroke="#000000" stroke-opacity="1" stroke-width="1" stroke-linecap="square" stroke-linejoin="bevel" transform="matrix(1.00313,0,0,1.00313,31.0969,398.742)"
font-family="Ubuntu" font-size="11" font-weight="400" font-style="normal" 
>
</g>

<g fill="none" stroke="#000000" stroke-opacity="1" stroke-width="1" stroke-linecap="square" stroke-linejoin="bevel" transform="matrix(1.00313,0,0,1.00313,31.0969,398.742)"
font-family="Ubuntu" font-size="11" font-weight="400" font-style="normal" 
>
</g>

<g fill="none" stroke="#000000" stroke-opacity="1" stroke-width="1" stroke-linecap="square" stroke-linejoin="bevel" transform="matrix(1.00313,0,0,1.00313,31.0969,398.742)"
font-family="Ubuntu" font-size="11" font-weight="400" font-style="normal" 
>
</g>

<g fill="none" stroke="#000000" stroke-opacity="1" stroke-width="1" stroke-linecap="square" stroke-linejoin="bevel" transform="matrix(1.00313,0,0,1.00313,31.0969,398.742)"
font-family="Ubuntu" font-size="11" font-weight="400" font-style="normal" 
>
</g>

<g fill="none" stroke="#000000" stroke-opacity="1" stroke-width="1" stroke-linecap="square" stroke-linejoin="bevel" transform="matrix(1.00313,0,0,1.00313,31.0969,398.742)"
font-family="Ubuntu" font-size="11" font-weight="400" font-style="normal" 
>
</g>

<g fill="none" stroke="#000000" stroke-opacity="1" stroke-width="1" stroke-linecap="square" stroke-linejoin="bevel" transform="matrix(1.00313,0,0,1.00313,31.0969,398.742)"
font-family="Sans" font-size="9" font-weight="400" font-style="normal" 
>
<text fill="#000000" fill-opacity="1" stroke="none" xml:space="preserve" x="0" y="0" font-family="Sans" font-size="9" font-weight="400" font-style="normal" 
 >-0.8</text>
</g>

<g fill="none" stroke="#000000" stroke-opacity="1" stroke-width="1" stroke-linecap="square" stroke-linejoin="bevel" transform="matrix(1.00313,0,0,1.00313,31.0969,398.742)"
font-family="Ubuntu" font-size="11" font-weight="400" font-style="normal" 
>
</g>

<g fill="none" stroke="#000000" stroke-opacity="1" stroke-width="1" stroke-linecap="square" stroke-linejoin="bevel" transform="matrix(1.00313,0,0,1.00313,0,0)"
font-family="Ubuntu" font-size="11" font-weight="400" font-style="normal" 
>
</g>

<g fill="none" stroke="#000000" stroke-opacity="1" stroke-width="1" stroke-linecap="round" stroke-linejoin="round" transform="matrix(1.00313,0,0,1.00313,0,0)"
font-family="Ubuntu" font-size="11" font-weight="400" font-style="normal" 
>
<polyline fill="none" vector-effect="none" points="60.5,354.5 66.5,354.5 " />
<polyline fill="none" vector-effect="none" points="618.5,354.5 612.5,354.5 " />
</g>

<g fill="none" stroke="#000000" stroke-opacity="1" stroke-width="1" stroke-linecap="square" stroke-linejoin="bevel" transform="matrix(1.00313,0,0,1.00313,0,0)"
font-family="Ubuntu" font-size="11" font-weight="400" font-style="normal" 
>
</g>

<g fill="none" stroke="#000000" stroke-opacity="1" stroke-width="1" stroke-linecap="square" stroke-linejoin="bevel" transform="matrix(1.00313,0,0,1.00313,31.0969,360.623)"
font-family="Ubuntu" font-size="11" font-weight="400" font-style="normal" 
>
</g>

<g fill="none" stroke="#000000" stroke-opacity="1" stroke-width="1" stroke-linecap="square" stroke-linejoin="bevel" transform="matrix(1.00313,0,0,1.00313,31.0969,360.623)"
font-family="Ubuntu" font-size="11" font-weight="400" font-style="normal" 
>
</g>

<g fill="none" stroke="#000000" stroke-opacity="1" stroke-width="1" stroke-linecap="square" stroke-linejoin="bevel" transform="matrix(1.00313,0,0,1.00313,31.0969,360.623)"
font-family="Ubuntu" font-size="11" font-weight="400" font-style="normal" 
>
</g>

<g fill="none" stroke="#000000" stroke-opacity="1" stroke-width="1" stroke-linecap="square" stroke-linejoin="bevel" transform="matrix(1.00313,0,0,1.00313,31.0969,360.623)"
font-family="Ubuntu" font-size="11" font-weight="400" font-style="normal" 
>
</g>

<g fill="none" stroke="#000000" stroke-opacity="1" stroke-width="1" stroke-linecap="square" stroke-linejoin="bevel" transform="matrix(1.00313,0,0,1.00313,31.0969,360.623)"
font-family="Ubuntu" font-size="11" font-weight="400" font-style="normal" 
>
</g>

<g fill="none" stroke="#000000" stroke-opacity="1" stroke-width="1" stroke-linecap="square" stroke-linejoin="bevel" transform="matrix(1.00313,0,0,1.00313,31.0969,360.623)"
font-family="Sans" font-size="9" font-weight="400" font-style="normal" 
>
<text fill="#000000" fill-opacity="1" stroke="none" xml:space="preserve" x="0" y="0" font-family="Sans" font-size="9" font-weight="400" font-style="normal" 
 >-0.6</text>
</g>

<g fill="none" stroke="#000000" stroke-opacity="1" stroke-width="1" stroke-linecap="square" stroke-linejoin="bevel" transform="matrix(1.00313,0,0,1.00313,31.0969,360.623)"
font-family="Ubuntu" font-size="11" font-weight="400" font-style="normal" 
>
</g>

<g fill="none" stroke="#000000" stroke-opacity="1" stroke-width="1" stroke-linecap="square" stroke-linejoin="bevel" transform="matrix(1.00313,0,0,1.00313,0,0)"
font-family="Ubuntu" font-size="11" font-weight="400" font-style="normal" 
>
</g>

<g fill="none" stroke="#000000" stroke-opacity="1" stroke-width="1" stroke-linecap="round" stroke-linejoin="round" transform="matrix(1.00313,0,0,1.00313,0,0)"
font-family="Ubuntu" font-size="11" font-weight="400" font-style="normal" 
>
<polyline fill="none" vector-effect="none" points="60.5,315.5 66.5,315.5 " />
<polyline fill="none" vector-effect="none" points="618.5,315.5 612.5,315.5 " />
</g>

<g fill="none" stroke="#000000" stroke-opacity="1" stroke-width="1" stroke-linecap="square" stroke-linejoin="bevel" transform="matrix(1.00313,0,0,1.00313,0,0)"
font-family="Ubuntu" font-size="11" font-weight="400" font-style="normal" 
>
</g>

<g fill="none" stroke="#000000" stroke-opacity="1" stroke-width="1" stroke-linecap="square" stroke-linejoin="bevel" transform="matrix(1.00313,0,0,1.00313,31.0969,321.502)"
font-family="Ubuntu" font-size="11" font-weight="400" font-style="normal" 
>
</g>

<g fill="none" stroke="#000000" stroke-opacity="1" stroke-width="1" stroke-linecap="square" stroke-linejoin="bevel" transform="matrix(1.00313,0,0,1.00313,31.0969,321.502)"
font-family="Ubuntu" font-size="11" font-weight="400" font-style="normal" 
>
</g>

<g fill="none" stroke="#000000" stroke-opacity="1" stroke-width="1" stroke-linecap="square" stroke-linejoin="bevel" transform="matrix(1.00313,0,0,1.00313,31.0969,321.502)"
font-family="Ubuntu" font-size="11" font-weight="400" font-style="normal" 
>
</g>

<g fill="none" stroke="#000000" stroke-opacity="1" stroke-width="1" stroke-linecap="square" stroke-linejoin="bevel" transform="matrix(1.00313,0,0,1.00313,31.0969,321.502)"
font-family="Ubuntu" font-size="11" font-weight="400" font-style="normal" 
>
</g>

<g fill="none" stroke="#000000" stroke-opacity="1" stroke-width="1" stroke-linecap="square" stroke-linejoin="bevel" transform="matrix(1.00313,0,0,1.00313,31.0969,321.502)"
font-family="Ubuntu" font-size="11" font-weight="400" font-style="normal" 
>
</g>

<g fill="none" stroke="#000000" stroke-opacity="1" stroke-width="1" stroke-linecap="square" stroke-linejoin="bevel" transform="matrix(1.00313,0,0,1.00313,31.0969,321.502)"
font-family="Sans" font-size="9" font-weight="400" font-style="normal" 
>
<text fill="#000000" fill-opacity="1" stroke="none" xml:space="preserve" x="0" y="0" font-family="Sans" font-size="9" font-weight="400" font-style="normal" 
 >-0.4</text>
</g>

<g fill="none" stroke="#000000" stroke-opacity="1" stroke-width="1" stroke-linecap="square" stroke-linejoin="bevel" transform="matrix(1.00313,0,0,1.00313,31.0969,321.502)"
font-family="Ubuntu" font-size="11" font-weight="400" font-style="normal" 
>
</g>

<g fill="none" stroke="#000000" stroke-opacity="1" stroke-width="1" stroke-linecap="square" stroke-linejoin="bevel" transform="matrix(1.00313,0,0,1.00313,0,0)"
font-family="Ubuntu" font-size="11" font-weight="400" font-style="normal" 
>
</g>

<g fill="none" stroke="#000000" stroke-opacity="1" stroke-width="1" stroke-linecap="round" stroke-linejoin="round" transform="matrix(1.00313,0,0,1.00313,0,0)"
font-family="Ubuntu" font-size="11" font-weight="400" font-style="normal" 
>
<polyline fill="none" vector-effect="none" points="60.5,277.5 66.5,277.5 " />
<polyline fill="none" vector-effect="none" points="618.5,277.5 612.5,277.5 " />
</g>

<g fill="none" stroke="#000000" stroke-opacity="1" stroke-width="1" stroke-linecap="square" stroke-linejoin="bevel" transform="matrix(1.00313,0,0,1.00313,0,0)"
font-family="Ubuntu" font-size="11" font-weight="400" font-style="normal" 
>
</g>

<g fill="none" stroke="#000000" stroke-opacity="1" stroke-width="1" stroke-linecap="square" stroke-linejoin="bevel" transform="matrix(1.00313,0,0,1.00313,31.0969,282.38)"
font-family="Ubuntu" font-size="11" font-weight="400" font-style="normal" 
>
</g>

<g fill="none" stroke="#000000" stroke-opacity="1" stroke-width="1" stroke-linecap="square" stroke-linejoin="bevel" transform="matrix(1.00313,0,0,1.00313,31.0969,282.38)"
font-family="Ubuntu" font-size="11" font-weight="400" font-style="normal" 
>
</g>

<g fill="none" stroke="#000000" stroke-opacity="1" stroke-width="1" stroke-linecap="square" stroke-linejoin="bevel" transform="matrix(1.00313,0,0,1.00313,31.0969,282.38)"
font-family="Ubuntu" font-size="11" font-weight="400" font-style="normal" 
>
</g>

<g fill="none" stroke="#000000" stroke-opacity="1" stroke-width="1" stroke-linecap="square" stroke-linejoin="bevel" transform="matrix(1.00313,0,0,1.00313,31.0969,282.38)"
font-family="Ubuntu" font-size="11" font-weight="400" font-style="normal" 
>
</g>

<g fill="none" stroke="#000000" stroke-opacity="1" stroke-width="1" stroke-linecap="square" stroke-linejoin="bevel" transform="matrix(1.00313,0,0,1.00313,31.0969,282.38)"
font-family="Ubuntu" font-size="11" font-weight="400" font-style="normal" 
>
</g>

<g fill="none" stroke="#000000" stroke-opacity="1" stroke-width="1" stroke-linecap="square" stroke-linejoin="bevel" transform="matrix(1.00313,0,0,1.00313,31.0969,282.38)"
font-family="Sans" font-size="9" font-weight="400" font-style="normal" 
>
<text fill="#000000" fill-opacity="1" stroke="none" xml:space="preserve" x="0" y="0" font-family="Sans" font-size="9" font-weight="400" font-style="normal" 
 >-0.2</text>
</g>

<g fill="none" stroke="#000000" stroke-opacity="1" stroke-width="1" stroke-linecap="square" stroke-linejoin="bevel" transform="matrix(1.00313,0,0,1.00313,31.0969,282.38)"
font-family="Ubuntu" font-size="11" font-weight="400" font-style="normal" 
>
</g>

<g fill="none" stroke="#000000" stroke-opacity="1" stroke-width="1" stroke-linecap="square" stroke-linejoin="bevel" transform="matrix(1.00313,0,0,1.00313,0,0)"
font-family="Ubuntu" font-size="11" font-weight="400" font-style="normal" 
>
</g>

<g fill="none" stroke="#000000" stroke-opacity="1" stroke-width="1" stroke-linecap="round" stroke-linejoin="round" transform="matrix(1.00313,0,0,1.00313,0,0)"
font-family="Ubuntu" font-size="11" font-weight="400" font-style="normal" 
>
<polyline fill="none" vector-effect="none" points="60.5,238.5 66.5,238.5 " />
<polyline fill="none" vector-effect="none" points="618.5,238.5 612.5,238.5 " />
</g>

<g fill="none" stroke="#000000" stroke-opacity="1" stroke-width="1" stroke-linecap="square" stroke-linejoin="bevel" transform="matrix(1.00313,0,0,1.00313,0,0)"
font-family="Ubuntu" font-size="11" font-weight="400" font-style="normal" 
>
</g>

<g fill="none" stroke="#000000" stroke-opacity="1" stroke-width="1" stroke-linecap="square" stroke-linejoin="bevel" transform="matrix(1.00313,0,0,1.00313,43.1344,244.261)"
font-family="Ubuntu" font-size="11" font-weight="400" font-style="normal" 
>
</g>

<g fill="none" stroke="#000000" stroke-opacity="1" stroke-width="1" stroke-linecap="square" stroke-linejoin="bevel" transform="matrix(1.00313,0,0,1.00313,43.1344,244.261)"
font-family="Ubuntu" font-size="11" font-weight="400" font-style="normal" 
>
</g>

<g fill="none" stroke="#000000" stroke-opacity="1" stroke-width="1" stroke-linecap="square" stroke-linejoin="bevel" transform="matrix(1.00313,0,0,1.00313,43.1344,244.261)"
font-family="Ubuntu" font-size="11" font-weight="400" font-style="normal" 
>
</g>

<g fill="none" stroke="#000000" stroke-opacity="1" stroke-width="1" stroke-linecap="square" stroke-linejoin="bevel" transform="matrix(1.00313,0,0,1.00313,43.1344,244.261)"
font-family="Ubuntu" font-size="11" font-weight="400" font-style="normal" 
>
</g>

<g fill="none" stroke="#000000" stroke-opacity="1" stroke-width="1" stroke-linecap="square" stroke-linejoin="bevel" transform="matrix(1.00313,0,0,1.00313,43.1344,244.261)"
font-family="Ubuntu" font-size="11" font-weight="400" font-style="normal" 
>
</g>

<g fill="none" stroke="#000000" stroke-opacity="1" stroke-width="1" stroke-linecap="square" stroke-linejoin="bevel" transform="matrix(1.00313,0,0,1.00313,43.1344,244.261)"
font-family="Sans" font-size="9" font-weight="400" font-style="normal" 
>
<text fill="#000000" fill-opacity="1" stroke="none" xml:space="preserve" x="0" y="0" font-family="Sans" font-size="9" font-weight="400" font-style="normal" 
 > 0</text>
</g>

<g fill="none" stroke="#000000" stroke-opacity="1" stroke-width="1" stroke-linecap="square" stroke-linejoin="bevel" transform="matrix(1.00313,0,0,1.00313,43.1344,244.261)"
font-family="Ubuntu" font-size="11" font-weight="400" font-style="normal" 
>
</g>

<g fill="none" stroke="#000000" stroke-opacity="1" stroke-width="1" stroke-linecap="square" stroke-linejoin="bevel" transform="matrix(1.00313,0,0,1.00313,0,0)"
font-family="Ubuntu" font-size="11" font-weight="400" font-style="normal" 
>
</g>

<g fill="none" stroke="#000000" stroke-opacity="1" stroke-width="1" stroke-linecap="round" stroke-linejoin="round" transform="matrix(1.00313,0,0,1.00313,0,0)"
font-family="Ubuntu" font-size="11" font-weight="400" font-style="normal" 
>
<polyline fill="none" vector-effect="none" points="60.5,199.5 66.5,199.5 " />
<polyline fill="none" vector-effect="none" points="618.5,199.5 612.5,199.5 " />
</g>

<g fill="none" stroke="#000000" stroke-opacity="1" stroke-width="1" stroke-linecap="square" stroke-linejoin="bevel" transform="matrix(1.00313,0,0,1.00313,0,0)"
font-family="Ubuntu" font-size="11" font-weight="400" font-style="normal" 
>
</g>

<g fill="none" stroke="#000000" stroke-opacity="1" stroke-width="1" stroke-linecap="square" stroke-linejoin="bevel" transform="matrix(1.00313,0,0,1.00313,31.0969,205.139)"
font-family="Ubuntu" font-size="11" font-weight="400" font-style="normal" 
>
</g>

<g fill="none" stroke="#000000" stroke-opacity="1" stroke-width="1" stroke-linecap="square" stroke-linejoin="bevel" transform="matrix(1.00313,0,0,1.00313,31.0969,205.139)"
font-family="Ubuntu" font-size="11" font-weight="400" font-style="normal" 
>
</g>

<g fill="none" stroke="#000000" stroke-opacity="1" stroke-width="1" stroke-linecap="square" stroke-linejoin="bevel" transform="matrix(1.00313,0,0,1.00313,31.0969,205.139)"
font-family="Ubuntu" font-size="11" font-weight="400" font-style="normal" 
>
</g>

<g fill="none" stroke="#000000" stroke-opacity="1" stroke-width="1" stroke-linecap="square" stroke-linejoin="bevel" transform="matrix(1.00313,0,0,1.00313,31.0969,205.139)"
font-family="Ubuntu" font-size="11" font-weight="400" font-style="normal" 
>
</g>

<g fill="none" stroke="#000000" stroke-opacity="1" stroke-width="1" stroke-linecap="square" stroke-linejoin="bevel" transform="matrix(1.00313,0,0,1.00313,31.0969,205.139)"
font-family="Ubuntu" font-size="11" font-weight="400" font-style="normal" 
>
</g>

<g fill="none" stroke="#000000" stroke-opacity="1" stroke-width="1" stroke-linecap="square" stroke-linejoin="bevel" transform="matrix(1.00313,0,0,1.00313,31.0969,205.139)"
font-family="Sans" font-size="9" font-weight="400" font-style="normal" 
>
<text fill="#000000" fill-opacity="1" stroke="none" xml:space="preserve" x="0" y="0" font-family="Sans" font-size="9" font-weight="400" font-style="normal" 
 > 0.2</text>
</g>

<g fill="none" stroke="#000000" stroke-opacity="1" stroke-width="1" stroke-linecap="square" stroke-linejoin="bevel" transform="matrix(1.00313,0,0,1.00313,31.0969,205.139)"
font-family="Ubuntu" font-size="11" font-weight="400" font-style="normal" 
>
</g>

<g fill="none" stroke="#000000" stroke-opacity="1" stroke-width="1" stroke-linecap="square" stroke-linejoin="bevel" transform="matrix(1.00313,0,0,1.00313,0,0)"
font-family="Ubuntu" font-size="11" font-weight="400" font-style="normal" 
>
</g>

<g fill="none" stroke="#000000" stroke-opacity="1" stroke-width="1" stroke-linecap="round" stroke-linejoin="round" transform="matrix(1.00313,0,0,1.00313,0,0)"
font-family="Ubuntu" font-size="11" font-weight="400" font-style="normal" 
>
<polyline fill="none" vector-effect="none" points="60.5,161.5 66.5,161.5 " />
<polyline fill="none" vector-effect="none" points="618.5,161.5 612.5,161.5 " />
</g>

<g fill="none" stroke="#000000" stroke-opacity="1" stroke-width="1" stroke-linecap="square" stroke-linejoin="bevel" transform="matrix(1.00313,0,0,1.00313,0,0)"
font-family="Ubuntu" font-size="11" font-weight="400" font-style="normal" 
>
</g>

<g fill="none" stroke="#000000" stroke-opacity="1" stroke-width="1" stroke-linecap="square" stroke-linejoin="bevel" transform="matrix(1.00313,0,0,1.00313,31.0969,166.017)"
font-family="Ubuntu" font-size="11" font-weight="400" font-style="normal" 
>
</g>

<g fill="none" stroke="#000000" stroke-opacity="1" stroke-width="1" stroke-linecap="square" stroke-linejoin="bevel" transform="matrix(1.00313,0,0,1.00313,31.0969,166.017)"
font-family="Ubuntu" font-size="11" font-weight="400" font-style="normal" 
>
</g>

<g fill="none" stroke="#000000" stroke-opacity="1" stroke-width="1" stroke-linecap="square" stroke-linejoin="bevel" transform="matrix(1.00313,0,0,1.00313,31.0969,166.017)"
font-family="Ubuntu" font-size="11" font-weight="400" font-style="normal" 
>
</g>

<g fill="none" stroke="#000000" stroke-opacity="1" stroke-width="1" stroke-linecap="square" stroke-linejoin="bevel" transform="matrix(1.00313,0,0,1.00313,31.0969,166.017)"
font-family="Ubuntu" font-size="11" font-weight="400" font-style="normal" 
>
</g>

<g fill="none" stroke="#000000" stroke-opacity="1" stroke-width="1" stroke-linecap="square" stroke-linejoin="bevel" transform="matrix(1.00313,0,0,1.00313,31.0969,166.017)"
font-family="Ubuntu" font-size="11" font-weight="400" font-style="normal" 
>
</g>

<g fill="none" stroke="#000000" stroke-opacity="1" stroke-width="1" stroke-linecap="square" stroke-linejoin="bevel" transform="matrix(1.00313,0,0,1.00313,31.0969,166.017)"
font-family="Sans" font-size="9" font-weight="400" font-style="normal" 
>
<text fill="#000000" fill-opacity="1" stroke="none" xml:space="preserve" x="0" y="0" font-family="Sans" font-size="9" font-weight="400" font-style="normal" 
 > 0.4</text>
</g>

<g fill="none" stroke="#000000" stroke-opacity="1" stroke-width="1" stroke-linecap="square" stroke-linejoin="bevel" transform="matrix(1.00313,0,0,1.00313,31.0969,166.017)"
font-family="Ubuntu" font-size="11" font-weight="400" font-style="normal" 
>
</g>

<g fill="none" stroke="#000000" stroke-opacity="1" stroke-width="1" stroke-linecap="square" stroke-linejoin="bevel" transform="matrix(1.00313,0,0,1.00313,0,0)"
font-family="Ubuntu" font-size="11" font-weight="400" font-style="normal" 
>
</g>

<g fill="none" stroke="#000000" stroke-opacity="1" stroke-width="1" stroke-linecap="round" stroke-linejoin="round" transform="matrix(1.00313,0,0,1.00313,0,0)"
font-family="Ubuntu" font-size="11" font-weight="400" font-style="normal" 
>
<polyline fill="none" vector-effect="none" points="60.5,122.5 66.5,122.5 " />
<polyline fill="none" vector-effect="none" points="618.5,122.5 612.5,122.5 " />
</g>

<g fill="none" stroke="#000000" stroke-opacity="1" stroke-width="1" stroke-linecap="square" stroke-linejoin="bevel" transform="matrix(1.00313,0,0,1.00313,0,0)"
font-family="Ubuntu" font-size="11" font-weight="400" font-style="normal" 
>
</g>

<g fill="none" stroke="#000000" stroke-opacity="1" stroke-width="1" stroke-linecap="square" stroke-linejoin="bevel" transform="matrix(1.00313,0,0,1.00313,31.0969,127.898)"
font-family="Ubuntu" font-size="11" font-weight="400" font-style="normal" 
>
</g>

<g fill="none" stroke="#000000" stroke-opacity="1" stroke-width="1" stroke-linecap="square" stroke-linejoin="bevel" transform="matrix(1.00313,0,0,1.00313,31.0969,127.898)"
font-family="Ubuntu" font-size="11" font-weight="400" font-style="normal" 
>
</g>

<g fill="none" stroke="#000000" stroke-opacity="1" stroke-width="1" stroke-linecap="square" stroke-linejoin="bevel" transform="matrix(1.00313,0,0,1.00313,31.0969,127.898)"
font-family="Ubuntu" font-size="11" font-weight="400" font-style="normal" 
>
</g>

<g fill="none" stroke="#000000" stroke-opacity="1" stroke-width="1" stroke-linecap="square" stroke-linejoin="bevel" transform="matrix(1.00313,0,0,1.00313,31.0969,127.898)"
font-family="Ubuntu" font-size="11" font-weight="400" font-style="normal" 
>
</g>

<g fill="none" stroke="#000000" stroke-opacity="1" stroke-width="1" stroke-linecap="square" stroke-linejoin="bevel" transform="matrix(1.00313,0,0,1.00313,31.0969,127.898)"
font-family="Ubuntu" font-size="11" font-weight="400" font-style="normal" 
>
</g>

<g fill="none" stroke="#000000" stroke-opacity="1" stroke-width="1" stroke-linecap="square" stroke-linejoin="bevel" transform="matrix(1.00313,0,0,1.00313,31.0969,127.898)"
font-family="Sans" font-size="9" font-weight="400" font-style="normal" 
>
<text fill="#000000" fill-opacity="1" stroke="none" xml:space="preserve" x="0" y="0" font-family="Sans" font-size="9" font-weight="400" font-style="normal" 
 > 0.6</text>
</g>

<g fill="none" stroke="#000000" stroke-opacity="1" stroke-width="1" stroke-linecap="square" stroke-linejoin="bevel" transform="matrix(1.00313,0,0,1.00313,31.0969,127.898)"
font-family="Ubuntu" font-size="11" font-weight="400" font-style="normal" 
>
</g>

<g fill="none" stroke="#000000" stroke-opacity="1" stroke-width="1" stroke-linecap="square" stroke-linejoin="bevel" transform="matrix(1.00313,0,0,1.00313,0,0)"
font-family="Ubuntu" font-size="11" font-weight="400" font-style="normal" 
>
</g>

<g fill="none" stroke="#000000" stroke-opacity="1" stroke-width="1" stroke-linecap="round" stroke-linejoin="round" transform="matrix(1.00313,0,0,1.00313,0,0)"
font-family="Ubuntu" font-size="11" font-weight="400" font-style="normal" 
>
<polyline fill="none" vector-effect="none" points="60.5,83.5 66.5,83.5 " />
<polyline fill="none" vector-effect="none" points="618.5,83.5 612.5,83.5 " />
</g>

<g fill="none" stroke="#000000" stroke-opacity="1" stroke-width="1" stroke-linecap="square" stroke-linejoin="bevel" transform="matrix(1.00313,0,0,1.00313,0,0)"
font-family="Ubuntu" font-size="11" font-weight="400" font-style="normal" 
>
</g>

<g fill="none" stroke="#000000" stroke-opacity="1" stroke-width="1" stroke-linecap="square" stroke-linejoin="bevel" transform="matrix(1.00313,0,0,1.00313,31.0969,88.7766)"
font-family="Ubuntu" font-size="11" font-weight="400" font-style="normal" 
>
</g>

<g fill="none" stroke="#000000" stroke-opacity="1" stroke-width="1" stroke-linecap="square" stroke-linejoin="bevel" transform="matrix(1.00313,0,0,1.00313,31.0969,88.7766)"
font-family="Ubuntu" font-size="11" font-weight="400" font-style="normal" 
>
</g>

<g fill="none" stroke="#000000" stroke-opacity="1" stroke-width="1" stroke-linecap="square" stroke-linejoin="bevel" transform="matrix(1.00313,0,0,1.00313,31.0969,88.7766)"
font-family="Ubuntu" font-size="11" font-weight="400" font-style="normal" 
>
</g>

<g fill="none" stroke="#000000" stroke-opacity="1" stroke-width="1" stroke-linecap="square" stroke-linejoin="bevel" transform="matrix(1.00313,0,0,1.00313,31.0969,88.7766)"
font-family="Ubuntu" font-size="11" font-weight="400" font-style="normal" 
>
</g>

<g fill="none" stroke="#000000" stroke-opacity="1" stroke-width="1" stroke-linecap="square" stroke-linejoin="bevel" transform="matrix(1.00313,0,0,1.00313,31.0969,88.7766)"
font-family="Ubuntu" font-size="11" font-weight="400" font-style="normal" 
>
</g>

<g fill="none" stroke="#000000" stroke-opacity="1" stroke-width="1" stroke-linecap="square" stroke-linejoin="bevel" transform="matrix(1.00313,0,0,1.00313,31.0969,88.7766)"
font-family="Sans" font-size="9" font-weight="400" font-style="normal" 
>
<text fill="#000000" fill-opacity="1" stroke="none" xml:space="preserve" x="0" y="0" font-family="Sans" font-size="9" font-weight="400" font-style="normal" 
 > 0.8</text>
</g>

<g fill="none" stroke="#000000" stroke-opacity="1" stroke-width="1" stroke-linecap="square" stroke-linejoin="bevel" transform="matrix(1.00313,0,0,1.00313,31.0969,88.7766)"
font-family="Ubuntu" font-size="11" font-weight="400" font-style="normal" 
>
</g>

<g fill="none" stroke="#000000" stroke-opacity="1" stroke-width="1" stroke-linecap="square" stroke-linejoin="bevel" transform="matrix(1.00313,0,0,1.00313,0,0)"
font-family="Ubuntu" font-size="11" font-weight="400" font-style="normal" 
>
</g>

<g fill="none" stroke="#000000" stroke-opacity="1" stroke-width="1" stroke-linecap="round" stroke-linejoin="round" transform="matrix(1.00313,0,0,1.00313,0,0)"
font-family="Ubuntu" font-size="11" font-weight="400" font-style="normal" 
>
<polyline fill="none" vector-effect="none" points="60.5,45.5 66.5,45.5 " />
<polyline fill="none" vector-effect="none" points="618.5,45.5 612.5,45.5 " />
</g>

<g fill="none" stroke="#000000" stroke-opacity="1" stroke-width="1" stroke-linecap="square" stroke-linejoin="bevel" transform="matrix(1.00313,0,0,1.00313,0,0)"
font-family="Ubuntu" font-size="11" font-weight="400" font-style="normal" 
>
</g>

<g fill="none" stroke="#000000" stroke-opacity="1" stroke-width="1" stroke-linecap="square" stroke-linejoin="bevel" transform="matrix(1.00313,0,0,1.00313,43.1344,49.6547)"
font-family="Ubuntu" font-size="11" font-weight="400" font-style="normal" 
>
</g>

<g fill="none" stroke="#000000" stroke-opacity="1" stroke-width="1" stroke-linecap="square" stroke-linejoin="bevel" transform="matrix(1.00313,0,0,1.00313,43.1344,49.6547)"
font-family="Ubuntu" font-size="11" font-weight="400" font-style="normal" 
>
</g>

<g fill="none" stroke="#000000" stroke-opacity="1" stroke-width="1" stroke-linecap="square" stroke-linejoin="bevel" transform="matrix(1.00313,0,0,1.00313,43.1344,49.6547)"
font-family="Ubuntu" font-size="11" font-weight="400" font-style="normal" 
>
</g>

<g fill="none" stroke="#000000" stroke-opacity="1" stroke-width="1" stroke-linecap="square" stroke-linejoin="bevel" transform="matrix(1.00313,0,0,1.00313,43.1344,49.6547)"
font-family="Ubuntu" font-size="11" font-weight="400" font-style="normal" 
>
</g>

<g fill="none" stroke="#000000" stroke-opacity="1" stroke-width="1" stroke-linecap="square" stroke-linejoin="bevel" transform="matrix(1.00313,0,0,1.00313,43.1344,49.6547)"
font-family="Ubuntu" font-size="11" font-weight="400" font-style="normal" 
>
</g>

<g fill="none" stroke="#000000" stroke-opacity="1" stroke-width="1" stroke-linecap="square" stroke-linejoin="bevel" transform="matrix(1.00313,0,0,1.00313,43.1344,49.6547)"
font-family="Sans" font-size="9" font-weight="400" font-style="normal" 
>
<text fill="#000000" fill-opacity="1" stroke="none" xml:space="preserve" x="0" y="0" font-family="Sans" font-size="9" font-weight="400" font-style="normal" 
 > 1</text>
</g>

<g fill="none" stroke="#000000" stroke-opacity="1" stroke-width="1" stroke-linecap="square" stroke-linejoin="bevel" transform="matrix(1.00313,0,0,1.00313,43.1344,49.6547)"
font-family="Ubuntu" font-size="11" font-weight="400" font-style="normal" 
>
</g>

<g fill="none" stroke="#000000" stroke-opacity="1" stroke-width="1" stroke-linecap="square" stroke-linejoin="bevel" transform="matrix(1.00313,0,0,1.00313,0,0)"
font-family="Ubuntu" font-size="11" font-weight="400" font-style="normal" 
>
</g>

<g fill="none" stroke="#000000" stroke-opacity="1" stroke-width="1" stroke-linecap="round" stroke-linejoin="round" transform="matrix(1.00313,0,0,1.00313,0,0)"
font-family="Ubuntu" font-size="11" font-weight="400" font-style="normal" 
>
<polyline fill="none" vector-effect="none" points="60.5,432.5 60.5,426.5 " />
<polyline fill="none" vector-effect="none" points="60.5,45.5 60.5,51.5 " />
</g>

<g fill="none" stroke="#000000" stroke-opacity="1" stroke-width="1" stroke-linecap="square" stroke-linejoin="bevel" transform="matrix(1.00313,0,0,1.00313,0,0)"
font-family="Ubuntu" font-size="11" font-weight="400" font-style="normal" 
>
</g>

<g fill="none" stroke="#000000" stroke-opacity="1" stroke-width="1" stroke-linecap="square" stroke-linejoin="bevel" transform="matrix(1.00313,0,0,1.00313,55.6734,452.911)"
font-family="Ubuntu" font-size="11" font-weight="400" font-style="normal" 
>
</g>

<g fill="none" stroke="#000000" stroke-opacity="1" stroke-width="1" stroke-linecap="square" stroke-linejoin="bevel" transform="matrix(1.00313,0,0,1.00313,55.6734,452.911)"
font-family="Ubuntu" font-size="11" font-weight="400" font-style="normal" 
>
</g>

<g fill="none" stroke="#000000" stroke-opacity="1" stroke-width="1" stroke-linecap="square" stroke-linejoin="bevel" transform="matrix(1.00313,0,0,1.00313,55.6734,452.911)"
font-family="Ubuntu" font-size="11" font-weight="400" font-style="normal" 
>
</g>

<g fill="none" stroke="#000000" stroke-opacity="1" stroke-width="1" stroke-linecap="square" stroke-linejoin="bevel" transform="matrix(1.00313,0,0,1.00313,55.6734,452.911)"
font-family="Ubuntu" font-size="11" font-weight="400" font-style="normal" 
>
</g>

<g fill="none" stroke="#000000" stroke-opacity="1" stroke-width="1" stroke-linecap="square" stroke-linejoin="bevel" transform="matrix(1.00313,0,0,1.00313,55.6734,452.911)"
font-family="Ubuntu" font-size="11" font-weight="400" font-style="normal" 
>
</g>

<g fill="none" stroke="#000000" stroke-opacity="1" stroke-width="1" stroke-linecap="square" stroke-linejoin="bevel" transform="matrix(1.00313,0,0,1.00313,55.6734,452.911)"
font-family="Sans" font-size="9" font-weight="400" font-style="normal" 
>
<text fill="#000000" fill-opacity="1" stroke="none" xml:space="preserve" x="0" y="0" font-family="Sans" font-size="9" font-weight="400" font-style="normal" 
 >-1</text>
</g>

<g fill="none" stroke="#000000" stroke-opacity="1" stroke-width="1" stroke-linecap="square" stroke-linejoin="bevel" transform="matrix(1.00313,0,0,1.00313,55.6734,452.911)"
font-family="Ubuntu" font-size="11" font-weight="400" font-style="normal" 
>
</g>

<g fill="none" stroke="#000000" stroke-opacity="1" stroke-width="1" stroke-linecap="square" stroke-linejoin="bevel" transform="matrix(1.00313,0,0,1.00313,0,0)"
font-family="Ubuntu" font-size="11" font-weight="400" font-style="normal" 
>
</g>

<g fill="none" stroke="#000000" stroke-opacity="1" stroke-width="1" stroke-linecap="round" stroke-linejoin="round" transform="matrix(1.00313,0,0,1.00313,0,0)"
font-family="Ubuntu" font-size="11" font-weight="400" font-style="normal" 
>
<polyline fill="none" vector-effect="none" points="200.5,432.5 200.5,426.5 " />
<polyline fill="none" vector-effect="none" points="200.5,45.5 200.5,51.5 " />
</g>

<g fill="none" stroke="#000000" stroke-opacity="1" stroke-width="1" stroke-linecap="square" stroke-linejoin="bevel" transform="matrix(1.00313,0,0,1.00313,0,0)"
font-family="Ubuntu" font-size="11" font-weight="400" font-style="normal" 
>
</g>

<g fill="none" stroke="#000000" stroke-opacity="1" stroke-width="1" stroke-linecap="square" stroke-linejoin="bevel" transform="matrix(1.00313,0,0,1.00313,189.089,452.911)"
font-family="Ubuntu" font-size="11" font-weight="400" font-style="normal" 
>
</g>

<g fill="none" stroke="#000000" stroke-opacity="1" stroke-width="1" stroke-linecap="square" stroke-linejoin="bevel" transform="matrix(1.00313,0,0,1.00313,189.089,452.911)"
font-family="Ubuntu" font-size="11" font-weight="400" font-style="normal" 
>
</g>

<g fill="none" stroke="#000000" stroke-opacity="1" stroke-width="1" stroke-linecap="square" stroke-linejoin="bevel" transform="matrix(1.00313,0,0,1.00313,189.089,452.911)"
font-family="Ubuntu" font-size="11" font-weight="400" font-style="normal" 
>
</g>

<g fill="none" stroke="#000000" stroke-opacity="1" stroke-width="1" stroke-linecap="square" stroke-linejoin="bevel" transform="matrix(1.00313,0,0,1.00313,189.089,452.911)"
font-family="Ubuntu" font-size="11" font-weight="400" font-style="normal" 
>
</g>

<g fill="none" stroke="#000000" stroke-opacity="1" stroke-width="1" stroke-linecap="square" stroke-linejoin="bevel" transform="matrix(1.00313,0,0,1.00313,189.089,452.911)"
font-family="Ubuntu" font-size="11" font-weight="400" font-style="normal" 
>
</g>

<g fill="none" stroke="#000000" stroke-opacity="1" stroke-width="1" stroke-linecap="square" stroke-linejoin="bevel" transform="matrix(1.00313,0,0,1.00313,189.089,452.911)"
font-family="Sans" font-size="9" font-weight="400" font-style="normal" 
>
<text fill="#000000" fill-opacity="1" stroke="none" xml:space="preserve" x="0" y="0" font-family="Sans" font-size="9" font-weight="400" font-style="normal" 
 >-0.5</text>
</g>

<g fill="none" stroke="#000000" stroke-opacity="1" stroke-width="1" stroke-linecap="square" stroke-linejoin="bevel" transform="matrix(1.00313,0,0,1.00313,189.089,452.911)"
font-family="Ubuntu" font-size="11" font-weight="400" font-style="normal" 
>
</g>

<g fill="none" stroke="#000000" stroke-opacity="1" stroke-width="1" stroke-linecap="square" stroke-linejoin="bevel" transform="matrix(1.00313,0,0,1.00313,0,0)"
font-family="Ubuntu" font-size="11" font-weight="400" font-style="normal" 
>
</g>

<g fill="none" stroke="#000000" stroke-opacity="1" stroke-width="1" stroke-linecap="round" stroke-linejoin="round" transform="matrix(1.00313,0,0,1.00313,0,0)"
font-family="Ubuntu" font-size="11" font-weight="400" font-style="normal" 
>
<polyline fill="none" vector-effect="none" points="339.5,432.5 339.5,426.5 " />
<polyline fill="none" vector-effect="none" points="339.5,45.5 339.5,51.5 " />
</g>

<g fill="none" stroke="#000000" stroke-opacity="1" stroke-width="1" stroke-linecap="square" stroke-linejoin="bevel" transform="matrix(1.00313,0,0,1.00313,0,0)"
font-family="Ubuntu" font-size="11" font-weight="400" font-style="normal" 
>
</g>

<g fill="none" stroke="#000000" stroke-opacity="1" stroke-width="1" stroke-linecap="square" stroke-linejoin="bevel" transform="matrix(1.00313,0,0,1.00313,335.545,452.911)"
font-family="Ubuntu" font-size="11" font-weight="400" font-style="normal" 
>
</g>

<g fill="none" stroke="#000000" stroke-opacity="1" stroke-width="1" stroke-linecap="square" stroke-linejoin="bevel" transform="matrix(1.00313,0,0,1.00313,335.545,452.911)"
font-family="Ubuntu" font-size="11" font-weight="400" font-style="normal" 
>
</g>

<g fill="none" stroke="#000000" stroke-opacity="1" stroke-width="1" stroke-linecap="square" stroke-linejoin="bevel" transform="matrix(1.00313,0,0,1.00313,335.545,452.911)"
font-family="Ubuntu" font-size="11" font-weight="400" font-style="normal" 
>
</g>

<g fill="none" stroke="#000000" stroke-opacity="1" stroke-width="1" stroke-linecap="square" stroke-linejoin="bevel" transform="matrix(1.00313,0,0,1.00313,335.545,452.911)"
font-family="Ubuntu" font-size="11" font-weight="400" font-style="normal" 
>
</g>

<g fill="none" stroke="#000000" stroke-opacity="1" stroke-width="1" stroke-linecap="square" stroke-linejoin="bevel" transform="matrix(1.00313,0,0,1.00313,335.545,452.911)"
font-family="Ubuntu" font-size="11" font-weight="400" font-style="normal" 
>
</g>

<g fill="none" stroke="#000000" stroke-opacity="1" stroke-width="1" stroke-linecap="square" stroke-linejoin="bevel" transform="matrix(1.00313,0,0,1.00313,335.545,452.911)"
font-family="Sans" font-size="9" font-weight="400" font-style="normal" 
>
<text fill="#000000" fill-opacity="1" stroke="none" xml:space="preserve" x="0" y="0" font-family="Sans" font-size="9" font-weight="400" font-style="normal" 
 > 0</text>
</g>

<g fill="none" stroke="#000000" stroke-opacity="1" stroke-width="1" stroke-linecap="square" stroke-linejoin="bevel" transform="matrix(1.00313,0,0,1.00313,335.545,452.911)"
font-family="Ubuntu" font-size="11" font-weight="400" font-style="normal" 
>
</g>

<g fill="none" stroke="#000000" stroke-opacity="1" stroke-width="1" stroke-linecap="square" stroke-linejoin="bevel" transform="matrix(1.00313,0,0,1.00313,0,0)"
font-family="Ubuntu" font-size="11" font-weight="400" font-style="normal" 
>
</g>

<g fill="none" stroke="#000000" stroke-opacity="1" stroke-width="1" stroke-linecap="round" stroke-linejoin="round" transform="matrix(1.00313,0,0,1.00313,0,0)"
font-family="Ubuntu" font-size="11" font-weight="400" font-style="normal" 
>
<polyline fill="none" vector-effect="none" points="479.5,432.5 479.5,426.5 " />
<polyline fill="none" vector-effect="none" points="479.5,45.5 479.5,51.5 " />
</g>

<g fill="none" stroke="#000000" stroke-opacity="1" stroke-width="1" stroke-linecap="square" stroke-linejoin="bevel" transform="matrix(1.00313,0,0,1.00313,0,0)"
font-family="Ubuntu" font-size="11" font-weight="400" font-style="normal" 
>
</g>

<g fill="none" stroke="#000000" stroke-opacity="1" stroke-width="1" stroke-linecap="square" stroke-linejoin="bevel" transform="matrix(1.00313,0,0,1.00313,468.961,452.911)"
font-family="Ubuntu" font-size="11" font-weight="400" font-style="normal" 
>
</g>

<g fill="none" stroke="#000000" stroke-opacity="1" stroke-width="1" stroke-linecap="square" stroke-linejoin="bevel" transform="matrix(1.00313,0,0,1.00313,468.961,452.911)"
font-family="Ubuntu" font-size="11" font-weight="400" font-style="normal" 
>
</g>

<g fill="none" stroke="#000000" stroke-opacity="1" stroke-width="1" stroke-linecap="square" stroke-linejoin="bevel" transform="matrix(1.00313,0,0,1.00313,468.961,452.911)"
font-family="Ubuntu" font-size="11" font-weight="400" font-style="normal" 
>
</g>

<g fill="none" stroke="#000000" stroke-opacity="1" stroke-width="1" stroke-linecap="square" stroke-linejoin="bevel" transform="matrix(1.00313,0,0,1.00313,468.961,452.911)"
font-family="Ubuntu" font-size="11" font-weight="400" font-style="normal" 
>
</g>

<g fill="none" stroke="#000000" stroke-opacity="1" stroke-width="1" stroke-linecap="square" stroke-linejoin="bevel" transform="matrix(1.00313,0,0,1.00313,468.961,452.911)"
font-family="Ubuntu" font-size="11" font-weight="400" font-style="normal" 
>
</g>

<g fill="none" stroke="#000000" stroke-opacity="1" stroke-width="1" stroke-linecap="square" stroke-linejoin="bevel" transform="matrix(1.00313,0,0,1.00313,468.961,452.911)"
font-family="Sans" font-size="9" font-weight="400" font-style="normal" 
>
<text fill="#000000" fill-opacity="1" stroke="none" xml:space="preserve" x="0" y="0" font-family="Sans" font-size="9" font-weight="400" font-style="normal" 
 > 0.5</text>
</g>

<g fill="none" stroke="#000000" stroke-opacity="1" stroke-width="1" stroke-linecap="square" stroke-linejoin="bevel" transform="matrix(1.00313,0,0,1.00313,468.961,452.911)"
font-family="Ubuntu" font-size="11" font-weight="400" font-style="normal" 
>
</g>

<g fill="none" stroke="#000000" stroke-opacity="1" stroke-width="1" stroke-linecap="square" stroke-linejoin="bevel" transform="matrix(1.00313,0,0,1.00313,0,0)"
font-family="Ubuntu" font-size="11" font-weight="400" font-style="normal" 
>
</g>

<g fill="none" stroke="#000000" stroke-opacity="1" stroke-width="1" stroke-linecap="round" stroke-linejoin="round" transform="matrix(1.00313,0,0,1.00313,0,0)"
font-family="Ubuntu" font-size="11" font-weight="400" font-style="normal" 
>
<polyline fill="none" vector-effect="none" points="618.5,432.5 618.5,426.5 " />
<polyline fill="none" vector-effect="none" points="618.5,45.5 618.5,51.5 " />
</g>

<g fill="none" stroke="#000000" stroke-opacity="1" stroke-width="1" stroke-linecap="square" stroke-linejoin="bevel" transform="matrix(1.00313,0,0,1.00313,0,0)"
font-family="Ubuntu" font-size="11" font-weight="400" font-style="normal" 
>
</g>

<g fill="none" stroke="#000000" stroke-opacity="1" stroke-width="1" stroke-linecap="square" stroke-linejoin="bevel" transform="matrix(1.00313,0,0,1.00313,615.417,452.911)"
font-family="Ubuntu" font-size="11" font-weight="400" font-style="normal" 
>
</g>

<g fill="none" stroke="#000000" stroke-opacity="1" stroke-width="1" stroke-linecap="square" stroke-linejoin="bevel" transform="matrix(1.00313,0,0,1.00313,615.417,452.911)"
font-family="Ubuntu" font-size="11" font-weight="400" font-style="normal" 
>
</g>

<g fill="none" stroke="#000000" stroke-opacity="1" stroke-width="1" stroke-linecap="square" stroke-linejoin="bevel" transform="matrix(1.00313,0,0,1.00313,615.417,452.911)"
font-family="Ubuntu" font-size="11" font-weight="400" font-style="normal" 
>
</g>

<g fill="none" stroke="#000000" stroke-opacity="1" stroke-width="1" stroke-linecap="square" stroke-linejoin="bevel" transform="matrix(1.00313,0,0,1.00313,615.417,452.911)"
font-family="Ubuntu" font-size="11" font-weight="400" font-style="normal" 
>
</g>

<g fill="none" stroke="#000000" stroke-opacity="1" stroke-width="1" stroke-linecap="square" stroke-linejoin="bevel" transform="matrix(1.00313,0,0,1.00313,615.417,452.911)"
font-family="Ubuntu" font-size="11" font-weight="400" font-style="normal" 
>
</g>

<g fill="none" stroke="#000000" stroke-opacity="1" stroke-width="1" stroke-linecap="square" stroke-linejoin="bevel" transform="matrix(1.00313,0,0,1.00313,615.417,452.911)"
font-family="Sans" font-size="9" font-weight="400" font-style="normal" 
>
<text fill="#000000" fill-opacity="1" stroke="none" xml:space="preserve" x="0" y="0" font-family="Sans" font-size="9" font-weight="400" font-style="normal" 
 > 1</text>
</g>

<g fill="none" stroke="#000000" stroke-opacity="1" stroke-width="1" stroke-linecap="square" stroke-linejoin="bevel" transform="matrix(1.00313,0,0,1.00313,615.417,452.911)"
font-family="Ubuntu" font-size="11" font-weight="400" font-style="normal" 
>
</g>

<g fill="none" stroke="#000000" stroke-opacity="1" stroke-width="1" stroke-linecap="square" stroke-linejoin="bevel" transform="matrix(1.00313,0,0,1.00313,0,0)"
font-family="Ubuntu" font-size="11" font-weight="400" font-style="normal" 
>
</g>

<g fill="none" stroke="#000000" stroke-opacity="1" stroke-width="1" stroke-linecap="round" stroke-linejoin="round" transform="matrix(1.00313,0,0,1.00313,0,0)"
font-family="Ubuntu" font-size="11" font-weight="400" font-style="normal" 
>
<polyline fill="none" vector-effect="none" points="60.5,45.5 60.5,432.5 618.5,432.5 618.5,45.5 60.5,45.5 " />
</g>

<g fill="none" stroke="#000000" stroke-opacity="1" stroke-width="1" stroke-linecap="square" stroke-linejoin="bevel" transform="matrix(1.00313,0,0,1.00313,0,0)"
font-family="Ubuntu" font-size="11" font-weight="400" font-style="normal" 
>
</g>

<g fill="none" stroke="#000000" stroke-opacity="1" stroke-width="1" stroke-linecap="square" stroke-linejoin="bevel" transform="matrix(0,-1.00313,1.00313,0,15.5484,242.255)"
font-family="Ubuntu" font-size="11" font-weight="400" font-style="normal" 
>
</g>

<g fill="none" stroke="#000000" stroke-opacity="1" stroke-width="1" stroke-linecap="square" stroke-linejoin="bevel" transform="matrix(0,-1.00313,1.00313,0,15.5484,242.255)"
font-family="Ubuntu" font-size="11" font-weight="400" font-style="normal" 
>
</g>

<g fill="none" stroke="#000000" stroke-opacity="1" stroke-width="1" stroke-linecap="square" stroke-linejoin="bevel" transform="matrix(0,-1.00313,1.00313,0,15.5484,242.255)"
font-family="Ubuntu" font-size="11" font-weight="400" font-style="normal" 
>
</g>

<g fill="none" stroke="#000000" stroke-opacity="1" stroke-width="1" stroke-linecap="square" stroke-linejoin="bevel" transform="matrix(0,-1.00313,1.00313,0,15.5484,242.255)"
font-family="Ubuntu" font-size="11" font-weight="400" font-style="normal" 
>
</g>

<g fill="none" stroke="#000000" stroke-opacity="1" stroke-width="1" stroke-linecap="square" stroke-linejoin="bevel" transform="matrix(0,-1.00313,1.00313,0,15.5484,242.255)"
font-family="Ubuntu" font-size="11" font-weight="400" font-style="normal" 
>
</g>

<g fill="none" stroke="#000000" stroke-opacity="1" stroke-width="1" stroke-linecap="square" stroke-linejoin="bevel" transform="matrix(0,-1.00313,1.00313,0,15.5484,242.255)"
font-family="Sans" font-size="9" font-weight="400" font-style="normal" 
>
<text fill="#000000" fill-opacity="1" stroke="none" xml:space="preserve" x="0" y="0" font-family="Sans" font-size="9" font-weight="400" font-style="normal" 
 >t</text>
</g>

<g fill="none" stroke="#000000" stroke-opacity="1" stroke-width="1" stroke-linecap="square" stroke-linejoin="bevel" transform="matrix(0,-1.00313,1.00313,0,15.5484,242.255)"
font-family="Ubuntu" font-size="11" font-weight="400" font-style="normal" 
>
</g>

<g fill="none" stroke="#000000" stroke-opacity="1" stroke-width="1" stroke-linecap="square" stroke-linejoin="bevel" transform="matrix(1.00313,0,0,1.00313,338.053,475.983)"
font-family="Ubuntu" font-size="11" font-weight="400" font-style="normal" 
>
</g>

<g fill="none" stroke="#000000" stroke-opacity="1" stroke-width="1" stroke-linecap="square" stroke-linejoin="bevel" transform="matrix(1.00313,0,0,1.00313,338.053,475.983)"
font-family="Ubuntu" font-size="11" font-weight="400" font-style="normal" 
>
</g>

<g fill="none" stroke="#000000" stroke-opacity="1" stroke-width="1" stroke-linecap="square" stroke-linejoin="bevel" transform="matrix(1.00313,0,0,1.00313,338.053,475.983)"
font-family="Ubuntu" font-size="11" font-weight="400" font-style="normal" 
>
</g>

<g fill="none" stroke="#000000" stroke-opacity="1" stroke-width="1" stroke-linecap="square" stroke-linejoin="bevel" transform="matrix(1.00313,0,0,1.00313,338.053,475.983)"
font-family="Ubuntu" font-size="11" font-weight="400" font-style="normal" 
>
</g>

<g fill="none" stroke="#000000" stroke-opacity="1" stroke-width="1" stroke-linecap="square" stroke-linejoin="bevel" transform="matrix(1.00313,0,0,1.00313,338.053,475.983)"
font-family="Ubuntu" font-size="11" font-weight="400" font-style="normal" 
>
</g>

<g fill="none" stroke="#000000" stroke-opacity="1" stroke-width="1" stroke-linecap="square" stroke-linejoin="bevel" transform="matrix(1.00313,0,0,1.00313,338.053,475.983)"
font-family="Sans" font-size="9" font-weight="400" font-style="normal" 
>
<text fill="#000000" fill-opacity="1" stroke="none" xml:space="preserve" x="0" y="0" font-family="Sans" font-size="9" font-weight="400" font-style="normal" 
 >z</text>
</g>

<g fill="none" stroke="#000000" stroke-opacity="1" stroke-width="1" stroke-linecap="square" stroke-linejoin="bevel" transform="matrix(1.00313,0,0,1.00313,338.053,475.983)"
font-family="Ubuntu" font-size="11" font-weight="400" font-style="normal" 
>
</g>

<g fill="none" stroke="#000000" stroke-opacity="1" stroke-width="1" stroke-linecap="square" stroke-linejoin="bevel" transform="matrix(1.00313,0,0,1.00313,319.495,27.5859)"
font-family="Ubuntu" font-size="11" font-weight="400" font-style="normal" 
>
</g>

<g fill="none" stroke="#000000" stroke-opacity="1" stroke-width="1" stroke-linecap="square" stroke-linejoin="bevel" transform="matrix(1.00313,0,0,1.00313,319.495,27.5859)"
font-family="Ubuntu" font-size="11" font-weight="400" font-style="normal" 
>
</g>

<g fill="none" stroke="#000000" stroke-opacity="1" stroke-width="1" stroke-linecap="square" stroke-linejoin="bevel" transform="matrix(1.00313,0,0,1.00313,319.495,27.5859)"
font-family="Ubuntu" font-size="11" font-weight="400" font-style="normal" 
>
</g>

<g fill="none" stroke="#000000" stroke-opacity="1" stroke-width="1" stroke-linecap="square" stroke-linejoin="bevel" transform="matrix(1.00313,0,0,1.00313,319.495,27.5859)"
font-family="Ubuntu" font-size="11" font-weight="400" font-style="normal" 
>
</g>

<g fill="none" stroke="#000000" stroke-opacity="1" stroke-width="1" stroke-linecap="square" stroke-linejoin="bevel" transform="matrix(1.00313,0,0,1.00313,319.495,27.5859)"
font-family="Ubuntu" font-size="11" font-weight="400" font-style="normal" 
>
</g>

<g fill="none" stroke="#000000" stroke-opacity="1" stroke-width="1" stroke-linecap="square" stroke-linejoin="bevel" transform="matrix(1.00313,0,0,1.00313,319.495,27.5859)"
font-family="Sans" font-size="9" font-weight="400" font-style="normal" 
>
<text fill="#000000" fill-opacity="1" stroke="none" xml:space="preserve" x="0" y="0" font-family="Sans" font-size="9" font-weight="400" font-style="normal" 
 >4</text>
<text fill="#000000" fill-opacity="1" stroke="none" xml:space="preserve" x="5.71875" y="0" font-family="Sans" font-size="9" font-weight="400" font-style="normal" 
 >d</text>
<text fill="#000000" fill-opacity="1" stroke="none" xml:space="preserve" x="11.4219" y="0" font-family="Sans" font-size="9" font-weight="400" font-style="normal" 
 > </text>
<text fill="#000000" fill-opacity="1" stroke="none" xml:space="preserve" x="14.2812" y="0" font-family="Sans" font-size="9" font-weight="400" font-style="normal" 
 >loop</text>
</g>

<g fill="none" stroke="#000000" stroke-opacity="1" stroke-width="1" stroke-linecap="square" stroke-linejoin="bevel" transform="matrix(1.00313,0,0,1.00313,319.495,27.5859)"
font-family="Ubuntu" font-size="11" font-weight="400" font-style="normal" 
>
</g>

<g fill="none" stroke="#000000" stroke-opacity="1" stroke-width="1" stroke-linecap="square" stroke-linejoin="bevel" transform="matrix(1.00313,0,0,1.00313,0,0)"
font-family="Ubuntu" font-size="11" font-weight="400" font-style="normal" 
>
</g>

<g fill="none" stroke="#000000" stroke-opacity="1" stroke-width="1" stroke-linecap="square" stroke-linejoin="bevel" transform="matrix(1.00313,0,0,1.00313,0,0)"
font-family="Ubuntu" font-size="11" font-weight="400" font-style="normal" 
>
</g>

<g fill="none" stroke="#000000" stroke-opacity="1" stroke-width="1" stroke-linecap="square" stroke-linejoin="bevel" transform="matrix(1.00313,0,0,1.00313,0,0)"
font-family="Ubuntu" font-size="11" font-weight="400" font-style="normal" 
>
</g>

<g fill="none" stroke="#9400d3" stroke-opacity="1" stroke-width="1" stroke-linecap="round" stroke-linejoin="round" transform="matrix(1.00313,0,0,1.00313,0,0)"
font-family="Ubuntu" font-size="11" font-weight="400" font-style="normal" 
>
<polyline fill="none" vector-effect="none" points="340.1,428.5 340.1,428.5 340.5,428.3 340.9,428 341.3,427.7 341.6,427.4 342,427.1 342.4,426.9 342.8,426.6 343.1,426.3 343.5,426 343.9,425.7 344.2,425.5 344.6,425.2 345,424.9 345.3,424.6 345.7,424.3 346,424 346.4,423.7 346.7,423.4 347.1,423.1 347.4,422.8 347.8,422.5 348.1,422.2 348.5,421.9 348.8,421.6 349.1,421.3 349.4,421 349.8,420.7 350.1,420.4 350.4,420.1 350.7,419.8 351,419.5 351.4,419.1 351.7,418.8 352,418.5 352.3,418.2 352.6,417.9 352.9,417.5 353.1,417.2 353.4,416.9 353.7,416.6 354,416.2 354.3,415.9 354.5,415.6 354.8,415.2 355.1,414.9 355.3,414.6 355.6,414.2 355.8,413.9 356.1,413.6 356.3,413.2 356.6,412.9 356.8,412.5 357.1,412.2 357.3,411.8 357.5,411.5 357.7,411.1 358,410.8 358.2,410.4 358.4,410.1 358.6,409.7 358.8,409.4 359,409 359.2,408.7 359.4,408.3 359.6,407.9 359.8,407.6 360,407.2 360.2,406.9 360.3,406.5 360.5,406.1 360.7,405.8 360.9,405.4 361,405.1 361.2,404.7 361.3,404.3 361.5,404 361.7,403.6 361.8,403.2 362,402.9 362.1,402.5 362.3,402.1 362.4,401.7 362.5,401.4 362.7,401 362.8,400.6 362.9,400.3 363.1,399.9 363.2,399.5 363.3,399.2 363.5,398.8 363.6,398.4 363.7,398 363.8,397.7 363.9,397.3 364.1,396.9 364.2,396.5 364.3,396.2 364.4,395.8 364.5,395.4 364.6,395 364.7,394.7 364.8,394.3 364.9,393.9 365,393.5 365.1,393.2 365.2,392.8 365.3,392.4 365.4,392 365.5,391.7 365.6,391.3 365.7,390.9 365.8,390.5 365.9,390.1 366,389.8 366,389.4 366.1,389 366.2,388.6 366.3,388.3 366.4,387.9 366.5,387.5 366.6,387.1 366.6,386.7 366.7,386.4 366.8,386 366.9,385.6 367,385.2 367,384.8 367.1,384.5 367.2,384.1 367.3,383.7 367.4,383.3 367.4,383 367.5,382.6 367.6,382.2 367.7,381.8 367.7,381.4 367.8,381.1 367.9,380.7 368,380.3 368,379.9 368.1,379.5 368.2,379.2 368.2,378.8 368.3,378.4 368.4,378 368.5,377.6 368.5,377.3 368.6,376.9 368.7,376.5 368.7,376.1 368.8,375.7 368.9,375.4 369,375 369,374.6 369.1,374.2 369.2,373.9 369.2,373.5 369.3,373.1 369.4,372.7 369.5,372.3 369.5,372 369.6,371.6 369.7,371.2 369.7,370.8 369.8,370.4 369.9,370.1 369.9,369.7 370,369.3 370.1,368.9 370.1,368.5 370.2,368.2 370.3,367.8 370.4,367.4 370.4,367 370.5,366.6 370.6,366.3 370.6,365.9 370.7,365.5 370.8,365.1 370.8,364.7 370.9,364.4 371,364 371,363.6 371.1,363.2 371.2,362.8 371.3,362.5 371.3,362.1 371.4,361.7 371.5,361.3 371.5,360.9 371.6,360.6 371.7,360.2 371.7,359.8 371.8,359.4 371.9,359 372,358.7 372,358.3 372.1,357.9 372.2,357.5 372.2,357.2 372.3,356.8 372.4,356.4 372.5,356 372.5,355.6 372.6,355.3 372.7,354.9 372.7,354.5 372.8,354.1 372.9,353.7 373,353.4 373,353 373.1,352.6 373.2,352.2 373.2,351.8 373.3,351.5 373.4,351.1 373.5,350.7 373.5,350.3 373.6,349.9 373.7,349.6 373.7,349.2 373.8,348.8 373.9,348.4 374,348 374,347.7 374.1,347.3 374.2,346.9 374.2,346.5 374.3,346.1 374.4,345.8 374.5,345.4 374.5,345 374.6,344.6 374.7,344.3 374.8,343.9 374.8,343.5 374.9,343.1 375,342.7 375.1,342.4 375.1,342 375.2,341.6 375.3,341.2 375.3,340.8 375.4,340.5 375.5,340.1 375.6,339.7 375.6,339.3 375.7,338.9 375.8,338.6 375.9,338.2 375.9,337.8 376,337.4 376.1,337 376.1,336.7 376.2,336.3 376.3,335.9 376.4,335.5 376.4,335.2 376.5,334.8 376.6,334.4 376.7,334 376.7,333.6 376.8,333.3 376.9,332.9 377,332.5 377,332.1 377.1,331.7 377.2,331.4 377.2,331 377.3,330.6 377.4,330.2 377.5,329.8 377.5,329.5 377.6,329.1 377.7,328.7 377.8,328.3 377.8,327.9 377.9,327.6 378,327.2 378,326.8 378.1,326.4 378.2,326 378.3,325.7 378.3,325.3 378.4,324.9 378.5,324.5 378.5,324.2 378.6,323.8 378.7,323.4 378.8,323 378.8,322.6 378.9,322.3 379,321.9 379,321.5 379.1,321.1 379.2,320.7 379.3,320.4 379.3,320 379.4,319.6 379.5,319.2 379.5,318.8 379.6,318.5 379.7,318.1 379.7,317.7 379.8,317.3 379.9,316.9 380,316.6 380,316.2 380.1,315.8 380.2,315.4 380.2,315 380.3,314.7 380.4,314.3 380.4,313.9 380.5,313.5 380.6,313.1 380.6,312.8 380.7,312.4 380.8,312 380.8,311.6 380.9,311.2 381,310.9 381,310.5 381.1,310.1 381.2,309.7 381.2,309.3 381.3,309 381.4,308.6 381.4,308.2 381.5,307.8 381.6,307.4 381.6,307.1 381.7,306.7 381.7,306.3 381.8,305.9 381.9,305.5 381.9,305.2 382,304.8 382.1,304.4 382.1,304 382.2,303.6 382.2,303.3 382.3,302.9 382.4,302.5 382.4,302.1 382.5,301.7 382.5,301.4 382.6,301 382.7,300.6 382.7,300.2 382.8,299.8 382.8,299.5 382.9,299.1 383,298.7 383,298.3 383.1,297.9 383.1,297.6 383.2,297.2 383.3,296.8 383.3,296.4 383.4,296 383.4,295.7 383.5,295.3 383.5,294.9 383.6,294.5 383.7,294.1 383.7,293.8 383.8,293.4 383.8,293 383.9,292.6 383.9,292.2 384,291.8 384,291.5 384.1,291.1 384.1,290.7 384.2,290.3 384.2,289.9 384.3,289.6 384.3,289.2 384.4,288.8 384.4,288.4 384.5,288 384.5,287.7 384.6,287.3 384.6,286.9 384.7,286.5 384.7,286.1 384.8,285.8 384.8,285.4 384.9,285 384.9,284.6 385,284.2 385,283.8 385.1,283.5 385.1,283.1 385.2,282.7 385.2,282.3 385.3,281.9 385.3,281.6 385.3,281.2 385.4,280.8 385.4,280.4 385.5,280 385.5,279.7 385.6,279.3 385.6,278.9 385.6,278.5 385.7,278.1 385.7,277.7 385.8,277.4 385.8,277 385.9,276.6 385.9,276.2 385.9,275.8 386,275.5 386,275.1 386,274.7 386.1,274.3 386.1,273.9 386.2,273.5 386.2,273.2 386.2,272.8 386.3,272.4 386.3,272 386.3,271.6 386.4,271.3 386.4,270.9 386.4,270.5 386.5,270.1 386.5,269.7 386.5,269.3 386.6,269 386.6,268.6 386.6,268.2 386.7,267.8 386.7,267.4 386.7,267.1 386.8,266.7 386.8,266.3 386.8,265.9 386.8,265.5 386.9,265.1 386.9,264.8 386.9,264.4 387,264 387,263.6 387,263.2 387,262.9 387.1,262.5 387.1,262.1 387.1,261.7 387.1,261.3 387.2,260.9 387.2,260.6 387.2,260.2 387.2,259.8 387.3,259.4 387.3,259 387.3,258.6 387.3,258.3 387.3,257.9 387.4,257.5 387.4,257.1 387.4,256.7 387.4,256.4 387.4,256 387.5,255.6 387.5,255.2 387.5,254.8 387.5,254.4 387.5,254.1 387.5,253.7 387.6,253.3 387.6,252.9 387.6,252.5 387.6,252.1 387.6,251.8 387.6,251.4 387.6,251 387.7,250.6 387.7,250.2 387.7,249.9 387.7,249.5 387.7,249.1 387.7,248.7 387.7,248.3 387.7,247.9 387.7,247.6 387.8,247.2 387.8,246.8 387.8,246.4 387.8,246 387.8,245.6 387.8,245.3 387.8,244.9 387.8,244.5 387.8,244.1 387.8,243.7 387.8,243.4 387.8,243 387.8,242.6 387.8,242.2 387.8,241.8 387.8,241.4 387.8,241.1 387.8,240.7 387.8,240.3 387.8,239.9 387.8,239.5 387.8,239.1 387.8,238.8 387.8,238.4 387.8,238 387.8,237.6 387.8,237.2 387.8,236.8 387.8,236.5 387.8,236.1 387.8,235.7 387.8,235.3 387.8,234.9 387.8,234.6 387.8,234.2 387.8,233.8 387.8,233.4 387.8,233 387.8,232.6 387.8,232.3 387.8,231.9 387.8,231.5 387.8,231.1 387.7,230.7 387.7,230.3 387.7,230 387.7,229.6 387.7,229.2 387.7,228.8 387.7,228.4 387.7,228 387.7,227.7 387.6,227.3 387.6,226.9 387.6,226.5 387.6,226.1 387.6,225.8 387.6,225.4 387.6,225 387.5,224.6 387.5,224.2 387.5,223.8 387.5,223.5 387.5,223.1 387.4,222.7 387.4,222.3 387.4,221.9 387.4,221.5 387.4,221.2 387.4,220.8 387.3,220.4 387.3,220 387.3,219.6 387.3,219.3 387.2,218.9 387.2,218.5 387.2,218.1 387.2,217.7 387.2,217.3 387.1,217 387.1,216.6 387.1,216.2 387.1,215.8 387,215.4 387,215 387,214.7 386.9,214.3 386.9,213.9 386.9,213.5 386.9,213.1 386.8,212.8 386.8,212.4 386.8,212 386.7,211.6 386.7,211.2 386.7,210.8 386.6,210.5 386.6,210.1 386.6,209.7 386.6,209.3 386.5,208.9 386.5,208.6 386.5,208.2 386.4,207.8 386.4,207.4 386.4,207 386.3,206.6 386.3,206.3 386.2,205.9 386.2,205.5 386.2,205.1 386.1,204.7 386.1,204.4 386.1,204 386,203.6 386,203.2 385.9,202.8 385.9,202.4 385.9,202.1 385.8,201.7 385.8,201.3 385.7,200.9 385.7,200.5 385.7,200.2 385.6,199.8 385.6,199.4 385.5,199 385.5,198.6 385.4,198.3 385.4,197.9 385.4,197.5 385.3,197.1 385.3,196.7 385.2,196.3 385.2,196 385.1,195.6 385.1,195.2 385,194.8 385,194.4 384.9,194.1 384.9,193.7 384.9,193.3 384.8,192.9 384.8,192.5 384.7,192.2 384.7,191.8 384.6,191.4 384.6,191 384.5,190.6 384.5,190.2 384.4,189.9 384.4,189.5 384.3,189.1 384.3,188.7 384.2,188.3 384.1,188 384.1,187.6 384,187.2 384,186.8 383.9,186.4 383.9,186.1 383.8,185.7 383.8,185.3 383.7,184.9 383.7,184.5 383.6,184.2 383.5,183.8 383.5,183.4 383.4,183 383.4,182.6 383.3,182.3 383.3,181.9 383.2,181.5 383.1,181.1 383.1,180.7 383,180.3 383,180 382.9,179.6 382.9,179.2 382.8,178.8 382.7,178.4 382.7,178.1 382.6,177.7 382.5,177.3 382.5,176.9 382.4,176.5 382.4,176.2 382.3,175.8 382.2,175.4 382.2,175 382.1,174.6 382.1,174.3 382,173.9 381.9,173.5 381.9,173.1 381.8,172.7 381.7,172.4 381.7,172 381.6,171.6 381.5,171.2 381.5,170.8 381.4,170.5 381.3,170.1 381.3,169.7 381.2,169.3 381.1,168.9 381.1,168.6 381,168.2 380.9,167.8 380.9,167.4 380.8,167 380.7,166.7 380.7,166.3 380.6,165.9 380.5,165.5 380.5,165.1 380.4,164.8 380.3,164.4 380.3,164 380.2,163.6 380.1,163.3 380.1,162.9 380,162.5 379.9,162.1 379.9,161.7 379.8,161.4 379.7,161 379.6,160.6 379.6,160.2 379.5,159.8 379.4,159.5 379.4,159.1 379.3,158.7 379.2,158.3 379.1,157.9 379.1,157.6 379,157.2 378.9,156.8 378.9,156.4 378.8,156 378.7,155.7 378.6,155.3 378.6,154.9 378.5,154.5 378.4,154.1 378.4,153.8 378.3,153.4 378.2,153 378.1,152.6 378.1,152.2 378,151.9 377.9,151.5 377.8,151.1 377.8,150.7 377.7,150.4 377.6,150 377.5,149.6 377.5,149.2 377.4,148.8 377.3,148.5 377.3,148.1 377.2,147.7 377.1,147.3 377,146.9 377,146.6 376.9,146.2 376.8,145.8 376.7,145.4 376.7,145 376.6,144.7 376.5,144.3 376.4,143.9 376.4,143.5 376.3,143.2 376.2,142.8 376.1,142.4 376.1,142 376,141.6 375.9,141.3 375.8,140.9 375.8,140.5 375.7,140.1 375.6,139.7 375.5,139.4 375.5,139 375.4,138.6 375.3,138.2 375.2,137.8 375.2,137.5 375.1,137.1 375,136.7 374.9,136.3 374.9,135.9 374.8,135.6 374.7,135.2 374.6,134.8 374.6,134.4 374.5,134.1 374.4,133.7 374.3,133.3 374.3,132.9 374.2,132.5 374.1,132.2 374,131.8 374,131.4 373.9,131 373.8,130.6 373.7,130.3 373.7,129.9 373.6,129.5 373.5,129.1 373.4,128.7 373.4,128.4 373.3,128 373.2,127.6 373.2,127.2 373.1,126.9 373,126.5 372.9,126.1 372.9,125.7 372.8,125.3 372.7,125 372.6,124.6 372.6,124.2 372.5,123.8 372.4,123.4 372.3,123.1 372.3,122.7 372.2,122.3 372.1,121.9 372.1,121.5 372,121.2 371.9,120.8 371.8,120.4 371.8,120 371.7,119.6 371.6,119.3 371.5,118.9 371.5,118.5 371.4,118.1 371.3,117.8 371.3,117.4 371.2,117 371.1,116.6 371,116.2 371,115.9 370.9,115.5 370.8,115.1 370.8,114.7 370.7,114.3 370.6,114 370.5,113.6 370.5,113.2 370.4,112.8 370.3,112.4 370.3,112.1 370.2,111.7 370.1,111.3 370,110.9 370,110.5 369.9,110.2 369.8,109.8 369.8,109.4 369.7,109 369.6,108.6 369.6,108.3 369.5,107.9 369.4,107.5 369.3,107.1 369.3,106.8 369.2,106.4 369.1,106 369.1,105.6 369,105.2 368.9,104.9 368.8,104.5 368.8,104.1 368.7,103.7 368.6,103.3 368.6,103 368.5,102.6 368.4,102.2 368.3,101.8 368.3,101.4 368.2,101.1 368.1,100.7 368.1,100.3 368,99.9 367.9,99.5 367.8,99.2 367.8,98.8 367.7,98.4 367.6,98 367.5,97.6 367.5,97.3 367.4,96.9 367.3,96.5 367.2,96.1 367.2,95.8 367.1,95.4 367,95 366.9,94.6 366.9,94.2 366.8,93.9 366.7,93.5 366.6,93.1 366.5,92.7 366.5,92.3 366.4,92 366.3,91.6 366.2,91.2 366.1,90.8 366.1,90.5 366,90.1 365.9,89.7 365.8,89.3 365.7,88.9 365.6,88.6 365.5,88.2 365.5,87.8 365.4,87.4 365.3,87.1 365.2,86.7 365.1,86.3 365,85.9 364.9,85.5 364.8,85.2 364.7,84.8 364.6,84.4 364.5,84 364.4,83.7 364.3,83.3 364.2,82.9 364.1,82.5 364,82.2 363.9,81.8 363.8,81.4 363.7,81 363.6,80.7 363.5,80.3 363.3,79.9 363.2,79.5 363.1,79.2 363,78.8 362.9,78.4 362.7,78 362.6,77.7 362.5,77.3 362.3,76.9 362.2,76.6 362.1,76.2 361.9,75.8 361.8,75.4 361.7,75.1 361.5,74.7 361.4,74.3 361.2,74 361.1,73.6 360.9,73.2 360.7,72.9 360.6,72.5 360.4,72.1 360.3,71.8 360.1,71.4 359.9,71 359.7,70.7 359.6,70.3 359.4,69.9 359.2,69.6 359,69.2 358.8,68.9 358.6,68.5 358.4,68.2 358.2,67.8 358,67.4 357.8,67.1 357.6,66.7 357.4,66.4 357.1,66 356.9,65.7 356.7,65.3 356.5,65 356.2,64.6 356,64.3 355.7,63.9 355.5,63.6 355.3,63.3 355,62.9 354.7,62.6 354.5,62.2 354.2,61.9 353.9,61.6 353.7,61.2 353.4,60.9 353.1,60.6 352.8,60.2 352.5,59.9 352.3,59.6 352,59.3 351.7,58.9 351.4,58.6 351.1,58.3 350.8,58 350.4,57.7 350.1,57.3 349.8,57 349.5,56.7 349.2,56.4 348.8,56.1 348.5,55.8 348.2,55.5 347.8,55.2 347.5,54.9 347.1,54.6 346.8,54.3 346.5,54 346.1,53.7 345.8,53.4 345.4,53.1 345,52.8 344.7,52.5 344.3,52.2 343.9,51.9 343.6,51.6 343.2,51.4 342.8,51.1 342.5,50.8 342.1,50.5 341.7,50.2 341.3,50 341,49.7 340.6,49.4 340.2,49.1 339.8,48.8 339.4,48.6 339,48.8 338.7,49.1 338.3,49.4 337.9,49.7 337.5,49.9 337.2,50.2 336.8,50.5 336.4,50.8 336,51.1 335.7,51.4 335.3,51.6 335,51.9 334.6,52.2 334.2,52.5 333.9,52.8 333.5,53.1 333.2,53.4 332.8,53.7 332.5,54 332.1,54.3 331.8,54.6 331.4,54.8 331.1,55.1 330.8,55.5 330.4,55.8 330.1,56.1 329.8,56.4 329.5,56.7 329.1,57 328.8,57.3 328.5,57.6 328.2,57.9 327.9,58.2 327.6,58.6 327.3,58.9 327,59.2 326.7,59.5 326.4,59.8 326.1,60.2 325.8,60.5 325.5,60.8 325.3,61.2 325,61.5 324.7,61.8 324.5,62.2 324.2,62.5 323.9,62.8 323.7,63.2 323.4,63.5 323.2,63.8 323,64.2 322.7,64.5 322.5,64.9 322.3,65.2 322,65.6 321.8,65.9 321.6,66.3 321.4,66.6 321.1,67 320.9,67.3 320.7,67.7 320.5,68 320.3,68.4 320.1,68.7 319.9,69.1 319.7,69.5 319.6,69.8 319.4,70.2 319.2,70.5 319,70.9 318.8,71.3 318.7,71.6 318.5,72 318.3,72.3 318.2,72.7 318,73.1 317.9,73.4 317.7,73.8 317.6,74.2 317.4,74.5 317.3,74.9 317.1,75.3 317,75.6 316.8,76 316.7,76.4 316.6,76.8 316.4,77.1 316.3,77.5 316.2,77.9 316.1,78.2 315.9,78.6 315.8,79 315.7,79.4 315.6,79.7 315.5,80.1 315.3,80.5 315.2,80.8 315.1,81.2 315,81.6 314.9,82 314.8,82.3 314.7,82.7 314.6,83.1 314.5,83.5 314.4,83.8 314.3,84.2 314.2,84.6 314.1,85 314,85.4 313.9,85.7 313.8,86.1 313.7,86.5 313.6,86.9 313.5,87.2 313.5,87.6 313.4,88 313.3,88.4 313.2,88.7 313.1,89.1 313,89.5 312.9,89.9 312.9,90.3 312.8,90.6 312.7,91 312.6,91.4 312.5,91.8 312.5,92.1 312.4,92.5 312.3,92.9 312.2,93.3 312.1,93.7 312.1,94 312,94.4 311.9,94.8 311.8,95.2 311.8,95.5 311.7,95.9 311.6,96.3 311.5,96.7 311.5,97.1 311.4,97.4 311.3,97.8 311.3,98.2 311.2,98.6 311.1,99 311,99.3 311,99.7 310.9,100.1 310.8,100.5 310.8,100.8 310.7,101.2 310.6,101.6 310.5,102 310.5,102.4 310.4,102.7 310.3,103.1 310.3,103.5 310.2,103.9 310.1,104.3 310.1,104.6 310,105 309.9,105.4 309.8,105.8 309.8,106.1 309.7,106.5 309.6,106.9 309.6,107.3 309.5,107.7 309.4,108 309.4,108.4 309.3,108.8 309.2,109.2 309.1,109.6 309.1,109.9 309,110.3 308.9,110.7 308.9,111.1 308.8,111.5 308.7,111.8 308.7,112.2 308.6,112.6 308.5,113 308.5,113.3 308.4,113.7 308.3,114.1 308.2,114.5 308.2,114.9 308.1,115.2 308,115.6 308,116 307.9,116.4 307.8,116.8 307.8,117.1 307.7,117.5 307.6,117.9 307.5,118.3 307.5,118.7 307.4,119 307.3,119.4 307.3,119.8 307.2,120.2 307.1,120.5 307,120.9 307,121.3 306.9,121.7 306.8,122.1 306.8,122.4 306.7,122.8 306.6,123.2 306.5,123.6 306.5,124 306.4,124.3 306.3,124.7 306.3,125.1 306.2,125.5 306.1,125.8 306,126.2 306,126.6 305.9,127 305.8,127.4 305.8,127.7 305.7,128.1 305.6,128.5 305.5,128.9 305.5,129.3 305.4,129.6 305.3,130 305.2,130.4 305.2,130.8 305.1,131.1 305,131.5 305,131.9 304.9,132.3 304.8,132.7 304.7,133 304.7,133.4 304.6,133.8 304.5,134.2 304.4,134.6 304.4,134.9 304.3,135.3 304.2,135.7 304.2,136.1 304.1,136.4 304,136.8 303.9,137.2 303.9,137.6 303.8,138 303.7,138.3 303.6,138.7 303.6,139.1 303.5,139.5 303.4,139.9 303.3,140.2 303.3,140.6 303.2,141 303.1,141.4 303.1,141.7 303,142.1 302.9,142.5 302.8,142.9 302.8,143.3 302.7,143.6 302.6,144 302.5,144.4 302.5,144.8 302.4,145.2 302.3,145.5 302.3,145.9 302.2,146.3 302.1,146.7 302,147 302,147.4 301.9,147.8 301.8,148.2 301.7,148.6 301.7,148.9 301.6,149.3 301.5,149.7 301.5,150.1 301.4,150.5 301.3,150.8 301.2,151.2 301.2,151.6 301.1,152 301,152.3 300.9,152.7 300.9,153.1 300.8,153.5 300.7,153.9 300.7,154.2 300.6,154.6 300.5,155 300.5,155.4 300.4,155.8 300.3,156.1 300.2,156.5 300.2,156.9 300.1,157.3 300,157.7 300,158 299.9,158.4 299.8,158.8 299.8,159.2 299.7,159.5 299.6,159.9 299.5,160.3 299.5,160.7 299.4,161.1 299.3,161.4 299.3,161.8 299.2,162.2 299.1,162.6 299.1,163 299,163.3 298.9,163.7 298.9,164.1 298.8,164.5 298.7,164.9 298.7,165.2 298.6,165.6 298.5,166 298.5,166.4 298.4,166.7 298.3,167.1 298.3,167.5 298.2,167.9 298.1,168.3 298.1,168.6 298,169 297.9,169.4 297.9,169.8 297.8,170.2 297.7,170.5 297.7,170.9 297.6,171.3 297.6,171.7 297.5,172.1 297.4,172.4 297.4,172.8 297.3,173.2 297.2,173.6 297.2,174 297.1,174.3 297.1,174.7 297,175.1 296.9,175.5 296.9,175.9 296.8,176.2 296.8,176.6 296.7,177 296.6,177.4 296.6,177.7 296.5,178.1 296.5,178.5 296.4,178.9 296.3,179.3 296.3,179.6 296.2,180 296.2,180.4 296.1,180.8 296.1,181.2 296,181.5 295.9,181.9 295.9,182.3 295.8,182.7 295.8,183.1 295.7,183.4 295.7,183.8 295.6,184.2 295.6,184.6 295.5,185 295.4,185.3 295.4,185.7 295.3,186.1 295.3,186.5 295.2,186.9 295.2,187.2 295.1,187.6 295.1,188 295,188.4 295,188.8 294.9,189.1 294.9,189.5 294.8,189.9 294.8,190.3 294.7,190.7 294.7,191.1 294.6,191.4 294.6,191.8 294.5,192.2 294.5,192.6 294.4,193 294.4,193.3 294.4,193.7 294.3,194.1 294.3,194.5 294.2,194.9 294.2,195.2 294.1,195.6 294.1,196 294,196.4 294,196.8 294,197.1 293.9,197.5 293.9,197.9 293.8,198.3 293.8,198.7 293.7,199 293.7,199.4 293.7,199.8 293.6,200.2 293.6,200.6 293.5,200.9 293.5,201.3 293.5,201.7 293.4,202.1 293.4,202.5 293.3,202.9 293.3,203.2 293.3,203.6 293.2,204 293.2,204.4 293.2,204.8 293.1,205.1 293.1,205.5 293.1,205.9 293,206.3 293,206.7 293,207 292.9,207.4 292.9,207.8 292.9,208.2 292.8,208.6 292.8,209 292.8,209.3 292.7,209.7 292.7,210.1 292.7,210.5 292.6,210.9 292.6,211.2 292.6,211.6 292.6,212 292.5,212.4 292.5,212.8 292.5,213.1 292.4,213.5 292.4,213.9 292.4,214.3 292.4,214.7 292.3,215.1 292.3,215.4 292.3,215.8 292.3,216.2 292.2,216.6 292.2,217 292.2,217.3 292.2,217.7 292.2,218.1 292.1,218.5 292.1,218.9 292.1,219.3 292.1,219.6 292,220 292,220.4 292,220.8 292,221.2 292,221.5 292,221.9 291.9,222.3 291.9,222.7 291.9,223.1 291.9,223.4 291.9,223.8 291.9,224.2 291.8,224.6 291.8,225 291.8,225.4 291.8,225.7 291.8,226.1 291.8,226.5 291.8,226.9 291.7,227.3 291.7,227.6 291.7,228 291.7,228.4 291.7,228.8 291.7,229.2 291.7,229.6 291.7,229.9 291.7,230.3 291.7,230.7 291.7,231.1 291.6,231.5 291.6,231.8 291.6,232.2 291.6,232.6 291.6,233 291.6,233.4 291.6,233.8 291.6,234.1 291.6,234.5 291.6,234.9 291.6,235.3 291.6,235.7 291.6,236 291.6,236.4 291.6,236.8 291.6,237.2 291.6,237.6 291.6,238 291.6,238.3 291.6,238.7 291.6,239.1 291.6,239.5 291.6,239.9 291.6,240.2 291.6,240.6 291.6,241 291.6,241.4 291.6,241.8 291.6,242.2 291.6,242.5 291.6,242.9 291.6,243.3 291.6,243.7 291.6,244.1 291.6,244.5 291.7,244.8 291.7,245.2 291.7,245.6 291.7,246 291.7,246.4 291.7,246.7 291.7,247.1 291.7,247.5 291.7,247.9 291.7,248.3 291.8,248.7 291.8,249 291.8,249.4 291.8,249.8 291.8,250.2 291.8,250.6 291.8,250.9 291.8,251.3 291.9,251.7 291.9,252.1 291.9,252.5 291.9,252.9 291.9,253.2 291.9,253.6 292,254 292,254.4 292,254.8 292,255.1 292,255.5 292.1,255.9 292.1,256.3 292.1,256.7 292.1,257 292.1,257.4 292.2,257.8 292.2,258.2 292.2,258.6 292.2,259 292.3,259.3 292.3,259.7 292.3,260.1 292.3,260.5 292.4,260.9 292.4,261.2 292.4,261.6 292.4,262 292.5,262.4 292.5,262.8 292.5,263.2 292.5,263.5 292.6,263.9 292.6,264.3 292.6,264.7 292.7,265.1 292.7,265.4 292.7,265.8 292.7,266.2 292.8,266.6 292.8,267 292.8,267.3 292.9,267.7 292.9,268.1 292.9,268.5 293,268.9 293,269.3 293,269.6 293.1,270 293.1,270.4 293.1,270.8 293.2,271.2 293.2,271.5 293.3,271.9 293.3,272.3 293.3,272.7 293.4,273.1 293.4,273.4 293.4,273.8 293.5,274.2 293.5,274.6 293.6,275 293.6,275.3 293.6,275.7 293.7,276.1 293.7,276.5 293.8,276.9 293.8,277.3 293.9,277.6 293.9,278 293.9,278.4 294,278.8 294,279.2 294.1,279.5 294.1,279.9 294.2,280.3 294.2,280.7 294.2,281.1 294.3,281.4 294.3,281.8 294.4,282.2 294.4,282.6 294.5,283 294.5,283.3 294.6,283.7 294.6,284.1 294.7,284.5 294.7,284.9 294.8,285.2 294.8,285.6 294.9,286 294.9,286.4 295,286.8 295,287.1 295.1,287.5 295.1,287.9 295.2,288.3 295.2,288.7 295.3,289 295.3,289.4 295.4,289.8 295.4,290.2 295.5,290.6 295.5,290.9 295.6,291.3 295.7,291.7 295.7,292.1 295.8,292.5 295.8,292.8 295.9,293.2 295.9,293.6 296,294 296,294.4 296.1,294.7 296.2,295.1 296.2,295.5 296.3,295.9 296.3,296.3 296.4,296.6 296.5,297 296.5,297.4 296.6,297.8 296.6,298.2 296.7,298.5 296.8,298.9 296.8,299.3 296.9,299.7 296.9,300.1 297,300.4 297.1,300.8 297.1,301.2 297.2,301.6 297.2,302 297.3,302.3 297.4,302.7 297.4,303.1 297.5,303.5 297.6,303.9 297.6,304.2 297.7,304.6 297.8,305 297.8,305.4 297.9,305.8 297.9,306.1 298,306.5 298.1,306.9 298.1,307.3 298.2,307.6 298.3,308 298.3,308.4 298.4,308.8 298.5,309.2 298.5,309.5 298.6,309.9 298.7,310.3 298.7,310.7 298.8,311.1 298.9,311.4 298.9,311.8 299,312.2 299.1,312.6 299.2,313 299.2,313.3 299.3,313.7 299.4,314.1 299.4,314.5 299.5,314.8 299.6,315.2 299.6,315.6 299.7,316 299.8,316.4 299.9,316.7 299.9,317.1 300,317.5 300.1,317.9 300.1,318.3 300.2,318.6 300.3,319 300.3,319.4 300.4,319.8 300.5,320.2 300.6,320.5 300.6,320.9 300.7,321.3 300.8,321.7 300.9,322 300.9,322.4 301,322.8 301.1,323.2 301.1,323.6 301.2,323.9 301.3,324.3 301.4,324.7 301.4,325.1 301.5,325.5 301.6,325.8 301.7,326.2 301.7,326.6 301.8,327 301.9,327.3 302,327.7 302,328.1 302.1,328.5 302.2,328.9 302.2,329.2 302.3,329.6 302.4,330 302.5,330.4 302.5,330.7 302.6,331.1 302.7,331.5 302.8,331.9 302.8,332.3 302.9,332.6 303,333 303.1,333.4 303.1,333.8 303.2,334.2 303.3,334.5 303.4,334.9 303.4,335.3 303.5,335.7 303.6,336 303.7,336.4 303.7,336.8 303.8,337.2 303.9,337.6 304,337.9 304,338.3 304.1,338.7 304.2,339.1 304.3,339.4 304.3,339.8 304.4,340.2 304.5,340.6 304.6,341 304.6,341.3 304.7,341.7 304.8,342.1 304.9,342.5 304.9,342.9 305,343.2 305.1,343.6 305.2,344 305.2,344.4 305.3,344.7 305.4,345.1 305.5,345.5 305.5,345.9 305.6,346.3 305.7,346.6 305.8,347 305.8,347.4 305.9,347.8 306,348.2 306.1,348.5 306.1,348.9 306.2,349.3 306.3,349.7 306.3,350 306.4,350.4 306.5,350.8 306.6,351.2 306.6,351.6 306.7,351.9 306.8,352.3 306.9,352.7 306.9,353.1 307,353.4 307.1,353.8 307.2,354.2 307.2,354.6 307.3,355 307.4,355.3 307.4,355.7 307.5,356.1 307.6,356.5 307.7,356.9 307.7,357.2 307.8,357.6 307.9,358 308,358.4 308,358.7 308.1,359.1 308.2,359.5 308.2,359.9 308.3,360.3 308.4,360.6 308.5,361 308.5,361.4 308.6,361.8 308.7,362.2 308.7,362.5 308.8,362.9 308.9,363.3 309,363.7 309,364 309.1,364.4 309.2,364.8 309.2,365.2 309.3,365.6 309.4,365.9 309.5,366.3 309.5,366.7 309.6,367.1 309.7,367.5 309.7,367.8 309.8,368.2 309.9,368.6 309.9,369 310,369.4 310.1,369.7 310.2,370.1 310.2,370.5 310.3,370.9 310.4,371.2 310.4,371.6 310.5,372 310.6,372.4 310.7,372.8 310.7,373.1 310.8,373.5 310.9,373.9 310.9,374.3 311,374.7 311.1,375 311.2,375.4 311.2,375.8 311.3,376.2 311.4,376.5 311.4,376.9 311.5,377.3 311.6,377.7 311.7,378.1 311.7,378.4 311.8,378.8 311.9,379.2 312,379.6 312,380 312.1,380.3 312.2,380.7 312.3,381.1 312.3,381.5 312.4,381.8 312.5,382.2 312.6,382.6 312.6,383 312.7,383.4 312.8,383.7 312.9,384.1 313,384.5 313,384.9 313.1,385.2 313.2,385.6 313.3,386 313.4,386.4 313.4,386.8 313.5,387.1 313.6,387.5 313.7,387.9 313.8,388.3 313.9,388.6 314,389 314,389.4 314.1,389.8 314.2,390.1 314.3,390.5 314.4,390.9 314.5,391.3 314.6,391.7 314.7,392 314.8,392.4 314.9,392.8 315,393.2 315.1,393.5 315.2,393.9 315.3,394.3 315.4,394.7 315.5,395 315.6,395.4 315.7,395.8 315.8,396.2 315.9,396.5 316.1,396.9 316.2,397.3 316.3,397.7 316.4,398 316.5,398.4 316.7,398.8 316.8,399.1 316.9,399.5 317,399.9 317.2,400.3 317.3,400.6 317.4,401 317.6,401.4 317.7,401.7 317.9,402.1 318,402.5 318.2,402.8 318.3,403.2 318.5,403.6 318.6,403.9 318.8,404.3 318.9,404.7 319.1,405 319.3,405.4 319.4,405.8 319.6,406.1 319.8,406.5 320,406.9 320.2,407.2 320.3,407.6 320.5,407.9 320.7,408.3 320.9,408.6 321.1,409 321.3,409.4 321.5,409.7 321.7,410.1 322,410.4 322.2,410.8 322.4,411.1 322.6,411.5 322.8,411.8 323.1,412.2 323.3,412.5 323.5,412.9 323.8,413.2 324,413.5 324.3,413.9 324.5,414.2 324.8,414.6 325.1,414.9 325.3,415.2 325.6,415.6 325.9,415.9 326.1,416.2 326.4,416.6 326.7,416.9 327,417.2 327.3,417.5 327.6,417.9 327.9,418.2 328.2,418.5 328.5,418.8 328.8,419.2 329.1,419.5 329.4,419.8 329.7,420.1 330.1,420.4 330.4,420.7 330.7,421 331,421.3 331.4,421.6 331.7,421.9 332.1,422.2 332.4,422.5 332.7,422.8 333.1,423.1 333.4,423.4 333.8,423.7 334.2,424 334.5,424.3 334.9,424.6 335.2,424.9 335.6,425.2 336,425.5 336.3,425.7 336.7,426 337.1,426.3 337.5,426.6 337.8,426.9 338.2,427.2 338.6,427.4 339,427.7 339.4,428 339.7,428.3 " />
</g>

<g fill="none" stroke="#000000" stroke-opacity="1" stroke-width="1" stroke-linecap="square" stroke-linejoin="bevel" transform="matrix(1.00313,0,0,1.00313,0,0)"
font-family="Ubuntu" font-size="11" font-weight="400" font-style="normal" 
>
</g>

<g fill="none" stroke="#000000" stroke-opacity="1" stroke-width="1" stroke-linecap="square" stroke-linejoin="bevel" transform="matrix(1.00313,0,0,1.00313,0,0)"
font-family="Ubuntu" font-size="11" font-weight="400" font-style="normal" 
>
</g>

<g fill="none" stroke="#000000" stroke-opacity="1" stroke-width="1" stroke-linecap="round" stroke-linejoin="round" transform="matrix(1.00313,0,0,1.00313,0,0)"
font-family="Ubuntu" font-size="11" font-weight="400" font-style="normal" 
>
<polyline fill="none" vector-effect="none" points="60.5,45.5 60.5,432.5 618.5,432.5 618.5,45.5 60.5,45.5 " />
</g>

<g fill="none" stroke="#000000" stroke-opacity="1" stroke-width="1" stroke-linecap="square" stroke-linejoin="bevel" transform="matrix(1.00313,0,0,1.00313,0,0)"
font-family="Ubuntu" font-size="11" font-weight="400" font-style="normal" 
>
</g>

<g fill="none" stroke="#000000" stroke-opacity="1" stroke-width="1" stroke-linecap="square" stroke-linejoin="bevel" transform="matrix(1,0,0,1,0,0)"
font-family="Ubuntu" font-size="11" font-weight="400" font-style="normal" 
>
</g>
</g>
</svg>
