<?xml version="1.0" encoding="UTF-8" standalone="no"?>
<svg width="226.483mm" height="170.039mm"
 viewBox="0 0 642 482"
 xmlns="http://www.w3.org/2000/svg" xmlns:xlink="http://www.w3.org/1999/xlink"  version="1.2" baseProfile="tiny">
<title>Qt SVG Document</title>
<desc>Generated with Qt</desc>
<defs>
</defs>
<g fill="none" stroke="black" stroke-width="1" fill-rule="evenodd" stroke-linecap="square" stroke-linejoin="bevel" >

<g fill="none" stroke="#000000" stroke-opacity="1" stroke-width="1" stroke-linecap="square" stroke-linejoin="bevel" transform="matrix(1,0,0,1,0,0)"
font-family="Ubuntu" font-size="11" font-weight="400" font-style="normal" 
>
</g>

<g fill="none" stroke="#000000" stroke-opacity="1" stroke-width="1" stroke-linecap="square" stroke-linejoin="bevel" transform="matrix(1.00313,0,0,1.00313,0,0)"
font-family="Ubuntu" font-size="11" font-weight="400" font-style="normal" 
>
</g>

<g fill="none" stroke="#000000" stroke-opacity="1" stroke-width="1" stroke-linecap="round" stroke-linejoin="round" transform="matrix(1.00313,0,0,1.00313,0,0)"
font-family="Ubuntu" font-size="11" font-weight="400" font-style="normal" 
>
<polyline fill="none" vector-effect="none" points="46.5,432.5 52.5,432.5 " />
<polyline fill="none" vector-effect="none" points="618.5,432.5 612.5,432.5 " />
</g>

<g fill="none" stroke="#000000" stroke-opacity="1" stroke-width="1" stroke-linecap="square" stroke-linejoin="bevel" transform="matrix(1.00313,0,0,1.00313,0,0)"
font-family="Ubuntu" font-size="11" font-weight="400" font-style="normal" 
>
</g>

<g fill="none" stroke="#000000" stroke-opacity="1" stroke-width="1" stroke-linecap="square" stroke-linejoin="bevel" transform="matrix(1.00313,0,0,1.00313,29.0906,437.864)"
font-family="Ubuntu" font-size="11" font-weight="400" font-style="normal" 
>
</g>

<g fill="none" stroke="#000000" stroke-opacity="1" stroke-width="1" stroke-linecap="square" stroke-linejoin="bevel" transform="matrix(1.00313,0,0,1.00313,29.0906,437.864)"
font-family="Ubuntu" font-size="11" font-weight="400" font-style="normal" 
>
</g>

<g fill="none" stroke="#000000" stroke-opacity="1" stroke-width="1" stroke-linecap="square" stroke-linejoin="bevel" transform="matrix(1.00313,0,0,1.00313,29.0906,437.864)"
font-family="Ubuntu" font-size="11" font-weight="400" font-style="normal" 
>
</g>

<g fill="none" stroke="#000000" stroke-opacity="1" stroke-width="1" stroke-linecap="square" stroke-linejoin="bevel" transform="matrix(1.00313,0,0,1.00313,29.0906,437.864)"
font-family="Ubuntu" font-size="11" font-weight="400" font-style="normal" 
>
</g>

<g fill="none" stroke="#000000" stroke-opacity="1" stroke-width="1" stroke-linecap="square" stroke-linejoin="bevel" transform="matrix(1.00313,0,0,1.00313,29.0906,437.864)"
font-family="Ubuntu" font-size="11" font-weight="400" font-style="normal" 
>
</g>

<g fill="none" stroke="#000000" stroke-opacity="1" stroke-width="1" stroke-linecap="square" stroke-linejoin="bevel" transform="matrix(1.00313,0,0,1.00313,29.0906,437.864)"
font-family="Sans" font-size="9" font-weight="400" font-style="normal" 
>
<text fill="#000000" fill-opacity="1" stroke="none" xml:space="preserve" x="0" y="0" font-family="Sans" font-size="9" font-weight="400" font-style="normal" 
 >-3</text>
</g>

<g fill="none" stroke="#000000" stroke-opacity="1" stroke-width="1" stroke-linecap="square" stroke-linejoin="bevel" transform="matrix(1.00313,0,0,1.00313,29.0906,437.864)"
font-family="Ubuntu" font-size="11" font-weight="400" font-style="normal" 
>
</g>

<g fill="none" stroke="#000000" stroke-opacity="1" stroke-width="1" stroke-linecap="square" stroke-linejoin="bevel" transform="matrix(1.00313,0,0,1.00313,0,0)"
font-family="Ubuntu" font-size="11" font-weight="400" font-style="normal" 
>
</g>

<g fill="none" stroke="#000000" stroke-opacity="1" stroke-width="1" stroke-linecap="round" stroke-linejoin="round" transform="matrix(1.00313,0,0,1.00313,0,0)"
font-family="Ubuntu" font-size="11" font-weight="400" font-style="normal" 
>
<polyline fill="none" vector-effect="none" points="46.5,367.5 52.5,367.5 " />
<polyline fill="none" vector-effect="none" points="618.5,367.5 612.5,367.5 " />
</g>

<g fill="none" stroke="#000000" stroke-opacity="1" stroke-width="1" stroke-linecap="square" stroke-linejoin="bevel" transform="matrix(1.00313,0,0,1.00313,0,0)"
font-family="Ubuntu" font-size="11" font-weight="400" font-style="normal" 
>
</g>

<g fill="none" stroke="#000000" stroke-opacity="1" stroke-width="1" stroke-linecap="square" stroke-linejoin="bevel" transform="matrix(1.00313,0,0,1.00313,29.0906,373.664)"
font-family="Ubuntu" font-size="11" font-weight="400" font-style="normal" 
>
</g>

<g fill="none" stroke="#000000" stroke-opacity="1" stroke-width="1" stroke-linecap="square" stroke-linejoin="bevel" transform="matrix(1.00313,0,0,1.00313,29.0906,373.664)"
font-family="Ubuntu" font-size="11" font-weight="400" font-style="normal" 
>
</g>

<g fill="none" stroke="#000000" stroke-opacity="1" stroke-width="1" stroke-linecap="square" stroke-linejoin="bevel" transform="matrix(1.00313,0,0,1.00313,29.0906,373.664)"
font-family="Ubuntu" font-size="11" font-weight="400" font-style="normal" 
>
</g>

<g fill="none" stroke="#000000" stroke-opacity="1" stroke-width="1" stroke-linecap="square" stroke-linejoin="bevel" transform="matrix(1.00313,0,0,1.00313,29.0906,373.664)"
font-family="Ubuntu" font-size="11" font-weight="400" font-style="normal" 
>
</g>

<g fill="none" stroke="#000000" stroke-opacity="1" stroke-width="1" stroke-linecap="square" stroke-linejoin="bevel" transform="matrix(1.00313,0,0,1.00313,29.0906,373.664)"
font-family="Ubuntu" font-size="11" font-weight="400" font-style="normal" 
>
</g>

<g fill="none" stroke="#000000" stroke-opacity="1" stroke-width="1" stroke-linecap="square" stroke-linejoin="bevel" transform="matrix(1.00313,0,0,1.00313,29.0906,373.664)"
font-family="Sans" font-size="9" font-weight="400" font-style="normal" 
>
<text fill="#000000" fill-opacity="1" stroke="none" xml:space="preserve" x="0" y="0" font-family="Sans" font-size="9" font-weight="400" font-style="normal" 
 >-2</text>
</g>

<g fill="none" stroke="#000000" stroke-opacity="1" stroke-width="1" stroke-linecap="square" stroke-linejoin="bevel" transform="matrix(1.00313,0,0,1.00313,29.0906,373.664)"
font-family="Ubuntu" font-size="11" font-weight="400" font-style="normal" 
>
</g>

<g fill="none" stroke="#000000" stroke-opacity="1" stroke-width="1" stroke-linecap="square" stroke-linejoin="bevel" transform="matrix(1.00313,0,0,1.00313,0,0)"
font-family="Ubuntu" font-size="11" font-weight="400" font-style="normal" 
>
</g>

<g fill="none" stroke="#000000" stroke-opacity="1" stroke-width="1" stroke-linecap="round" stroke-linejoin="round" transform="matrix(1.00313,0,0,1.00313,0,0)"
font-family="Ubuntu" font-size="11" font-weight="400" font-style="normal" 
>
<polyline fill="none" vector-effect="none" points="46.5,303.5 52.5,303.5 " />
<polyline fill="none" vector-effect="none" points="618.5,303.5 612.5,303.5 " />
</g>

<g fill="none" stroke="#000000" stroke-opacity="1" stroke-width="1" stroke-linecap="square" stroke-linejoin="bevel" transform="matrix(1.00313,0,0,1.00313,0,0)"
font-family="Ubuntu" font-size="11" font-weight="400" font-style="normal" 
>
</g>

<g fill="none" stroke="#000000" stroke-opacity="1" stroke-width="1" stroke-linecap="square" stroke-linejoin="bevel" transform="matrix(1.00313,0,0,1.00313,29.0906,308.461)"
font-family="Ubuntu" font-size="11" font-weight="400" font-style="normal" 
>
</g>

<g fill="none" stroke="#000000" stroke-opacity="1" stroke-width="1" stroke-linecap="square" stroke-linejoin="bevel" transform="matrix(1.00313,0,0,1.00313,29.0906,308.461)"
font-family="Ubuntu" font-size="11" font-weight="400" font-style="normal" 
>
</g>

<g fill="none" stroke="#000000" stroke-opacity="1" stroke-width="1" stroke-linecap="square" stroke-linejoin="bevel" transform="matrix(1.00313,0,0,1.00313,29.0906,308.461)"
font-family="Ubuntu" font-size="11" font-weight="400" font-style="normal" 
>
</g>

<g fill="none" stroke="#000000" stroke-opacity="1" stroke-width="1" stroke-linecap="square" stroke-linejoin="bevel" transform="matrix(1.00313,0,0,1.00313,29.0906,308.461)"
font-family="Ubuntu" font-size="11" font-weight="400" font-style="normal" 
>
</g>

<g fill="none" stroke="#000000" stroke-opacity="1" stroke-width="1" stroke-linecap="square" stroke-linejoin="bevel" transform="matrix(1.00313,0,0,1.00313,29.0906,308.461)"
font-family="Ubuntu" font-size="11" font-weight="400" font-style="normal" 
>
</g>

<g fill="none" stroke="#000000" stroke-opacity="1" stroke-width="1" stroke-linecap="square" stroke-linejoin="bevel" transform="matrix(1.00313,0,0,1.00313,29.0906,308.461)"
font-family="Sans" font-size="9" font-weight="400" font-style="normal" 
>
<text fill="#000000" fill-opacity="1" stroke="none" xml:space="preserve" x="0" y="0" font-family="Sans" font-size="9" font-weight="400" font-style="normal" 
 >-1</text>
</g>

<g fill="none" stroke="#000000" stroke-opacity="1" stroke-width="1" stroke-linecap="square" stroke-linejoin="bevel" transform="matrix(1.00313,0,0,1.00313,29.0906,308.461)"
font-family="Ubuntu" font-size="11" font-weight="400" font-style="normal" 
>
</g>

<g fill="none" stroke="#000000" stroke-opacity="1" stroke-width="1" stroke-linecap="square" stroke-linejoin="bevel" transform="matrix(1.00313,0,0,1.00313,0,0)"
font-family="Ubuntu" font-size="11" font-weight="400" font-style="normal" 
>
</g>

<g fill="none" stroke="#000000" stroke-opacity="1" stroke-width="1" stroke-linecap="round" stroke-linejoin="round" transform="matrix(1.00313,0,0,1.00313,0,0)"
font-family="Ubuntu" font-size="11" font-weight="400" font-style="normal" 
>
<polyline fill="none" vector-effect="none" points="46.5,238.5 52.5,238.5 " />
<polyline fill="none" vector-effect="none" points="618.5,238.5 612.5,238.5 " />
</g>

<g fill="none" stroke="#000000" stroke-opacity="1" stroke-width="1" stroke-linecap="square" stroke-linejoin="bevel" transform="matrix(1.00313,0,0,1.00313,0,0)"
font-family="Ubuntu" font-size="11" font-weight="400" font-style="normal" 
>
</g>

<g fill="none" stroke="#000000" stroke-opacity="1" stroke-width="1" stroke-linecap="square" stroke-linejoin="bevel" transform="matrix(1.00313,0,0,1.00313,29.0906,244.261)"
font-family="Ubuntu" font-size="11" font-weight="400" font-style="normal" 
>
</g>

<g fill="none" stroke="#000000" stroke-opacity="1" stroke-width="1" stroke-linecap="square" stroke-linejoin="bevel" transform="matrix(1.00313,0,0,1.00313,29.0906,244.261)"
font-family="Ubuntu" font-size="11" font-weight="400" font-style="normal" 
>
</g>

<g fill="none" stroke="#000000" stroke-opacity="1" stroke-width="1" stroke-linecap="square" stroke-linejoin="bevel" transform="matrix(1.00313,0,0,1.00313,29.0906,244.261)"
font-family="Ubuntu" font-size="11" font-weight="400" font-style="normal" 
>
</g>

<g fill="none" stroke="#000000" stroke-opacity="1" stroke-width="1" stroke-linecap="square" stroke-linejoin="bevel" transform="matrix(1.00313,0,0,1.00313,29.0906,244.261)"
font-family="Ubuntu" font-size="11" font-weight="400" font-style="normal" 
>
</g>

<g fill="none" stroke="#000000" stroke-opacity="1" stroke-width="1" stroke-linecap="square" stroke-linejoin="bevel" transform="matrix(1.00313,0,0,1.00313,29.0906,244.261)"
font-family="Ubuntu" font-size="11" font-weight="400" font-style="normal" 
>
</g>

<g fill="none" stroke="#000000" stroke-opacity="1" stroke-width="1" stroke-linecap="square" stroke-linejoin="bevel" transform="matrix(1.00313,0,0,1.00313,29.0906,244.261)"
font-family="Sans" font-size="9" font-weight="400" font-style="normal" 
>
<text fill="#000000" fill-opacity="1" stroke="none" xml:space="preserve" x="0" y="0" font-family="Sans" font-size="9" font-weight="400" font-style="normal" 
 > 0</text>
</g>

<g fill="none" stroke="#000000" stroke-opacity="1" stroke-width="1" stroke-linecap="square" stroke-linejoin="bevel" transform="matrix(1.00313,0,0,1.00313,29.0906,244.261)"
font-family="Ubuntu" font-size="11" font-weight="400" font-style="normal" 
>
</g>

<g fill="none" stroke="#000000" stroke-opacity="1" stroke-width="1" stroke-linecap="square" stroke-linejoin="bevel" transform="matrix(1.00313,0,0,1.00313,0,0)"
font-family="Ubuntu" font-size="11" font-weight="400" font-style="normal" 
>
</g>

<g fill="none" stroke="#000000" stroke-opacity="1" stroke-width="1" stroke-linecap="round" stroke-linejoin="round" transform="matrix(1.00313,0,0,1.00313,0,0)"
font-family="Ubuntu" font-size="11" font-weight="400" font-style="normal" 
>
<polyline fill="none" vector-effect="none" points="46.5,174.5 52.5,174.5 " />
<polyline fill="none" vector-effect="none" points="618.5,174.5 612.5,174.5 " />
</g>

<g fill="none" stroke="#000000" stroke-opacity="1" stroke-width="1" stroke-linecap="square" stroke-linejoin="bevel" transform="matrix(1.00313,0,0,1.00313,0,0)"
font-family="Ubuntu" font-size="11" font-weight="400" font-style="normal" 
>
</g>

<g fill="none" stroke="#000000" stroke-opacity="1" stroke-width="1" stroke-linecap="square" stroke-linejoin="bevel" transform="matrix(1.00313,0,0,1.00313,29.0906,179.058)"
font-family="Ubuntu" font-size="11" font-weight="400" font-style="normal" 
>
</g>

<g fill="none" stroke="#000000" stroke-opacity="1" stroke-width="1" stroke-linecap="square" stroke-linejoin="bevel" transform="matrix(1.00313,0,0,1.00313,29.0906,179.058)"
font-family="Ubuntu" font-size="11" font-weight="400" font-style="normal" 
>
</g>

<g fill="none" stroke="#000000" stroke-opacity="1" stroke-width="1" stroke-linecap="square" stroke-linejoin="bevel" transform="matrix(1.00313,0,0,1.00313,29.0906,179.058)"
font-family="Ubuntu" font-size="11" font-weight="400" font-style="normal" 
>
</g>

<g fill="none" stroke="#000000" stroke-opacity="1" stroke-width="1" stroke-linecap="square" stroke-linejoin="bevel" transform="matrix(1.00313,0,0,1.00313,29.0906,179.058)"
font-family="Ubuntu" font-size="11" font-weight="400" font-style="normal" 
>
</g>

<g fill="none" stroke="#000000" stroke-opacity="1" stroke-width="1" stroke-linecap="square" stroke-linejoin="bevel" transform="matrix(1.00313,0,0,1.00313,29.0906,179.058)"
font-family="Ubuntu" font-size="11" font-weight="400" font-style="normal" 
>
</g>

<g fill="none" stroke="#000000" stroke-opacity="1" stroke-width="1" stroke-linecap="square" stroke-linejoin="bevel" transform="matrix(1.00313,0,0,1.00313,29.0906,179.058)"
font-family="Sans" font-size="9" font-weight="400" font-style="normal" 
>
<text fill="#000000" fill-opacity="1" stroke="none" xml:space="preserve" x="0" y="0" font-family="Sans" font-size="9" font-weight="400" font-style="normal" 
 > 1</text>
</g>

<g fill="none" stroke="#000000" stroke-opacity="1" stroke-width="1" stroke-linecap="square" stroke-linejoin="bevel" transform="matrix(1.00313,0,0,1.00313,29.0906,179.058)"
font-family="Ubuntu" font-size="11" font-weight="400" font-style="normal" 
>
</g>

<g fill="none" stroke="#000000" stroke-opacity="1" stroke-width="1" stroke-linecap="square" stroke-linejoin="bevel" transform="matrix(1.00313,0,0,1.00313,0,0)"
font-family="Ubuntu" font-size="11" font-weight="400" font-style="normal" 
>
</g>

<g fill="none" stroke="#000000" stroke-opacity="1" stroke-width="1" stroke-linecap="round" stroke-linejoin="round" transform="matrix(1.00313,0,0,1.00313,0,0)"
font-family="Ubuntu" font-size="11" font-weight="400" font-style="normal" 
>
<polyline fill="none" vector-effect="none" points="46.5,109.5 52.5,109.5 " />
<polyline fill="none" vector-effect="none" points="618.5,109.5 612.5,109.5 " />
</g>

<g fill="none" stroke="#000000" stroke-opacity="1" stroke-width="1" stroke-linecap="square" stroke-linejoin="bevel" transform="matrix(1.00313,0,0,1.00313,0,0)"
font-family="Ubuntu" font-size="11" font-weight="400" font-style="normal" 
>
</g>

<g fill="none" stroke="#000000" stroke-opacity="1" stroke-width="1" stroke-linecap="square" stroke-linejoin="bevel" transform="matrix(1.00313,0,0,1.00313,29.0906,114.858)"
font-family="Ubuntu" font-size="11" font-weight="400" font-style="normal" 
>
</g>

<g fill="none" stroke="#000000" stroke-opacity="1" stroke-width="1" stroke-linecap="square" stroke-linejoin="bevel" transform="matrix(1.00313,0,0,1.00313,29.0906,114.858)"
font-family="Ubuntu" font-size="11" font-weight="400" font-style="normal" 
>
</g>

<g fill="none" stroke="#000000" stroke-opacity="1" stroke-width="1" stroke-linecap="square" stroke-linejoin="bevel" transform="matrix(1.00313,0,0,1.00313,29.0906,114.858)"
font-family="Ubuntu" font-size="11" font-weight="400" font-style="normal" 
>
</g>

<g fill="none" stroke="#000000" stroke-opacity="1" stroke-width="1" stroke-linecap="square" stroke-linejoin="bevel" transform="matrix(1.00313,0,0,1.00313,29.0906,114.858)"
font-family="Ubuntu" font-size="11" font-weight="400" font-style="normal" 
>
</g>

<g fill="none" stroke="#000000" stroke-opacity="1" stroke-width="1" stroke-linecap="square" stroke-linejoin="bevel" transform="matrix(1.00313,0,0,1.00313,29.0906,114.858)"
font-family="Ubuntu" font-size="11" font-weight="400" font-style="normal" 
>
</g>

<g fill="none" stroke="#000000" stroke-opacity="1" stroke-width="1" stroke-linecap="square" stroke-linejoin="bevel" transform="matrix(1.00313,0,0,1.00313,29.0906,114.858)"
font-family="Sans" font-size="9" font-weight="400" font-style="normal" 
>
<text fill="#000000" fill-opacity="1" stroke="none" xml:space="preserve" x="0" y="0" font-family="Sans" font-size="9" font-weight="400" font-style="normal" 
 > 2</text>
</g>

<g fill="none" stroke="#000000" stroke-opacity="1" stroke-width="1" stroke-linecap="square" stroke-linejoin="bevel" transform="matrix(1.00313,0,0,1.00313,29.0906,114.858)"
font-family="Ubuntu" font-size="11" font-weight="400" font-style="normal" 
>
</g>

<g fill="none" stroke="#000000" stroke-opacity="1" stroke-width="1" stroke-linecap="square" stroke-linejoin="bevel" transform="matrix(1.00313,0,0,1.00313,0,0)"
font-family="Ubuntu" font-size="11" font-weight="400" font-style="normal" 
>
</g>

<g fill="none" stroke="#000000" stroke-opacity="1" stroke-width="1" stroke-linecap="round" stroke-linejoin="round" transform="matrix(1.00313,0,0,1.00313,0,0)"
font-family="Ubuntu" font-size="11" font-weight="400" font-style="normal" 
>
<polyline fill="none" vector-effect="none" points="46.5,45.5 52.5,45.5 " />
<polyline fill="none" vector-effect="none" points="618.5,45.5 612.5,45.5 " />
</g>

<g fill="none" stroke="#000000" stroke-opacity="1" stroke-width="1" stroke-linecap="square" stroke-linejoin="bevel" transform="matrix(1.00313,0,0,1.00313,0,0)"
font-family="Ubuntu" font-size="11" font-weight="400" font-style="normal" 
>
</g>

<g fill="none" stroke="#000000" stroke-opacity="1" stroke-width="1" stroke-linecap="square" stroke-linejoin="bevel" transform="matrix(1.00313,0,0,1.00313,29.0906,49.6547)"
font-family="Ubuntu" font-size="11" font-weight="400" font-style="normal" 
>
</g>

<g fill="none" stroke="#000000" stroke-opacity="1" stroke-width="1" stroke-linecap="square" stroke-linejoin="bevel" transform="matrix(1.00313,0,0,1.00313,29.0906,49.6547)"
font-family="Ubuntu" font-size="11" font-weight="400" font-style="normal" 
>
</g>

<g fill="none" stroke="#000000" stroke-opacity="1" stroke-width="1" stroke-linecap="square" stroke-linejoin="bevel" transform="matrix(1.00313,0,0,1.00313,29.0906,49.6547)"
font-family="Ubuntu" font-size="11" font-weight="400" font-style="normal" 
>
</g>

<g fill="none" stroke="#000000" stroke-opacity="1" stroke-width="1" stroke-linecap="square" stroke-linejoin="bevel" transform="matrix(1.00313,0,0,1.00313,29.0906,49.6547)"
font-family="Ubuntu" font-size="11" font-weight="400" font-style="normal" 
>
</g>

<g fill="none" stroke="#000000" stroke-opacity="1" stroke-width="1" stroke-linecap="square" stroke-linejoin="bevel" transform="matrix(1.00313,0,0,1.00313,29.0906,49.6547)"
font-family="Ubuntu" font-size="11" font-weight="400" font-style="normal" 
>
</g>

<g fill="none" stroke="#000000" stroke-opacity="1" stroke-width="1" stroke-linecap="square" stroke-linejoin="bevel" transform="matrix(1.00313,0,0,1.00313,29.0906,49.6547)"
font-family="Sans" font-size="9" font-weight="400" font-style="normal" 
>
<text fill="#000000" fill-opacity="1" stroke="none" xml:space="preserve" x="0" y="0" font-family="Sans" font-size="9" font-weight="400" font-style="normal" 
 > 3</text>
</g>

<g fill="none" stroke="#000000" stroke-opacity="1" stroke-width="1" stroke-linecap="square" stroke-linejoin="bevel" transform="matrix(1.00313,0,0,1.00313,29.0906,49.6547)"
font-family="Ubuntu" font-size="11" font-weight="400" font-style="normal" 
>
</g>

<g fill="none" stroke="#000000" stroke-opacity="1" stroke-width="1" stroke-linecap="square" stroke-linejoin="bevel" transform="matrix(1.00313,0,0,1.00313,0,0)"
font-family="Ubuntu" font-size="11" font-weight="400" font-style="normal" 
>
</g>

<g fill="none" stroke="#000000" stroke-opacity="1" stroke-width="1" stroke-linecap="round" stroke-linejoin="round" transform="matrix(1.00313,0,0,1.00313,0,0)"
font-family="Ubuntu" font-size="11" font-weight="400" font-style="normal" 
>
<polyline fill="none" vector-effect="none" points="46.5,432.5 46.5,426.5 " />
<polyline fill="none" vector-effect="none" points="46.5,45.5 46.5,51.5 " />
</g>

<g fill="none" stroke="#000000" stroke-opacity="1" stroke-width="1" stroke-linecap="square" stroke-linejoin="bevel" transform="matrix(1.00313,0,0,1.00313,0,0)"
font-family="Ubuntu" font-size="11" font-weight="400" font-style="normal" 
>
</g>

<g fill="none" stroke="#000000" stroke-opacity="1" stroke-width="1" stroke-linecap="square" stroke-linejoin="bevel" transform="matrix(1.00313,0,0,1.00313,41.6297,452.911)"
font-family="Ubuntu" font-size="11" font-weight="400" font-style="normal" 
>
</g>

<g fill="none" stroke="#000000" stroke-opacity="1" stroke-width="1" stroke-linecap="square" stroke-linejoin="bevel" transform="matrix(1.00313,0,0,1.00313,41.6297,452.911)"
font-family="Ubuntu" font-size="11" font-weight="400" font-style="normal" 
>
</g>

<g fill="none" stroke="#000000" stroke-opacity="1" stroke-width="1" stroke-linecap="square" stroke-linejoin="bevel" transform="matrix(1.00313,0,0,1.00313,41.6297,452.911)"
font-family="Ubuntu" font-size="11" font-weight="400" font-style="normal" 
>
</g>

<g fill="none" stroke="#000000" stroke-opacity="1" stroke-width="1" stroke-linecap="square" stroke-linejoin="bevel" transform="matrix(1.00313,0,0,1.00313,41.6297,452.911)"
font-family="Ubuntu" font-size="11" font-weight="400" font-style="normal" 
>
</g>

<g fill="none" stroke="#000000" stroke-opacity="1" stroke-width="1" stroke-linecap="square" stroke-linejoin="bevel" transform="matrix(1.00313,0,0,1.00313,41.6297,452.911)"
font-family="Ubuntu" font-size="11" font-weight="400" font-style="normal" 
>
</g>

<g fill="none" stroke="#000000" stroke-opacity="1" stroke-width="1" stroke-linecap="square" stroke-linejoin="bevel" transform="matrix(1.00313,0,0,1.00313,41.6297,452.911)"
font-family="Sans" font-size="9" font-weight="400" font-style="normal" 
>
<text fill="#000000" fill-opacity="1" stroke="none" xml:space="preserve" x="0" y="0" font-family="Sans" font-size="9" font-weight="400" font-style="normal" 
 >-1</text>
</g>

<g fill="none" stroke="#000000" stroke-opacity="1" stroke-width="1" stroke-linecap="square" stroke-linejoin="bevel" transform="matrix(1.00313,0,0,1.00313,41.6297,452.911)"
font-family="Ubuntu" font-size="11" font-weight="400" font-style="normal" 
>
</g>

<g fill="none" stroke="#000000" stroke-opacity="1" stroke-width="1" stroke-linecap="square" stroke-linejoin="bevel" transform="matrix(1.00313,0,0,1.00313,0,0)"
font-family="Ubuntu" font-size="11" font-weight="400" font-style="normal" 
>
</g>

<g fill="none" stroke="#000000" stroke-opacity="1" stroke-width="1" stroke-linecap="round" stroke-linejoin="round" transform="matrix(1.00313,0,0,1.00313,0,0)"
font-family="Ubuntu" font-size="11" font-weight="400" font-style="normal" 
>
<polyline fill="none" vector-effect="none" points="189.5,432.5 189.5,426.5 " />
<polyline fill="none" vector-effect="none" points="189.5,45.5 189.5,51.5 " />
</g>

<g fill="none" stroke="#000000" stroke-opacity="1" stroke-width="1" stroke-linecap="square" stroke-linejoin="bevel" transform="matrix(1.00313,0,0,1.00313,0,0)"
font-family="Ubuntu" font-size="11" font-weight="400" font-style="normal" 
>
</g>

<g fill="none" stroke="#000000" stroke-opacity="1" stroke-width="1" stroke-linecap="square" stroke-linejoin="bevel" transform="matrix(1.00313,0,0,1.00313,179.058,452.911)"
font-family="Ubuntu" font-size="11" font-weight="400" font-style="normal" 
>
</g>

<g fill="none" stroke="#000000" stroke-opacity="1" stroke-width="1" stroke-linecap="square" stroke-linejoin="bevel" transform="matrix(1.00313,0,0,1.00313,179.058,452.911)"
font-family="Ubuntu" font-size="11" font-weight="400" font-style="normal" 
>
</g>

<g fill="none" stroke="#000000" stroke-opacity="1" stroke-width="1" stroke-linecap="square" stroke-linejoin="bevel" transform="matrix(1.00313,0,0,1.00313,179.058,452.911)"
font-family="Ubuntu" font-size="11" font-weight="400" font-style="normal" 
>
</g>

<g fill="none" stroke="#000000" stroke-opacity="1" stroke-width="1" stroke-linecap="square" stroke-linejoin="bevel" transform="matrix(1.00313,0,0,1.00313,179.058,452.911)"
font-family="Ubuntu" font-size="11" font-weight="400" font-style="normal" 
>
</g>

<g fill="none" stroke="#000000" stroke-opacity="1" stroke-width="1" stroke-linecap="square" stroke-linejoin="bevel" transform="matrix(1.00313,0,0,1.00313,179.058,452.911)"
font-family="Ubuntu" font-size="11" font-weight="400" font-style="normal" 
>
</g>

<g fill="none" stroke="#000000" stroke-opacity="1" stroke-width="1" stroke-linecap="square" stroke-linejoin="bevel" transform="matrix(1.00313,0,0,1.00313,179.058,452.911)"
font-family="Sans" font-size="9" font-weight="400" font-style="normal" 
>
<text fill="#000000" fill-opacity="1" stroke="none" xml:space="preserve" x="0" y="0" font-family="Sans" font-size="9" font-weight="400" font-style="normal" 
 >-0.5</text>
</g>

<g fill="none" stroke="#000000" stroke-opacity="1" stroke-width="1" stroke-linecap="square" stroke-linejoin="bevel" transform="matrix(1.00313,0,0,1.00313,179.058,452.911)"
font-family="Ubuntu" font-size="11" font-weight="400" font-style="normal" 
>
</g>

<g fill="none" stroke="#000000" stroke-opacity="1" stroke-width="1" stroke-linecap="square" stroke-linejoin="bevel" transform="matrix(1.00313,0,0,1.00313,0,0)"
font-family="Ubuntu" font-size="11" font-weight="400" font-style="normal" 
>
</g>

<g fill="none" stroke="#000000" stroke-opacity="1" stroke-width="1" stroke-linecap="round" stroke-linejoin="round" transform="matrix(1.00313,0,0,1.00313,0,0)"
font-family="Ubuntu" font-size="11" font-weight="400" font-style="normal" 
>
<polyline fill="none" vector-effect="none" points="332.5,432.5 332.5,426.5 " />
<polyline fill="none" vector-effect="none" points="332.5,45.5 332.5,51.5 " />
</g>

<g fill="none" stroke="#000000" stroke-opacity="1" stroke-width="1" stroke-linecap="square" stroke-linejoin="bevel" transform="matrix(1.00313,0,0,1.00313,0,0)"
font-family="Ubuntu" font-size="11" font-weight="400" font-style="normal" 
>
</g>

<g fill="none" stroke="#000000" stroke-opacity="1" stroke-width="1" stroke-linecap="square" stroke-linejoin="bevel" transform="matrix(1.00313,0,0,1.00313,328.523,452.911)"
font-family="Ubuntu" font-size="11" font-weight="400" font-style="normal" 
>
</g>

<g fill="none" stroke="#000000" stroke-opacity="1" stroke-width="1" stroke-linecap="square" stroke-linejoin="bevel" transform="matrix(1.00313,0,0,1.00313,328.523,452.911)"
font-family="Ubuntu" font-size="11" font-weight="400" font-style="normal" 
>
</g>

<g fill="none" stroke="#000000" stroke-opacity="1" stroke-width="1" stroke-linecap="square" stroke-linejoin="bevel" transform="matrix(1.00313,0,0,1.00313,328.523,452.911)"
font-family="Ubuntu" font-size="11" font-weight="400" font-style="normal" 
>
</g>

<g fill="none" stroke="#000000" stroke-opacity="1" stroke-width="1" stroke-linecap="square" stroke-linejoin="bevel" transform="matrix(1.00313,0,0,1.00313,328.523,452.911)"
font-family="Ubuntu" font-size="11" font-weight="400" font-style="normal" 
>
</g>

<g fill="none" stroke="#000000" stroke-opacity="1" stroke-width="1" stroke-linecap="square" stroke-linejoin="bevel" transform="matrix(1.00313,0,0,1.00313,328.523,452.911)"
font-family="Ubuntu" font-size="11" font-weight="400" font-style="normal" 
>
</g>

<g fill="none" stroke="#000000" stroke-opacity="1" stroke-width="1" stroke-linecap="square" stroke-linejoin="bevel" transform="matrix(1.00313,0,0,1.00313,328.523,452.911)"
font-family="Sans" font-size="9" font-weight="400" font-style="normal" 
>
<text fill="#000000" fill-opacity="1" stroke="none" xml:space="preserve" x="0" y="0" font-family="Sans" font-size="9" font-weight="400" font-style="normal" 
 > 0</text>
</g>

<g fill="none" stroke="#000000" stroke-opacity="1" stroke-width="1" stroke-linecap="square" stroke-linejoin="bevel" transform="matrix(1.00313,0,0,1.00313,328.523,452.911)"
font-family="Ubuntu" font-size="11" font-weight="400" font-style="normal" 
>
</g>

<g fill="none" stroke="#000000" stroke-opacity="1" stroke-width="1" stroke-linecap="square" stroke-linejoin="bevel" transform="matrix(1.00313,0,0,1.00313,0,0)"
font-family="Ubuntu" font-size="11" font-weight="400" font-style="normal" 
>
</g>

<g fill="none" stroke="#000000" stroke-opacity="1" stroke-width="1" stroke-linecap="round" stroke-linejoin="round" transform="matrix(1.00313,0,0,1.00313,0,0)"
font-family="Ubuntu" font-size="11" font-weight="400" font-style="normal" 
>
<polyline fill="none" vector-effect="none" points="475.5,432.5 475.5,426.5 " />
<polyline fill="none" vector-effect="none" points="475.5,45.5 475.5,51.5 " />
</g>

<g fill="none" stroke="#000000" stroke-opacity="1" stroke-width="1" stroke-linecap="square" stroke-linejoin="bevel" transform="matrix(1.00313,0,0,1.00313,0,0)"
font-family="Ubuntu" font-size="11" font-weight="400" font-style="normal" 
>
</g>

<g fill="none" stroke="#000000" stroke-opacity="1" stroke-width="1" stroke-linecap="square" stroke-linejoin="bevel" transform="matrix(1.00313,0,0,1.00313,465.952,452.911)"
font-family="Ubuntu" font-size="11" font-weight="400" font-style="normal" 
>
</g>

<g fill="none" stroke="#000000" stroke-opacity="1" stroke-width="1" stroke-linecap="square" stroke-linejoin="bevel" transform="matrix(1.00313,0,0,1.00313,465.952,452.911)"
font-family="Ubuntu" font-size="11" font-weight="400" font-style="normal" 
>
</g>

<g fill="none" stroke="#000000" stroke-opacity="1" stroke-width="1" stroke-linecap="square" stroke-linejoin="bevel" transform="matrix(1.00313,0,0,1.00313,465.952,452.911)"
font-family="Ubuntu" font-size="11" font-weight="400" font-style="normal" 
>
</g>

<g fill="none" stroke="#000000" stroke-opacity="1" stroke-width="1" stroke-linecap="square" stroke-linejoin="bevel" transform="matrix(1.00313,0,0,1.00313,465.952,452.911)"
font-family="Ubuntu" font-size="11" font-weight="400" font-style="normal" 
>
</g>

<g fill="none" stroke="#000000" stroke-opacity="1" stroke-width="1" stroke-linecap="square" stroke-linejoin="bevel" transform="matrix(1.00313,0,0,1.00313,465.952,452.911)"
font-family="Ubuntu" font-size="11" font-weight="400" font-style="normal" 
>
</g>

<g fill="none" stroke="#000000" stroke-opacity="1" stroke-width="1" stroke-linecap="square" stroke-linejoin="bevel" transform="matrix(1.00313,0,0,1.00313,465.952,452.911)"
font-family="Sans" font-size="9" font-weight="400" font-style="normal" 
>
<text fill="#000000" fill-opacity="1" stroke="none" xml:space="preserve" x="0" y="0" font-family="Sans" font-size="9" font-weight="400" font-style="normal" 
 > 0.5</text>
</g>

<g fill="none" stroke="#000000" stroke-opacity="1" stroke-width="1" stroke-linecap="square" stroke-linejoin="bevel" transform="matrix(1.00313,0,0,1.00313,465.952,452.911)"
font-family="Ubuntu" font-size="11" font-weight="400" font-style="normal" 
>
</g>

<g fill="none" stroke="#000000" stroke-opacity="1" stroke-width="1" stroke-linecap="square" stroke-linejoin="bevel" transform="matrix(1.00313,0,0,1.00313,0,0)"
font-family="Ubuntu" font-size="11" font-weight="400" font-style="normal" 
>
</g>

<g fill="none" stroke="#000000" stroke-opacity="1" stroke-width="1" stroke-linecap="round" stroke-linejoin="round" transform="matrix(1.00313,0,0,1.00313,0,0)"
font-family="Ubuntu" font-size="11" font-weight="400" font-style="normal" 
>
<polyline fill="none" vector-effect="none" points="618.5,432.5 618.5,426.5 " />
<polyline fill="none" vector-effect="none" points="618.5,45.5 618.5,51.5 " />
</g>

<g fill="none" stroke="#000000" stroke-opacity="1" stroke-width="1" stroke-linecap="square" stroke-linejoin="bevel" transform="matrix(1.00313,0,0,1.00313,0,0)"
font-family="Ubuntu" font-size="11" font-weight="400" font-style="normal" 
>
</g>

<g fill="none" stroke="#000000" stroke-opacity="1" stroke-width="1" stroke-linecap="square" stroke-linejoin="bevel" transform="matrix(1.00313,0,0,1.00313,615.417,452.911)"
font-family="Ubuntu" font-size="11" font-weight="400" font-style="normal" 
>
</g>

<g fill="none" stroke="#000000" stroke-opacity="1" stroke-width="1" stroke-linecap="square" stroke-linejoin="bevel" transform="matrix(1.00313,0,0,1.00313,615.417,452.911)"
font-family="Ubuntu" font-size="11" font-weight="400" font-style="normal" 
>
</g>

<g fill="none" stroke="#000000" stroke-opacity="1" stroke-width="1" stroke-linecap="square" stroke-linejoin="bevel" transform="matrix(1.00313,0,0,1.00313,615.417,452.911)"
font-family="Ubuntu" font-size="11" font-weight="400" font-style="normal" 
>
</g>

<g fill="none" stroke="#000000" stroke-opacity="1" stroke-width="1" stroke-linecap="square" stroke-linejoin="bevel" transform="matrix(1.00313,0,0,1.00313,615.417,452.911)"
font-family="Ubuntu" font-size="11" font-weight="400" font-style="normal" 
>
</g>

<g fill="none" stroke="#000000" stroke-opacity="1" stroke-width="1" stroke-linecap="square" stroke-linejoin="bevel" transform="matrix(1.00313,0,0,1.00313,615.417,452.911)"
font-family="Ubuntu" font-size="11" font-weight="400" font-style="normal" 
>
</g>

<g fill="none" stroke="#000000" stroke-opacity="1" stroke-width="1" stroke-linecap="square" stroke-linejoin="bevel" transform="matrix(1.00313,0,0,1.00313,615.417,452.911)"
font-family="Sans" font-size="9" font-weight="400" font-style="normal" 
>
<text fill="#000000" fill-opacity="1" stroke="none" xml:space="preserve" x="0" y="0" font-family="Sans" font-size="9" font-weight="400" font-style="normal" 
 > 1</text>
</g>

<g fill="none" stroke="#000000" stroke-opacity="1" stroke-width="1" stroke-linecap="square" stroke-linejoin="bevel" transform="matrix(1.00313,0,0,1.00313,615.417,452.911)"
font-family="Ubuntu" font-size="11" font-weight="400" font-style="normal" 
>
</g>

<g fill="none" stroke="#000000" stroke-opacity="1" stroke-width="1" stroke-linecap="square" stroke-linejoin="bevel" transform="matrix(1.00313,0,0,1.00313,0,0)"
font-family="Ubuntu" font-size="11" font-weight="400" font-style="normal" 
>
</g>

<g fill="none" stroke="#000000" stroke-opacity="1" stroke-width="1" stroke-linecap="round" stroke-linejoin="round" transform="matrix(1.00313,0,0,1.00313,0,0)"
font-family="Ubuntu" font-size="11" font-weight="400" font-style="normal" 
>
<polyline fill="none" vector-effect="none" points="46.5,45.5 46.5,432.5 618.5,432.5 618.5,45.5 46.5,45.5 " />
</g>

<g fill="none" stroke="#000000" stroke-opacity="1" stroke-width="1" stroke-linecap="square" stroke-linejoin="bevel" transform="matrix(1.00313,0,0,1.00313,0,0)"
font-family="Ubuntu" font-size="11" font-weight="400" font-style="normal" 
>
</g>

<g fill="none" stroke="#000000" stroke-opacity="1" stroke-width="1" stroke-linecap="square" stroke-linejoin="bevel" transform="matrix(0,-1.00313,1.00313,0,15.5484,242.255)"
font-family="Ubuntu" font-size="11" font-weight="400" font-style="normal" 
>
</g>

<g fill="none" stroke="#000000" stroke-opacity="1" stroke-width="1" stroke-linecap="square" stroke-linejoin="bevel" transform="matrix(0,-1.00313,1.00313,0,15.5484,242.255)"
font-family="Ubuntu" font-size="11" font-weight="400" font-style="normal" 
>
</g>

<g fill="none" stroke="#000000" stroke-opacity="1" stroke-width="1" stroke-linecap="square" stroke-linejoin="bevel" transform="matrix(0,-1.00313,1.00313,0,15.5484,242.255)"
font-family="Ubuntu" font-size="11" font-weight="400" font-style="normal" 
>
</g>

<g fill="none" stroke="#000000" stroke-opacity="1" stroke-width="1" stroke-linecap="square" stroke-linejoin="bevel" transform="matrix(0,-1.00313,1.00313,0,15.5484,242.255)"
font-family="Ubuntu" font-size="11" font-weight="400" font-style="normal" 
>
</g>

<g fill="none" stroke="#000000" stroke-opacity="1" stroke-width="1" stroke-linecap="square" stroke-linejoin="bevel" transform="matrix(0,-1.00313,1.00313,0,15.5484,242.255)"
font-family="Ubuntu" font-size="11" font-weight="400" font-style="normal" 
>
</g>

<g fill="none" stroke="#000000" stroke-opacity="1" stroke-width="1" stroke-linecap="square" stroke-linejoin="bevel" transform="matrix(0,-1.00313,1.00313,0,15.5484,242.255)"
font-family="Sans" font-size="9" font-weight="400" font-style="normal" 
>
<text fill="#000000" fill-opacity="1" stroke="none" xml:space="preserve" x="0" y="0" font-family="Sans" font-size="9" font-weight="400" font-style="normal" 
 >t</text>
</g>

<g fill="none" stroke="#000000" stroke-opacity="1" stroke-width="1" stroke-linecap="square" stroke-linejoin="bevel" transform="matrix(0,-1.00313,1.00313,0,15.5484,242.255)"
font-family="Ubuntu" font-size="11" font-weight="400" font-style="normal" 
>
</g>

<g fill="none" stroke="#000000" stroke-opacity="1" stroke-width="1" stroke-linecap="square" stroke-linejoin="bevel" transform="matrix(1.00313,0,0,1.00313,331.031,475.983)"
font-family="Ubuntu" font-size="11" font-weight="400" font-style="normal" 
>
</g>

<g fill="none" stroke="#000000" stroke-opacity="1" stroke-width="1" stroke-linecap="square" stroke-linejoin="bevel" transform="matrix(1.00313,0,0,1.00313,331.031,475.983)"
font-family="Ubuntu" font-size="11" font-weight="400" font-style="normal" 
>
</g>

<g fill="none" stroke="#000000" stroke-opacity="1" stroke-width="1" stroke-linecap="square" stroke-linejoin="bevel" transform="matrix(1.00313,0,0,1.00313,331.031,475.983)"
font-family="Ubuntu" font-size="11" font-weight="400" font-style="normal" 
>
</g>

<g fill="none" stroke="#000000" stroke-opacity="1" stroke-width="1" stroke-linecap="square" stroke-linejoin="bevel" transform="matrix(1.00313,0,0,1.00313,331.031,475.983)"
font-family="Ubuntu" font-size="11" font-weight="400" font-style="normal" 
>
</g>

<g fill="none" stroke="#000000" stroke-opacity="1" stroke-width="1" stroke-linecap="square" stroke-linejoin="bevel" transform="matrix(1.00313,0,0,1.00313,331.031,475.983)"
font-family="Ubuntu" font-size="11" font-weight="400" font-style="normal" 
>
</g>

<g fill="none" stroke="#000000" stroke-opacity="1" stroke-width="1" stroke-linecap="square" stroke-linejoin="bevel" transform="matrix(1.00313,0,0,1.00313,331.031,475.983)"
font-family="Sans" font-size="9" font-weight="400" font-style="normal" 
>
<text fill="#000000" fill-opacity="1" stroke="none" xml:space="preserve" x="0" y="0" font-family="Sans" font-size="9" font-weight="400" font-style="normal" 
 >z</text>
</g>

<g fill="none" stroke="#000000" stroke-opacity="1" stroke-width="1" stroke-linecap="square" stroke-linejoin="bevel" transform="matrix(1.00313,0,0,1.00313,331.031,475.983)"
font-family="Ubuntu" font-size="11" font-weight="400" font-style="normal" 
>
</g>

<g fill="none" stroke="#000000" stroke-opacity="1" stroke-width="1" stroke-linecap="square" stroke-linejoin="bevel" transform="matrix(1.00313,0,0,1.00313,312.473,27.5859)"
font-family="Ubuntu" font-size="11" font-weight="400" font-style="normal" 
>
</g>

<g fill="none" stroke="#000000" stroke-opacity="1" stroke-width="1" stroke-linecap="square" stroke-linejoin="bevel" transform="matrix(1.00313,0,0,1.00313,312.473,27.5859)"
font-family="Ubuntu" font-size="11" font-weight="400" font-style="normal" 
>
</g>

<g fill="none" stroke="#000000" stroke-opacity="1" stroke-width="1" stroke-linecap="square" stroke-linejoin="bevel" transform="matrix(1.00313,0,0,1.00313,312.473,27.5859)"
font-family="Ubuntu" font-size="11" font-weight="400" font-style="normal" 
>
</g>

<g fill="none" stroke="#000000" stroke-opacity="1" stroke-width="1" stroke-linecap="square" stroke-linejoin="bevel" transform="matrix(1.00313,0,0,1.00313,312.473,27.5859)"
font-family="Ubuntu" font-size="11" font-weight="400" font-style="normal" 
>
</g>

<g fill="none" stroke="#000000" stroke-opacity="1" stroke-width="1" stroke-linecap="square" stroke-linejoin="bevel" transform="matrix(1.00313,0,0,1.00313,312.473,27.5859)"
font-family="Ubuntu" font-size="11" font-weight="400" font-style="normal" 
>
</g>

<g fill="none" stroke="#000000" stroke-opacity="1" stroke-width="1" stroke-linecap="square" stroke-linejoin="bevel" transform="matrix(1.00313,0,0,1.00313,312.473,27.5859)"
font-family="Sans" font-size="9" font-weight="400" font-style="normal" 
>
<text fill="#000000" fill-opacity="1" stroke="none" xml:space="preserve" x="0" y="0" font-family="Sans" font-size="9" font-weight="400" font-style="normal" 
 >4</text>
<text fill="#000000" fill-opacity="1" stroke="none" xml:space="preserve" x="5.71875" y="0" font-family="Sans" font-size="9" font-weight="400" font-style="normal" 
 >d</text>
<text fill="#000000" fill-opacity="1" stroke="none" xml:space="preserve" x="11.4219" y="0" font-family="Sans" font-size="9" font-weight="400" font-style="normal" 
 > </text>
<text fill="#000000" fill-opacity="1" stroke="none" xml:space="preserve" x="14.2812" y="0" font-family="Sans" font-size="9" font-weight="400" font-style="normal" 
 >loop</text>
</g>

<g fill="none" stroke="#000000" stroke-opacity="1" stroke-width="1" stroke-linecap="square" stroke-linejoin="bevel" transform="matrix(1.00313,0,0,1.00313,312.473,27.5859)"
font-family="Ubuntu" font-size="11" font-weight="400" font-style="normal" 
>
</g>

<g fill="none" stroke="#000000" stroke-opacity="1" stroke-width="1" stroke-linecap="square" stroke-linejoin="bevel" transform="matrix(1.00313,0,0,1.00313,0,0)"
font-family="Ubuntu" font-size="11" font-weight="400" font-style="normal" 
>
</g>

<g fill="none" stroke="#000000" stroke-opacity="1" stroke-width="1" stroke-linecap="square" stroke-linejoin="bevel" transform="matrix(1.00313,0,0,1.00313,0,0)"
font-family="Ubuntu" font-size="11" font-weight="400" font-style="normal" 
>
</g>

<g fill="none" stroke="#000000" stroke-opacity="1" stroke-width="1" stroke-linecap="square" stroke-linejoin="bevel" transform="matrix(1.00313,0,0,1.00313,0,0)"
font-family="Ubuntu" font-size="11" font-weight="400" font-style="normal" 
>
</g>

<g fill="none" stroke="#9400d3" stroke-opacity="1" stroke-width="1" stroke-linecap="round" stroke-linejoin="round" transform="matrix(1.00313,0,0,1.00313,0,0)"
font-family="Ubuntu" font-size="11" font-weight="400" font-style="normal" 
>
<polyline fill="none" vector-effect="none" points="335.7,416.7 335.7,416.7 336.8,416.4 337.9,416.2 339,415.9 340,415.6 341,415.4 341.9,415.1 342.8,414.8 343.7,414.5 344.5,414.2 345.2,413.9 345.9,413.6 346.6,413.3 347.1,413 347.7,412.6 348.2,412.3 348.6,412 349,411.6 349.4,411.3 349.7,411 350,410.6 350.3,410.3 350.5,409.9 350.7,409.6 350.9,409.2 351,408.9 351.2,408.5 351.3,408.2 351.4,407.8 351.5,407.5 351.6,407.1 351.7,406.8 351.7,406.4 351.8,406.1 351.8,405.7 351.9,405.4 351.9,405 351.9,404.6 352,404.3 352,403.9 352,403.6 352,403.2 352.1,402.9 352.1,402.5 352.1,402.2 352.1,401.8 352.1,401.5 352.1,401.1 352.1,400.8 352.1,400.4 352.1,400.1 352.1,399.7 352.1,399.4 352.1,399 352.2,398.7 352.2,398.3 352.2,398 352.2,397.6 352.2,397.2 352.2,396.9 352.2,396.5 352.2,396.2 352.2,395.8 352.2,395.5 352.2,395.1 352.2,394.8 352.2,394.4 352.2,394.1 352.2,393.7 352.2,393.4 352.2,393 352.2,392.7 352.2,392.3 352.2,392 352.2,391.6 352.2,391.3 352.2,390.9 352.2,390.6 352.3,390.2 352.3,389.8 352.3,389.5 352.3,389.1 352.3,388.8 352.3,388.4 352.3,388.1 352.3,387.7 352.3,387.4 352.3,387 352.3,386.7 352.3,386.3 352.3,386 352.3,385.6 352.3,385.3 352.3,384.9 352.3,384.6 352.3,384.2 352.2,383.9 352.2,383.5 352.2,383.2 352.2,382.8 352.2,382.5 352.2,382.1 352.2,381.7 352.2,381.4 352.2,381 352.2,380.7 352.2,380.3 352.2,380 352.2,379.6 352.2,379.3 352.2,378.9 352.2,378.6 352.2,378.2 352.2,377.9 352.2,377.5 352.2,377.2 352.2,376.8 352.2,376.5 352.2,376.1 352.2,375.8 352.2,375.4 352.2,375.1 352.2,374.7 352.2,374.3 352.2,374 352.2,373.6 352.1,373.3 352.1,372.9 352.1,372.6 352.1,372.2 352.1,371.9 352.1,371.5 352.1,371.2 352.1,370.8 352.1,370.5 352.1,370.1 352.1,369.8 352.1,369.4 352.1,369.1 352.1,368.7 352.1,368.4 352.1,368 352.1,367.7 352.1,367.3 352.1,367 352.1,366.6 352.1,366.2 352,365.9 352,365.5 352,365.2 352,364.8 352,364.5 352,364.1 352,363.8 352,363.4 352,363.1 352,362.7 352,362.4 352,362 352,361.7 352,361.3 352,361 352,360.6 352,360.3 352,359.9 352,359.6 351.9,359.2 351.9,358.8 351.9,358.5 351.9,358.1 351.9,357.8 351.9,357.4 351.9,357.1 351.9,356.7 351.9,356.4 351.9,356 351.9,355.7 351.9,355.3 351.9,355 351.9,354.6 351.9,354.3 351.9,353.9 351.9,353.6 351.9,353.2 351.9,352.9 351.8,352.5 351.8,352.2 351.8,351.8 351.8,351.4 351.8,351.1 351.8,350.7 351.8,350.4 351.8,350 351.8,349.7 351.8,349.3 351.8,349 351.8,348.6 351.8,348.3 351.8,347.9 351.8,347.6 351.8,347.2 351.8,346.9 351.8,346.5 351.8,346.2 351.7,345.8 351.7,345.5 351.7,345.1 351.7,344.8 351.7,344.4 351.7,344.1 351.7,343.7 351.7,343.3 351.7,343 351.7,342.6 351.7,342.3 351.7,341.9 351.7,341.6 351.7,341.2 351.7,340.9 351.7,340.5 351.7,340.2 351.7,339.8 351.7,339.5 351.7,339.1 351.6,338.8 351.6,338.4 351.6,338.1 351.6,337.7 351.6,337.4 351.6,337 351.6,336.7 351.6,336.3 351.6,335.9 351.6,335.6 351.6,335.2 351.6,334.9 351.6,334.5 351.6,334.2 351.6,333.8 351.6,333.5 351.6,333.1 351.6,332.8 351.6,332.4 351.6,332.1 351.6,331.7 351.6,331.4 351.6,331 351.5,330.7 351.5,330.3 351.5,330 351.5,329.6 351.5,329.3 351.5,328.9 351.5,328.6 351.5,328.2 351.5,327.8 351.5,327.5 351.5,327.1 351.5,326.8 351.5,326.4 351.5,326.1 351.5,325.7 351.5,325.4 351.5,325 351.5,324.7 351.5,324.3 351.5,324 351.5,323.6 351.5,323.3 351.5,322.9 351.5,322.6 351.5,322.2 351.5,321.9 351.5,321.5 351.5,321.2 351.5,320.8 351.5,320.4 351.5,320.1 351.5,319.7 351.5,319.4 351.5,319 351.5,318.7 351.5,318.3 351.5,318 351.5,317.6 351.5,317.3 351.5,316.9 351.5,316.6 351.5,316.2 351.5,315.9 351.5,315.5 351.5,315.2 351.5,314.8 351.5,314.5 351.5,314.1 351.5,313.8 351.5,313.4 351.5,313.1 351.6,312.7 351.6,312.3 351.6,312 351.6,311.6 351.6,311.3 351.6,310.9 351.6,310.6 351.6,310.2 351.6,309.9 351.7,309.5 351.7,309.2 351.7,308.8 351.7,308.5 351.7,308.1 351.7,307.8 351.8,307.4 351.8,307.1 351.8,306.7 351.8,306.4 351.9,306 351.9,305.7 351.9,305.3 351.9,304.9 352,304.6 352,304.2 352,303.9 352.1,303.5 352.1,303.2 352.2,302.8 352.2,302.5 352.3,302.1 352.3,301.8 352.4,301.4 352.4,301.1 352.5,300.7 352.5,300.4 352.6,300 352.7,299.7 352.7,299.3 352.8,299 352.9,298.6 353,298.3 353.1,297.9 353.2,297.6 353.3,297.2 353.4,296.8 353.5,296.5 353.6,296.1 353.7,295.8 353.8,295.4 354,295.1 354.1,294.7 354.2,294.4 354.4,294 354.5,293.7 354.7,293.3 354.9,293 355.1,292.6 355.2,292.3 355.4,291.9 355.6,291.6 355.8,291.2 356,290.9 356.3,290.5 356.5,290.2 356.7,289.8 357,289.5 357.2,289.1 357.5,288.8 357.7,288.4 358,288.1 358.3,287.8 358.6,287.4 358.9,287.1 359.2,286.7 359.5,286.4 359.8,286 360.1,285.7 360.4,285.3 360.8,285 361.1,284.6 361.4,284.3 361.8,284 362.1,283.6 362.5,283.3 362.9,282.9 363.2,282.6 363.6,282.2 364,281.9 364.4,281.6 364.8,281.2 365.2,280.9 365.6,280.5 366,280.2 366.4,279.9 366.8,279.5 367.2,279.2 367.6,278.8 368,278.5 368.4,278.2 368.8,277.8 369.2,277.5 369.7,277.1 370.1,276.8 370.5,276.5 370.9,276.1 371.3,275.8 371.8,275.4 372.2,275.1 372.6,274.8 373,274.4 373.4,274.1 373.9,273.7 374.3,273.4 374.7,273.1 375.1,272.7 375.5,272.4 375.9,272 376.4,271.7 376.8,271.4 377.2,271 377.6,270.7 378,270.3 378.4,270 378.8,269.7 379.2,269.3 379.6,269 380,268.6 380.4,268.3 380.8,268 381.1,267.6 381.5,267.3 381.9,266.9 382.3,266.6 382.7,266.2 383,265.9 383.4,265.6 383.8,265.2 384.1,264.9 384.5,264.5 384.8,264.2 385.2,263.8 385.5,263.5 385.9,263.2 386.2,262.8 386.6,262.5 386.9,262.1 387.2,261.8 387.6,261.4 387.9,261.1 388.2,260.7 388.5,260.4 388.8,260.1 389.1,259.7 389.4,259.4 389.7,259 390,258.7 390.3,258.3 390.6,258 390.8,257.6 391.1,257.3 391.4,256.9 391.6,256.6 391.9,256.2 392.2,255.9 392.4,255.6 392.7,255.2 392.9,254.9 393.1,254.5 393.4,254.2 393.6,253.8 393.8,253.5 394,253.1 394.2,252.8 394.4,252.4 394.6,252.1 394.8,251.7 395,251.4 395.2,251 395.4,250.7 395.6,250.3 395.7,250 395.9,249.6 396.1,249.3 396.2,248.9 396.4,248.6 396.5,248.2 396.7,247.9 396.8,247.5 396.9,247.2 397,246.8 397.2,246.5 397.3,246.1 397.4,245.8 397.5,245.4 397.6,245.1 397.7,244.7 397.8,244.3 397.8,244 397.9,243.6 398,243.3 398,242.9 398.1,242.6 398.2,242.2 398.2,241.9 398.3,241.5 398.3,241.2 398.3,240.8 398.3,240.5 398.4,240.1 398.4,239.8 398.4,239.4 398.4,239.1 398.4,238.7 398.4,238.4 398.4,238 398.4,237.7 398.3,237.3 398.3,237 398.3,236.6 398.2,236.2 398.2,235.9 398.2,235.5 398.1,235.2 398,234.8 398,234.5 397.9,234.1 397.8,233.8 397.7,233.4 397.7,233.1 397.6,232.7 397.5,232.4 397.4,232 397.3,231.7 397.1,231.3 397,231 396.9,230.6 396.8,230.3 396.6,229.9 396.5,229.6 396.3,229.2 396.2,228.9 396,228.5 395.9,228.2 395.7,227.8 395.5,227.5 395.4,227.1 395.2,226.8 395,226.4 394.8,226.1 394.6,225.7 394.4,225.4 394.2,225 394,224.7 393.8,224.3 393.5,224 393.3,223.6 393.1,223.3 392.8,222.9 392.6,222.6 392.4,222.2 392.1,221.9 391.8,221.5 391.6,221.2 391.3,220.8 391.1,220.5 390.8,220.1 390.5,219.8 390.2,219.5 389.9,219.1 389.6,218.8 389.3,218.4 389,218.1 388.7,217.7 388.4,217.4 388.1,217 387.8,216.7 387.5,216.3 387.1,216 386.8,215.7 386.5,215.3 386.1,215 385.8,214.6 385.4,214.3 385.1,213.9 384.7,213.6 384.4,213.3 384,212.9 383.6,212.6 383.3,212.2 382.9,211.9 382.5,211.5 382.1,211.2 381.7,210.9 381.4,210.5 381,210.2 380.6,209.8 380.2,209.5 379.8,209.2 379.4,208.8 379,208.5 378.6,208.1 378.2,207.8 377.7,207.5 377.3,207.1 376.9,206.8 376.5,206.4 376.1,206.1 375.7,205.8 375.2,205.4 374.8,205.1 374.4,204.7 374,204.4 373.5,204.1 373.1,203.7 372.7,203.4 372.2,203 371.8,202.7 371.4,202.4 370.9,202 370.5,201.7 370.1,201.4 369.6,201 369.2,200.7 368.8,200.3 368.3,200 367.9,199.7 367.5,199.3 367.1,199 366.6,198.6 366.2,198.3 365.8,198 365.4,197.6 364.9,197.3 364.5,196.9 364.1,196.6 363.7,196.3 363.3,195.9 362.9,195.6 362.5,195.2 362.1,194.9 361.7,194.6 361.3,194.2 361,193.9 360.6,193.5 360.2,193.2 359.8,192.9 359.5,192.5 359.1,192.2 358.8,191.8 358.5,191.5 358.1,191.1 357.8,190.8 357.5,190.5 357.2,190.1 356.9,189.8 356.6,189.4 356.3,189.1 356,188.7 355.7,188.4 355.4,188 355.2,187.7 354.9,187.3 354.7,187 354.4,186.6 354.2,186.3 354,186 353.8,185.6 353.5,185.3 353.3,184.9 353.2,184.6 353,184.2 352.8,183.9 352.6,183.5 352.4,183.2 352.3,182.8 352.1,182.5 352,182.1 351.8,181.8 351.7,181.4 351.6,181.1 351.4,180.7 351.3,180.4 351.2,180 351.1,179.6 351,179.3 350.9,178.9 350.8,178.6 350.7,178.2 350.6,177.9 350.5,177.5 350.5,177.2 350.4,176.8 350.3,176.5 350.2,176.1 350.2,175.8 350.1,175.4 350.1,175.1 350,174.7 349.9,174.4 349.9,174 349.8,173.7 349.8,173.3 349.7,173 349.7,172.6 349.7,172.3 349.6,171.9 349.6,171.6 349.5,171.2 349.5,170.9 349.5,170.5 349.4,170.1 349.4,169.8 349.4,169.4 349.3,169.1 349.3,168.7 349.3,168.4 349.3,168 349.2,167.7 349.2,167.3 349.2,167 349.2,166.6 349.1,166.3 349.1,165.9 349.1,165.6 349.1,165.2 349.1,164.9 349,164.5 349,164.2 349,163.8 349,163.5 349,163.1 349,162.8 348.9,162.4 348.9,162 348.9,161.7 348.9,161.3 348.9,161 348.9,160.6 348.8,160.3 348.8,159.9 348.8,159.6 348.8,159.2 348.8,158.9 348.8,158.5 348.8,158.2 348.8,157.8 348.7,157.5 348.7,157.1 348.7,156.8 348.7,156.4 348.7,156.1 348.7,155.7 348.7,155.4 348.7,155 348.7,154.7 348.6,154.3 348.6,153.9 348.6,153.6 348.6,153.2 348.6,152.9 348.6,152.5 348.6,152.2 348.6,151.8 348.6,151.5 348.6,151.1 348.6,150.8 348.5,150.4 348.5,150.1 348.5,149.7 348.5,149.4 348.5,149 348.5,148.7 348.5,148.3 348.5,148 348.5,147.6 348.5,147.3 348.5,146.9 348.4,146.5 348.4,146.2 348.4,145.8 348.4,145.5 348.4,145.1 348.4,144.8 348.4,144.4 348.4,144.1 348.4,143.7 348.4,143.4 348.4,143 348.4,142.7 348.4,142.3 348.3,142 348.3,141.6 348.3,141.3 348.3,140.9 348.3,140.6 348.3,140.2 348.3,139.9 348.3,139.5 348.3,139.2 348.3,138.8 348.3,138.4 348.3,138.1 348.3,137.7 348.3,137.4 348.2,137 348.2,136.7 348.2,136.3 348.2,136 348.2,135.6 348.2,135.3 348.2,134.9 348.2,134.6 348.2,134.2 348.2,133.9 348.2,133.5 348.2,133.2 348.2,132.8 348.2,132.5 348.1,132.1 348.1,131.8 348.1,131.4 348.1,131 348.1,130.7 348.1,130.3 348.1,130 348.1,129.6 348.1,129.3 348.1,128.9 348.1,128.6 348.1,128.2 348.1,127.9 348.1,127.5 348.1,127.2 348,126.8 348,126.5 348,126.1 348,125.8 348,125.4 348,125.1 348,124.7 348,124.4 348,124 348,123.7 348,123.3 348,122.9 348,122.6 348,122.2 348,121.9 347.9,121.5 347.9,121.2 347.9,120.8 347.9,120.5 347.9,120.1 347.9,119.8 347.9,119.4 347.9,119.1 347.9,118.7 347.9,118.4 347.9,118 347.9,117.7 347.9,117.3 347.9,117 347.8,116.6 347.8,116.3 347.8,115.9 347.8,115.5 347.8,115.2 347.8,114.8 347.8,114.5 347.8,114.1 347.8,113.8 347.8,113.4 347.8,113.1 347.8,112.7 347.8,112.4 347.8,112 347.7,111.7 347.7,111.3 347.7,111 347.7,110.6 347.7,110.3 347.7,109.9 347.7,109.6 347.7,109.2 347.7,108.9 347.7,108.5 347.7,108.1 347.7,107.8 347.7,107.4 347.7,107.1 347.6,106.7 347.6,106.4 347.6,106 347.6,105.7 347.6,105.3 347.6,105 347.6,104.6 347.6,104.3 347.6,103.9 347.6,103.6 347.6,103.2 347.6,102.9 347.6,102.5 347.5,102.2 347.5,101.8 347.5,101.5 347.5,101.1 347.5,100.8 347.5,100.4 347.5,100 347.5,99.7 347.5,99.3 347.5,99 347.5,98.6 347.4,98.3 347.4,97.9 347.4,97.6 347.4,97.2 347.4,96.9 347.4,96.5 347.4,96.2 347.4,95.8 347.4,95.5 347.4,95.1 347.4,94.8 347.3,94.4 347.3,94.1 347.3,93.7 347.3,93.4 347.3,93 347.3,92.7 347.3,92.3 347.3,91.9 347.3,91.6 347.2,91.2 347.2,90.9 347.2,90.5 347.2,90.2 347.2,89.8 347.2,89.5 347.2,89.1 347.2,88.8 347.1,88.4 347.1,88.1 347.1,87.7 347.1,87.4 347.1,87 347.1,86.7 347.1,86.3 347,86 347,85.6 347,85.3 347,84.9 347,84.5 347,84.2 346.9,83.8 346.9,83.5 346.9,83.1 346.9,82.8 346.9,82.4 346.9,82.1 346.8,81.7 346.8,81.4 346.8,81 346.8,80.7 346.8,80.3 346.7,80 346.7,79.6 346.7,79.3 346.7,78.9 346.7,78.6 346.6,78.2 346.6,77.9 346.6,77.5 346.6,77.2 346.6,76.8 346.5,76.4 346.5,76.1 346.5,75.7 346.5,75.4 346.4,75 346.4,74.7 346.4,74.3 346.4,74 346.3,73.6 346.3,73.3 346.3,72.9 346.2,72.6 346.2,72.2 346.1,71.9 346.1,71.5 346,71.2 346,70.8 345.9,70.5 345.8,70.1 345.7,69.8 345.6,69.4 345.5,69.1 345.4,68.7 345.3,68.4 345.1,68 344.9,67.7 344.7,67.3 344.5,67 344.2,66.6 343.9,66.3 343.6,65.9 343.3,65.6 342.9,65.2 342.4,64.9 342,64.5 341.5,64.2 340.9,63.9 340.3,63.6 339.6,63.2 338.8,62.9 338,62.6 337.2,62.3 336.2,62 335.3,61.7 334.2,61.5 333.2,61.2 332.1,60.9 330.9,60.7 329.8,60.4 328.7,60.7 327.6,60.9 326.6,61.2 325.5,61.5 324.5,61.7 323.6,62 322.7,62.3 321.8,62.6 321,62.9 320.3,63.2 319.6,63.5 319,63.8 318.4,64.1 317.8,64.4 317.4,64.8 316.9,65.1 316.5,65.4 316.1,65.8 315.8,66.1 315.5,66.5 315.2,66.8 315,67.2 314.8,67.5 314.6,67.9 314.4,68.2 314.3,68.6 314.2,68.9 314.1,69.3 314,69.6 313.9,70 313.8,70.3 313.7,70.7 313.7,71 313.6,71.4 313.6,71.7 313.6,72.1 313.5,72.4 313.5,72.8 313.5,73.1 313.5,73.5 313.4,73.8 313.4,74.2 313.4,74.5 313.4,74.9 313.4,75.2 313.4,75.6 313.4,75.9 313.4,76.3 313.4,76.6 313.4,77 313.3,77.3 313.3,77.7 313.3,78.1 313.3,78.4 313.3,78.8 313.3,79.1 313.3,79.5 313.3,79.8 313.3,80.2 313.3,80.5 313.3,80.9 313.3,81.2 313.3,81.6 313.3,81.9 313.3,82.3 313.3,82.6 313.3,83 313.3,83.3 313.3,83.7 313.2,84 313.2,84.4 313.2,84.7 313.2,85.1 313.2,85.4 313.2,85.8 313.2,86.1 313.2,86.5 313.2,86.8 313.2,87.2 313.2,87.5 313.2,87.9 313.2,88.2 313.2,88.6 313.2,89 313.2,89.3 313.2,89.7 313.2,90 313.2,90.4 313.2,90.7 313.2,91.1 313.2,91.4 313.2,91.8 313.2,92.1 313.2,92.5 313.2,92.8 313.2,93.2 313.2,93.5 313.2,93.9 313.2,94.2 313.2,94.6 313.2,94.9 313.2,95.3 313.2,95.6 313.2,96 313.2,96.3 313.3,96.7 313.3,97 313.3,97.4 313.3,97.7 313.3,98.1 313.3,98.4 313.3,98.8 313.3,99.1 313.3,99.5 313.3,99.9 313.3,100.2 313.3,100.6 313.3,100.9 313.3,101.3 313.3,101.6 313.3,102 313.3,102.3 313.3,102.7 313.3,103 313.3,103.4 313.3,103.7 313.3,104.1 313.3,104.4 313.3,104.8 313.3,105.1 313.3,105.5 313.4,105.8 313.4,106.2 313.4,106.5 313.4,106.9 313.4,107.2 313.4,107.6 313.4,107.9 313.4,108.3 313.4,108.6 313.4,109 313.4,109.3 313.4,109.7 313.4,110 313.4,110.4 313.4,110.8 313.4,111.1 313.4,111.5 313.4,111.8 313.4,112.2 313.4,112.5 313.5,112.9 313.5,113.2 313.5,113.6 313.5,113.9 313.5,114.3 313.5,114.6 313.5,115 313.5,115.3 313.5,115.7 313.5,116 313.5,116.4 313.5,116.7 313.5,117.1 313.5,117.4 313.5,117.8 313.5,118.1 313.5,118.5 313.5,118.8 313.5,119.2 313.6,119.5 313.6,119.9 313.6,120.2 313.6,120.6 313.6,120.9 313.6,121.3 313.6,121.7 313.6,122 313.6,122.4 313.6,122.7 313.6,123.1 313.6,123.4 313.6,123.8 313.6,124.1 313.6,124.5 313.6,124.8 313.6,125.2 313.6,125.5 313.6,125.9 313.7,126.2 313.7,126.6 313.7,126.9 313.7,127.3 313.7,127.6 313.7,128 313.7,128.3 313.7,128.7 313.7,129 313.7,129.4 313.7,129.7 313.7,130.1 313.7,130.4 313.7,130.8 313.7,131.1 313.7,131.5 313.7,131.8 313.7,132.2 313.7,132.6 313.8,132.9 313.8,133.3 313.8,133.6 313.8,134 313.8,134.3 313.8,134.7 313.8,135 313.8,135.4 313.8,135.7 313.8,136.1 313.8,136.4 313.8,136.8 313.8,137.1 313.8,137.5 313.8,137.8 313.8,138.2 313.8,138.5 313.8,138.9 313.8,139.2 313.8,139.6 313.9,139.9 313.9,140.3 313.9,140.6 313.9,141 313.9,141.3 313.9,141.7 313.9,142 313.9,142.4 313.9,142.7 313.9,143.1 313.9,143.5 313.9,143.8 313.9,144.2 313.9,144.5 313.9,144.9 313.9,145.2 313.9,145.6 313.9,145.9 313.9,146.3 313.9,146.6 313.9,147 313.9,147.3 313.9,147.7 313.9,148 313.9,148.4 314,148.7 314,149.1 314,149.4 314,149.8 314,150.1 314,150.5 314,150.8 314,151.2 314,151.5 314,151.9 314,152.2 314,152.6 314,152.9 314,153.3 314,153.6 314,154 314,154.4 314,154.7 314,155.1 314,155.4 314,155.8 314,156.1 314,156.5 314,156.8 314,157.2 314,157.5 314,157.9 314,158.2 314,158.6 314,158.9 314,159.3 314,159.6 314,160 314,160.3 314,160.7 314,161 314,161.4 314,161.7 314,162.1 314,162.4 314,162.8 313.9,163.1 313.9,163.5 313.9,163.8 313.9,164.2 313.9,164.6 313.9,164.9 313.9,165.3 313.9,165.6 313.9,166 313.9,166.3 313.9,166.7 313.8,167 313.8,167.4 313.8,167.7 313.8,168.1 313.8,168.4 313.8,168.8 313.7,169.1 313.7,169.5 313.7,169.8 313.7,170.2 313.7,170.5 313.6,170.9 313.6,171.2 313.6,171.6 313.6,171.9 313.5,172.3 313.5,172.6 313.5,173 313.4,173.3 313.4,173.7 313.3,174 313.3,174.4 313.3,174.7 313.2,175.1 313.2,175.5 313.1,175.8 313,176.2 313,176.5 312.9,176.9 312.9,177.2 312.8,177.6 312.7,177.9 312.6,178.3 312.5,178.6 312.5,179 312.4,179.3 312.3,179.7 312.2,180 312.1,180.4 312,180.7 311.8,181.1 311.7,181.4 311.6,181.8 311.5,182.1 311.3,182.5 311.2,182.8 311,183.2 310.9,183.5 310.7,183.9 310.5,184.2 310.4,184.6 310.2,184.9 310,185.3 309.8,185.6 309.6,186 309.4,186.3 309.1,186.7 308.9,187 308.7,187.4 308.4,187.7 308.2,188.1 307.9,188.4 307.7,188.8 307.4,189.1 307.1,189.4 306.8,189.8 306.5,190.1 306.2,190.5 305.9,190.8 305.6,191.2 305.3,191.5 304.9,191.9 304.6,192.2 304.3,192.5 303.9,192.9 303.6,193.2 303.2,193.6 302.8,193.9 302.5,194.3 302.1,194.6 301.7,194.9 301.3,195.3 301,195.6 300.6,196 300.2,196.3 299.8,196.6 299.4,197 299,197.3 298.6,197.7 298.2,198 297.7,198.3 297.3,198.7 296.9,199 296.5,199.4 296.1,199.7 295.7,200 295.3,200.4 294.8,200.7 294.4,201.1 294,201.4 293.6,201.7 293.2,202.1 292.7,202.4 292.3,202.8 291.9,203.1 291.5,203.4 291.1,203.8 290.6,204.1 290.2,204.4 289.8,204.8 289.4,205.1 289,205.5 288.6,205.8 288.2,206.1 287.7,206.5 287.3,206.8 286.9,207.2 286.5,207.5 286.1,207.8 285.7,208.2 285.3,208.5 285,208.9 284.6,209.2 284.2,209.5 283.8,209.9 283.4,210.2 283,210.6 282.7,210.9 282.3,211.2 281.9,211.6 281.6,211.9 281.2,212.3 280.8,212.6 280.5,213 280.1,213.3 279.8,213.6 279.4,214 279.1,214.3 278.8,214.7 278.4,215 278.1,215.4 277.8,215.7 277.5,216.1 277.1,216.4 276.8,216.7 276.5,217.1 276.2,217.4 275.9,217.8 275.6,218.1 275.3,218.5 275,218.8 274.8,219.2 274.5,219.5 274.2,219.8 273.9,220.2 273.7,220.5 273.4,220.9 273.2,221.2 272.9,221.6 272.7,221.9 272.4,222.3 272.2,222.6 272,223 271.7,223.3 271.5,223.7 271.3,224 271.1,224.4 270.9,224.7 270.7,225.1 270.5,225.4 270.3,225.8 270.1,226.1 269.9,226.5 269.8,226.8 269.6,227.2 269.4,227.5 269.3,227.9 269.1,228.2 269,228.6 268.8,228.9 268.7,229.3 268.6,229.6 268.4,230 268.3,230.3 268.2,230.7 268.1,231 268,231.4 267.9,231.7 267.8,232.1 267.7,232.4 267.6,232.8 267.5,233.1 267.4,233.5 267.4,233.8 267.3,234.2 267.2,234.5 267.2,234.9 267.1,235.2 267.1,235.6 267.1,235.9 267,236.3 267,236.6 267,237 267,237.3 266.9,237.7 266.9,238 266.9,238.4 266.9,238.7 267,239.1 267,239.4 267,239.8 267,240.1 267.1,240.5 267.1,240.8 267.1,241.2 267.2,241.5 267.2,241.9 267.3,242.3 267.4,242.6 267.4,243 267.5,243.3 267.6,243.7 267.7,244 267.8,244.4 267.9,244.7 268,245.1 268.1,245.4 268.2,245.8 268.3,246.1 268.4,246.5 268.6,246.8 268.7,247.2 268.8,247.5 269,247.9 269.1,248.2 269.3,248.6 269.5,248.9 269.6,249.3 269.8,249.6 270,250 270.2,250.3 270.3,250.7 270.5,251 270.7,251.4 270.9,251.7 271.1,252.1 271.4,252.4 271.6,252.8 271.8,253.1 272,253.4 272.3,253.8 272.5,254.1 272.7,254.5 273,254.8 273.2,255.2 273.5,255.5 273.7,255.9 274,256.2 274.3,256.6 274.6,256.9 274.8,257.3 275.1,257.6 275.4,258 275.7,258.3 276,258.6 276.3,259 276.6,259.3 276.9,259.7 277.2,260 277.6,260.4 277.9,260.7 278.2,261.1 278.5,261.4 278.9,261.7 279.2,262.1 279.6,262.4 279.9,262.8 280.3,263.1 280.6,263.5 281,263.8 281.3,264.1 281.7,264.5 282.1,264.8 282.4,265.2 282.8,265.5 283.2,265.8 283.6,266.2 284,266.5 284.4,266.9 284.8,267.2 285.1,267.6 285.5,267.9 285.9,268.2 286.3,268.6 286.8,268.9 287.2,269.3 287.6,269.6 288,269.9 288.4,270.3 288.8,270.6 289.2,270.9 289.7,271.3 290.1,271.6 290.5,272 290.9,272.3 291.4,272.6 291.8,273 292.2,273.3 292.7,273.6 293.1,274 293.5,274.3 294,274.7 294.4,275 294.8,275.3 295.3,275.7 295.7,276 296.1,276.4 296.6,276.7 297,277 297.4,277.4 297.8,277.7 298.3,278 298.7,278.4 299.1,278.7 299.5,279.1 300,279.4 300.4,279.7 300.8,280.1 301.2,280.4 301.6,280.7 302,281.1 302.4,281.4 302.8,281.8 303.2,282.1 303.6,282.4 304,282.8 304.4,283.1 304.8,283.5 305.1,283.8 305.5,284.1 305.9,284.5 306.2,284.8 306.6,285.2 306.9,285.5 307.2,285.9 307.6,286.2 307.9,286.5 308.2,286.9 308.5,287.2 308.8,287.6 309.1,287.9 309.4,288.3 309.7,288.6 309.9,289 310.2,289.3 310.5,289.7 310.7,290 311,290.3 311.2,290.7 311.4,291 311.6,291.4 311.9,291.7 312.1,292.1 312.3,292.4 312.4,292.8 312.6,293.1 312.8,293.5 313,293.8 313.1,294.2 313.3,294.5 313.4,294.9 313.6,295.2 313.7,295.6 313.9,295.9 314,296.3 314.1,296.6 314.2,297 314.3,297.3 314.4,297.7 314.5,298 314.6,298.4 314.7,298.7 314.8,299.1 314.9,299.4 315,299.8 315.1,300.1 315.1,300.5 315.2,300.8 315.3,301.2 315.3,301.5 315.4,301.9 315.5,302.2 315.5,302.6 315.6,302.9 315.6,303.3 315.7,303.7 315.7,304 315.8,304.4 315.8,304.7 315.8,305.1 315.9,305.4 315.9,305.8 316,306.1 316,306.5 316,306.8 316.1,307.2 316.1,307.5 316.1,307.9 316.1,308.2 316.2,308.6 316.2,308.9 316.2,309.3 316.3,309.6 316.3,310 316.3,310.3 316.3,310.7 316.3,311 316.4,311.4 316.4,311.7 316.4,312.1 316.4,312.4 316.4,312.8 316.5,313.1 316.5,313.5 316.5,313.8 316.5,314.2 316.5,314.5 316.5,314.9 316.6,315.3 316.6,315.6 316.6,316 316.6,316.3 316.6,316.7 316.6,317 316.6,317.4 316.7,317.7 316.7,318.1 316.7,318.4 316.7,318.8 316.7,319.1 316.7,319.5 316.7,319.8 316.7,320.2 316.8,320.5 316.8,320.9 316.8,321.2 316.8,321.6 316.8,321.9 316.8,322.3 316.8,322.6 316.8,323 316.8,323.3 316.9,323.7 316.9,324 316.9,324.4 316.9,324.7 316.9,325.1 316.9,325.4 316.9,325.8 316.9,326.2 316.9,326.5 316.9,326.9 316.9,327.2 317,327.6 317,327.9 317,328.3 317,328.6 317,329 317,329.3 317,329.7 317,330 317,330.4 317,330.7 317,331.1 317,331.4 317.1,331.8 317.1,332.1 317.1,332.5 317.1,332.8 317.1,333.2 317.1,333.5 317.1,333.9 317.1,334.2 317.1,334.6 317.1,334.9 317.1,335.3 317.1,335.6 317.1,336 317.2,336.3 317.2,336.7 317.2,337.1 317.2,337.4 317.2,337.8 317.2,338.1 317.2,338.5 317.2,338.8 317.2,339.2 317.2,339.5 317.2,339.9 317.2,340.2 317.2,340.6 317.2,340.9 317.3,341.3 317.3,341.6 317.3,342 317.3,342.3 317.3,342.7 317.3,343 317.3,343.4 317.3,343.7 317.3,344.1 317.3,344.4 317.3,344.8 317.3,345.1 317.3,345.5 317.3,345.8 317.4,346.2 317.4,346.5 317.4,346.9 317.4,347.2 317.4,347.6 317.4,348 317.4,348.3 317.4,348.7 317.4,349 317.4,349.4 317.4,349.7 317.4,350.1 317.4,350.4 317.4,350.8 317.4,351.1 317.5,351.5 317.5,351.8 317.5,352.2 317.5,352.5 317.5,352.9 317.5,353.2 317.5,353.6 317.5,353.9 317.5,354.3 317.5,354.6 317.5,355 317.5,355.3 317.5,355.7 317.5,356 317.5,356.4 317.6,356.7 317.6,357.1 317.6,357.4 317.6,357.8 317.6,358.1 317.6,358.5 317.6,358.9 317.6,359.2 317.6,359.6 317.6,359.9 317.6,360.3 317.6,360.6 317.6,361 317.6,361.3 317.7,361.7 317.7,362 317.7,362.4 317.7,362.7 317.7,363.1 317.7,363.4 317.7,363.8 317.7,364.1 317.7,364.5 317.7,364.8 317.7,365.2 317.7,365.5 317.7,365.9 317.7,366.2 317.8,366.6 317.8,366.9 317.8,367.3 317.8,367.6 317.8,368 317.8,368.3 317.8,368.7 317.8,369 317.8,369.4 317.8,369.8 317.8,370.1 317.8,370.5 317.8,370.8 317.8,371.2 317.9,371.5 317.9,371.9 317.9,372.2 317.9,372.6 317.9,372.9 317.9,373.3 317.9,373.6 317.9,374 317.9,374.3 317.9,374.7 317.9,375 317.9,375.4 318,375.7 318,376.1 318,376.4 318,376.8 318,377.1 318,377.5 318,377.8 318,378.2 318,378.5 318,378.9 318,379.2 318,379.6 318.1,379.9 318.1,380.3 318.1,380.6 318.1,381 318.1,381.4 318.1,381.7 318.1,382.1 318.1,382.4 318.1,382.8 318.1,383.1 318.2,383.5 318.2,383.8 318.2,384.2 318.2,384.5 318.2,384.9 318.2,385.2 318.2,385.6 318.2,385.9 318.2,386.3 318.3,386.6 318.3,387 318.3,387.3 318.3,387.7 318.3,388 318.3,388.4 318.3,388.7 318.4,389.1 318.4,389.4 318.4,389.8 318.4,390.1 318.4,390.5 318.4,390.8 318.4,391.2 318.5,391.5 318.5,391.9 318.5,392.3 318.5,392.6 318.5,393 318.5,393.3 318.6,393.7 318.6,394 318.6,394.4 318.6,394.7 318.6,395.1 318.6,395.4 318.7,395.8 318.7,396.1 318.7,396.5 318.7,396.8 318.7,397.2 318.8,397.5 318.8,397.9 318.8,398.2 318.8,398.6 318.8,398.9 318.9,399.3 318.9,399.6 318.9,400 318.9,400.3 318.9,400.7 319,401 319,401.4 319,401.7 319,402.1 319.1,402.4 319.1,402.8 319.1,403.1 319.1,403.5 319.2,403.9 319.2,404.2 319.2,404.6 319.3,404.9 319.3,405.3 319.4,405.6 319.4,406 319.5,406.3 319.6,406.7 319.7,407 319.7,407.4 319.8,407.7 320,408.1 320.1,408.4 320.2,408.8 320.4,409.1 320.6,409.5 320.8,409.8 321,410.2 321.3,410.5 321.6,410.9 321.9,411.2 322.2,411.5 322.6,411.9 323.1,412.2 323.5,412.6 324.1,412.9 324.6,413.2 325.3,413.6 325.9,413.9 326.7,414.2 327.5,414.5 328.4,414.8 329.3,415.1 330.3,415.4 331.3,415.6 332.4,415.9 333.5,416.2 334.6,416.4 " />
</g>

<g fill="none" stroke="#000000" stroke-opacity="1" stroke-width="1" stroke-linecap="square" stroke-linejoin="bevel" transform="matrix(1.00313,0,0,1.00313,0,0)"
font-family="Ubuntu" font-size="11" font-weight="400" font-style="normal" 
>
</g>

<g fill="none" stroke="#000000" stroke-opacity="1" stroke-width="1" stroke-linecap="square" stroke-linejoin="bevel" transform="matrix(1.00313,0,0,1.00313,0,0)"
font-family="Ubuntu" font-size="11" font-weight="400" font-style="normal" 
>
</g>

<g fill="none" stroke="#000000" stroke-opacity="1" stroke-width="1" stroke-linecap="round" stroke-linejoin="round" transform="matrix(1.00313,0,0,1.00313,0,0)"
font-family="Ubuntu" font-size="11" font-weight="400" font-style="normal" 
>
<polyline fill="none" vector-effect="none" points="46.5,45.5 46.5,432.5 618.5,432.5 618.5,45.5 46.5,45.5 " />
</g>

<g fill="none" stroke="#000000" stroke-opacity="1" stroke-width="1" stroke-linecap="square" stroke-linejoin="bevel" transform="matrix(1.00313,0,0,1.00313,0,0)"
font-family="Ubuntu" font-size="11" font-weight="400" font-style="normal" 
>
</g>

<g fill="none" stroke="#000000" stroke-opacity="1" stroke-width="1" stroke-linecap="square" stroke-linejoin="bevel" transform="matrix(1,0,0,1,0,0)"
font-family="Ubuntu" font-size="11" font-weight="400" font-style="normal" 
>
</g>
</g>
</svg>
