<?xml version="1.0" encoding="UTF-8" standalone="no"?>
<svg width="226.483mm" height="170.039mm"
 viewBox="0 0 642 482"
 xmlns="http://www.w3.org/2000/svg" xmlns:xlink="http://www.w3.org/1999/xlink"  version="1.2" baseProfile="tiny">
<title>Qt Svg Document</title>
<desc>Generated with Qt</desc>
<defs>
</defs>
<g fill="none" stroke="black" stroke-width="1" fill-rule="evenodd" stroke-linecap="square" stroke-linejoin="bevel" >

<g fill="none" stroke="#000000" stroke-opacity="1" stroke-width="1" stroke-linecap="square" stroke-linejoin="bevel" transform="matrix(1,0,0,1,0,0)"
font-family="Ubuntu" font-size="11" font-weight="400" font-style="normal" 
>
</g>

<g fill="none" stroke="#000000" stroke-opacity="1" stroke-width="1" stroke-linecap="square" stroke-linejoin="bevel" transform="matrix(1.00313,0,0,1.00313,0,0)"
font-family="Ubuntu" font-size="11" font-weight="400" font-style="normal" 
>
</g>

<g fill="none" stroke="#000000" stroke-opacity="1" stroke-width="1" stroke-linecap="round" stroke-linejoin="round" transform="matrix(1.00313,0,0,1.00313,0,0)"
font-family="Ubuntu" font-size="11" font-weight="400" font-style="normal" 
>
<polyline fill="none" vector-effect="none" points="59.5,435.5 65.5,435.5 " />
<polyline fill="none" vector-effect="none" points="618.5,435.5 613.5,435.5 " />
</g>

<g fill="none" stroke="#000000" stroke-opacity="1" stroke-width="1" stroke-linecap="square" stroke-linejoin="bevel" transform="matrix(1.00313,0,0,1.00313,0,0)"
font-family="Ubuntu" font-size="11" font-weight="400" font-style="normal" 
>
</g>

<g fill="none" stroke="#000000" stroke-opacity="1" stroke-width="1" stroke-linecap="square" stroke-linejoin="bevel" transform="matrix(1.00313,0,0,1.00313,41.1281,440.873)"
font-family="Ubuntu" font-size="11" font-weight="400" font-style="normal" 
>
</g>

<g fill="none" stroke="#000000" stroke-opacity="1" stroke-width="1" stroke-linecap="square" stroke-linejoin="bevel" transform="matrix(1.00313,0,0,1.00313,41.1281,440.873)"
font-family="Ubuntu" font-size="11" font-weight="400" font-style="normal" 
>
</g>

<g fill="none" stroke="#000000" stroke-opacity="1" stroke-width="1" stroke-linecap="square" stroke-linejoin="bevel" transform="matrix(1.00313,0,0,1.00313,41.1281,440.873)"
font-family="Ubuntu" font-size="11" font-weight="400" font-style="normal" 
>
</g>

<g fill="none" stroke="#000000" stroke-opacity="1" stroke-width="1" stroke-linecap="square" stroke-linejoin="bevel" transform="matrix(1.00313,0,0,1.00313,41.1281,440.873)"
font-family="Ubuntu" font-size="11" font-weight="400" font-style="normal" 
>
</g>

<g fill="none" stroke="#000000" stroke-opacity="1" stroke-width="1" stroke-linecap="square" stroke-linejoin="bevel" transform="matrix(1.00313,0,0,1.00313,41.1281,440.873)"
font-family="Ubuntu" font-size="11" font-weight="400" font-style="normal" 
>
</g>

<g fill="none" stroke="#000000" stroke-opacity="1" stroke-width="1" stroke-linecap="square" stroke-linejoin="bevel" transform="matrix(1.00313,0,0,1.00313,41.1281,440.873)"
font-family="Sans" font-size="9" font-weight="400" font-style="normal" 
>
<text fill="#000000" fill-opacity="1" stroke="none" xml:space="preserve" x="0" y="0" font-family="Sans" font-size="9" font-weight="400" font-style="normal" 
 >-1</text>
</g>

<g fill="none" stroke="#000000" stroke-opacity="1" stroke-width="1" stroke-linecap="square" stroke-linejoin="bevel" transform="matrix(1.00313,0,0,1.00313,41.1281,440.873)"
font-family="Ubuntu" font-size="11" font-weight="400" font-style="normal" 
>
</g>

<g fill="none" stroke="#000000" stroke-opacity="1" stroke-width="1" stroke-linecap="square" stroke-linejoin="bevel" transform="matrix(1.00313,0,0,1.00313,0,0)"
font-family="Ubuntu" font-size="11" font-weight="400" font-style="normal" 
>
</g>

<g fill="none" stroke="#000000" stroke-opacity="1" stroke-width="1" stroke-linecap="round" stroke-linejoin="round" transform="matrix(1.00313,0,0,1.00313,0,0)"
font-family="Ubuntu" font-size="11" font-weight="400" font-style="normal" 
>
<polyline fill="none" vector-effect="none" points="59.5,336.5 65.5,336.5 " />
<polyline fill="none" vector-effect="none" points="618.5,336.5 613.5,336.5 " />
</g>

<g fill="none" stroke="#000000" stroke-opacity="1" stroke-width="1" stroke-linecap="square" stroke-linejoin="bevel" transform="matrix(1.00313,0,0,1.00313,0,0)"
font-family="Ubuntu" font-size="11" font-weight="400" font-style="normal" 
>
</g>

<g fill="none" stroke="#000000" stroke-opacity="1" stroke-width="1" stroke-linecap="square" stroke-linejoin="bevel" transform="matrix(1.00313,0,0,1.00313,29.0906,342.567)"
font-family="Ubuntu" font-size="11" font-weight="400" font-style="normal" 
>
</g>

<g fill="none" stroke="#000000" stroke-opacity="1" stroke-width="1" stroke-linecap="square" stroke-linejoin="bevel" transform="matrix(1.00313,0,0,1.00313,29.0906,342.567)"
font-family="Ubuntu" font-size="11" font-weight="400" font-style="normal" 
>
</g>

<g fill="none" stroke="#000000" stroke-opacity="1" stroke-width="1" stroke-linecap="square" stroke-linejoin="bevel" transform="matrix(1.00313,0,0,1.00313,29.0906,342.567)"
font-family="Ubuntu" font-size="11" font-weight="400" font-style="normal" 
>
</g>

<g fill="none" stroke="#000000" stroke-opacity="1" stroke-width="1" stroke-linecap="square" stroke-linejoin="bevel" transform="matrix(1.00313,0,0,1.00313,29.0906,342.567)"
font-family="Ubuntu" font-size="11" font-weight="400" font-style="normal" 
>
</g>

<g fill="none" stroke="#000000" stroke-opacity="1" stroke-width="1" stroke-linecap="square" stroke-linejoin="bevel" transform="matrix(1.00313,0,0,1.00313,29.0906,342.567)"
font-family="Ubuntu" font-size="11" font-weight="400" font-style="normal" 
>
</g>

<g fill="none" stroke="#000000" stroke-opacity="1" stroke-width="1" stroke-linecap="square" stroke-linejoin="bevel" transform="matrix(1.00313,0,0,1.00313,29.0906,342.567)"
font-family="Sans" font-size="9" font-weight="400" font-style="normal" 
>
<text fill="#000000" fill-opacity="1" stroke="none" xml:space="preserve" x="0" y="0" font-family="Sans" font-size="9" font-weight="400" font-style="normal" 
 >-0.5</text>
</g>

<g fill="none" stroke="#000000" stroke-opacity="1" stroke-width="1" stroke-linecap="square" stroke-linejoin="bevel" transform="matrix(1.00313,0,0,1.00313,29.0906,342.567)"
font-family="Ubuntu" font-size="11" font-weight="400" font-style="normal" 
>
</g>

<g fill="none" stroke="#000000" stroke-opacity="1" stroke-width="1" stroke-linecap="square" stroke-linejoin="bevel" transform="matrix(1.00313,0,0,1.00313,0,0)"
font-family="Ubuntu" font-size="11" font-weight="400" font-style="normal" 
>
</g>

<g fill="none" stroke="#000000" stroke-opacity="1" stroke-width="1" stroke-linecap="round" stroke-linejoin="round" transform="matrix(1.00313,0,0,1.00313,0,0)"
font-family="Ubuntu" font-size="11" font-weight="400" font-style="normal" 
>
<polyline fill="none" vector-effect="none" points="59.5,238.5 65.5,238.5 " />
<polyline fill="none" vector-effect="none" points="618.5,238.5 613.5,238.5 " />
</g>

<g fill="none" stroke="#000000" stroke-opacity="1" stroke-width="1" stroke-linecap="square" stroke-linejoin="bevel" transform="matrix(1.00313,0,0,1.00313,0,0)"
font-family="Ubuntu" font-size="11" font-weight="400" font-style="normal" 
>
</g>

<g fill="none" stroke="#000000" stroke-opacity="1" stroke-width="1" stroke-linecap="square" stroke-linejoin="bevel" transform="matrix(1.00313,0,0,1.00313,41.1281,244.261)"
font-family="Ubuntu" font-size="11" font-weight="400" font-style="normal" 
>
</g>

<g fill="none" stroke="#000000" stroke-opacity="1" stroke-width="1" stroke-linecap="square" stroke-linejoin="bevel" transform="matrix(1.00313,0,0,1.00313,41.1281,244.261)"
font-family="Ubuntu" font-size="11" font-weight="400" font-style="normal" 
>
</g>

<g fill="none" stroke="#000000" stroke-opacity="1" stroke-width="1" stroke-linecap="square" stroke-linejoin="bevel" transform="matrix(1.00313,0,0,1.00313,41.1281,244.261)"
font-family="Ubuntu" font-size="11" font-weight="400" font-style="normal" 
>
</g>

<g fill="none" stroke="#000000" stroke-opacity="1" stroke-width="1" stroke-linecap="square" stroke-linejoin="bevel" transform="matrix(1.00313,0,0,1.00313,41.1281,244.261)"
font-family="Ubuntu" font-size="11" font-weight="400" font-style="normal" 
>
</g>

<g fill="none" stroke="#000000" stroke-opacity="1" stroke-width="1" stroke-linecap="square" stroke-linejoin="bevel" transform="matrix(1.00313,0,0,1.00313,41.1281,244.261)"
font-family="Ubuntu" font-size="11" font-weight="400" font-style="normal" 
>
</g>

<g fill="none" stroke="#000000" stroke-opacity="1" stroke-width="1" stroke-linecap="square" stroke-linejoin="bevel" transform="matrix(1.00313,0,0,1.00313,41.1281,244.261)"
font-family="Sans" font-size="9" font-weight="400" font-style="normal" 
>
<text fill="#000000" fill-opacity="1" stroke="none" xml:space="preserve" x="0" y="0" font-family="Sans" font-size="9" font-weight="400" font-style="normal" 
 > 0</text>
</g>

<g fill="none" stroke="#000000" stroke-opacity="1" stroke-width="1" stroke-linecap="square" stroke-linejoin="bevel" transform="matrix(1.00313,0,0,1.00313,41.1281,244.261)"
font-family="Ubuntu" font-size="11" font-weight="400" font-style="normal" 
>
</g>

<g fill="none" stroke="#000000" stroke-opacity="1" stroke-width="1" stroke-linecap="square" stroke-linejoin="bevel" transform="matrix(1.00313,0,0,1.00313,0,0)"
font-family="Ubuntu" font-size="11" font-weight="400" font-style="normal" 
>
</g>

<g fill="none" stroke="#000000" stroke-opacity="1" stroke-width="1" stroke-linecap="round" stroke-linejoin="round" transform="matrix(1.00313,0,0,1.00313,0,0)"
font-family="Ubuntu" font-size="11" font-weight="400" font-style="normal" 
>
<polyline fill="none" vector-effect="none" points="59.5,140.5 65.5,140.5 " />
<polyline fill="none" vector-effect="none" points="618.5,140.5 613.5,140.5 " />
</g>

<g fill="none" stroke="#000000" stroke-opacity="1" stroke-width="1" stroke-linecap="square" stroke-linejoin="bevel" transform="matrix(1.00313,0,0,1.00313,0,0)"
font-family="Ubuntu" font-size="11" font-weight="400" font-style="normal" 
>
</g>

<g fill="none" stroke="#000000" stroke-opacity="1" stroke-width="1" stroke-linecap="square" stroke-linejoin="bevel" transform="matrix(1.00313,0,0,1.00313,29.0906,144.952)"
font-family="Ubuntu" font-size="11" font-weight="400" font-style="normal" 
>
</g>

<g fill="none" stroke="#000000" stroke-opacity="1" stroke-width="1" stroke-linecap="square" stroke-linejoin="bevel" transform="matrix(1.00313,0,0,1.00313,29.0906,144.952)"
font-family="Ubuntu" font-size="11" font-weight="400" font-style="normal" 
>
</g>

<g fill="none" stroke="#000000" stroke-opacity="1" stroke-width="1" stroke-linecap="square" stroke-linejoin="bevel" transform="matrix(1.00313,0,0,1.00313,29.0906,144.952)"
font-family="Ubuntu" font-size="11" font-weight="400" font-style="normal" 
>
</g>

<g fill="none" stroke="#000000" stroke-opacity="1" stroke-width="1" stroke-linecap="square" stroke-linejoin="bevel" transform="matrix(1.00313,0,0,1.00313,29.0906,144.952)"
font-family="Ubuntu" font-size="11" font-weight="400" font-style="normal" 
>
</g>

<g fill="none" stroke="#000000" stroke-opacity="1" stroke-width="1" stroke-linecap="square" stroke-linejoin="bevel" transform="matrix(1.00313,0,0,1.00313,29.0906,144.952)"
font-family="Ubuntu" font-size="11" font-weight="400" font-style="normal" 
>
</g>

<g fill="none" stroke="#000000" stroke-opacity="1" stroke-width="1" stroke-linecap="square" stroke-linejoin="bevel" transform="matrix(1.00313,0,0,1.00313,29.0906,144.952)"
font-family="Sans" font-size="9" font-weight="400" font-style="normal" 
>
<text fill="#000000" fill-opacity="1" stroke="none" xml:space="preserve" x="0" y="0" font-family="Sans" font-size="9" font-weight="400" font-style="normal" 
 > 0.5</text>
</g>

<g fill="none" stroke="#000000" stroke-opacity="1" stroke-width="1" stroke-linecap="square" stroke-linejoin="bevel" transform="matrix(1.00313,0,0,1.00313,29.0906,144.952)"
font-family="Ubuntu" font-size="11" font-weight="400" font-style="normal" 
>
</g>

<g fill="none" stroke="#000000" stroke-opacity="1" stroke-width="1" stroke-linecap="square" stroke-linejoin="bevel" transform="matrix(1.00313,0,0,1.00313,0,0)"
font-family="Ubuntu" font-size="11" font-weight="400" font-style="normal" 
>
</g>

<g fill="none" stroke="#000000" stroke-opacity="1" stroke-width="1" stroke-linecap="round" stroke-linejoin="round" transform="matrix(1.00313,0,0,1.00313,0,0)"
font-family="Ubuntu" font-size="11" font-weight="400" font-style="normal" 
>
<polyline fill="none" vector-effect="none" points="59.5,42.5 65.5,42.5 " />
<polyline fill="none" vector-effect="none" points="618.5,42.5 613.5,42.5 " />
</g>

<g fill="none" stroke="#000000" stroke-opacity="1" stroke-width="1" stroke-linecap="square" stroke-linejoin="bevel" transform="matrix(1.00313,0,0,1.00313,0,0)"
font-family="Ubuntu" font-size="11" font-weight="400" font-style="normal" 
>
</g>

<g fill="none" stroke="#000000" stroke-opacity="1" stroke-width="1" stroke-linecap="square" stroke-linejoin="bevel" transform="matrix(1.00313,0,0,1.00313,41.1281,46.6453)"
font-family="Ubuntu" font-size="11" font-weight="400" font-style="normal" 
>
</g>

<g fill="none" stroke="#000000" stroke-opacity="1" stroke-width="1" stroke-linecap="square" stroke-linejoin="bevel" transform="matrix(1.00313,0,0,1.00313,41.1281,46.6453)"
font-family="Ubuntu" font-size="11" font-weight="400" font-style="normal" 
>
</g>

<g fill="none" stroke="#000000" stroke-opacity="1" stroke-width="1" stroke-linecap="square" stroke-linejoin="bevel" transform="matrix(1.00313,0,0,1.00313,41.1281,46.6453)"
font-family="Ubuntu" font-size="11" font-weight="400" font-style="normal" 
>
</g>

<g fill="none" stroke="#000000" stroke-opacity="1" stroke-width="1" stroke-linecap="square" stroke-linejoin="bevel" transform="matrix(1.00313,0,0,1.00313,41.1281,46.6453)"
font-family="Ubuntu" font-size="11" font-weight="400" font-style="normal" 
>
</g>

<g fill="none" stroke="#000000" stroke-opacity="1" stroke-width="1" stroke-linecap="square" stroke-linejoin="bevel" transform="matrix(1.00313,0,0,1.00313,41.1281,46.6453)"
font-family="Ubuntu" font-size="11" font-weight="400" font-style="normal" 
>
</g>

<g fill="none" stroke="#000000" stroke-opacity="1" stroke-width="1" stroke-linecap="square" stroke-linejoin="bevel" transform="matrix(1.00313,0,0,1.00313,41.1281,46.6453)"
font-family="Sans" font-size="9" font-weight="400" font-style="normal" 
>
<text fill="#000000" fill-opacity="1" stroke="none" xml:space="preserve" x="0" y="0" font-family="Sans" font-size="9" font-weight="400" font-style="normal" 
 > 1</text>
</g>

<g fill="none" stroke="#000000" stroke-opacity="1" stroke-width="1" stroke-linecap="square" stroke-linejoin="bevel" transform="matrix(1.00313,0,0,1.00313,41.1281,46.6453)"
font-family="Ubuntu" font-size="11" font-weight="400" font-style="normal" 
>
</g>

<g fill="none" stroke="#000000" stroke-opacity="1" stroke-width="1" stroke-linecap="square" stroke-linejoin="bevel" transform="matrix(1.00313,0,0,1.00313,0,0)"
font-family="Ubuntu" font-size="11" font-weight="400" font-style="normal" 
>
</g>

<g fill="none" stroke="#000000" stroke-opacity="1" stroke-width="1" stroke-linecap="round" stroke-linejoin="round" transform="matrix(1.00313,0,0,1.00313,0,0)"
font-family="Ubuntu" font-size="11" font-weight="400" font-style="normal" 
>
<polyline fill="none" vector-effect="none" points="59.5,435.5 59.5,429.5 " />
<polyline fill="none" vector-effect="none" points="59.5,42.5 59.5,47.5 " />
</g>

<g fill="none" stroke="#000000" stroke-opacity="1" stroke-width="1" stroke-linecap="square" stroke-linejoin="bevel" transform="matrix(1.00313,0,0,1.00313,0,0)"
font-family="Ubuntu" font-size="11" font-weight="400" font-style="normal" 
>
</g>

<g fill="none" stroke="#000000" stroke-opacity="1" stroke-width="1" stroke-linecap="square" stroke-linejoin="bevel" transform="matrix(1.00313,0,0,1.00313,54.6703,454.917)"
font-family="Ubuntu" font-size="11" font-weight="400" font-style="normal" 
>
</g>

<g fill="none" stroke="#000000" stroke-opacity="1" stroke-width="1" stroke-linecap="square" stroke-linejoin="bevel" transform="matrix(1.00313,0,0,1.00313,54.6703,454.917)"
font-family="Ubuntu" font-size="11" font-weight="400" font-style="normal" 
>
</g>

<g fill="none" stroke="#000000" stroke-opacity="1" stroke-width="1" stroke-linecap="square" stroke-linejoin="bevel" transform="matrix(1.00313,0,0,1.00313,54.6703,454.917)"
font-family="Ubuntu" font-size="11" font-weight="400" font-style="normal" 
>
</g>

<g fill="none" stroke="#000000" stroke-opacity="1" stroke-width="1" stroke-linecap="square" stroke-linejoin="bevel" transform="matrix(1.00313,0,0,1.00313,54.6703,454.917)"
font-family="Ubuntu" font-size="11" font-weight="400" font-style="normal" 
>
</g>

<g fill="none" stroke="#000000" stroke-opacity="1" stroke-width="1" stroke-linecap="square" stroke-linejoin="bevel" transform="matrix(1.00313,0,0,1.00313,54.6703,454.917)"
font-family="Ubuntu" font-size="11" font-weight="400" font-style="normal" 
>
</g>

<g fill="none" stroke="#000000" stroke-opacity="1" stroke-width="1" stroke-linecap="square" stroke-linejoin="bevel" transform="matrix(1.00313,0,0,1.00313,54.6703,454.917)"
font-family="Sans" font-size="9" font-weight="400" font-style="normal" 
>
<text fill="#000000" fill-opacity="1" stroke="none" xml:space="preserve" x="0" y="0" font-family="Sans" font-size="9" font-weight="400" font-style="normal" 
 >-1</text>
</g>

<g fill="none" stroke="#000000" stroke-opacity="1" stroke-width="1" stroke-linecap="square" stroke-linejoin="bevel" transform="matrix(1.00313,0,0,1.00313,54.6703,454.917)"
font-family="Ubuntu" font-size="11" font-weight="400" font-style="normal" 
>
</g>

<g fill="none" stroke="#000000" stroke-opacity="1" stroke-width="1" stroke-linecap="square" stroke-linejoin="bevel" transform="matrix(1.00313,0,0,1.00313,0,0)"
font-family="Ubuntu" font-size="11" font-weight="400" font-style="normal" 
>
</g>

<g fill="none" stroke="#000000" stroke-opacity="1" stroke-width="1" stroke-linecap="round" stroke-linejoin="round" transform="matrix(1.00313,0,0,1.00313,0,0)"
font-family="Ubuntu" font-size="11" font-weight="400" font-style="normal" 
>
<polyline fill="none" vector-effect="none" points="199.5,435.5 199.5,429.5 " />
<polyline fill="none" vector-effect="none" points="199.5,42.5 199.5,47.5 " />
</g>

<g fill="none" stroke="#000000" stroke-opacity="1" stroke-width="1" stroke-linecap="square" stroke-linejoin="bevel" transform="matrix(1.00313,0,0,1.00313,0,0)"
font-family="Ubuntu" font-size="11" font-weight="400" font-style="normal" 
>
</g>

<g fill="none" stroke="#000000" stroke-opacity="1" stroke-width="1" stroke-linecap="square" stroke-linejoin="bevel" transform="matrix(1.00313,0,0,1.00313,188.086,454.917)"
font-family="Ubuntu" font-size="11" font-weight="400" font-style="normal" 
>
</g>

<g fill="none" stroke="#000000" stroke-opacity="1" stroke-width="1" stroke-linecap="square" stroke-linejoin="bevel" transform="matrix(1.00313,0,0,1.00313,188.086,454.917)"
font-family="Ubuntu" font-size="11" font-weight="400" font-style="normal" 
>
</g>

<g fill="none" stroke="#000000" stroke-opacity="1" stroke-width="1" stroke-linecap="square" stroke-linejoin="bevel" transform="matrix(1.00313,0,0,1.00313,188.086,454.917)"
font-family="Ubuntu" font-size="11" font-weight="400" font-style="normal" 
>
</g>

<g fill="none" stroke="#000000" stroke-opacity="1" stroke-width="1" stroke-linecap="square" stroke-linejoin="bevel" transform="matrix(1.00313,0,0,1.00313,188.086,454.917)"
font-family="Ubuntu" font-size="11" font-weight="400" font-style="normal" 
>
</g>

<g fill="none" stroke="#000000" stroke-opacity="1" stroke-width="1" stroke-linecap="square" stroke-linejoin="bevel" transform="matrix(1.00313,0,0,1.00313,188.086,454.917)"
font-family="Ubuntu" font-size="11" font-weight="400" font-style="normal" 
>
</g>

<g fill="none" stroke="#000000" stroke-opacity="1" stroke-width="1" stroke-linecap="square" stroke-linejoin="bevel" transform="matrix(1.00313,0,0,1.00313,188.086,454.917)"
font-family="Sans" font-size="9" font-weight="400" font-style="normal" 
>
<text fill="#000000" fill-opacity="1" stroke="none" xml:space="preserve" x="0" y="0" font-family="Sans" font-size="9" font-weight="400" font-style="normal" 
 >-0.5</text>
</g>

<g fill="none" stroke="#000000" stroke-opacity="1" stroke-width="1" stroke-linecap="square" stroke-linejoin="bevel" transform="matrix(1.00313,0,0,1.00313,188.086,454.917)"
font-family="Ubuntu" font-size="11" font-weight="400" font-style="normal" 
>
</g>

<g fill="none" stroke="#000000" stroke-opacity="1" stroke-width="1" stroke-linecap="square" stroke-linejoin="bevel" transform="matrix(1.00313,0,0,1.00313,0,0)"
font-family="Ubuntu" font-size="11" font-weight="400" font-style="normal" 
>
</g>

<g fill="none" stroke="#000000" stroke-opacity="1" stroke-width="1" stroke-linecap="round" stroke-linejoin="round" transform="matrix(1.00313,0,0,1.00313,0,0)"
font-family="Ubuntu" font-size="11" font-weight="400" font-style="normal" 
>
<polyline fill="none" vector-effect="none" points="339.5,435.5 339.5,429.5 " />
<polyline fill="none" vector-effect="none" points="339.5,42.5 339.5,47.5 " />
</g>

<g fill="none" stroke="#000000" stroke-opacity="1" stroke-width="1" stroke-linecap="square" stroke-linejoin="bevel" transform="matrix(1.00313,0,0,1.00313,0,0)"
font-family="Ubuntu" font-size="11" font-weight="400" font-style="normal" 
>
</g>

<g fill="none" stroke="#000000" stroke-opacity="1" stroke-width="1" stroke-linecap="square" stroke-linejoin="bevel" transform="matrix(1.00313,0,0,1.00313,334.542,454.917)"
font-family="Ubuntu" font-size="11" font-weight="400" font-style="normal" 
>
</g>

<g fill="none" stroke="#000000" stroke-opacity="1" stroke-width="1" stroke-linecap="square" stroke-linejoin="bevel" transform="matrix(1.00313,0,0,1.00313,334.542,454.917)"
font-family="Ubuntu" font-size="11" font-weight="400" font-style="normal" 
>
</g>

<g fill="none" stroke="#000000" stroke-opacity="1" stroke-width="1" stroke-linecap="square" stroke-linejoin="bevel" transform="matrix(1.00313,0,0,1.00313,334.542,454.917)"
font-family="Ubuntu" font-size="11" font-weight="400" font-style="normal" 
>
</g>

<g fill="none" stroke="#000000" stroke-opacity="1" stroke-width="1" stroke-linecap="square" stroke-linejoin="bevel" transform="matrix(1.00313,0,0,1.00313,334.542,454.917)"
font-family="Ubuntu" font-size="11" font-weight="400" font-style="normal" 
>
</g>

<g fill="none" stroke="#000000" stroke-opacity="1" stroke-width="1" stroke-linecap="square" stroke-linejoin="bevel" transform="matrix(1.00313,0,0,1.00313,334.542,454.917)"
font-family="Ubuntu" font-size="11" font-weight="400" font-style="normal" 
>
</g>

<g fill="none" stroke="#000000" stroke-opacity="1" stroke-width="1" stroke-linecap="square" stroke-linejoin="bevel" transform="matrix(1.00313,0,0,1.00313,334.542,454.917)"
font-family="Sans" font-size="9" font-weight="400" font-style="normal" 
>
<text fill="#000000" fill-opacity="1" stroke="none" xml:space="preserve" x="0" y="0" font-family="Sans" font-size="9" font-weight="400" font-style="normal" 
 > 0</text>
</g>

<g fill="none" stroke="#000000" stroke-opacity="1" stroke-width="1" stroke-linecap="square" stroke-linejoin="bevel" transform="matrix(1.00313,0,0,1.00313,334.542,454.917)"
font-family="Ubuntu" font-size="11" font-weight="400" font-style="normal" 
>
</g>

<g fill="none" stroke="#000000" stroke-opacity="1" stroke-width="1" stroke-linecap="square" stroke-linejoin="bevel" transform="matrix(1.00313,0,0,1.00313,0,0)"
font-family="Ubuntu" font-size="11" font-weight="400" font-style="normal" 
>
</g>

<g fill="none" stroke="#000000" stroke-opacity="1" stroke-width="1" stroke-linecap="round" stroke-linejoin="round" transform="matrix(1.00313,0,0,1.00313,0,0)"
font-family="Ubuntu" font-size="11" font-weight="400" font-style="normal" 
>
<polyline fill="none" vector-effect="none" points="479.5,435.5 479.5,429.5 " />
<polyline fill="none" vector-effect="none" points="479.5,42.5 479.5,47.5 " />
</g>

<g fill="none" stroke="#000000" stroke-opacity="1" stroke-width="1" stroke-linecap="square" stroke-linejoin="bevel" transform="matrix(1.00313,0,0,1.00313,0,0)"
font-family="Ubuntu" font-size="11" font-weight="400" font-style="normal" 
>
</g>

<g fill="none" stroke="#000000" stroke-opacity="1" stroke-width="1" stroke-linecap="square" stroke-linejoin="bevel" transform="matrix(1.00313,0,0,1.00313,468.961,454.917)"
font-family="Ubuntu" font-size="11" font-weight="400" font-style="normal" 
>
</g>

<g fill="none" stroke="#000000" stroke-opacity="1" stroke-width="1" stroke-linecap="square" stroke-linejoin="bevel" transform="matrix(1.00313,0,0,1.00313,468.961,454.917)"
font-family="Ubuntu" font-size="11" font-weight="400" font-style="normal" 
>
</g>

<g fill="none" stroke="#000000" stroke-opacity="1" stroke-width="1" stroke-linecap="square" stroke-linejoin="bevel" transform="matrix(1.00313,0,0,1.00313,468.961,454.917)"
font-family="Ubuntu" font-size="11" font-weight="400" font-style="normal" 
>
</g>

<g fill="none" stroke="#000000" stroke-opacity="1" stroke-width="1" stroke-linecap="square" stroke-linejoin="bevel" transform="matrix(1.00313,0,0,1.00313,468.961,454.917)"
font-family="Ubuntu" font-size="11" font-weight="400" font-style="normal" 
>
</g>

<g fill="none" stroke="#000000" stroke-opacity="1" stroke-width="1" stroke-linecap="square" stroke-linejoin="bevel" transform="matrix(1.00313,0,0,1.00313,468.961,454.917)"
font-family="Ubuntu" font-size="11" font-weight="400" font-style="normal" 
>
</g>

<g fill="none" stroke="#000000" stroke-opacity="1" stroke-width="1" stroke-linecap="square" stroke-linejoin="bevel" transform="matrix(1.00313,0,0,1.00313,468.961,454.917)"
font-family="Sans" font-size="9" font-weight="400" font-style="normal" 
>
<text fill="#000000" fill-opacity="1" stroke="none" xml:space="preserve" x="0" y="0" font-family="Sans" font-size="9" font-weight="400" font-style="normal" 
 > 0.5</text>
</g>

<g fill="none" stroke="#000000" stroke-opacity="1" stroke-width="1" stroke-linecap="square" stroke-linejoin="bevel" transform="matrix(1.00313,0,0,1.00313,468.961,454.917)"
font-family="Ubuntu" font-size="11" font-weight="400" font-style="normal" 
>
</g>

<g fill="none" stroke="#000000" stroke-opacity="1" stroke-width="1" stroke-linecap="square" stroke-linejoin="bevel" transform="matrix(1.00313,0,0,1.00313,0,0)"
font-family="Ubuntu" font-size="11" font-weight="400" font-style="normal" 
>
</g>

<g fill="none" stroke="#000000" stroke-opacity="1" stroke-width="1" stroke-linecap="round" stroke-linejoin="round" transform="matrix(1.00313,0,0,1.00313,0,0)"
font-family="Ubuntu" font-size="11" font-weight="400" font-style="normal" 
>
<polyline fill="none" vector-effect="none" points="618.5,435.5 618.5,429.5 " />
<polyline fill="none" vector-effect="none" points="618.5,42.5 618.5,47.5 " />
</g>

<g fill="none" stroke="#000000" stroke-opacity="1" stroke-width="1" stroke-linecap="square" stroke-linejoin="bevel" transform="matrix(1.00313,0,0,1.00313,0,0)"
font-family="Ubuntu" font-size="11" font-weight="400" font-style="normal" 
>
</g>

<g fill="none" stroke="#000000" stroke-opacity="1" stroke-width="1" stroke-linecap="square" stroke-linejoin="bevel" transform="matrix(1.00313,0,0,1.00313,615.417,454.917)"
font-family="Ubuntu" font-size="11" font-weight="400" font-style="normal" 
>
</g>

<g fill="none" stroke="#000000" stroke-opacity="1" stroke-width="1" stroke-linecap="square" stroke-linejoin="bevel" transform="matrix(1.00313,0,0,1.00313,615.417,454.917)"
font-family="Ubuntu" font-size="11" font-weight="400" font-style="normal" 
>
</g>

<g fill="none" stroke="#000000" stroke-opacity="1" stroke-width="1" stroke-linecap="square" stroke-linejoin="bevel" transform="matrix(1.00313,0,0,1.00313,615.417,454.917)"
font-family="Ubuntu" font-size="11" font-weight="400" font-style="normal" 
>
</g>

<g fill="none" stroke="#000000" stroke-opacity="1" stroke-width="1" stroke-linecap="square" stroke-linejoin="bevel" transform="matrix(1.00313,0,0,1.00313,615.417,454.917)"
font-family="Ubuntu" font-size="11" font-weight="400" font-style="normal" 
>
</g>

<g fill="none" stroke="#000000" stroke-opacity="1" stroke-width="1" stroke-linecap="square" stroke-linejoin="bevel" transform="matrix(1.00313,0,0,1.00313,615.417,454.917)"
font-family="Ubuntu" font-size="11" font-weight="400" font-style="normal" 
>
</g>

<g fill="none" stroke="#000000" stroke-opacity="1" stroke-width="1" stroke-linecap="square" stroke-linejoin="bevel" transform="matrix(1.00313,0,0,1.00313,615.417,454.917)"
font-family="Sans" font-size="9" font-weight="400" font-style="normal" 
>
<text fill="#000000" fill-opacity="1" stroke="none" xml:space="preserve" x="0" y="0" font-family="Sans" font-size="9" font-weight="400" font-style="normal" 
 > 1</text>
</g>

<g fill="none" stroke="#000000" stroke-opacity="1" stroke-width="1" stroke-linecap="square" stroke-linejoin="bevel" transform="matrix(1.00313,0,0,1.00313,615.417,454.917)"
font-family="Ubuntu" font-size="11" font-weight="400" font-style="normal" 
>
</g>

<g fill="none" stroke="#000000" stroke-opacity="1" stroke-width="1" stroke-linecap="square" stroke-linejoin="bevel" transform="matrix(1.00313,0,0,1.00313,0,0)"
font-family="Ubuntu" font-size="11" font-weight="400" font-style="normal" 
>
</g>

<g fill="none" stroke="#000000" stroke-opacity="1" stroke-width="1" stroke-linecap="round" stroke-linejoin="round" transform="matrix(1.00313,0,0,1.00313,0,0)"
font-family="Ubuntu" font-size="11" font-weight="400" font-style="normal" 
>
<polyline fill="none" vector-effect="none" points="59.5,42.5 59.5,435.5 618.5,435.5 618.5,42.5 59.5,42.5 " />
</g>

<g fill="none" stroke="#000000" stroke-opacity="1" stroke-width="1" stroke-linecap="square" stroke-linejoin="bevel" transform="matrix(1.00313,0,0,1.00313,0,0)"
font-family="Ubuntu" font-size="11" font-weight="400" font-style="normal" 
>
</g>

<g fill="none" stroke="#000000" stroke-opacity="1" stroke-width="1" stroke-linecap="square" stroke-linejoin="bevel" transform="matrix(0,-1.00313,1.00313,0,15.5484,242.255)"
font-family="Ubuntu" font-size="11" font-weight="400" font-style="normal" 
>
</g>

<g fill="none" stroke="#000000" stroke-opacity="1" stroke-width="1" stroke-linecap="square" stroke-linejoin="bevel" transform="matrix(0,-1.00313,1.00313,0,15.5484,242.255)"
font-family="Ubuntu" font-size="11" font-weight="400" font-style="normal" 
>
</g>

<g fill="none" stroke="#000000" stroke-opacity="1" stroke-width="1" stroke-linecap="square" stroke-linejoin="bevel" transform="matrix(0,-1.00313,1.00313,0,15.5484,242.255)"
font-family="Ubuntu" font-size="11" font-weight="400" font-style="normal" 
>
</g>

<g fill="none" stroke="#000000" stroke-opacity="1" stroke-width="1" stroke-linecap="square" stroke-linejoin="bevel" transform="matrix(0,-1.00313,1.00313,0,15.5484,242.255)"
font-family="Ubuntu" font-size="11" font-weight="400" font-style="normal" 
>
</g>

<g fill="none" stroke="#000000" stroke-opacity="1" stroke-width="1" stroke-linecap="square" stroke-linejoin="bevel" transform="matrix(0,-1.00313,1.00313,0,15.5484,242.255)"
font-family="Ubuntu" font-size="11" font-weight="400" font-style="normal" 
>
</g>

<g fill="none" stroke="#000000" stroke-opacity="1" stroke-width="1" stroke-linecap="square" stroke-linejoin="bevel" transform="matrix(0,-1.00313,1.00313,0,15.5484,242.255)"
font-family="Sans" font-size="9" font-weight="400" font-style="normal" 
>
<text fill="#000000" fill-opacity="1" stroke="none" xml:space="preserve" x="0" y="0" font-family="Sans" font-size="9" font-weight="400" font-style="normal" 
 >t</text>
</g>

<g fill="none" stroke="#000000" stroke-opacity="1" stroke-width="1" stroke-linecap="square" stroke-linejoin="bevel" transform="matrix(0,-1.00313,1.00313,0,15.5484,242.255)"
font-family="Ubuntu" font-size="11" font-weight="400" font-style="normal" 
>
</g>

<g fill="none" stroke="#000000" stroke-opacity="1" stroke-width="1" stroke-linecap="square" stroke-linejoin="bevel" transform="matrix(1.00313,0,0,1.00313,337.05,475.983)"
font-family="Ubuntu" font-size="11" font-weight="400" font-style="normal" 
>
</g>

<g fill="none" stroke="#000000" stroke-opacity="1" stroke-width="1" stroke-linecap="square" stroke-linejoin="bevel" transform="matrix(1.00313,0,0,1.00313,337.05,475.983)"
font-family="Ubuntu" font-size="11" font-weight="400" font-style="normal" 
>
</g>

<g fill="none" stroke="#000000" stroke-opacity="1" stroke-width="1" stroke-linecap="square" stroke-linejoin="bevel" transform="matrix(1.00313,0,0,1.00313,337.05,475.983)"
font-family="Ubuntu" font-size="11" font-weight="400" font-style="normal" 
>
</g>

<g fill="none" stroke="#000000" stroke-opacity="1" stroke-width="1" stroke-linecap="square" stroke-linejoin="bevel" transform="matrix(1.00313,0,0,1.00313,337.05,475.983)"
font-family="Ubuntu" font-size="11" font-weight="400" font-style="normal" 
>
</g>

<g fill="none" stroke="#000000" stroke-opacity="1" stroke-width="1" stroke-linecap="square" stroke-linejoin="bevel" transform="matrix(1.00313,0,0,1.00313,337.05,475.983)"
font-family="Ubuntu" font-size="11" font-weight="400" font-style="normal" 
>
</g>

<g fill="none" stroke="#000000" stroke-opacity="1" stroke-width="1" stroke-linecap="square" stroke-linejoin="bevel" transform="matrix(1.00313,0,0,1.00313,337.05,475.983)"
font-family="Sans" font-size="9" font-weight="400" font-style="normal" 
>
<text fill="#000000" fill-opacity="1" stroke="none" xml:space="preserve" x="0" y="0" font-family="Sans" font-size="9" font-weight="400" font-style="normal" 
 >z</text>
</g>

<g fill="none" stroke="#000000" stroke-opacity="1" stroke-width="1" stroke-linecap="square" stroke-linejoin="bevel" transform="matrix(1.00313,0,0,1.00313,337.05,475.983)"
font-family="Ubuntu" font-size="11" font-weight="400" font-style="normal" 
>
</g>

<g fill="none" stroke="#000000" stroke-opacity="1" stroke-width="1" stroke-linecap="square" stroke-linejoin="bevel" transform="matrix(1.00313,0,0,1.00313,317.991,25.5797)"
font-family="Ubuntu" font-size="11" font-weight="400" font-style="normal" 
>
</g>

<g fill="none" stroke="#000000" stroke-opacity="1" stroke-width="1" stroke-linecap="square" stroke-linejoin="bevel" transform="matrix(1.00313,0,0,1.00313,317.991,25.5797)"
font-family="Ubuntu" font-size="11" font-weight="400" font-style="normal" 
>
</g>

<g fill="none" stroke="#000000" stroke-opacity="1" stroke-width="1" stroke-linecap="square" stroke-linejoin="bevel" transform="matrix(1.00313,0,0,1.00313,317.991,25.5797)"
font-family="Ubuntu" font-size="11" font-weight="400" font-style="normal" 
>
</g>

<g fill="none" stroke="#000000" stroke-opacity="1" stroke-width="1" stroke-linecap="square" stroke-linejoin="bevel" transform="matrix(1.00313,0,0,1.00313,317.991,25.5797)"
font-family="Ubuntu" font-size="11" font-weight="400" font-style="normal" 
>
</g>

<g fill="none" stroke="#000000" stroke-opacity="1" stroke-width="1" stroke-linecap="square" stroke-linejoin="bevel" transform="matrix(1.00313,0,0,1.00313,317.991,25.5797)"
font-family="Ubuntu" font-size="11" font-weight="400" font-style="normal" 
>
</g>

<g fill="none" stroke="#000000" stroke-opacity="1" stroke-width="1" stroke-linecap="square" stroke-linejoin="bevel" transform="matrix(1.00313,0,0,1.00313,317.991,25.5797)"
font-family="Sans" font-size="9" font-weight="400" font-style="normal" 
>
<text fill="#000000" fill-opacity="1" stroke="none" xml:space="preserve" x="0" y="0" font-family="Sans" font-size="9" font-weight="400" font-style="normal" 
 >4d loop</text>
</g>

<g fill="none" stroke="#000000" stroke-opacity="1" stroke-width="1" stroke-linecap="square" stroke-linejoin="bevel" transform="matrix(1.00313,0,0,1.00313,317.991,25.5797)"
font-family="Ubuntu" font-size="11" font-weight="400" font-style="normal" 
>
</g>

<g fill="none" stroke="#000000" stroke-opacity="1" stroke-width="1" stroke-linecap="square" stroke-linejoin="bevel" transform="matrix(1.00313,0,0,1.00313,0,0)"
font-family="Ubuntu" font-size="11" font-weight="400" font-style="normal" 
>
</g>

<g fill="none" stroke="#000000" stroke-opacity="1" stroke-width="1" stroke-linecap="square" stroke-linejoin="bevel" transform="matrix(1.00313,0,0,1.00313,0,0)"
font-family="Ubuntu" font-size="11" font-weight="400" font-style="normal" 
>
</g>

<g fill="none" stroke="#000000" stroke-opacity="1" stroke-width="1" stroke-linecap="square" stroke-linejoin="bevel" transform="matrix(1.00313,0,0,1.00313,0,0)"
font-family="Ubuntu" font-size="11" font-weight="400" font-style="normal" 
>
</g>

<g fill="none" stroke="#9400d3" stroke-opacity="1" stroke-width="1" stroke-linecap="round" stroke-linejoin="round" transform="matrix(1.00313,0,0,1.00313,0,0)"
font-family="Ubuntu" font-size="11" font-weight="400" font-style="normal" 
>
<polyline fill="none" vector-effect="none" points="341,368.7 341,368.7 343.1,367 345.1,365.3 347.1,363.5 349.1,361.8 351,360 352.9,358.3 354.8,356.5 356.7,354.7 358.5,352.9 360.3,351 362.1,349.2 363.9,347.3 365.6,345.4 367.3,343.6 368.9,341.7 370.6,339.7 372.1,337.8 373.7,335.9 375.2,333.9 376.7,332 378.2,330 379.6,328 381,326 382.4,324 383.8,322 385.1,319.9 386.3,317.9 387.6,315.8 388.8,313.8 390,311.7 391.1,309.6 392.2,307.5 393.3,305.4 394.3,303.3 395.3,301.2 396.3,299.1 397.2,297 398.1,294.8 399,292.7 399.8,290.5 400.6,288.4 401.4,286.2 402.1,284 402.8,281.9 403.5,279.7 404.1,277.5 404.7,275.3 405.3,273.1 405.8,270.9 406.3,268.7 406.7,266.5 407.1,264.3 407.5,262.1 407.8,259.8 408.1,257.6 408.4,255.4 408.6,253.2 408.8,250.9 409,248.7 409.1,246.5 409.2,244.2 409.3,242 409.3,239.8 409.3,237.5 409.2,235.3 409.1,233.1 409,230.8 408.8,228.6 408.6,226.4 408.4,224.1 408.1,221.9 407.8,219.7 407.5,217.5 407.1,215.2 406.7,213 406.3,210.8 405.8,208.6 405.3,206.4 404.7,204.2 404.1,202 403.5,199.8 402.8,197.6 402.1,195.4 401.4,193.3 400.6,191.1 399.8,188.9 399,186.8 398.1,184.6 397.2,182.5 396.3,180.3 395.3,178.2 394.3,176.1 393.3,174 392.2,171.9 391.1,169.8 390,167.7 388.8,165.6 387.6,163.5 386.3,161.5 385.1,159.4 383.8,157.4 382.4,155.3 381,153.3 379.6,151.3 378.2,149.3 376.7,147.3 375.2,145.3 373.7,143.4 372.1,141.4 370.6,139.5 368.9,137.6 367.3,135.6 365.6,133.7 363.9,131.9 362.1,130 360.3,128.1 358.5,126.3 356.7,124.4 354.8,122.6 352.9,120.8 351,119 349.1,117.3 347.1,115.5 345.1,113.8 343.1,112 341,110.3 338.9,108.6 336.8,110.3 334.8,112 332.8,113.7 330.8,115.4 328.9,117.1 326.9,118.8 325,120.6 323.2,122.3 321.3,124.1 319.5,125.9 317.7,127.7 316,129.5 314.3,131.4 312.6,133.2 310.9,135.1 309.3,137 307.7,138.8 306.1,140.7 304.5,142.7 303,144.6 301.6,146.5 300.1,148.5 298.7,150.4 297.3,152.4 295.9,154.4 294.6,156.4 293.3,158.4 292.1,160.4 290.8,162.4 289.7,164.5 288.5,166.5 287.4,168.6 286.3,170.6 285.2,172.7 284.2,174.8 283.2,176.9 282.2,179 281.3,181.1 280.4,183.2 279.6,185.3 278.7,187.4 278,189.6 277.2,191.7 276.5,193.8 275.8,196 275.1,198.1 274.5,200.3 273.9,202.5 273.4,204.6 272.9,206.8 272.4,209 272,211.2 271.6,213.4 271.2,215.5 270.9,217.7 270.6,219.9 270.3,222.1 270.1,224.3 269.9,226.5 269.7,228.7 269.6,230.9 269.5,233.1 269.4,235.3 269.4,237.5 269.4,239.8 269.5,242 269.6,244.2 269.7,246.4 269.9,248.6 270.1,250.8 270.3,253 270.6,255.2 270.9,257.4 271.2,259.6 271.6,261.8 272,263.9 272.4,266.1 272.9,268.3 273.4,270.5 273.9,272.7 274.5,274.8 275.1,277 275.8,279.2 276.5,281.3 277.2,283.5 278,285.6 278.7,287.7 279.6,289.9 280.4,292 281.3,294.1 282.2,296.2 283.2,298.3 284.2,300.4 285.2,302.5 286.3,304.6 287.4,306.7 288.5,308.7 289.7,310.8 290.8,312.8 292.1,314.9 293.3,316.9 294.6,318.9 295.9,320.9 297.3,322.9 298.7,324.9 300.1,326.9 301.6,328.8 303,330.8 304.5,332.7 306.1,334.6 307.7,336.6 309.3,338.5 310.9,340.3 312.6,342.2 314.3,344.1 316,345.9 317.7,347.8 319.5,349.6 321.3,351.4 323.2,353.2 325,355 326.9,356.7 328.9,358.5 330.8,360.2 332.8,361.9 334.8,363.6 336.8,365.3 338.9,367 " />
</g>

<g fill="none" stroke="#000000" stroke-opacity="1" stroke-width="1" stroke-linecap="square" stroke-linejoin="bevel" transform="matrix(1.00313,0,0,1.00313,0,0)"
font-family="Ubuntu" font-size="11" font-weight="400" font-style="normal" 
>
</g>

<g fill="none" stroke="#000000" stroke-opacity="1" stroke-width="1" stroke-linecap="square" stroke-linejoin="bevel" transform="matrix(1.00313,0,0,1.00313,0,0)"
font-family="Ubuntu" font-size="11" font-weight="400" font-style="normal" 
>
</g>

<g fill="none" stroke="#000000" stroke-opacity="1" stroke-width="1" stroke-linecap="round" stroke-linejoin="round" transform="matrix(1.00313,0,0,1.00313,0,0)"
font-family="Ubuntu" font-size="11" font-weight="400" font-style="normal" 
>
<polyline fill="none" vector-effect="none" points="59.5,42.5 59.5,435.5 618.5,435.5 618.5,42.5 59.5,42.5 " />
</g>

<g fill="none" stroke="#000000" stroke-opacity="1" stroke-width="1" stroke-linecap="square" stroke-linejoin="bevel" transform="matrix(1.00313,0,0,1.00313,0,0)"
font-family="Ubuntu" font-size="11" font-weight="400" font-style="normal" 
>
</g>

<g fill="none" stroke="#000000" stroke-opacity="1" stroke-width="1" stroke-linecap="square" stroke-linejoin="bevel" transform="matrix(1,0,0,1,0,0)"
font-family="Ubuntu" font-size="11" font-weight="400" font-style="normal" 
>
</g>
</g>
</svg>
