<?xml version="1.0" encoding="UTF-8" standalone="no"?>
<svg width="226.483mm" height="170.039mm"
 viewBox="0 0 642 482"
 xmlns="http://www.w3.org/2000/svg" xmlns:xlink="http://www.w3.org/1999/xlink"  version="1.2" baseProfile="tiny">
<title>Qt SVG Document</title>
<desc>Generated with Qt</desc>
<defs>
</defs>
<g fill="none" stroke="black" stroke-width="1" fill-rule="evenodd" stroke-linecap="square" stroke-linejoin="bevel" >

<g fill="none" stroke="#000000" stroke-opacity="1" stroke-width="1" stroke-linecap="square" stroke-linejoin="bevel" transform="matrix(1,0,0,1,0,0)"
font-family="Ubuntu" font-size="11" font-weight="400" font-style="normal" 
>
</g>

<g fill="none" stroke="#000000" stroke-opacity="1" stroke-width="1" stroke-linecap="square" stroke-linejoin="bevel" transform="matrix(1.00313,0,0,1.00313,0,0)"
font-family="Ubuntu" font-size="11" font-weight="400" font-style="normal" 
>
</g>

<g fill="none" stroke="#000000" stroke-opacity="1" stroke-width="1" stroke-linecap="round" stroke-linejoin="round" transform="matrix(1.00313,0,0,1.00313,0,0)"
font-family="Ubuntu" font-size="11" font-weight="400" font-style="normal" 
>
<polyline fill="none" vector-effect="none" points="60.5,432.5 66.5,432.5 " />
<polyline fill="none" vector-effect="none" points="618.5,432.5 612.5,432.5 " />
</g>

<g fill="none" stroke="#000000" stroke-opacity="1" stroke-width="1" stroke-linecap="square" stroke-linejoin="bevel" transform="matrix(1.00313,0,0,1.00313,0,0)"
font-family="Ubuntu" font-size="11" font-weight="400" font-style="normal" 
>
</g>

<g fill="none" stroke="#000000" stroke-opacity="1" stroke-width="1" stroke-linecap="square" stroke-linejoin="bevel" transform="matrix(1.00313,0,0,1.00313,31.0969,437.864)"
font-family="Ubuntu" font-size="11" font-weight="400" font-style="normal" 
>
</g>

<g fill="none" stroke="#000000" stroke-opacity="1" stroke-width="1" stroke-linecap="square" stroke-linejoin="bevel" transform="matrix(1.00313,0,0,1.00313,31.0969,437.864)"
font-family="Ubuntu" font-size="11" font-weight="400" font-style="normal" 
>
</g>

<g fill="none" stroke="#000000" stroke-opacity="1" stroke-width="1" stroke-linecap="square" stroke-linejoin="bevel" transform="matrix(1.00313,0,0,1.00313,31.0969,437.864)"
font-family="Ubuntu" font-size="11" font-weight="400" font-style="normal" 
>
</g>

<g fill="none" stroke="#000000" stroke-opacity="1" stroke-width="1" stroke-linecap="square" stroke-linejoin="bevel" transform="matrix(1.00313,0,0,1.00313,31.0969,437.864)"
font-family="Ubuntu" font-size="11" font-weight="400" font-style="normal" 
>
</g>

<g fill="none" stroke="#000000" stroke-opacity="1" stroke-width="1" stroke-linecap="square" stroke-linejoin="bevel" transform="matrix(1.00313,0,0,1.00313,31.0969,437.864)"
font-family="Ubuntu" font-size="11" font-weight="400" font-style="normal" 
>
</g>

<g fill="none" stroke="#000000" stroke-opacity="1" stroke-width="1" stroke-linecap="square" stroke-linejoin="bevel" transform="matrix(1.00313,0,0,1.00313,31.0969,437.864)"
font-family="Sans" font-size="9" font-weight="400" font-style="normal" 
>
<text fill="#000000" fill-opacity="1" stroke="none" xml:space="preserve" x="0" y="0" font-family="Sans" font-size="9" font-weight="400" font-style="normal" 
 >-1.5</text>
</g>

<g fill="none" stroke="#000000" stroke-opacity="1" stroke-width="1" stroke-linecap="square" stroke-linejoin="bevel" transform="matrix(1.00313,0,0,1.00313,31.0969,437.864)"
font-family="Ubuntu" font-size="11" font-weight="400" font-style="normal" 
>
</g>

<g fill="none" stroke="#000000" stroke-opacity="1" stroke-width="1" stroke-linecap="square" stroke-linejoin="bevel" transform="matrix(1.00313,0,0,1.00313,0,0)"
font-family="Ubuntu" font-size="11" font-weight="400" font-style="normal" 
>
</g>

<g fill="none" stroke="#000000" stroke-opacity="1" stroke-width="1" stroke-linecap="round" stroke-linejoin="round" transform="matrix(1.00313,0,0,1.00313,0,0)"
font-family="Ubuntu" font-size="11" font-weight="400" font-style="normal" 
>
<polyline fill="none" vector-effect="none" points="60.5,367.5 66.5,367.5 " />
<polyline fill="none" vector-effect="none" points="618.5,367.5 612.5,367.5 " />
</g>

<g fill="none" stroke="#000000" stroke-opacity="1" stroke-width="1" stroke-linecap="square" stroke-linejoin="bevel" transform="matrix(1.00313,0,0,1.00313,0,0)"
font-family="Ubuntu" font-size="11" font-weight="400" font-style="normal" 
>
</g>

<g fill="none" stroke="#000000" stroke-opacity="1" stroke-width="1" stroke-linecap="square" stroke-linejoin="bevel" transform="matrix(1.00313,0,0,1.00313,43.1344,373.664)"
font-family="Ubuntu" font-size="11" font-weight="400" font-style="normal" 
>
</g>

<g fill="none" stroke="#000000" stroke-opacity="1" stroke-width="1" stroke-linecap="square" stroke-linejoin="bevel" transform="matrix(1.00313,0,0,1.00313,43.1344,373.664)"
font-family="Ubuntu" font-size="11" font-weight="400" font-style="normal" 
>
</g>

<g fill="none" stroke="#000000" stroke-opacity="1" stroke-width="1" stroke-linecap="square" stroke-linejoin="bevel" transform="matrix(1.00313,0,0,1.00313,43.1344,373.664)"
font-family="Ubuntu" font-size="11" font-weight="400" font-style="normal" 
>
</g>

<g fill="none" stroke="#000000" stroke-opacity="1" stroke-width="1" stroke-linecap="square" stroke-linejoin="bevel" transform="matrix(1.00313,0,0,1.00313,43.1344,373.664)"
font-family="Ubuntu" font-size="11" font-weight="400" font-style="normal" 
>
</g>

<g fill="none" stroke="#000000" stroke-opacity="1" stroke-width="1" stroke-linecap="square" stroke-linejoin="bevel" transform="matrix(1.00313,0,0,1.00313,43.1344,373.664)"
font-family="Ubuntu" font-size="11" font-weight="400" font-style="normal" 
>
</g>

<g fill="none" stroke="#000000" stroke-opacity="1" stroke-width="1" stroke-linecap="square" stroke-linejoin="bevel" transform="matrix(1.00313,0,0,1.00313,43.1344,373.664)"
font-family="Sans" font-size="9" font-weight="400" font-style="normal" 
>
<text fill="#000000" fill-opacity="1" stroke="none" xml:space="preserve" x="0" y="0" font-family="Sans" font-size="9" font-weight="400" font-style="normal" 
 >-1</text>
</g>

<g fill="none" stroke="#000000" stroke-opacity="1" stroke-width="1" stroke-linecap="square" stroke-linejoin="bevel" transform="matrix(1.00313,0,0,1.00313,43.1344,373.664)"
font-family="Ubuntu" font-size="11" font-weight="400" font-style="normal" 
>
</g>

<g fill="none" stroke="#000000" stroke-opacity="1" stroke-width="1" stroke-linecap="square" stroke-linejoin="bevel" transform="matrix(1.00313,0,0,1.00313,0,0)"
font-family="Ubuntu" font-size="11" font-weight="400" font-style="normal" 
>
</g>

<g fill="none" stroke="#000000" stroke-opacity="1" stroke-width="1" stroke-linecap="round" stroke-linejoin="round" transform="matrix(1.00313,0,0,1.00313,0,0)"
font-family="Ubuntu" font-size="11" font-weight="400" font-style="normal" 
>
<polyline fill="none" vector-effect="none" points="60.5,303.5 66.5,303.5 " />
<polyline fill="none" vector-effect="none" points="618.5,303.5 612.5,303.5 " />
</g>

<g fill="none" stroke="#000000" stroke-opacity="1" stroke-width="1" stroke-linecap="square" stroke-linejoin="bevel" transform="matrix(1.00313,0,0,1.00313,0,0)"
font-family="Ubuntu" font-size="11" font-weight="400" font-style="normal" 
>
</g>

<g fill="none" stroke="#000000" stroke-opacity="1" stroke-width="1" stroke-linecap="square" stroke-linejoin="bevel" transform="matrix(1.00313,0,0,1.00313,31.0969,308.461)"
font-family="Ubuntu" font-size="11" font-weight="400" font-style="normal" 
>
</g>

<g fill="none" stroke="#000000" stroke-opacity="1" stroke-width="1" stroke-linecap="square" stroke-linejoin="bevel" transform="matrix(1.00313,0,0,1.00313,31.0969,308.461)"
font-family="Ubuntu" font-size="11" font-weight="400" font-style="normal" 
>
</g>

<g fill="none" stroke="#000000" stroke-opacity="1" stroke-width="1" stroke-linecap="square" stroke-linejoin="bevel" transform="matrix(1.00313,0,0,1.00313,31.0969,308.461)"
font-family="Ubuntu" font-size="11" font-weight="400" font-style="normal" 
>
</g>

<g fill="none" stroke="#000000" stroke-opacity="1" stroke-width="1" stroke-linecap="square" stroke-linejoin="bevel" transform="matrix(1.00313,0,0,1.00313,31.0969,308.461)"
font-family="Ubuntu" font-size="11" font-weight="400" font-style="normal" 
>
</g>

<g fill="none" stroke="#000000" stroke-opacity="1" stroke-width="1" stroke-linecap="square" stroke-linejoin="bevel" transform="matrix(1.00313,0,0,1.00313,31.0969,308.461)"
font-family="Ubuntu" font-size="11" font-weight="400" font-style="normal" 
>
</g>

<g fill="none" stroke="#000000" stroke-opacity="1" stroke-width="1" stroke-linecap="square" stroke-linejoin="bevel" transform="matrix(1.00313,0,0,1.00313,31.0969,308.461)"
font-family="Sans" font-size="9" font-weight="400" font-style="normal" 
>
<text fill="#000000" fill-opacity="1" stroke="none" xml:space="preserve" x="0" y="0" font-family="Sans" font-size="9" font-weight="400" font-style="normal" 
 >-0.5</text>
</g>

<g fill="none" stroke="#000000" stroke-opacity="1" stroke-width="1" stroke-linecap="square" stroke-linejoin="bevel" transform="matrix(1.00313,0,0,1.00313,31.0969,308.461)"
font-family="Ubuntu" font-size="11" font-weight="400" font-style="normal" 
>
</g>

<g fill="none" stroke="#000000" stroke-opacity="1" stroke-width="1" stroke-linecap="square" stroke-linejoin="bevel" transform="matrix(1.00313,0,0,1.00313,0,0)"
font-family="Ubuntu" font-size="11" font-weight="400" font-style="normal" 
>
</g>

<g fill="none" stroke="#000000" stroke-opacity="1" stroke-width="1" stroke-linecap="round" stroke-linejoin="round" transform="matrix(1.00313,0,0,1.00313,0,0)"
font-family="Ubuntu" font-size="11" font-weight="400" font-style="normal" 
>
<polyline fill="none" vector-effect="none" points="60.5,238.5 66.5,238.5 " />
<polyline fill="none" vector-effect="none" points="618.5,238.5 612.5,238.5 " />
</g>

<g fill="none" stroke="#000000" stroke-opacity="1" stroke-width="1" stroke-linecap="square" stroke-linejoin="bevel" transform="matrix(1.00313,0,0,1.00313,0,0)"
font-family="Ubuntu" font-size="11" font-weight="400" font-style="normal" 
>
</g>

<g fill="none" stroke="#000000" stroke-opacity="1" stroke-width="1" stroke-linecap="square" stroke-linejoin="bevel" transform="matrix(1.00313,0,0,1.00313,43.1344,244.261)"
font-family="Ubuntu" font-size="11" font-weight="400" font-style="normal" 
>
</g>

<g fill="none" stroke="#000000" stroke-opacity="1" stroke-width="1" stroke-linecap="square" stroke-linejoin="bevel" transform="matrix(1.00313,0,0,1.00313,43.1344,244.261)"
font-family="Ubuntu" font-size="11" font-weight="400" font-style="normal" 
>
</g>

<g fill="none" stroke="#000000" stroke-opacity="1" stroke-width="1" stroke-linecap="square" stroke-linejoin="bevel" transform="matrix(1.00313,0,0,1.00313,43.1344,244.261)"
font-family="Ubuntu" font-size="11" font-weight="400" font-style="normal" 
>
</g>

<g fill="none" stroke="#000000" stroke-opacity="1" stroke-width="1" stroke-linecap="square" stroke-linejoin="bevel" transform="matrix(1.00313,0,0,1.00313,43.1344,244.261)"
font-family="Ubuntu" font-size="11" font-weight="400" font-style="normal" 
>
</g>

<g fill="none" stroke="#000000" stroke-opacity="1" stroke-width="1" stroke-linecap="square" stroke-linejoin="bevel" transform="matrix(1.00313,0,0,1.00313,43.1344,244.261)"
font-family="Ubuntu" font-size="11" font-weight="400" font-style="normal" 
>
</g>

<g fill="none" stroke="#000000" stroke-opacity="1" stroke-width="1" stroke-linecap="square" stroke-linejoin="bevel" transform="matrix(1.00313,0,0,1.00313,43.1344,244.261)"
font-family="Sans" font-size="9" font-weight="400" font-style="normal" 
>
<text fill="#000000" fill-opacity="1" stroke="none" xml:space="preserve" x="0" y="0" font-family="Sans" font-size="9" font-weight="400" font-style="normal" 
 > 0</text>
</g>

<g fill="none" stroke="#000000" stroke-opacity="1" stroke-width="1" stroke-linecap="square" stroke-linejoin="bevel" transform="matrix(1.00313,0,0,1.00313,43.1344,244.261)"
font-family="Ubuntu" font-size="11" font-weight="400" font-style="normal" 
>
</g>

<g fill="none" stroke="#000000" stroke-opacity="1" stroke-width="1" stroke-linecap="square" stroke-linejoin="bevel" transform="matrix(1.00313,0,0,1.00313,0,0)"
font-family="Ubuntu" font-size="11" font-weight="400" font-style="normal" 
>
</g>

<g fill="none" stroke="#000000" stroke-opacity="1" stroke-width="1" stroke-linecap="round" stroke-linejoin="round" transform="matrix(1.00313,0,0,1.00313,0,0)"
font-family="Ubuntu" font-size="11" font-weight="400" font-style="normal" 
>
<polyline fill="none" vector-effect="none" points="60.5,174.5 66.5,174.5 " />
<polyline fill="none" vector-effect="none" points="618.5,174.5 612.5,174.5 " />
</g>

<g fill="none" stroke="#000000" stroke-opacity="1" stroke-width="1" stroke-linecap="square" stroke-linejoin="bevel" transform="matrix(1.00313,0,0,1.00313,0,0)"
font-family="Ubuntu" font-size="11" font-weight="400" font-style="normal" 
>
</g>

<g fill="none" stroke="#000000" stroke-opacity="1" stroke-width="1" stroke-linecap="square" stroke-linejoin="bevel" transform="matrix(1.00313,0,0,1.00313,31.0969,179.058)"
font-family="Ubuntu" font-size="11" font-weight="400" font-style="normal" 
>
</g>

<g fill="none" stroke="#000000" stroke-opacity="1" stroke-width="1" stroke-linecap="square" stroke-linejoin="bevel" transform="matrix(1.00313,0,0,1.00313,31.0969,179.058)"
font-family="Ubuntu" font-size="11" font-weight="400" font-style="normal" 
>
</g>

<g fill="none" stroke="#000000" stroke-opacity="1" stroke-width="1" stroke-linecap="square" stroke-linejoin="bevel" transform="matrix(1.00313,0,0,1.00313,31.0969,179.058)"
font-family="Ubuntu" font-size="11" font-weight="400" font-style="normal" 
>
</g>

<g fill="none" stroke="#000000" stroke-opacity="1" stroke-width="1" stroke-linecap="square" stroke-linejoin="bevel" transform="matrix(1.00313,0,0,1.00313,31.0969,179.058)"
font-family="Ubuntu" font-size="11" font-weight="400" font-style="normal" 
>
</g>

<g fill="none" stroke="#000000" stroke-opacity="1" stroke-width="1" stroke-linecap="square" stroke-linejoin="bevel" transform="matrix(1.00313,0,0,1.00313,31.0969,179.058)"
font-family="Ubuntu" font-size="11" font-weight="400" font-style="normal" 
>
</g>

<g fill="none" stroke="#000000" stroke-opacity="1" stroke-width="1" stroke-linecap="square" stroke-linejoin="bevel" transform="matrix(1.00313,0,0,1.00313,31.0969,179.058)"
font-family="Sans" font-size="9" font-weight="400" font-style="normal" 
>
<text fill="#000000" fill-opacity="1" stroke="none" xml:space="preserve" x="0" y="0" font-family="Sans" font-size="9" font-weight="400" font-style="normal" 
 > 0.5</text>
</g>

<g fill="none" stroke="#000000" stroke-opacity="1" stroke-width="1" stroke-linecap="square" stroke-linejoin="bevel" transform="matrix(1.00313,0,0,1.00313,31.0969,179.058)"
font-family="Ubuntu" font-size="11" font-weight="400" font-style="normal" 
>
</g>

<g fill="none" stroke="#000000" stroke-opacity="1" stroke-width="1" stroke-linecap="square" stroke-linejoin="bevel" transform="matrix(1.00313,0,0,1.00313,0,0)"
font-family="Ubuntu" font-size="11" font-weight="400" font-style="normal" 
>
</g>

<g fill="none" stroke="#000000" stroke-opacity="1" stroke-width="1" stroke-linecap="round" stroke-linejoin="round" transform="matrix(1.00313,0,0,1.00313,0,0)"
font-family="Ubuntu" font-size="11" font-weight="400" font-style="normal" 
>
<polyline fill="none" vector-effect="none" points="60.5,109.5 66.5,109.5 " />
<polyline fill="none" vector-effect="none" points="618.5,109.5 612.5,109.5 " />
</g>

<g fill="none" stroke="#000000" stroke-opacity="1" stroke-width="1" stroke-linecap="square" stroke-linejoin="bevel" transform="matrix(1.00313,0,0,1.00313,0,0)"
font-family="Ubuntu" font-size="11" font-weight="400" font-style="normal" 
>
</g>

<g fill="none" stroke="#000000" stroke-opacity="1" stroke-width="1" stroke-linecap="square" stroke-linejoin="bevel" transform="matrix(1.00313,0,0,1.00313,43.1344,114.858)"
font-family="Ubuntu" font-size="11" font-weight="400" font-style="normal" 
>
</g>

<g fill="none" stroke="#000000" stroke-opacity="1" stroke-width="1" stroke-linecap="square" stroke-linejoin="bevel" transform="matrix(1.00313,0,0,1.00313,43.1344,114.858)"
font-family="Ubuntu" font-size="11" font-weight="400" font-style="normal" 
>
</g>

<g fill="none" stroke="#000000" stroke-opacity="1" stroke-width="1" stroke-linecap="square" stroke-linejoin="bevel" transform="matrix(1.00313,0,0,1.00313,43.1344,114.858)"
font-family="Ubuntu" font-size="11" font-weight="400" font-style="normal" 
>
</g>

<g fill="none" stroke="#000000" stroke-opacity="1" stroke-width="1" stroke-linecap="square" stroke-linejoin="bevel" transform="matrix(1.00313,0,0,1.00313,43.1344,114.858)"
font-family="Ubuntu" font-size="11" font-weight="400" font-style="normal" 
>
</g>

<g fill="none" stroke="#000000" stroke-opacity="1" stroke-width="1" stroke-linecap="square" stroke-linejoin="bevel" transform="matrix(1.00313,0,0,1.00313,43.1344,114.858)"
font-family="Ubuntu" font-size="11" font-weight="400" font-style="normal" 
>
</g>

<g fill="none" stroke="#000000" stroke-opacity="1" stroke-width="1" stroke-linecap="square" stroke-linejoin="bevel" transform="matrix(1.00313,0,0,1.00313,43.1344,114.858)"
font-family="Sans" font-size="9" font-weight="400" font-style="normal" 
>
<text fill="#000000" fill-opacity="1" stroke="none" xml:space="preserve" x="0" y="0" font-family="Sans" font-size="9" font-weight="400" font-style="normal" 
 > 1</text>
</g>

<g fill="none" stroke="#000000" stroke-opacity="1" stroke-width="1" stroke-linecap="square" stroke-linejoin="bevel" transform="matrix(1.00313,0,0,1.00313,43.1344,114.858)"
font-family="Ubuntu" font-size="11" font-weight="400" font-style="normal" 
>
</g>

<g fill="none" stroke="#000000" stroke-opacity="1" stroke-width="1" stroke-linecap="square" stroke-linejoin="bevel" transform="matrix(1.00313,0,0,1.00313,0,0)"
font-family="Ubuntu" font-size="11" font-weight="400" font-style="normal" 
>
</g>

<g fill="none" stroke="#000000" stroke-opacity="1" stroke-width="1" stroke-linecap="round" stroke-linejoin="round" transform="matrix(1.00313,0,0,1.00313,0,0)"
font-family="Ubuntu" font-size="11" font-weight="400" font-style="normal" 
>
<polyline fill="none" vector-effect="none" points="60.5,45.5 66.5,45.5 " />
<polyline fill="none" vector-effect="none" points="618.5,45.5 612.5,45.5 " />
</g>

<g fill="none" stroke="#000000" stroke-opacity="1" stroke-width="1" stroke-linecap="square" stroke-linejoin="bevel" transform="matrix(1.00313,0,0,1.00313,0,0)"
font-family="Ubuntu" font-size="11" font-weight="400" font-style="normal" 
>
</g>

<g fill="none" stroke="#000000" stroke-opacity="1" stroke-width="1" stroke-linecap="square" stroke-linejoin="bevel" transform="matrix(1.00313,0,0,1.00313,31.0969,49.6547)"
font-family="Ubuntu" font-size="11" font-weight="400" font-style="normal" 
>
</g>

<g fill="none" stroke="#000000" stroke-opacity="1" stroke-width="1" stroke-linecap="square" stroke-linejoin="bevel" transform="matrix(1.00313,0,0,1.00313,31.0969,49.6547)"
font-family="Ubuntu" font-size="11" font-weight="400" font-style="normal" 
>
</g>

<g fill="none" stroke="#000000" stroke-opacity="1" stroke-width="1" stroke-linecap="square" stroke-linejoin="bevel" transform="matrix(1.00313,0,0,1.00313,31.0969,49.6547)"
font-family="Ubuntu" font-size="11" font-weight="400" font-style="normal" 
>
</g>

<g fill="none" stroke="#000000" stroke-opacity="1" stroke-width="1" stroke-linecap="square" stroke-linejoin="bevel" transform="matrix(1.00313,0,0,1.00313,31.0969,49.6547)"
font-family="Ubuntu" font-size="11" font-weight="400" font-style="normal" 
>
</g>

<g fill="none" stroke="#000000" stroke-opacity="1" stroke-width="1" stroke-linecap="square" stroke-linejoin="bevel" transform="matrix(1.00313,0,0,1.00313,31.0969,49.6547)"
font-family="Ubuntu" font-size="11" font-weight="400" font-style="normal" 
>
</g>

<g fill="none" stroke="#000000" stroke-opacity="1" stroke-width="1" stroke-linecap="square" stroke-linejoin="bevel" transform="matrix(1.00313,0,0,1.00313,31.0969,49.6547)"
font-family="Sans" font-size="9" font-weight="400" font-style="normal" 
>
<text fill="#000000" fill-opacity="1" stroke="none" xml:space="preserve" x="0" y="0" font-family="Sans" font-size="9" font-weight="400" font-style="normal" 
 > 1.5</text>
</g>

<g fill="none" stroke="#000000" stroke-opacity="1" stroke-width="1" stroke-linecap="square" stroke-linejoin="bevel" transform="matrix(1.00313,0,0,1.00313,31.0969,49.6547)"
font-family="Ubuntu" font-size="11" font-weight="400" font-style="normal" 
>
</g>

<g fill="none" stroke="#000000" stroke-opacity="1" stroke-width="1" stroke-linecap="square" stroke-linejoin="bevel" transform="matrix(1.00313,0,0,1.00313,0,0)"
font-family="Ubuntu" font-size="11" font-weight="400" font-style="normal" 
>
</g>

<g fill="none" stroke="#000000" stroke-opacity="1" stroke-width="1" stroke-linecap="round" stroke-linejoin="round" transform="matrix(1.00313,0,0,1.00313,0,0)"
font-family="Ubuntu" font-size="11" font-weight="400" font-style="normal" 
>
<polyline fill="none" vector-effect="none" points="60.5,432.5 60.5,426.5 " />
<polyline fill="none" vector-effect="none" points="60.5,45.5 60.5,51.5 " />
</g>

<g fill="none" stroke="#000000" stroke-opacity="1" stroke-width="1" stroke-linecap="square" stroke-linejoin="bevel" transform="matrix(1.00313,0,0,1.00313,0,0)"
font-family="Ubuntu" font-size="11" font-weight="400" font-style="normal" 
>
</g>

<g fill="none" stroke="#000000" stroke-opacity="1" stroke-width="1" stroke-linecap="square" stroke-linejoin="bevel" transform="matrix(1.00313,0,0,1.00313,55.6734,452.911)"
font-family="Ubuntu" font-size="11" font-weight="400" font-style="normal" 
>
</g>

<g fill="none" stroke="#000000" stroke-opacity="1" stroke-width="1" stroke-linecap="square" stroke-linejoin="bevel" transform="matrix(1.00313,0,0,1.00313,55.6734,452.911)"
font-family="Ubuntu" font-size="11" font-weight="400" font-style="normal" 
>
</g>

<g fill="none" stroke="#000000" stroke-opacity="1" stroke-width="1" stroke-linecap="square" stroke-linejoin="bevel" transform="matrix(1.00313,0,0,1.00313,55.6734,452.911)"
font-family="Ubuntu" font-size="11" font-weight="400" font-style="normal" 
>
</g>

<g fill="none" stroke="#000000" stroke-opacity="1" stroke-width="1" stroke-linecap="square" stroke-linejoin="bevel" transform="matrix(1.00313,0,0,1.00313,55.6734,452.911)"
font-family="Ubuntu" font-size="11" font-weight="400" font-style="normal" 
>
</g>

<g fill="none" stroke="#000000" stroke-opacity="1" stroke-width="1" stroke-linecap="square" stroke-linejoin="bevel" transform="matrix(1.00313,0,0,1.00313,55.6734,452.911)"
font-family="Ubuntu" font-size="11" font-weight="400" font-style="normal" 
>
</g>

<g fill="none" stroke="#000000" stroke-opacity="1" stroke-width="1" stroke-linecap="square" stroke-linejoin="bevel" transform="matrix(1.00313,0,0,1.00313,55.6734,452.911)"
font-family="Sans" font-size="9" font-weight="400" font-style="normal" 
>
<text fill="#000000" fill-opacity="1" stroke="none" xml:space="preserve" x="0" y="0" font-family="Sans" font-size="9" font-weight="400" font-style="normal" 
 >-1</text>
</g>

<g fill="none" stroke="#000000" stroke-opacity="1" stroke-width="1" stroke-linecap="square" stroke-linejoin="bevel" transform="matrix(1.00313,0,0,1.00313,55.6734,452.911)"
font-family="Ubuntu" font-size="11" font-weight="400" font-style="normal" 
>
</g>

<g fill="none" stroke="#000000" stroke-opacity="1" stroke-width="1" stroke-linecap="square" stroke-linejoin="bevel" transform="matrix(1.00313,0,0,1.00313,0,0)"
font-family="Ubuntu" font-size="11" font-weight="400" font-style="normal" 
>
</g>

<g fill="none" stroke="#000000" stroke-opacity="1" stroke-width="1" stroke-linecap="round" stroke-linejoin="round" transform="matrix(1.00313,0,0,1.00313,0,0)"
font-family="Ubuntu" font-size="11" font-weight="400" font-style="normal" 
>
<polyline fill="none" vector-effect="none" points="200.5,432.5 200.5,426.5 " />
<polyline fill="none" vector-effect="none" points="200.5,45.5 200.5,51.5 " />
</g>

<g fill="none" stroke="#000000" stroke-opacity="1" stroke-width="1" stroke-linecap="square" stroke-linejoin="bevel" transform="matrix(1.00313,0,0,1.00313,0,0)"
font-family="Ubuntu" font-size="11" font-weight="400" font-style="normal" 
>
</g>

<g fill="none" stroke="#000000" stroke-opacity="1" stroke-width="1" stroke-linecap="square" stroke-linejoin="bevel" transform="matrix(1.00313,0,0,1.00313,189.089,452.911)"
font-family="Ubuntu" font-size="11" font-weight="400" font-style="normal" 
>
</g>

<g fill="none" stroke="#000000" stroke-opacity="1" stroke-width="1" stroke-linecap="square" stroke-linejoin="bevel" transform="matrix(1.00313,0,0,1.00313,189.089,452.911)"
font-family="Ubuntu" font-size="11" font-weight="400" font-style="normal" 
>
</g>

<g fill="none" stroke="#000000" stroke-opacity="1" stroke-width="1" stroke-linecap="square" stroke-linejoin="bevel" transform="matrix(1.00313,0,0,1.00313,189.089,452.911)"
font-family="Ubuntu" font-size="11" font-weight="400" font-style="normal" 
>
</g>

<g fill="none" stroke="#000000" stroke-opacity="1" stroke-width="1" stroke-linecap="square" stroke-linejoin="bevel" transform="matrix(1.00313,0,0,1.00313,189.089,452.911)"
font-family="Ubuntu" font-size="11" font-weight="400" font-style="normal" 
>
</g>

<g fill="none" stroke="#000000" stroke-opacity="1" stroke-width="1" stroke-linecap="square" stroke-linejoin="bevel" transform="matrix(1.00313,0,0,1.00313,189.089,452.911)"
font-family="Ubuntu" font-size="11" font-weight="400" font-style="normal" 
>
</g>

<g fill="none" stroke="#000000" stroke-opacity="1" stroke-width="1" stroke-linecap="square" stroke-linejoin="bevel" transform="matrix(1.00313,0,0,1.00313,189.089,452.911)"
font-family="Sans" font-size="9" font-weight="400" font-style="normal" 
>
<text fill="#000000" fill-opacity="1" stroke="none" xml:space="preserve" x="0" y="0" font-family="Sans" font-size="9" font-weight="400" font-style="normal" 
 >-0.5</text>
</g>

<g fill="none" stroke="#000000" stroke-opacity="1" stroke-width="1" stroke-linecap="square" stroke-linejoin="bevel" transform="matrix(1.00313,0,0,1.00313,189.089,452.911)"
font-family="Ubuntu" font-size="11" font-weight="400" font-style="normal" 
>
</g>

<g fill="none" stroke="#000000" stroke-opacity="1" stroke-width="1" stroke-linecap="square" stroke-linejoin="bevel" transform="matrix(1.00313,0,0,1.00313,0,0)"
font-family="Ubuntu" font-size="11" font-weight="400" font-style="normal" 
>
</g>

<g fill="none" stroke="#000000" stroke-opacity="1" stroke-width="1" stroke-linecap="round" stroke-linejoin="round" transform="matrix(1.00313,0,0,1.00313,0,0)"
font-family="Ubuntu" font-size="11" font-weight="400" font-style="normal" 
>
<polyline fill="none" vector-effect="none" points="339.5,432.5 339.5,426.5 " />
<polyline fill="none" vector-effect="none" points="339.5,45.5 339.5,51.5 " />
</g>

<g fill="none" stroke="#000000" stroke-opacity="1" stroke-width="1" stroke-linecap="square" stroke-linejoin="bevel" transform="matrix(1.00313,0,0,1.00313,0,0)"
font-family="Ubuntu" font-size="11" font-weight="400" font-style="normal" 
>
</g>

<g fill="none" stroke="#000000" stroke-opacity="1" stroke-width="1" stroke-linecap="square" stroke-linejoin="bevel" transform="matrix(1.00313,0,0,1.00313,335.545,452.911)"
font-family="Ubuntu" font-size="11" font-weight="400" font-style="normal" 
>
</g>

<g fill="none" stroke="#000000" stroke-opacity="1" stroke-width="1" stroke-linecap="square" stroke-linejoin="bevel" transform="matrix(1.00313,0,0,1.00313,335.545,452.911)"
font-family="Ubuntu" font-size="11" font-weight="400" font-style="normal" 
>
</g>

<g fill="none" stroke="#000000" stroke-opacity="1" stroke-width="1" stroke-linecap="square" stroke-linejoin="bevel" transform="matrix(1.00313,0,0,1.00313,335.545,452.911)"
font-family="Ubuntu" font-size="11" font-weight="400" font-style="normal" 
>
</g>

<g fill="none" stroke="#000000" stroke-opacity="1" stroke-width="1" stroke-linecap="square" stroke-linejoin="bevel" transform="matrix(1.00313,0,0,1.00313,335.545,452.911)"
font-family="Ubuntu" font-size="11" font-weight="400" font-style="normal" 
>
</g>

<g fill="none" stroke="#000000" stroke-opacity="1" stroke-width="1" stroke-linecap="square" stroke-linejoin="bevel" transform="matrix(1.00313,0,0,1.00313,335.545,452.911)"
font-family="Ubuntu" font-size="11" font-weight="400" font-style="normal" 
>
</g>

<g fill="none" stroke="#000000" stroke-opacity="1" stroke-width="1" stroke-linecap="square" stroke-linejoin="bevel" transform="matrix(1.00313,0,0,1.00313,335.545,452.911)"
font-family="Sans" font-size="9" font-weight="400" font-style="normal" 
>
<text fill="#000000" fill-opacity="1" stroke="none" xml:space="preserve" x="0" y="0" font-family="Sans" font-size="9" font-weight="400" font-style="normal" 
 > 0</text>
</g>

<g fill="none" stroke="#000000" stroke-opacity="1" stroke-width="1" stroke-linecap="square" stroke-linejoin="bevel" transform="matrix(1.00313,0,0,1.00313,335.545,452.911)"
font-family="Ubuntu" font-size="11" font-weight="400" font-style="normal" 
>
</g>

<g fill="none" stroke="#000000" stroke-opacity="1" stroke-width="1" stroke-linecap="square" stroke-linejoin="bevel" transform="matrix(1.00313,0,0,1.00313,0,0)"
font-family="Ubuntu" font-size="11" font-weight="400" font-style="normal" 
>
</g>

<g fill="none" stroke="#000000" stroke-opacity="1" stroke-width="1" stroke-linecap="round" stroke-linejoin="round" transform="matrix(1.00313,0,0,1.00313,0,0)"
font-family="Ubuntu" font-size="11" font-weight="400" font-style="normal" 
>
<polyline fill="none" vector-effect="none" points="479.5,432.5 479.5,426.5 " />
<polyline fill="none" vector-effect="none" points="479.5,45.5 479.5,51.5 " />
</g>

<g fill="none" stroke="#000000" stroke-opacity="1" stroke-width="1" stroke-linecap="square" stroke-linejoin="bevel" transform="matrix(1.00313,0,0,1.00313,0,0)"
font-family="Ubuntu" font-size="11" font-weight="400" font-style="normal" 
>
</g>

<g fill="none" stroke="#000000" stroke-opacity="1" stroke-width="1" stroke-linecap="square" stroke-linejoin="bevel" transform="matrix(1.00313,0,0,1.00313,468.961,452.911)"
font-family="Ubuntu" font-size="11" font-weight="400" font-style="normal" 
>
</g>

<g fill="none" stroke="#000000" stroke-opacity="1" stroke-width="1" stroke-linecap="square" stroke-linejoin="bevel" transform="matrix(1.00313,0,0,1.00313,468.961,452.911)"
font-family="Ubuntu" font-size="11" font-weight="400" font-style="normal" 
>
</g>

<g fill="none" stroke="#000000" stroke-opacity="1" stroke-width="1" stroke-linecap="square" stroke-linejoin="bevel" transform="matrix(1.00313,0,0,1.00313,468.961,452.911)"
font-family="Ubuntu" font-size="11" font-weight="400" font-style="normal" 
>
</g>

<g fill="none" stroke="#000000" stroke-opacity="1" stroke-width="1" stroke-linecap="square" stroke-linejoin="bevel" transform="matrix(1.00313,0,0,1.00313,468.961,452.911)"
font-family="Ubuntu" font-size="11" font-weight="400" font-style="normal" 
>
</g>

<g fill="none" stroke="#000000" stroke-opacity="1" stroke-width="1" stroke-linecap="square" stroke-linejoin="bevel" transform="matrix(1.00313,0,0,1.00313,468.961,452.911)"
font-family="Ubuntu" font-size="11" font-weight="400" font-style="normal" 
>
</g>

<g fill="none" stroke="#000000" stroke-opacity="1" stroke-width="1" stroke-linecap="square" stroke-linejoin="bevel" transform="matrix(1.00313,0,0,1.00313,468.961,452.911)"
font-family="Sans" font-size="9" font-weight="400" font-style="normal" 
>
<text fill="#000000" fill-opacity="1" stroke="none" xml:space="preserve" x="0" y="0" font-family="Sans" font-size="9" font-weight="400" font-style="normal" 
 > 0.5</text>
</g>

<g fill="none" stroke="#000000" stroke-opacity="1" stroke-width="1" stroke-linecap="square" stroke-linejoin="bevel" transform="matrix(1.00313,0,0,1.00313,468.961,452.911)"
font-family="Ubuntu" font-size="11" font-weight="400" font-style="normal" 
>
</g>

<g fill="none" stroke="#000000" stroke-opacity="1" stroke-width="1" stroke-linecap="square" stroke-linejoin="bevel" transform="matrix(1.00313,0,0,1.00313,0,0)"
font-family="Ubuntu" font-size="11" font-weight="400" font-style="normal" 
>
</g>

<g fill="none" stroke="#000000" stroke-opacity="1" stroke-width="1" stroke-linecap="round" stroke-linejoin="round" transform="matrix(1.00313,0,0,1.00313,0,0)"
font-family="Ubuntu" font-size="11" font-weight="400" font-style="normal" 
>
<polyline fill="none" vector-effect="none" points="618.5,432.5 618.5,426.5 " />
<polyline fill="none" vector-effect="none" points="618.5,45.5 618.5,51.5 " />
</g>

<g fill="none" stroke="#000000" stroke-opacity="1" stroke-width="1" stroke-linecap="square" stroke-linejoin="bevel" transform="matrix(1.00313,0,0,1.00313,0,0)"
font-family="Ubuntu" font-size="11" font-weight="400" font-style="normal" 
>
</g>

<g fill="none" stroke="#000000" stroke-opacity="1" stroke-width="1" stroke-linecap="square" stroke-linejoin="bevel" transform="matrix(1.00313,0,0,1.00313,615.417,452.911)"
font-family="Ubuntu" font-size="11" font-weight="400" font-style="normal" 
>
</g>

<g fill="none" stroke="#000000" stroke-opacity="1" stroke-width="1" stroke-linecap="square" stroke-linejoin="bevel" transform="matrix(1.00313,0,0,1.00313,615.417,452.911)"
font-family="Ubuntu" font-size="11" font-weight="400" font-style="normal" 
>
</g>

<g fill="none" stroke="#000000" stroke-opacity="1" stroke-width="1" stroke-linecap="square" stroke-linejoin="bevel" transform="matrix(1.00313,0,0,1.00313,615.417,452.911)"
font-family="Ubuntu" font-size="11" font-weight="400" font-style="normal" 
>
</g>

<g fill="none" stroke="#000000" stroke-opacity="1" stroke-width="1" stroke-linecap="square" stroke-linejoin="bevel" transform="matrix(1.00313,0,0,1.00313,615.417,452.911)"
font-family="Ubuntu" font-size="11" font-weight="400" font-style="normal" 
>
</g>

<g fill="none" stroke="#000000" stroke-opacity="1" stroke-width="1" stroke-linecap="square" stroke-linejoin="bevel" transform="matrix(1.00313,0,0,1.00313,615.417,452.911)"
font-family="Ubuntu" font-size="11" font-weight="400" font-style="normal" 
>
</g>

<g fill="none" stroke="#000000" stroke-opacity="1" stroke-width="1" stroke-linecap="square" stroke-linejoin="bevel" transform="matrix(1.00313,0,0,1.00313,615.417,452.911)"
font-family="Sans" font-size="9" font-weight="400" font-style="normal" 
>
<text fill="#000000" fill-opacity="1" stroke="none" xml:space="preserve" x="0" y="0" font-family="Sans" font-size="9" font-weight="400" font-style="normal" 
 > 1</text>
</g>

<g fill="none" stroke="#000000" stroke-opacity="1" stroke-width="1" stroke-linecap="square" stroke-linejoin="bevel" transform="matrix(1.00313,0,0,1.00313,615.417,452.911)"
font-family="Ubuntu" font-size="11" font-weight="400" font-style="normal" 
>
</g>

<g fill="none" stroke="#000000" stroke-opacity="1" stroke-width="1" stroke-linecap="square" stroke-linejoin="bevel" transform="matrix(1.00313,0,0,1.00313,0,0)"
font-family="Ubuntu" font-size="11" font-weight="400" font-style="normal" 
>
</g>

<g fill="none" stroke="#000000" stroke-opacity="1" stroke-width="1" stroke-linecap="round" stroke-linejoin="round" transform="matrix(1.00313,0,0,1.00313,0,0)"
font-family="Ubuntu" font-size="11" font-weight="400" font-style="normal" 
>
<polyline fill="none" vector-effect="none" points="60.5,45.5 60.5,432.5 618.5,432.5 618.5,45.5 60.5,45.5 " />
</g>

<g fill="none" stroke="#000000" stroke-opacity="1" stroke-width="1" stroke-linecap="square" stroke-linejoin="bevel" transform="matrix(1.00313,0,0,1.00313,0,0)"
font-family="Ubuntu" font-size="11" font-weight="400" font-style="normal" 
>
</g>

<g fill="none" stroke="#000000" stroke-opacity="1" stroke-width="1" stroke-linecap="square" stroke-linejoin="bevel" transform="matrix(0,-1.00313,1.00313,0,15.5484,242.255)"
font-family="Ubuntu" font-size="11" font-weight="400" font-style="normal" 
>
</g>

<g fill="none" stroke="#000000" stroke-opacity="1" stroke-width="1" stroke-linecap="square" stroke-linejoin="bevel" transform="matrix(0,-1.00313,1.00313,0,15.5484,242.255)"
font-family="Ubuntu" font-size="11" font-weight="400" font-style="normal" 
>
</g>

<g fill="none" stroke="#000000" stroke-opacity="1" stroke-width="1" stroke-linecap="square" stroke-linejoin="bevel" transform="matrix(0,-1.00313,1.00313,0,15.5484,242.255)"
font-family="Ubuntu" font-size="11" font-weight="400" font-style="normal" 
>
</g>

<g fill="none" stroke="#000000" stroke-opacity="1" stroke-width="1" stroke-linecap="square" stroke-linejoin="bevel" transform="matrix(0,-1.00313,1.00313,0,15.5484,242.255)"
font-family="Ubuntu" font-size="11" font-weight="400" font-style="normal" 
>
</g>

<g fill="none" stroke="#000000" stroke-opacity="1" stroke-width="1" stroke-linecap="square" stroke-linejoin="bevel" transform="matrix(0,-1.00313,1.00313,0,15.5484,242.255)"
font-family="Ubuntu" font-size="11" font-weight="400" font-style="normal" 
>
</g>

<g fill="none" stroke="#000000" stroke-opacity="1" stroke-width="1" stroke-linecap="square" stroke-linejoin="bevel" transform="matrix(0,-1.00313,1.00313,0,15.5484,242.255)"
font-family="Sans" font-size="9" font-weight="400" font-style="normal" 
>
<text fill="#000000" fill-opacity="1" stroke="none" xml:space="preserve" x="0" y="0" font-family="Sans" font-size="9" font-weight="400" font-style="normal" 
 >t</text>
</g>

<g fill="none" stroke="#000000" stroke-opacity="1" stroke-width="1" stroke-linecap="square" stroke-linejoin="bevel" transform="matrix(0,-1.00313,1.00313,0,15.5484,242.255)"
font-family="Ubuntu" font-size="11" font-weight="400" font-style="normal" 
>
</g>

<g fill="none" stroke="#000000" stroke-opacity="1" stroke-width="1" stroke-linecap="square" stroke-linejoin="bevel" transform="matrix(1.00313,0,0,1.00313,338.053,475.983)"
font-family="Ubuntu" font-size="11" font-weight="400" font-style="normal" 
>
</g>

<g fill="none" stroke="#000000" stroke-opacity="1" stroke-width="1" stroke-linecap="square" stroke-linejoin="bevel" transform="matrix(1.00313,0,0,1.00313,338.053,475.983)"
font-family="Ubuntu" font-size="11" font-weight="400" font-style="normal" 
>
</g>

<g fill="none" stroke="#000000" stroke-opacity="1" stroke-width="1" stroke-linecap="square" stroke-linejoin="bevel" transform="matrix(1.00313,0,0,1.00313,338.053,475.983)"
font-family="Ubuntu" font-size="11" font-weight="400" font-style="normal" 
>
</g>

<g fill="none" stroke="#000000" stroke-opacity="1" stroke-width="1" stroke-linecap="square" stroke-linejoin="bevel" transform="matrix(1.00313,0,0,1.00313,338.053,475.983)"
font-family="Ubuntu" font-size="11" font-weight="400" font-style="normal" 
>
</g>

<g fill="none" stroke="#000000" stroke-opacity="1" stroke-width="1" stroke-linecap="square" stroke-linejoin="bevel" transform="matrix(1.00313,0,0,1.00313,338.053,475.983)"
font-family="Ubuntu" font-size="11" font-weight="400" font-style="normal" 
>
</g>

<g fill="none" stroke="#000000" stroke-opacity="1" stroke-width="1" stroke-linecap="square" stroke-linejoin="bevel" transform="matrix(1.00313,0,0,1.00313,338.053,475.983)"
font-family="Sans" font-size="9" font-weight="400" font-style="normal" 
>
<text fill="#000000" fill-opacity="1" stroke="none" xml:space="preserve" x="0" y="0" font-family="Sans" font-size="9" font-weight="400" font-style="normal" 
 >z</text>
</g>

<g fill="none" stroke="#000000" stroke-opacity="1" stroke-width="1" stroke-linecap="square" stroke-linejoin="bevel" transform="matrix(1.00313,0,0,1.00313,338.053,475.983)"
font-family="Ubuntu" font-size="11" font-weight="400" font-style="normal" 
>
</g>

<g fill="none" stroke="#000000" stroke-opacity="1" stroke-width="1" stroke-linecap="square" stroke-linejoin="bevel" transform="matrix(1.00313,0,0,1.00313,319.495,27.5859)"
font-family="Ubuntu" font-size="11" font-weight="400" font-style="normal" 
>
</g>

<g fill="none" stroke="#000000" stroke-opacity="1" stroke-width="1" stroke-linecap="square" stroke-linejoin="bevel" transform="matrix(1.00313,0,0,1.00313,319.495,27.5859)"
font-family="Ubuntu" font-size="11" font-weight="400" font-style="normal" 
>
</g>

<g fill="none" stroke="#000000" stroke-opacity="1" stroke-width="1" stroke-linecap="square" stroke-linejoin="bevel" transform="matrix(1.00313,0,0,1.00313,319.495,27.5859)"
font-family="Ubuntu" font-size="11" font-weight="400" font-style="normal" 
>
</g>

<g fill="none" stroke="#000000" stroke-opacity="1" stroke-width="1" stroke-linecap="square" stroke-linejoin="bevel" transform="matrix(1.00313,0,0,1.00313,319.495,27.5859)"
font-family="Ubuntu" font-size="11" font-weight="400" font-style="normal" 
>
</g>

<g fill="none" stroke="#000000" stroke-opacity="1" stroke-width="1" stroke-linecap="square" stroke-linejoin="bevel" transform="matrix(1.00313,0,0,1.00313,319.495,27.5859)"
font-family="Ubuntu" font-size="11" font-weight="400" font-style="normal" 
>
</g>

<g fill="none" stroke="#000000" stroke-opacity="1" stroke-width="1" stroke-linecap="square" stroke-linejoin="bevel" transform="matrix(1.00313,0,0,1.00313,319.495,27.5859)"
font-family="Sans" font-size="9" font-weight="400" font-style="normal" 
>
<text fill="#000000" fill-opacity="1" stroke="none" xml:space="preserve" x="0" y="0" font-family="Sans" font-size="9" font-weight="400" font-style="normal" 
 >4</text>
<text fill="#000000" fill-opacity="1" stroke="none" xml:space="preserve" x="5.71875" y="0" font-family="Sans" font-size="9" font-weight="400" font-style="normal" 
 >d</text>
<text fill="#000000" fill-opacity="1" stroke="none" xml:space="preserve" x="11.4219" y="0" font-family="Sans" font-size="9" font-weight="400" font-style="normal" 
 > </text>
<text fill="#000000" fill-opacity="1" stroke="none" xml:space="preserve" x="14.2812" y="0" font-family="Sans" font-size="9" font-weight="400" font-style="normal" 
 >loop</text>
</g>

<g fill="none" stroke="#000000" stroke-opacity="1" stroke-width="1" stroke-linecap="square" stroke-linejoin="bevel" transform="matrix(1.00313,0,0,1.00313,319.495,27.5859)"
font-family="Ubuntu" font-size="11" font-weight="400" font-style="normal" 
>
</g>

<g fill="none" stroke="#000000" stroke-opacity="1" stroke-width="1" stroke-linecap="square" stroke-linejoin="bevel" transform="matrix(1.00313,0,0,1.00313,0,0)"
font-family="Ubuntu" font-size="11" font-weight="400" font-style="normal" 
>
</g>

<g fill="none" stroke="#000000" stroke-opacity="1" stroke-width="1" stroke-linecap="square" stroke-linejoin="bevel" transform="matrix(1.00313,0,0,1.00313,0,0)"
font-family="Ubuntu" font-size="11" font-weight="400" font-style="normal" 
>
</g>

<g fill="none" stroke="#000000" stroke-opacity="1" stroke-width="1" stroke-linecap="square" stroke-linejoin="bevel" transform="matrix(1.00313,0,0,1.00313,0,0)"
font-family="Ubuntu" font-size="11" font-weight="400" font-style="normal" 
>
</g>

<g fill="none" stroke="#9400d3" stroke-opacity="1" stroke-width="1" stroke-linecap="round" stroke-linejoin="round" transform="matrix(1.00313,0,0,1.00313,0,0)"
font-family="Ubuntu" font-size="11" font-weight="400" font-style="normal" 
>
<polyline fill="none" vector-effect="none" points="340.2,373.1 340.2,373.1 340.6,372.9 341,372.7 341.4,372.5 341.8,372.3 342.2,372.1 342.6,371.9 343,371.7 343.3,371.5 343.7,371.3 344.1,371.1 344.5,370.9 344.9,370.7 345.2,370.5 345.6,370.3 346,370.1 346.4,369.9 346.7,369.7 347.1,369.5 347.4,369.3 347.8,369 348.1,368.8 348.5,368.6 348.8,368.4 349.2,368.2 349.5,368 349.8,367.7 350.1,367.5 350.4,367.3 350.7,367.1 351.1,366.8 351.4,366.6 351.6,366.4 351.9,366.1 352.2,365.9 352.5,365.7 352.8,365.4 353,365.2 353.3,364.9 353.6,364.7 353.8,364.5 354.1,364.2 354.3,364 354.5,363.7 354.8,363.5 355,363.2 355.2,363 355.5,362.7 355.7,362.5 355.9,362.2 356.1,362 356.3,361.7 356.5,361.5 356.7,361.2 356.9,361 357.1,360.7 357.3,360.5 357.5,360.2 357.6,359.9 357.8,359.7 358,359.4 358.2,359.2 358.3,358.9 358.5,358.7 358.7,358.4 358.8,358.1 359,357.9 359.1,357.6 359.3,357.4 359.4,357.1 359.6,356.8 359.7,356.6 359.8,356.3 360,356 360.1,355.8 360.2,355.5 360.4,355.3 360.5,355 360.6,354.7 360.7,354.5 360.9,354.2 361,353.9 361.1,353.7 361.2,353.4 361.3,353.1 361.4,352.9 361.5,352.6 361.7,352.3 361.8,352.1 361.9,351.8 362,351.6 362.1,351.3 362.2,351 362.3,350.8 362.4,350.5 362.5,350.2 362.6,350 362.7,349.7 362.7,349.4 362.8,349.2 362.9,348.9 363,348.6 363.1,348.4 363.2,348.1 363.3,347.8 363.4,347.6 363.5,347.3 363.5,347 363.6,346.8 363.7,346.5 363.8,346.2 363.9,346 363.9,345.7 364,345.4 364.1,345.2 364.2,344.9 364.3,344.6 364.3,344.3 364.4,344.1 364.5,343.8 364.6,343.5 364.6,343.3 364.7,343 364.8,342.7 364.9,342.5 364.9,342.2 365,341.9 365.1,341.7 365.2,341.4 365.2,341.1 365.3,340.9 365.4,340.6 365.5,340.3 365.5,340.1 365.6,339.8 365.7,339.5 365.7,339.3 365.8,339 365.9,338.7 366,338.5 366,338.2 366.1,337.9 366.2,337.7 366.2,337.4 366.3,337.1 366.4,336.9 366.5,336.6 366.5,336.3 366.6,336 366.7,335.8 366.7,335.5 366.8,335.2 366.9,335 367,334.7 367,334.4 367.1,334.2 367.2,333.9 367.2,333.6 367.3,333.4 367.4,333.1 367.5,332.8 367.5,332.6 367.6,332.3 367.7,332 367.8,331.8 367.8,331.5 367.9,331.2 368,331 368,330.7 368.1,330.4 368.2,330.2 368.3,329.9 368.3,329.6 368.4,329.4 368.5,329.1 368.6,328.8 368.6,328.5 368.7,328.3 368.8,328 368.9,327.7 368.9,327.5 369,327.2 369.1,326.9 369.2,326.7 369.2,326.4 369.3,326.1 369.4,325.9 369.5,325.6 369.5,325.3 369.6,325.1 369.7,324.8 369.8,324.5 369.8,324.3 369.9,324 370,323.7 370.1,323.5 370.1,323.2 370.2,322.9 370.3,322.7 370.4,322.4 370.5,322.1 370.5,321.9 370.6,321.6 370.7,321.3 370.8,321.1 370.8,320.8 370.9,320.5 371,320.3 371.1,320 371.2,319.7 371.2,319.5 371.3,319.2 371.4,318.9 371.5,318.6 371.6,318.4 371.6,318.1 371.7,317.8 371.8,317.6 371.9,317.3 372,317 372,316.8 372.1,316.5 372.2,316.2 372.3,316 372.4,315.7 372.4,315.4 372.5,315.2 372.6,314.9 372.7,314.6 372.8,314.4 372.9,314.1 372.9,313.8 373,313.6 373.1,313.3 373.2,313 373.3,312.8 373.3,312.5 373.4,312.2 373.5,312 373.6,311.7 373.7,311.4 373.8,311.2 373.8,310.9 373.9,310.6 374,310.4 374.1,310.1 374.2,309.8 374.3,309.6 374.3,309.3 374.4,309 374.5,308.8 374.6,308.5 374.7,308.2 374.8,308 374.8,307.7 374.9,307.4 375,307.2 375.1,306.9 375.2,306.6 375.3,306.4 375.3,306.1 375.4,305.8 375.5,305.6 375.6,305.3 375.7,305 375.8,304.8 375.8,304.5 375.9,304.2 376,304 376.1,303.7 376.2,303.4 376.3,303.2 376.3,302.9 376.4,302.6 376.5,302.4 376.6,302.1 376.7,301.8 376.8,301.6 376.8,301.3 376.9,301 377,300.7 377.1,300.5 377.2,300.2 377.3,299.9 377.3,299.7 377.4,299.4 377.5,299.1 377.6,298.9 377.7,298.6 377.8,298.3 377.8,298.1 377.9,297.8 378,297.5 378.1,297.3 378.2,297 378.2,296.7 378.3,296.5 378.4,296.2 378.5,295.9 378.6,295.7 378.7,295.4 378.7,295.1 378.8,294.9 378.9,294.6 379,294.3 379.1,294.1 379.1,293.8 379.2,293.5 379.3,293.3 379.4,293 379.5,292.7 379.5,292.5 379.6,292.2 379.7,291.9 379.8,291.7 379.9,291.4 379.9,291.1 380,290.9 380.1,290.6 380.2,290.3 380.2,290.1 380.3,289.8 380.4,289.5 380.5,289.3 380.5,289 380.6,288.7 380.7,288.5 380.8,288.2 380.9,287.9 380.9,287.6 381,287.4 381.1,287.1 381.2,286.8 381.2,286.6 381.3,286.3 381.4,286 381.4,285.8 381.5,285.5 381.6,285.2 381.7,285 381.7,284.7 381.8,284.4 381.9,284.2 382,283.9 382,283.6 382.1,283.4 382.2,283.1 382.2,282.8 382.3,282.6 382.4,282.3 382.5,282 382.5,281.8 382.6,281.5 382.7,281.2 382.7,281 382.8,280.7 382.9,280.4 382.9,280.2 383,279.9 383.1,279.6 383.1,279.3 383.2,279.1 383.3,278.8 383.3,278.5 383.4,278.3 383.5,278 383.5,277.7 383.6,277.5 383.7,277.2 383.7,276.9 383.8,276.7 383.8,276.4 383.9,276.1 384,275.9 384,275.6 384.1,275.3 384.2,275.1 384.2,274.8 384.3,274.5 384.3,274.2 384.4,274 384.5,273.7 384.5,273.4 384.6,273.2 384.6,272.9 384.7,272.6 384.8,272.4 384.8,272.1 384.9,271.8 384.9,271.6 385,271.3 385,271 385.1,270.8 385.1,270.5 385.2,270.2 385.3,270 385.3,269.7 385.4,269.4 385.4,269.1 385.5,268.9 385.5,268.6 385.6,268.3 385.6,268.1 385.7,267.8 385.7,267.5 385.8,267.3 385.8,267 385.9,266.7 385.9,266.5 386,266.2 386,265.9 386.1,265.7 386.1,265.4 386.2,265.1 386.2,264.8 386.2,264.6 386.3,264.3 386.3,264 386.4,263.8 386.4,263.5 386.5,263.2 386.5,263 386.6,262.7 386.6,262.4 386.6,262.2 386.7,261.9 386.7,261.6 386.8,261.3 386.8,261.1 386.8,260.8 386.9,260.5 386.9,260.3 387,260 387,259.7 387,259.5 387.1,259.2 387.1,258.9 387.1,258.7 387.2,258.4 387.2,258.1 387.2,257.8 387.3,257.6 387.3,257.3 387.3,257 387.4,256.8 387.4,256.5 387.4,256.2 387.5,256 387.5,255.7 387.5,255.4 387.6,255.1 387.6,254.9 387.6,254.6 387.6,254.3 387.7,254.1 387.7,253.8 387.7,253.5 387.8,253.3 387.8,253 387.8,252.7 387.8,252.5 387.9,252.2 387.9,251.9 387.9,251.6 387.9,251.4 388,251.1 388,250.8 388,250.6 388,250.3 388,250 388.1,249.8 388.1,249.5 388.1,249.2 388.1,248.9 388.1,248.7 388.2,248.4 388.2,248.1 388.2,247.9 388.2,247.6 388.2,247.3 388.2,247.1 388.2,246.8 388.3,246.5 388.3,246.3 388.3,246 388.3,245.7 388.3,245.4 388.3,245.2 388.3,244.9 388.3,244.6 388.4,244.4 388.4,244.1 388.4,243.8 388.4,243.6 388.4,243.3 388.4,243 388.4,242.7 388.4,242.5 388.4,242.2 388.4,241.9 388.4,241.7 388.4,241.4 388.4,241.1 388.4,240.9 388.4,240.6 388.4,240.3 388.5,240 388.5,239.8 388.5,239.5 388.5,239.2 388.5,239 388.5,238.7 388.5,238.4 388.5,238.2 388.4,237.9 388.4,237.6 388.4,237.3 388.4,237.1 388.4,236.8 388.4,236.5 388.4,236.3 388.4,236 388.4,235.7 388.4,235.5 388.4,235.2 388.4,234.9 388.4,234.6 388.4,234.4 388.4,234.1 388.4,233.8 388.4,233.6 388.3,233.3 388.3,233 388.3,232.8 388.3,232.5 388.3,232.2 388.3,231.9 388.3,231.7 388.3,231.4 388.2,231.1 388.2,230.9 388.2,230.6 388.2,230.3 388.2,230.1 388.2,229.8 388.1,229.5 388.1,229.3 388.1,229 388.1,228.7 388.1,228.4 388.1,228.2 388,227.9 388,227.6 388,227.4 388,227.1 387.9,226.8 387.9,226.6 387.9,226.3 387.9,226 387.9,225.7 387.8,225.5 387.8,225.2 387.8,224.9 387.7,224.7 387.7,224.4 387.7,224.1 387.7,223.9 387.6,223.6 387.6,223.3 387.6,223.1 387.6,222.8 387.5,222.5 387.5,222.2 387.5,222 387.4,221.7 387.4,221.4 387.4,221.2 387.3,220.9 387.3,220.6 387.3,220.4 387.2,220.1 387.2,219.8 387.2,219.5 387.1,219.3 387.1,219 387.1,218.7 387,218.5 387,218.2 386.9,217.9 386.9,217.7 386.9,217.4 386.8,217.1 386.8,216.9 386.7,216.6 386.7,216.3 386.7,216 386.6,215.8 386.6,215.5 386.5,215.2 386.5,215 386.4,214.7 386.4,214.4 386.4,214.2 386.3,213.9 386.3,213.6 386.2,213.4 386.2,213.1 386.1,212.8 386.1,212.5 386,212.3 386,212 385.9,211.7 385.9,211.5 385.8,211.2 385.8,210.9 385.7,210.7 385.7,210.4 385.6,210.1 385.6,209.9 385.5,209.6 385.5,209.3 385.4,209.1 385.4,208.8 385.3,208.5 385.3,208.2 385.2,208 385.2,207.7 385.1,207.4 385.1,207.2 385,206.9 384.9,206.6 384.9,206.4 384.8,206.1 384.8,205.8 384.7,205.6 384.7,205.3 384.6,205 384.5,204.8 384.5,204.5 384.4,204.2 384.4,204 384.3,203.7 384.2,203.4 384.2,203.1 384.1,202.9 384.1,202.6 384,202.3 383.9,202.1 383.9,201.8 383.8,201.5 383.7,201.3 383.7,201 383.6,200.7 383.5,200.5 383.5,200.2 383.4,199.9 383.4,199.7 383.3,199.4 383.2,199.1 383.2,198.9 383.1,198.6 383,198.3 383,198.1 382.9,197.8 382.8,197.5 382.7,197.2 382.7,197 382.6,196.7 382.5,196.4 382.5,196.2 382.4,195.9 382.3,195.6 382.3,195.4 382.2,195.1 382.1,194.8 382,194.6 382,194.3 381.9,194 381.8,193.8 381.7,193.5 381.7,193.2 381.6,193 381.5,192.7 381.5,192.4 381.4,192.2 381.3,191.9 381.2,191.6 381.2,191.4 381.1,191.1 381,190.8 380.9,190.6 380.9,190.3 380.8,190 380.7,189.8 380.6,189.5 380.5,189.2 380.5,188.9 380.4,188.7 380.3,188.4 380.2,188.1 380.2,187.9 380.1,187.6 380,187.3 379.9,187.1 379.8,186.8 379.8,186.5 379.7,186.3 379.6,186 379.5,185.7 379.4,185.5 379.4,185.2 379.3,184.9 379.2,184.7 379.1,184.4 379,184.1 379,183.9 378.9,183.6 378.8,183.3 378.7,183.1 378.6,182.8 378.5,182.5 378.5,182.3 378.4,182 378.3,181.7 378.2,181.5 378.1,181.2 378,180.9 378,180.7 377.9,180.4 377.8,180.1 377.7,179.9 377.6,179.6 377.5,179.3 377.5,179.1 377.4,178.8 377.3,178.5 377.2,178.3 377.1,178 377,177.7 377,177.5 376.9,177.2 376.8,176.9 376.7,176.7 376.6,176.4 376.5,176.1 376.5,175.9 376.4,175.6 376.3,175.3 376.2,175.1 376.1,174.8 376,174.5 375.9,174.3 375.9,174 375.8,173.7 375.7,173.5 375.6,173.2 375.5,172.9 375.4,172.7 375.3,172.4 375.3,172.1 375.2,171.9 375.1,171.6 375,171.3 374.9,171.1 374.8,170.8 374.7,170.5 374.7,170.3 374.6,170 374.5,169.7 374.4,169.5 374.3,169.2 374.2,168.9 374.1,168.6 374.1,168.4 374,168.1 373.9,167.8 373.8,167.6 373.7,167.3 373.6,167 373.6,166.8 373.5,166.5 373.4,166.2 373.3,166 373.2,165.7 373.1,165.4 373,165.2 373,164.9 372.9,164.6 372.8,164.4 372.7,164.1 372.6,163.8 372.5,163.6 372.5,163.3 372.4,163 372.3,162.8 372.2,162.5 372.1,162.2 372,162 372,161.7 371.9,161.4 371.8,161.2 371.7,160.9 371.6,160.6 371.5,160.4 371.5,160.1 371.4,159.8 371.3,159.6 371.2,159.3 371.1,159 371,158.8 371,158.5 370.9,158.2 370.8,158 370.7,157.7 370.6,157.4 370.6,157.2 370.5,156.9 370.4,156.6 370.3,156.4 370.2,156.1 370.2,155.8 370.1,155.6 370,155.3 369.9,155 369.8,154.8 369.8,154.5 369.7,154.2 369.6,154 369.5,153.7 369.4,153.4 369.4,153.2 369.3,152.9 369.2,152.6 369.1,152.4 369.1,152.1 369,151.8 368.9,151.6 368.8,151.3 368.7,151 368.7,150.8 368.6,150.5 368.5,150.2 368.4,149.9 368.4,149.7 368.3,149.4 368.2,149.1 368.1,148.9 368.1,148.6 368,148.3 367.9,148.1 367.8,147.8 367.8,147.5 367.7,147.3 367.6,147 367.5,146.7 367.5,146.5 367.4,146.2 367.3,145.9 367.2,145.7 367.2,145.4 367.1,145.1 367,144.9 366.9,144.6 366.9,144.3 366.8,144.1 366.7,143.8 366.6,143.5 366.6,143.3 366.5,143 366.4,142.7 366.3,142.5 366.3,142.2 366.2,141.9 366.1,141.7 366.1,141.4 366,141.1 365.9,140.8 365.8,140.6 365.8,140.3 365.7,140 365.6,139.8 365.5,139.5 365.5,139.2 365.4,139 365.3,138.7 365.3,138.4 365.2,138.2 365.1,137.9 365,137.6 365,137.4 364.9,137.1 364.8,136.8 364.7,136.6 364.7,136.3 364.6,136 364.5,135.8 364.4,135.5 364.4,135.2 364.3,135 364.2,134.7 364.1,134.4 364.1,134.2 364,133.9 363.9,133.6 363.8,133.4 363.7,133.1 363.7,132.8 363.6,132.6 363.5,132.3 363.4,132 363.4,131.8 363.3,131.5 363.2,131.2 363.1,131 363,130.7 362.9,130.4 362.9,130.1 362.8,129.9 362.7,129.6 362.6,129.3 362.5,129.1 362.4,128.8 362.3,128.5 362.2,128.3 362.2,128 362.1,127.7 362,127.5 361.9,127.2 361.8,126.9 361.7,126.7 361.6,126.4 361.5,126.2 361.4,125.9 361.3,125.6 361.2,125.4 361.1,125.1 361,124.8 360.9,124.6 360.7,124.3 360.6,124 360.5,123.8 360.4,123.5 360.3,123.2 360.2,123 360,122.7 359.9,122.4 359.8,122.2 359.7,121.9 359.5,121.7 359.4,121.4 359.3,121.1 359.1,120.9 359,120.6 358.9,120.3 358.7,120.1 358.6,119.8 358.4,119.6 358.3,119.3 358.1,119 358,118.8 357.8,118.5 357.6,118.3 357.5,118 357.3,117.7 357.1,117.5 356.9,117.2 356.8,117 356.6,116.7 356.4,116.5 356.2,116.2 356,115.9 355.8,115.7 355.6,115.4 355.4,115.2 355.2,114.9 355,114.7 354.8,114.4 354.5,114.2 354.3,113.9 354.1,113.7 353.9,113.4 353.6,113.2 353.4,112.9 353.1,112.7 352.9,112.4 352.6,112.2 352.4,112 352.1,111.7 351.8,111.5 351.5,111.2 351.2,111 351,110.8 350.7,110.5 350.4,110.3 350.1,110.1 349.8,109.8 349.4,109.6 349.1,109.4 348.8,109.2 348.5,108.9 348.1,108.7 347.8,108.5 347.4,108.3 347.1,108.1 346.7,107.8 346.4,107.6 346,107.4 345.6,107.2 345.3,107 344.9,106.8 344.5,106.6 344.1,106.4 343.8,106.2 343.4,106 343,105.8 342.6,105.6 342.2,105.4 341.8,105.2 341.4,105 341,104.8 340.6,104.6 340.2,104.4 339.8,104.2 339.4,104 339,104.2 338.6,104.4 338.2,104.6 337.8,104.8 337.4,105 337,105.2 336.6,105.4 336.2,105.6 335.8,105.8 335.4,106 335.1,106.2 334.7,106.4 334.3,106.6 333.9,106.8 333.6,107 333.2,107.2 332.8,107.4 332.5,107.6 332.1,107.8 331.8,108 331.4,108.3 331.1,108.5 330.7,108.7 330.4,108.9 330.1,109.1 329.7,109.4 329.4,109.6 329.1,109.8 328.8,110 328.5,110.3 328.2,110.5 327.9,110.7 327.6,111 327.3,111.2 327,111.4 326.8,111.7 326.5,111.9 326.2,112.1 326,112.4 325.7,112.6 325.5,112.9 325.2,113.1 325,113.4 324.8,113.6 324.5,113.8 324.3,114.1 324.1,114.3 323.9,114.6 323.6,114.8 323.4,115.1 323.2,115.3 323,115.6 322.8,115.8 322.6,116.1 322.4,116.4 322.3,116.6 322.1,116.9 321.9,117.1 321.7,117.4 321.5,117.6 321.4,117.9 321.2,118.1 321,118.4 320.9,118.7 320.7,118.9 320.6,119.2 320.4,119.4 320.3,119.7 320.1,120 320,120.2 319.8,120.5 319.7,120.7 319.5,121 319.4,121.3 319.3,121.5 319.2,121.8 319,122.1 318.9,122.3 318.8,122.6 318.7,122.8 318.5,123.1 318.4,123.4 318.3,123.6 318.2,123.9 318.1,124.2 318,124.4 317.9,124.7 317.8,125 317.6,125.2 317.5,125.5 317.4,125.8 317.3,126 317.2,126.3 317.1,126.6 317,126.8 317,127.1 316.9,127.4 316.8,127.6 316.7,127.9 316.6,128.1 316.5,128.4 316.4,128.7 316.3,128.9 316.2,129.2 316.1,129.5 316.1,129.7 316,130 315.9,130.3 315.8,130.5 315.7,130.8 315.6,131.1 315.6,131.3 315.5,131.6 315.4,131.9 315.3,132.1 315.2,132.4 315.2,132.7 315.1,132.9 315,133.2 314.9,133.5 314.9,133.7 314.8,134 314.7,134.3 314.6,134.6 314.6,134.8 314.5,135.1 314.4,135.4 314.3,135.6 314.3,135.9 314.2,136.2 314.1,136.4 314,136.7 314,137 313.9,137.2 313.8,137.5 313.8,137.8 313.7,138 313.6,138.3 313.5,138.6 313.5,138.8 313.4,139.1 313.3,139.4 313.3,139.6 313.2,139.9 313.1,140.2 313,140.4 313,140.7 312.9,141 312.8,141.2 312.8,141.5 312.7,141.8 312.6,142 312.5,142.3 312.5,142.6 312.4,142.8 312.3,143.1 312.3,143.4 312.2,143.6 312.1,143.9 312,144.2 312,144.4 311.9,144.7 311.8,145 311.8,145.2 311.7,145.5 311.6,145.8 311.5,146 311.5,146.3 311.4,146.6 311.3,146.8 311.2,147.1 311.2,147.4 311.1,147.7 311,147.9 310.9,148.2 310.9,148.5 310.8,148.7 310.7,149 310.7,149.3 310.6,149.5 310.5,149.8 310.4,150.1 310.4,150.3 310.3,150.6 310.2,150.9 310.1,151.1 310.1,151.4 310,151.7 309.9,151.9 309.8,152.2 309.7,152.5 309.7,152.7 309.6,153 309.5,153.3 309.4,153.5 309.4,153.8 309.3,154.1 309.2,154.3 309.1,154.6 309.1,154.9 309,155.1 308.9,155.4 308.8,155.7 308.7,155.9 308.7,156.2 308.6,156.5 308.5,156.7 308.4,157 308.3,157.3 308.3,157.5 308.2,157.8 308.1,158.1 308,158.3 307.9,158.6 307.9,158.9 307.8,159.1 307.7,159.4 307.6,159.7 307.5,159.9 307.5,160.2 307.4,160.5 307.3,160.7 307.2,161 307.1,161.3 307.1,161.5 307,161.8 306.9,162.1 306.8,162.3 306.7,162.6 306.7,162.9 306.6,163.1 306.5,163.4 306.4,163.7 306.3,163.9 306.2,164.2 306.2,164.5 306.1,164.7 306,165 305.9,165.3 305.8,165.5 305.7,165.8 305.7,166.1 305.6,166.3 305.5,166.6 305.4,166.9 305.3,167.1 305.2,167.4 305.2,167.7 305.1,167.9 305,168.2 304.9,168.5 304.8,168.7 304.7,169 304.7,169.3 304.6,169.5 304.5,169.8 304.4,170.1 304.3,170.3 304.2,170.6 304.2,170.9 304.1,171.1 304,171.4 303.9,171.7 303.8,171.9 303.7,172.2 303.7,172.5 303.6,172.7 303.5,173 303.4,173.3 303.3,173.5 303.2,173.8 303.2,174.1 303.1,174.3 303,174.6 302.9,174.9 302.8,175.1 302.7,175.4 302.7,175.7 302.6,175.9 302.5,176.2 302.4,176.5 302.3,176.7 302.2,177 302.2,177.3 302.1,177.5 302,177.8 301.9,178.1 301.8,178.3 301.7,178.6 301.7,178.9 301.6,179.1 301.5,179.4 301.4,179.7 301.3,179.9 301.3,180.2 301.2,180.5 301.1,180.7 301,181 300.9,181.3 300.8,181.5 300.8,181.8 300.7,182.1 300.6,182.3 300.5,182.6 300.4,182.9 300.4,183.1 300.3,183.4 300.2,183.7 300.1,183.9 300,184.2 300,184.5 299.9,184.7 299.8,185 299.7,185.3 299.6,185.5 299.6,185.8 299.5,186.1 299.4,186.3 299.3,186.6 299.3,186.9 299.2,187.1 299.1,187.4 299,187.7 298.9,187.9 298.9,188.2 298.8,188.5 298.7,188.7 298.6,189 298.6,189.3 298.5,189.5 298.4,189.8 298.3,190.1 298.3,190.3 298.2,190.6 298.1,190.9 298,191.1 298,191.4 297.9,191.7 297.8,191.9 297.7,192.2 297.7,192.5 297.6,192.7 297.5,193 297.5,193.3 297.4,193.5 297.3,193.8 297.2,194.1 297.2,194.4 297.1,194.6 297,194.9 297,195.2 296.9,195.4 296.8,195.7 296.8,196 296.7,196.2 296.6,196.5 296.6,196.8 296.5,197 296.4,197.3 296.4,197.6 296.3,197.8 296.2,198.1 296.2,198.4 296.1,198.6 296,198.9 296,199.2 295.9,199.4 295.8,199.7 295.8,200 295.7,200.2 295.6,200.5 295.6,200.8 295.5,201 295.4,201.3 295.4,201.6 295.3,201.8 295.3,202.1 295.2,202.4 295.1,202.6 295.1,202.9 295,203.2 295,203.5 294.9,203.7 294.8,204 294.8,204.3 294.7,204.5 294.7,204.8 294.6,205.1 294.6,205.3 294.5,205.6 294.4,205.9 294.4,206.1 294.3,206.4 294.3,206.7 294.2,206.9 294.2,207.2 294.1,207.5 294.1,207.7 294,208 294,208.3 293.9,208.5 293.9,208.8 293.8,209.1 293.8,209.4 293.7,209.6 293.7,209.9 293.6,210.2 293.6,210.4 293.5,210.7 293.5,211 293.4,211.2 293.4,211.5 293.3,211.8 293.3,212 293.2,212.3 293.2,212.6 293.1,212.8 293.1,213.1 293,213.4 293,213.6 293,213.9 292.9,214.2 292.9,214.5 292.8,214.7 292.8,215 292.7,215.3 292.7,215.5 292.7,215.8 292.6,216.1 292.6,216.3 292.5,216.6 292.5,216.9 292.5,217.1 292.4,217.4 292.4,217.7 292.4,217.9 292.3,218.2 292.3,218.5 292.2,218.8 292.2,219 292.2,219.3 292.1,219.6 292.1,219.8 292.1,220.1 292,220.4 292,220.6 292,220.9 292,221.2 291.9,221.4 291.9,221.7 291.9,222 291.8,222.2 291.8,222.5 291.8,222.8 291.7,223.1 291.7,223.3 291.7,223.6 291.7,223.9 291.6,224.1 291.6,224.4 291.6,224.7 291.6,224.9 291.5,225.2 291.5,225.5 291.5,225.7 291.5,226 291.5,226.3 291.4,226.6 291.4,226.8 291.4,227.1 291.4,227.4 291.3,227.6 291.3,227.9 291.3,228.2 291.3,228.4 291.3,228.7 291.3,229 291.2,229.2 291.2,229.5 291.2,229.8 291.2,230.1 291.2,230.3 291.2,230.6 291.2,230.9 291.1,231.1 291.1,231.4 291.1,231.7 291.1,231.9 291.1,232.2 291.1,232.5 291.1,232.7 291.1,233 291.1,233.3 291,233.6 291,233.8 291,234.1 291,234.4 291,234.6 291,234.9 291,235.2 291,235.4 291,235.7 291,236 291,236.2 291,236.5 291,236.8 291,237.1 291,237.3 291,237.6 291,237.9 291,238.1 291,238.4 291,238.7 291,238.9 291,239.2 291,239.5 291,239.8 291,240 291,240.3 291,240.6 291,240.8 291,241.1 291,241.4 291,241.6 291,241.9 291,242.2 291,242.4 291,242.7 291.1,243 291.1,243.3 291.1,243.5 291.1,243.8 291.1,244.1 291.1,244.3 291.1,244.6 291.1,244.9 291.1,245.1 291.2,245.4 291.2,245.7 291.2,245.9 291.2,246.2 291.2,246.5 291.2,246.8 291.2,247 291.3,247.3 291.3,247.6 291.3,247.8 291.3,248.1 291.3,248.4 291.4,248.6 291.4,248.9 291.4,249.2 291.4,249.4 291.4,249.7 291.5,250 291.5,250.3 291.5,250.5 291.5,250.8 291.5,251.1 291.6,251.3 291.6,251.6 291.6,251.9 291.6,252.1 291.7,252.4 291.7,252.7 291.7,252.9 291.8,253.2 291.8,253.5 291.8,253.8 291.8,254 291.9,254.3 291.9,254.6 291.9,254.8 292,255.1 292,255.4 292,255.6 292.1,255.9 292.1,256.2 292.1,256.4 292.2,256.7 292.2,257 292.2,257.2 292.3,257.5 292.3,257.8 292.3,258.1 292.4,258.3 292.4,258.6 292.4,258.9 292.5,259.1 292.5,259.4 292.6,259.7 292.6,259.9 292.6,260.2 292.7,260.5 292.7,260.7 292.8,261 292.8,261.3 292.8,261.5 292.9,261.8 292.9,262.1 293,262.4 293,262.6 293.1,262.9 293.1,263.2 293.2,263.4 293.2,263.7 293.2,264 293.3,264.2 293.3,264.5 293.4,264.8 293.4,265 293.5,265.3 293.5,265.6 293.6,265.8 293.6,266.1 293.7,266.4 293.7,266.7 293.8,266.9 293.8,267.2 293.9,267.5 293.9,267.7 294,268 294,268.3 294.1,268.5 294.1,268.8 294.2,269.1 294.3,269.3 294.3,269.6 294.4,269.9 294.4,270.1 294.5,270.4 294.5,270.7 294.6,270.9 294.6,271.2 294.7,271.5 294.8,271.7 294.8,272 294.9,272.3 294.9,272.5 295,272.8 295.1,273.1 295.1,273.4 295.2,273.6 295.2,273.9 295.3,274.2 295.4,274.4 295.4,274.7 295.5,275 295.6,275.2 295.6,275.5 295.7,275.8 295.7,276 295.8,276.3 295.9,276.6 295.9,276.8 296,277.1 296.1,277.4 296.1,277.6 296.2,277.9 296.3,278.2 296.3,278.4 296.4,278.7 296.5,279 296.5,279.2 296.6,279.5 296.7,279.8 296.7,280 296.8,280.3 296.9,280.6 297,280.8 297,281.1 297.1,281.4 297.2,281.6 297.2,281.9 297.3,282.2 297.4,282.5 297.5,282.7 297.5,283 297.6,283.3 297.7,283.5 297.7,283.8 297.8,284.1 297.9,284.3 298,284.6 298,284.9 298.1,285.1 298.2,285.4 298.3,285.7 298.3,285.9 298.4,286.2 298.5,286.5 298.6,286.7 298.6,287 298.7,287.3 298.8,287.5 298.9,287.8 299,288.1 299,288.3 299.1,288.6 299.2,288.9 299.3,289.1 299.3,289.4 299.4,289.7 299.5,289.9 299.6,290.2 299.7,290.5 299.7,290.7 299.8,291 299.9,291.3 300,291.5 300.1,291.8 300.1,292.1 300.2,292.3 300.3,292.6 300.4,292.9 300.5,293.1 300.5,293.4 300.6,293.7 300.7,293.9 300.8,294.2 300.9,294.5 301,294.7 301,295 301.1,295.3 301.2,295.5 301.3,295.8 301.4,296.1 301.5,296.3 301.5,296.6 301.6,296.9 301.7,297.1 301.8,297.4 301.9,297.7 302,297.9 302,298.2 302.1,298.5 302.2,298.7 302.3,299 302.4,299.3 302.5,299.5 302.5,299.8 302.6,300.1 302.7,300.3 302.8,300.6 302.9,300.9 303,301.1 303.1,301.4 303.1,301.7 303.2,301.9 303.3,302.2 303.4,302.5 303.5,302.7 303.6,303 303.6,303.3 303.7,303.5 303.8,303.8 303.9,304.1 304,304.3 304.1,304.6 304.2,304.9 304.2,305.1 304.3,305.4 304.4,305.7 304.5,305.9 304.6,306.2 304.7,306.5 304.8,306.7 304.8,307 304.9,307.3 305,307.5 305.1,307.8 305.2,308.1 305.3,308.3 305.4,308.6 305.4,308.9 305.5,309.1 305.6,309.4 305.7,309.7 305.8,309.9 305.9,310.2 306,310.5 306,310.7 306.1,311 306.2,311.3 306.3,311.5 306.4,311.8 306.5,312.1 306.5,312.3 306.6,312.6 306.7,312.9 306.8,313.1 306.9,313.4 307,313.7 307,313.9 307.1,314.2 307.2,314.5 307.3,314.7 307.4,315 307.5,315.3 307.5,315.5 307.6,315.8 307.7,316 307.8,316.3 307.9,316.6 308,316.8 308,317.1 308.1,317.4 308.2,317.6 308.3,317.9 308.4,318.2 308.5,318.4 308.5,318.7 308.6,319 308.7,319.2 308.8,319.5 308.9,319.8 308.9,320 309,320.3 309.1,320.6 309.2,320.8 309.3,321.1 309.3,321.4 309.4,321.7 309.5,321.9 309.6,322.2 309.7,322.5 309.7,322.7 309.8,323 309.9,323.3 310,323.5 310.1,323.8 310.1,324.1 310.2,324.3 310.3,324.6 310.4,324.9 310.5,325.1 310.5,325.4 310.6,325.7 310.7,325.9 310.8,326.2 310.8,326.5 310.9,326.7 311,327 311.1,327.3 311.1,327.5 311.2,327.8 311.3,328.1 311.4,328.3 311.5,328.6 311.5,328.9 311.6,329.1 311.7,329.4 311.8,329.7 311.8,329.9 311.9,330.2 312,330.5 312.1,330.7 312.1,331 312.2,331.3 312.3,331.5 312.3,331.8 312.4,332.1 312.5,332.3 312.6,332.6 312.6,332.9 312.7,333.1 312.8,333.4 312.9,333.7 312.9,333.9 313,334.2 313.1,334.5 313.2,334.7 313.2,335 313.3,335.3 313.4,335.5 313.5,335.8 313.5,336.1 313.6,336.3 313.7,336.6 313.7,336.9 313.8,337.1 313.9,337.4 314,337.7 314,337.9 314.1,338.2 314.2,338.5 314.3,338.7 314.3,339 314.4,339.3 314.5,339.5 314.5,339.8 314.6,340.1 314.7,340.3 314.8,340.6 314.8,340.9 314.9,341.1 315,341.4 315.1,341.7 315.1,341.9 315.2,342.2 315.3,342.5 315.4,342.7 315.5,343 315.5,343.3 315.6,343.5 315.7,343.8 315.8,344.1 315.8,344.3 315.9,344.6 316,344.9 316.1,345.2 316.2,345.4 316.2,345.7 316.3,346 316.4,346.2 316.5,346.5 316.6,346.8 316.7,347 316.7,347.3 316.8,347.5 316.9,347.8 317,348.1 317.1,348.3 317.2,348.6 317.3,348.9 317.4,349.1 317.5,349.4 317.5,349.7 317.6,349.9 317.7,350.2 317.8,350.5 317.9,350.7 318,351 318.1,351.3 318.2,351.5 318.3,351.8 318.4,352.1 318.6,352.3 318.7,352.6 318.8,352.9 318.9,353.1 319,353.4 319.1,353.7 319.2,353.9 319.4,354.2 319.5,354.4 319.6,354.7 319.7,355 319.8,355.2 320,355.5 320.1,355.8 320.2,356 320.4,356.3 320.5,356.5 320.7,356.8 320.8,357.1 321,357.3 321.1,357.6 321.3,357.9 321.4,358.1 321.6,358.4 321.7,358.6 321.9,358.9 322.1,359.1 322.2,359.4 322.4,359.7 322.6,359.9 322.8,360.2 322.9,360.4 323.1,360.7 323.3,360.9 323.5,361.2 323.7,361.4 323.9,361.7 324.1,362 324.3,362.2 324.5,362.5 324.8,362.7 325,363 325.2,363.2 325.4,363.5 325.7,363.7 325.9,363.9 326.2,364.2 326.4,364.4 326.7,364.7 326.9,364.9 327.2,365.2 327.5,365.4 327.7,365.6 328,365.9 328.3,366.1 328.6,366.3 328.9,366.6 329.2,366.8 329.5,367 329.8,367.3 330.1,367.5 330.4,367.7 330.8,368 331.1,368.2 331.4,368.4 331.8,368.6 332.1,368.8 332.5,369 332.8,369.3 333.2,369.5 333.5,369.7 333.9,369.9 334.3,370.1 334.6,370.3 335,370.5 335.4,370.7 335.8,370.9 336.2,371.1 336.6,371.3 337,371.5 337.3,371.7 337.7,371.9 338.1,372.1 338.5,372.3 338.9,372.5 339.4,372.7 339.8,372.9 " />
</g>

<g fill="none" stroke="#000000" stroke-opacity="1" stroke-width="1" stroke-linecap="square" stroke-linejoin="bevel" transform="matrix(1.00313,0,0,1.00313,0,0)"
font-family="Ubuntu" font-size="11" font-weight="400" font-style="normal" 
>
</g>

<g fill="none" stroke="#000000" stroke-opacity="1" stroke-width="1" stroke-linecap="square" stroke-linejoin="bevel" transform="matrix(1.00313,0,0,1.00313,0,0)"
font-family="Ubuntu" font-size="11" font-weight="400" font-style="normal" 
>
</g>

<g fill="none" stroke="#000000" stroke-opacity="1" stroke-width="1" stroke-linecap="round" stroke-linejoin="round" transform="matrix(1.00313,0,0,1.00313,0,0)"
font-family="Ubuntu" font-size="11" font-weight="400" font-style="normal" 
>
<polyline fill="none" vector-effect="none" points="60.5,45.5 60.5,432.5 618.5,432.5 618.5,45.5 60.5,45.5 " />
</g>

<g fill="none" stroke="#000000" stroke-opacity="1" stroke-width="1" stroke-linecap="square" stroke-linejoin="bevel" transform="matrix(1.00313,0,0,1.00313,0,0)"
font-family="Ubuntu" font-size="11" font-weight="400" font-style="normal" 
>
</g>

<g fill="none" stroke="#000000" stroke-opacity="1" stroke-width="1" stroke-linecap="square" stroke-linejoin="bevel" transform="matrix(1,0,0,1,0,0)"
font-family="Ubuntu" font-size="11" font-weight="400" font-style="normal" 
>
</g>
</g>
</svg>
