<?xml version="1.0" encoding="UTF-8" standalone="no"?>
<svg width="226.483mm" height="170.039mm"
 viewBox="0 0 642 482"
 xmlns="http://www.w3.org/2000/svg" xmlns:xlink="http://www.w3.org/1999/xlink"  version="1.2" baseProfile="tiny">
<title>Qt SVG Document</title>
<desc>Generated with Qt</desc>
<defs>
</defs>
<g fill="none" stroke="black" stroke-width="1" fill-rule="evenodd" stroke-linecap="square" stroke-linejoin="bevel" >

<g fill="none" stroke="#000000" stroke-opacity="1" stroke-width="1" stroke-linecap="square" stroke-linejoin="bevel" transform="matrix(1,0,0,1,0,0)"
font-family="Ubuntu" font-size="11" font-weight="400" font-style="normal" 
>
</g>

<g fill="none" stroke="#000000" stroke-opacity="1" stroke-width="1" stroke-linecap="square" stroke-linejoin="bevel" transform="matrix(1.00313,0,0,1.00313,0,0)"
font-family="Ubuntu" font-size="11" font-weight="400" font-style="normal" 
>
</g>

<g fill="none" stroke="#000000" stroke-opacity="1" stroke-width="1" stroke-linecap="round" stroke-linejoin="round" transform="matrix(1.00313,0,0,1.00313,0,0)"
font-family="Ubuntu" font-size="11" font-weight="400" font-style="normal" 
>
<polyline fill="none" vector-effect="none" points="60.5,432.5 66.5,432.5 " />
<polyline fill="none" vector-effect="none" points="618.5,432.5 612.5,432.5 " />
</g>

<g fill="none" stroke="#000000" stroke-opacity="1" stroke-width="1" stroke-linecap="square" stroke-linejoin="bevel" transform="matrix(1.00313,0,0,1.00313,0,0)"
font-family="Ubuntu" font-size="11" font-weight="400" font-style="normal" 
>
</g>

<g fill="none" stroke="#000000" stroke-opacity="1" stroke-width="1" stroke-linecap="square" stroke-linejoin="bevel" transform="matrix(1.00313,0,0,1.00313,31.0969,437.864)"
font-family="Ubuntu" font-size="11" font-weight="400" font-style="normal" 
>
</g>

<g fill="none" stroke="#000000" stroke-opacity="1" stroke-width="1" stroke-linecap="square" stroke-linejoin="bevel" transform="matrix(1.00313,0,0,1.00313,31.0969,437.864)"
font-family="Ubuntu" font-size="11" font-weight="400" font-style="normal" 
>
</g>

<g fill="none" stroke="#000000" stroke-opacity="1" stroke-width="1" stroke-linecap="square" stroke-linejoin="bevel" transform="matrix(1.00313,0,0,1.00313,31.0969,437.864)"
font-family="Ubuntu" font-size="11" font-weight="400" font-style="normal" 
>
</g>

<g fill="none" stroke="#000000" stroke-opacity="1" stroke-width="1" stroke-linecap="square" stroke-linejoin="bevel" transform="matrix(1.00313,0,0,1.00313,31.0969,437.864)"
font-family="Ubuntu" font-size="11" font-weight="400" font-style="normal" 
>
</g>

<g fill="none" stroke="#000000" stroke-opacity="1" stroke-width="1" stroke-linecap="square" stroke-linejoin="bevel" transform="matrix(1.00313,0,0,1.00313,31.0969,437.864)"
font-family="Ubuntu" font-size="11" font-weight="400" font-style="normal" 
>
</g>

<g fill="none" stroke="#000000" stroke-opacity="1" stroke-width="1" stroke-linecap="square" stroke-linejoin="bevel" transform="matrix(1.00313,0,0,1.00313,31.0969,437.864)"
font-family="Sans" font-size="9" font-weight="400" font-style="normal" 
>
<text fill="#000000" fill-opacity="1" stroke="none" xml:space="preserve" x="0" y="0" font-family="Sans" font-size="9" font-weight="400" font-style="normal" 
 >-1.5</text>
</g>

<g fill="none" stroke="#000000" stroke-opacity="1" stroke-width="1" stroke-linecap="square" stroke-linejoin="bevel" transform="matrix(1.00313,0,0,1.00313,31.0969,437.864)"
font-family="Ubuntu" font-size="11" font-weight="400" font-style="normal" 
>
</g>

<g fill="none" stroke="#000000" stroke-opacity="1" stroke-width="1" stroke-linecap="square" stroke-linejoin="bevel" transform="matrix(1.00313,0,0,1.00313,0,0)"
font-family="Ubuntu" font-size="11" font-weight="400" font-style="normal" 
>
</g>

<g fill="none" stroke="#000000" stroke-opacity="1" stroke-width="1" stroke-linecap="round" stroke-linejoin="round" transform="matrix(1.00313,0,0,1.00313,0,0)"
font-family="Ubuntu" font-size="11" font-weight="400" font-style="normal" 
>
<polyline fill="none" vector-effect="none" points="60.5,367.5 66.5,367.5 " />
<polyline fill="none" vector-effect="none" points="618.5,367.5 612.5,367.5 " />
</g>

<g fill="none" stroke="#000000" stroke-opacity="1" stroke-width="1" stroke-linecap="square" stroke-linejoin="bevel" transform="matrix(1.00313,0,0,1.00313,0,0)"
font-family="Ubuntu" font-size="11" font-weight="400" font-style="normal" 
>
</g>

<g fill="none" stroke="#000000" stroke-opacity="1" stroke-width="1" stroke-linecap="square" stroke-linejoin="bevel" transform="matrix(1.00313,0,0,1.00313,43.1344,373.664)"
font-family="Ubuntu" font-size="11" font-weight="400" font-style="normal" 
>
</g>

<g fill="none" stroke="#000000" stroke-opacity="1" stroke-width="1" stroke-linecap="square" stroke-linejoin="bevel" transform="matrix(1.00313,0,0,1.00313,43.1344,373.664)"
font-family="Ubuntu" font-size="11" font-weight="400" font-style="normal" 
>
</g>

<g fill="none" stroke="#000000" stroke-opacity="1" stroke-width="1" stroke-linecap="square" stroke-linejoin="bevel" transform="matrix(1.00313,0,0,1.00313,43.1344,373.664)"
font-family="Ubuntu" font-size="11" font-weight="400" font-style="normal" 
>
</g>

<g fill="none" stroke="#000000" stroke-opacity="1" stroke-width="1" stroke-linecap="square" stroke-linejoin="bevel" transform="matrix(1.00313,0,0,1.00313,43.1344,373.664)"
font-family="Ubuntu" font-size="11" font-weight="400" font-style="normal" 
>
</g>

<g fill="none" stroke="#000000" stroke-opacity="1" stroke-width="1" stroke-linecap="square" stroke-linejoin="bevel" transform="matrix(1.00313,0,0,1.00313,43.1344,373.664)"
font-family="Ubuntu" font-size="11" font-weight="400" font-style="normal" 
>
</g>

<g fill="none" stroke="#000000" stroke-opacity="1" stroke-width="1" stroke-linecap="square" stroke-linejoin="bevel" transform="matrix(1.00313,0,0,1.00313,43.1344,373.664)"
font-family="Sans" font-size="9" font-weight="400" font-style="normal" 
>
<text fill="#000000" fill-opacity="1" stroke="none" xml:space="preserve" x="0" y="0" font-family="Sans" font-size="9" font-weight="400" font-style="normal" 
 >-1</text>
</g>

<g fill="none" stroke="#000000" stroke-opacity="1" stroke-width="1" stroke-linecap="square" stroke-linejoin="bevel" transform="matrix(1.00313,0,0,1.00313,43.1344,373.664)"
font-family="Ubuntu" font-size="11" font-weight="400" font-style="normal" 
>
</g>

<g fill="none" stroke="#000000" stroke-opacity="1" stroke-width="1" stroke-linecap="square" stroke-linejoin="bevel" transform="matrix(1.00313,0,0,1.00313,0,0)"
font-family="Ubuntu" font-size="11" font-weight="400" font-style="normal" 
>
</g>

<g fill="none" stroke="#000000" stroke-opacity="1" stroke-width="1" stroke-linecap="round" stroke-linejoin="round" transform="matrix(1.00313,0,0,1.00313,0,0)"
font-family="Ubuntu" font-size="11" font-weight="400" font-style="normal" 
>
<polyline fill="none" vector-effect="none" points="60.5,303.5 66.5,303.5 " />
<polyline fill="none" vector-effect="none" points="618.5,303.5 612.5,303.5 " />
</g>

<g fill="none" stroke="#000000" stroke-opacity="1" stroke-width="1" stroke-linecap="square" stroke-linejoin="bevel" transform="matrix(1.00313,0,0,1.00313,0,0)"
font-family="Ubuntu" font-size="11" font-weight="400" font-style="normal" 
>
</g>

<g fill="none" stroke="#000000" stroke-opacity="1" stroke-width="1" stroke-linecap="square" stroke-linejoin="bevel" transform="matrix(1.00313,0,0,1.00313,31.0969,308.461)"
font-family="Ubuntu" font-size="11" font-weight="400" font-style="normal" 
>
</g>

<g fill="none" stroke="#000000" stroke-opacity="1" stroke-width="1" stroke-linecap="square" stroke-linejoin="bevel" transform="matrix(1.00313,0,0,1.00313,31.0969,308.461)"
font-family="Ubuntu" font-size="11" font-weight="400" font-style="normal" 
>
</g>

<g fill="none" stroke="#000000" stroke-opacity="1" stroke-width="1" stroke-linecap="square" stroke-linejoin="bevel" transform="matrix(1.00313,0,0,1.00313,31.0969,308.461)"
font-family="Ubuntu" font-size="11" font-weight="400" font-style="normal" 
>
</g>

<g fill="none" stroke="#000000" stroke-opacity="1" stroke-width="1" stroke-linecap="square" stroke-linejoin="bevel" transform="matrix(1.00313,0,0,1.00313,31.0969,308.461)"
font-family="Ubuntu" font-size="11" font-weight="400" font-style="normal" 
>
</g>

<g fill="none" stroke="#000000" stroke-opacity="1" stroke-width="1" stroke-linecap="square" stroke-linejoin="bevel" transform="matrix(1.00313,0,0,1.00313,31.0969,308.461)"
font-family="Ubuntu" font-size="11" font-weight="400" font-style="normal" 
>
</g>

<g fill="none" stroke="#000000" stroke-opacity="1" stroke-width="1" stroke-linecap="square" stroke-linejoin="bevel" transform="matrix(1.00313,0,0,1.00313,31.0969,308.461)"
font-family="Sans" font-size="9" font-weight="400" font-style="normal" 
>
<text fill="#000000" fill-opacity="1" stroke="none" xml:space="preserve" x="0" y="0" font-family="Sans" font-size="9" font-weight="400" font-style="normal" 
 >-0.5</text>
</g>

<g fill="none" stroke="#000000" stroke-opacity="1" stroke-width="1" stroke-linecap="square" stroke-linejoin="bevel" transform="matrix(1.00313,0,0,1.00313,31.0969,308.461)"
font-family="Ubuntu" font-size="11" font-weight="400" font-style="normal" 
>
</g>

<g fill="none" stroke="#000000" stroke-opacity="1" stroke-width="1" stroke-linecap="square" stroke-linejoin="bevel" transform="matrix(1.00313,0,0,1.00313,0,0)"
font-family="Ubuntu" font-size="11" font-weight="400" font-style="normal" 
>
</g>

<g fill="none" stroke="#000000" stroke-opacity="1" stroke-width="1" stroke-linecap="round" stroke-linejoin="round" transform="matrix(1.00313,0,0,1.00313,0,0)"
font-family="Ubuntu" font-size="11" font-weight="400" font-style="normal" 
>
<polyline fill="none" vector-effect="none" points="60.5,238.5 66.5,238.5 " />
<polyline fill="none" vector-effect="none" points="618.5,238.5 612.5,238.5 " />
</g>

<g fill="none" stroke="#000000" stroke-opacity="1" stroke-width="1" stroke-linecap="square" stroke-linejoin="bevel" transform="matrix(1.00313,0,0,1.00313,0,0)"
font-family="Ubuntu" font-size="11" font-weight="400" font-style="normal" 
>
</g>

<g fill="none" stroke="#000000" stroke-opacity="1" stroke-width="1" stroke-linecap="square" stroke-linejoin="bevel" transform="matrix(1.00313,0,0,1.00313,43.1344,244.261)"
font-family="Ubuntu" font-size="11" font-weight="400" font-style="normal" 
>
</g>

<g fill="none" stroke="#000000" stroke-opacity="1" stroke-width="1" stroke-linecap="square" stroke-linejoin="bevel" transform="matrix(1.00313,0,0,1.00313,43.1344,244.261)"
font-family="Ubuntu" font-size="11" font-weight="400" font-style="normal" 
>
</g>

<g fill="none" stroke="#000000" stroke-opacity="1" stroke-width="1" stroke-linecap="square" stroke-linejoin="bevel" transform="matrix(1.00313,0,0,1.00313,43.1344,244.261)"
font-family="Ubuntu" font-size="11" font-weight="400" font-style="normal" 
>
</g>

<g fill="none" stroke="#000000" stroke-opacity="1" stroke-width="1" stroke-linecap="square" stroke-linejoin="bevel" transform="matrix(1.00313,0,0,1.00313,43.1344,244.261)"
font-family="Ubuntu" font-size="11" font-weight="400" font-style="normal" 
>
</g>

<g fill="none" stroke="#000000" stroke-opacity="1" stroke-width="1" stroke-linecap="square" stroke-linejoin="bevel" transform="matrix(1.00313,0,0,1.00313,43.1344,244.261)"
font-family="Ubuntu" font-size="11" font-weight="400" font-style="normal" 
>
</g>

<g fill="none" stroke="#000000" stroke-opacity="1" stroke-width="1" stroke-linecap="square" stroke-linejoin="bevel" transform="matrix(1.00313,0,0,1.00313,43.1344,244.261)"
font-family="Sans" font-size="9" font-weight="400" font-style="normal" 
>
<text fill="#000000" fill-opacity="1" stroke="none" xml:space="preserve" x="0" y="0" font-family="Sans" font-size="9" font-weight="400" font-style="normal" 
 > 0</text>
</g>

<g fill="none" stroke="#000000" stroke-opacity="1" stroke-width="1" stroke-linecap="square" stroke-linejoin="bevel" transform="matrix(1.00313,0,0,1.00313,43.1344,244.261)"
font-family="Ubuntu" font-size="11" font-weight="400" font-style="normal" 
>
</g>

<g fill="none" stroke="#000000" stroke-opacity="1" stroke-width="1" stroke-linecap="square" stroke-linejoin="bevel" transform="matrix(1.00313,0,0,1.00313,0,0)"
font-family="Ubuntu" font-size="11" font-weight="400" font-style="normal" 
>
</g>

<g fill="none" stroke="#000000" stroke-opacity="1" stroke-width="1" stroke-linecap="round" stroke-linejoin="round" transform="matrix(1.00313,0,0,1.00313,0,0)"
font-family="Ubuntu" font-size="11" font-weight="400" font-style="normal" 
>
<polyline fill="none" vector-effect="none" points="60.5,174.5 66.5,174.5 " />
<polyline fill="none" vector-effect="none" points="618.5,174.5 612.5,174.5 " />
</g>

<g fill="none" stroke="#000000" stroke-opacity="1" stroke-width="1" stroke-linecap="square" stroke-linejoin="bevel" transform="matrix(1.00313,0,0,1.00313,0,0)"
font-family="Ubuntu" font-size="11" font-weight="400" font-style="normal" 
>
</g>

<g fill="none" stroke="#000000" stroke-opacity="1" stroke-width="1" stroke-linecap="square" stroke-linejoin="bevel" transform="matrix(1.00313,0,0,1.00313,31.0969,179.058)"
font-family="Ubuntu" font-size="11" font-weight="400" font-style="normal" 
>
</g>

<g fill="none" stroke="#000000" stroke-opacity="1" stroke-width="1" stroke-linecap="square" stroke-linejoin="bevel" transform="matrix(1.00313,0,0,1.00313,31.0969,179.058)"
font-family="Ubuntu" font-size="11" font-weight="400" font-style="normal" 
>
</g>

<g fill="none" stroke="#000000" stroke-opacity="1" stroke-width="1" stroke-linecap="square" stroke-linejoin="bevel" transform="matrix(1.00313,0,0,1.00313,31.0969,179.058)"
font-family="Ubuntu" font-size="11" font-weight="400" font-style="normal" 
>
</g>

<g fill="none" stroke="#000000" stroke-opacity="1" stroke-width="1" stroke-linecap="square" stroke-linejoin="bevel" transform="matrix(1.00313,0,0,1.00313,31.0969,179.058)"
font-family="Ubuntu" font-size="11" font-weight="400" font-style="normal" 
>
</g>

<g fill="none" stroke="#000000" stroke-opacity="1" stroke-width="1" stroke-linecap="square" stroke-linejoin="bevel" transform="matrix(1.00313,0,0,1.00313,31.0969,179.058)"
font-family="Ubuntu" font-size="11" font-weight="400" font-style="normal" 
>
</g>

<g fill="none" stroke="#000000" stroke-opacity="1" stroke-width="1" stroke-linecap="square" stroke-linejoin="bevel" transform="matrix(1.00313,0,0,1.00313,31.0969,179.058)"
font-family="Sans" font-size="9" font-weight="400" font-style="normal" 
>
<text fill="#000000" fill-opacity="1" stroke="none" xml:space="preserve" x="0" y="0" font-family="Sans" font-size="9" font-weight="400" font-style="normal" 
 > 0.5</text>
</g>

<g fill="none" stroke="#000000" stroke-opacity="1" stroke-width="1" stroke-linecap="square" stroke-linejoin="bevel" transform="matrix(1.00313,0,0,1.00313,31.0969,179.058)"
font-family="Ubuntu" font-size="11" font-weight="400" font-style="normal" 
>
</g>

<g fill="none" stroke="#000000" stroke-opacity="1" stroke-width="1" stroke-linecap="square" stroke-linejoin="bevel" transform="matrix(1.00313,0,0,1.00313,0,0)"
font-family="Ubuntu" font-size="11" font-weight="400" font-style="normal" 
>
</g>

<g fill="none" stroke="#000000" stroke-opacity="1" stroke-width="1" stroke-linecap="round" stroke-linejoin="round" transform="matrix(1.00313,0,0,1.00313,0,0)"
font-family="Ubuntu" font-size="11" font-weight="400" font-style="normal" 
>
<polyline fill="none" vector-effect="none" points="60.5,109.5 66.5,109.5 " />
<polyline fill="none" vector-effect="none" points="618.5,109.5 612.5,109.5 " />
</g>

<g fill="none" stroke="#000000" stroke-opacity="1" stroke-width="1" stroke-linecap="square" stroke-linejoin="bevel" transform="matrix(1.00313,0,0,1.00313,0,0)"
font-family="Ubuntu" font-size="11" font-weight="400" font-style="normal" 
>
</g>

<g fill="none" stroke="#000000" stroke-opacity="1" stroke-width="1" stroke-linecap="square" stroke-linejoin="bevel" transform="matrix(1.00313,0,0,1.00313,43.1344,114.858)"
font-family="Ubuntu" font-size="11" font-weight="400" font-style="normal" 
>
</g>

<g fill="none" stroke="#000000" stroke-opacity="1" stroke-width="1" stroke-linecap="square" stroke-linejoin="bevel" transform="matrix(1.00313,0,0,1.00313,43.1344,114.858)"
font-family="Ubuntu" font-size="11" font-weight="400" font-style="normal" 
>
</g>

<g fill="none" stroke="#000000" stroke-opacity="1" stroke-width="1" stroke-linecap="square" stroke-linejoin="bevel" transform="matrix(1.00313,0,0,1.00313,43.1344,114.858)"
font-family="Ubuntu" font-size="11" font-weight="400" font-style="normal" 
>
</g>

<g fill="none" stroke="#000000" stroke-opacity="1" stroke-width="1" stroke-linecap="square" stroke-linejoin="bevel" transform="matrix(1.00313,0,0,1.00313,43.1344,114.858)"
font-family="Ubuntu" font-size="11" font-weight="400" font-style="normal" 
>
</g>

<g fill="none" stroke="#000000" stroke-opacity="1" stroke-width="1" stroke-linecap="square" stroke-linejoin="bevel" transform="matrix(1.00313,0,0,1.00313,43.1344,114.858)"
font-family="Ubuntu" font-size="11" font-weight="400" font-style="normal" 
>
</g>

<g fill="none" stroke="#000000" stroke-opacity="1" stroke-width="1" stroke-linecap="square" stroke-linejoin="bevel" transform="matrix(1.00313,0,0,1.00313,43.1344,114.858)"
font-family="Sans" font-size="9" font-weight="400" font-style="normal" 
>
<text fill="#000000" fill-opacity="1" stroke="none" xml:space="preserve" x="0" y="0" font-family="Sans" font-size="9" font-weight="400" font-style="normal" 
 > 1</text>
</g>

<g fill="none" stroke="#000000" stroke-opacity="1" stroke-width="1" stroke-linecap="square" stroke-linejoin="bevel" transform="matrix(1.00313,0,0,1.00313,43.1344,114.858)"
font-family="Ubuntu" font-size="11" font-weight="400" font-style="normal" 
>
</g>

<g fill="none" stroke="#000000" stroke-opacity="1" stroke-width="1" stroke-linecap="square" stroke-linejoin="bevel" transform="matrix(1.00313,0,0,1.00313,0,0)"
font-family="Ubuntu" font-size="11" font-weight="400" font-style="normal" 
>
</g>

<g fill="none" stroke="#000000" stroke-opacity="1" stroke-width="1" stroke-linecap="round" stroke-linejoin="round" transform="matrix(1.00313,0,0,1.00313,0,0)"
font-family="Ubuntu" font-size="11" font-weight="400" font-style="normal" 
>
<polyline fill="none" vector-effect="none" points="60.5,45.5 66.5,45.5 " />
<polyline fill="none" vector-effect="none" points="618.5,45.5 612.5,45.5 " />
</g>

<g fill="none" stroke="#000000" stroke-opacity="1" stroke-width="1" stroke-linecap="square" stroke-linejoin="bevel" transform="matrix(1.00313,0,0,1.00313,0,0)"
font-family="Ubuntu" font-size="11" font-weight="400" font-style="normal" 
>
</g>

<g fill="none" stroke="#000000" stroke-opacity="1" stroke-width="1" stroke-linecap="square" stroke-linejoin="bevel" transform="matrix(1.00313,0,0,1.00313,31.0969,49.6547)"
font-family="Ubuntu" font-size="11" font-weight="400" font-style="normal" 
>
</g>

<g fill="none" stroke="#000000" stroke-opacity="1" stroke-width="1" stroke-linecap="square" stroke-linejoin="bevel" transform="matrix(1.00313,0,0,1.00313,31.0969,49.6547)"
font-family="Ubuntu" font-size="11" font-weight="400" font-style="normal" 
>
</g>

<g fill="none" stroke="#000000" stroke-opacity="1" stroke-width="1" stroke-linecap="square" stroke-linejoin="bevel" transform="matrix(1.00313,0,0,1.00313,31.0969,49.6547)"
font-family="Ubuntu" font-size="11" font-weight="400" font-style="normal" 
>
</g>

<g fill="none" stroke="#000000" stroke-opacity="1" stroke-width="1" stroke-linecap="square" stroke-linejoin="bevel" transform="matrix(1.00313,0,0,1.00313,31.0969,49.6547)"
font-family="Ubuntu" font-size="11" font-weight="400" font-style="normal" 
>
</g>

<g fill="none" stroke="#000000" stroke-opacity="1" stroke-width="1" stroke-linecap="square" stroke-linejoin="bevel" transform="matrix(1.00313,0,0,1.00313,31.0969,49.6547)"
font-family="Ubuntu" font-size="11" font-weight="400" font-style="normal" 
>
</g>

<g fill="none" stroke="#000000" stroke-opacity="1" stroke-width="1" stroke-linecap="square" stroke-linejoin="bevel" transform="matrix(1.00313,0,0,1.00313,31.0969,49.6547)"
font-family="Sans" font-size="9" font-weight="400" font-style="normal" 
>
<text fill="#000000" fill-opacity="1" stroke="none" xml:space="preserve" x="0" y="0" font-family="Sans" font-size="9" font-weight="400" font-style="normal" 
 > 1.5</text>
</g>

<g fill="none" stroke="#000000" stroke-opacity="1" stroke-width="1" stroke-linecap="square" stroke-linejoin="bevel" transform="matrix(1.00313,0,0,1.00313,31.0969,49.6547)"
font-family="Ubuntu" font-size="11" font-weight="400" font-style="normal" 
>
</g>

<g fill="none" stroke="#000000" stroke-opacity="1" stroke-width="1" stroke-linecap="square" stroke-linejoin="bevel" transform="matrix(1.00313,0,0,1.00313,0,0)"
font-family="Ubuntu" font-size="11" font-weight="400" font-style="normal" 
>
</g>

<g fill="none" stroke="#000000" stroke-opacity="1" stroke-width="1" stroke-linecap="round" stroke-linejoin="round" transform="matrix(1.00313,0,0,1.00313,0,0)"
font-family="Ubuntu" font-size="11" font-weight="400" font-style="normal" 
>
<polyline fill="none" vector-effect="none" points="60.5,432.5 60.5,426.5 " />
<polyline fill="none" vector-effect="none" points="60.5,45.5 60.5,51.5 " />
</g>

<g fill="none" stroke="#000000" stroke-opacity="1" stroke-width="1" stroke-linecap="square" stroke-linejoin="bevel" transform="matrix(1.00313,0,0,1.00313,0,0)"
font-family="Ubuntu" font-size="11" font-weight="400" font-style="normal" 
>
</g>

<g fill="none" stroke="#000000" stroke-opacity="1" stroke-width="1" stroke-linecap="square" stroke-linejoin="bevel" transform="matrix(1.00313,0,0,1.00313,55.6734,452.911)"
font-family="Ubuntu" font-size="11" font-weight="400" font-style="normal" 
>
</g>

<g fill="none" stroke="#000000" stroke-opacity="1" stroke-width="1" stroke-linecap="square" stroke-linejoin="bevel" transform="matrix(1.00313,0,0,1.00313,55.6734,452.911)"
font-family="Ubuntu" font-size="11" font-weight="400" font-style="normal" 
>
</g>

<g fill="none" stroke="#000000" stroke-opacity="1" stroke-width="1" stroke-linecap="square" stroke-linejoin="bevel" transform="matrix(1.00313,0,0,1.00313,55.6734,452.911)"
font-family="Ubuntu" font-size="11" font-weight="400" font-style="normal" 
>
</g>

<g fill="none" stroke="#000000" stroke-opacity="1" stroke-width="1" stroke-linecap="square" stroke-linejoin="bevel" transform="matrix(1.00313,0,0,1.00313,55.6734,452.911)"
font-family="Ubuntu" font-size="11" font-weight="400" font-style="normal" 
>
</g>

<g fill="none" stroke="#000000" stroke-opacity="1" stroke-width="1" stroke-linecap="square" stroke-linejoin="bevel" transform="matrix(1.00313,0,0,1.00313,55.6734,452.911)"
font-family="Ubuntu" font-size="11" font-weight="400" font-style="normal" 
>
</g>

<g fill="none" stroke="#000000" stroke-opacity="1" stroke-width="1" stroke-linecap="square" stroke-linejoin="bevel" transform="matrix(1.00313,0,0,1.00313,55.6734,452.911)"
font-family="Sans" font-size="9" font-weight="400" font-style="normal" 
>
<text fill="#000000" fill-opacity="1" stroke="none" xml:space="preserve" x="0" y="0" font-family="Sans" font-size="9" font-weight="400" font-style="normal" 
 >-1</text>
</g>

<g fill="none" stroke="#000000" stroke-opacity="1" stroke-width="1" stroke-linecap="square" stroke-linejoin="bevel" transform="matrix(1.00313,0,0,1.00313,55.6734,452.911)"
font-family="Ubuntu" font-size="11" font-weight="400" font-style="normal" 
>
</g>

<g fill="none" stroke="#000000" stroke-opacity="1" stroke-width="1" stroke-linecap="square" stroke-linejoin="bevel" transform="matrix(1.00313,0,0,1.00313,0,0)"
font-family="Ubuntu" font-size="11" font-weight="400" font-style="normal" 
>
</g>

<g fill="none" stroke="#000000" stroke-opacity="1" stroke-width="1" stroke-linecap="round" stroke-linejoin="round" transform="matrix(1.00313,0,0,1.00313,0,0)"
font-family="Ubuntu" font-size="11" font-weight="400" font-style="normal" 
>
<polyline fill="none" vector-effect="none" points="200.5,432.5 200.5,426.5 " />
<polyline fill="none" vector-effect="none" points="200.5,45.5 200.5,51.5 " />
</g>

<g fill="none" stroke="#000000" stroke-opacity="1" stroke-width="1" stroke-linecap="square" stroke-linejoin="bevel" transform="matrix(1.00313,0,0,1.00313,0,0)"
font-family="Ubuntu" font-size="11" font-weight="400" font-style="normal" 
>
</g>

<g fill="none" stroke="#000000" stroke-opacity="1" stroke-width="1" stroke-linecap="square" stroke-linejoin="bevel" transform="matrix(1.00313,0,0,1.00313,189.089,452.911)"
font-family="Ubuntu" font-size="11" font-weight="400" font-style="normal" 
>
</g>

<g fill="none" stroke="#000000" stroke-opacity="1" stroke-width="1" stroke-linecap="square" stroke-linejoin="bevel" transform="matrix(1.00313,0,0,1.00313,189.089,452.911)"
font-family="Ubuntu" font-size="11" font-weight="400" font-style="normal" 
>
</g>

<g fill="none" stroke="#000000" stroke-opacity="1" stroke-width="1" stroke-linecap="square" stroke-linejoin="bevel" transform="matrix(1.00313,0,0,1.00313,189.089,452.911)"
font-family="Ubuntu" font-size="11" font-weight="400" font-style="normal" 
>
</g>

<g fill="none" stroke="#000000" stroke-opacity="1" stroke-width="1" stroke-linecap="square" stroke-linejoin="bevel" transform="matrix(1.00313,0,0,1.00313,189.089,452.911)"
font-family="Ubuntu" font-size="11" font-weight="400" font-style="normal" 
>
</g>

<g fill="none" stroke="#000000" stroke-opacity="1" stroke-width="1" stroke-linecap="square" stroke-linejoin="bevel" transform="matrix(1.00313,0,0,1.00313,189.089,452.911)"
font-family="Ubuntu" font-size="11" font-weight="400" font-style="normal" 
>
</g>

<g fill="none" stroke="#000000" stroke-opacity="1" stroke-width="1" stroke-linecap="square" stroke-linejoin="bevel" transform="matrix(1.00313,0,0,1.00313,189.089,452.911)"
font-family="Sans" font-size="9" font-weight="400" font-style="normal" 
>
<text fill="#000000" fill-opacity="1" stroke="none" xml:space="preserve" x="0" y="0" font-family="Sans" font-size="9" font-weight="400" font-style="normal" 
 >-0.5</text>
</g>

<g fill="none" stroke="#000000" stroke-opacity="1" stroke-width="1" stroke-linecap="square" stroke-linejoin="bevel" transform="matrix(1.00313,0,0,1.00313,189.089,452.911)"
font-family="Ubuntu" font-size="11" font-weight="400" font-style="normal" 
>
</g>

<g fill="none" stroke="#000000" stroke-opacity="1" stroke-width="1" stroke-linecap="square" stroke-linejoin="bevel" transform="matrix(1.00313,0,0,1.00313,0,0)"
font-family="Ubuntu" font-size="11" font-weight="400" font-style="normal" 
>
</g>

<g fill="none" stroke="#000000" stroke-opacity="1" stroke-width="1" stroke-linecap="round" stroke-linejoin="round" transform="matrix(1.00313,0,0,1.00313,0,0)"
font-family="Ubuntu" font-size="11" font-weight="400" font-style="normal" 
>
<polyline fill="none" vector-effect="none" points="339.5,432.5 339.5,426.5 " />
<polyline fill="none" vector-effect="none" points="339.5,45.5 339.5,51.5 " />
</g>

<g fill="none" stroke="#000000" stroke-opacity="1" stroke-width="1" stroke-linecap="square" stroke-linejoin="bevel" transform="matrix(1.00313,0,0,1.00313,0,0)"
font-family="Ubuntu" font-size="11" font-weight="400" font-style="normal" 
>
</g>

<g fill="none" stroke="#000000" stroke-opacity="1" stroke-width="1" stroke-linecap="square" stroke-linejoin="bevel" transform="matrix(1.00313,0,0,1.00313,335.545,452.911)"
font-family="Ubuntu" font-size="11" font-weight="400" font-style="normal" 
>
</g>

<g fill="none" stroke="#000000" stroke-opacity="1" stroke-width="1" stroke-linecap="square" stroke-linejoin="bevel" transform="matrix(1.00313,0,0,1.00313,335.545,452.911)"
font-family="Ubuntu" font-size="11" font-weight="400" font-style="normal" 
>
</g>

<g fill="none" stroke="#000000" stroke-opacity="1" stroke-width="1" stroke-linecap="square" stroke-linejoin="bevel" transform="matrix(1.00313,0,0,1.00313,335.545,452.911)"
font-family="Ubuntu" font-size="11" font-weight="400" font-style="normal" 
>
</g>

<g fill="none" stroke="#000000" stroke-opacity="1" stroke-width="1" stroke-linecap="square" stroke-linejoin="bevel" transform="matrix(1.00313,0,0,1.00313,335.545,452.911)"
font-family="Ubuntu" font-size="11" font-weight="400" font-style="normal" 
>
</g>

<g fill="none" stroke="#000000" stroke-opacity="1" stroke-width="1" stroke-linecap="square" stroke-linejoin="bevel" transform="matrix(1.00313,0,0,1.00313,335.545,452.911)"
font-family="Ubuntu" font-size="11" font-weight="400" font-style="normal" 
>
</g>

<g fill="none" stroke="#000000" stroke-opacity="1" stroke-width="1" stroke-linecap="square" stroke-linejoin="bevel" transform="matrix(1.00313,0,0,1.00313,335.545,452.911)"
font-family="Sans" font-size="9" font-weight="400" font-style="normal" 
>
<text fill="#000000" fill-opacity="1" stroke="none" xml:space="preserve" x="0" y="0" font-family="Sans" font-size="9" font-weight="400" font-style="normal" 
 > 0</text>
</g>

<g fill="none" stroke="#000000" stroke-opacity="1" stroke-width="1" stroke-linecap="square" stroke-linejoin="bevel" transform="matrix(1.00313,0,0,1.00313,335.545,452.911)"
font-family="Ubuntu" font-size="11" font-weight="400" font-style="normal" 
>
</g>

<g fill="none" stroke="#000000" stroke-opacity="1" stroke-width="1" stroke-linecap="square" stroke-linejoin="bevel" transform="matrix(1.00313,0,0,1.00313,0,0)"
font-family="Ubuntu" font-size="11" font-weight="400" font-style="normal" 
>
</g>

<g fill="none" stroke="#000000" stroke-opacity="1" stroke-width="1" stroke-linecap="round" stroke-linejoin="round" transform="matrix(1.00313,0,0,1.00313,0,0)"
font-family="Ubuntu" font-size="11" font-weight="400" font-style="normal" 
>
<polyline fill="none" vector-effect="none" points="479.5,432.5 479.5,426.5 " />
<polyline fill="none" vector-effect="none" points="479.5,45.5 479.5,51.5 " />
</g>

<g fill="none" stroke="#000000" stroke-opacity="1" stroke-width="1" stroke-linecap="square" stroke-linejoin="bevel" transform="matrix(1.00313,0,0,1.00313,0,0)"
font-family="Ubuntu" font-size="11" font-weight="400" font-style="normal" 
>
</g>

<g fill="none" stroke="#000000" stroke-opacity="1" stroke-width="1" stroke-linecap="square" stroke-linejoin="bevel" transform="matrix(1.00313,0,0,1.00313,468.961,452.911)"
font-family="Ubuntu" font-size="11" font-weight="400" font-style="normal" 
>
</g>

<g fill="none" stroke="#000000" stroke-opacity="1" stroke-width="1" stroke-linecap="square" stroke-linejoin="bevel" transform="matrix(1.00313,0,0,1.00313,468.961,452.911)"
font-family="Ubuntu" font-size="11" font-weight="400" font-style="normal" 
>
</g>

<g fill="none" stroke="#000000" stroke-opacity="1" stroke-width="1" stroke-linecap="square" stroke-linejoin="bevel" transform="matrix(1.00313,0,0,1.00313,468.961,452.911)"
font-family="Ubuntu" font-size="11" font-weight="400" font-style="normal" 
>
</g>

<g fill="none" stroke="#000000" stroke-opacity="1" stroke-width="1" stroke-linecap="square" stroke-linejoin="bevel" transform="matrix(1.00313,0,0,1.00313,468.961,452.911)"
font-family="Ubuntu" font-size="11" font-weight="400" font-style="normal" 
>
</g>

<g fill="none" stroke="#000000" stroke-opacity="1" stroke-width="1" stroke-linecap="square" stroke-linejoin="bevel" transform="matrix(1.00313,0,0,1.00313,468.961,452.911)"
font-family="Ubuntu" font-size="11" font-weight="400" font-style="normal" 
>
</g>

<g fill="none" stroke="#000000" stroke-opacity="1" stroke-width="1" stroke-linecap="square" stroke-linejoin="bevel" transform="matrix(1.00313,0,0,1.00313,468.961,452.911)"
font-family="Sans" font-size="9" font-weight="400" font-style="normal" 
>
<text fill="#000000" fill-opacity="1" stroke="none" xml:space="preserve" x="0" y="0" font-family="Sans" font-size="9" font-weight="400" font-style="normal" 
 > 0.5</text>
</g>

<g fill="none" stroke="#000000" stroke-opacity="1" stroke-width="1" stroke-linecap="square" stroke-linejoin="bevel" transform="matrix(1.00313,0,0,1.00313,468.961,452.911)"
font-family="Ubuntu" font-size="11" font-weight="400" font-style="normal" 
>
</g>

<g fill="none" stroke="#000000" stroke-opacity="1" stroke-width="1" stroke-linecap="square" stroke-linejoin="bevel" transform="matrix(1.00313,0,0,1.00313,0,0)"
font-family="Ubuntu" font-size="11" font-weight="400" font-style="normal" 
>
</g>

<g fill="none" stroke="#000000" stroke-opacity="1" stroke-width="1" stroke-linecap="round" stroke-linejoin="round" transform="matrix(1.00313,0,0,1.00313,0,0)"
font-family="Ubuntu" font-size="11" font-weight="400" font-style="normal" 
>
<polyline fill="none" vector-effect="none" points="618.5,432.5 618.5,426.5 " />
<polyline fill="none" vector-effect="none" points="618.5,45.5 618.5,51.5 " />
</g>

<g fill="none" stroke="#000000" stroke-opacity="1" stroke-width="1" stroke-linecap="square" stroke-linejoin="bevel" transform="matrix(1.00313,0,0,1.00313,0,0)"
font-family="Ubuntu" font-size="11" font-weight="400" font-style="normal" 
>
</g>

<g fill="none" stroke="#000000" stroke-opacity="1" stroke-width="1" stroke-linecap="square" stroke-linejoin="bevel" transform="matrix(1.00313,0,0,1.00313,615.417,452.911)"
font-family="Ubuntu" font-size="11" font-weight="400" font-style="normal" 
>
</g>

<g fill="none" stroke="#000000" stroke-opacity="1" stroke-width="1" stroke-linecap="square" stroke-linejoin="bevel" transform="matrix(1.00313,0,0,1.00313,615.417,452.911)"
font-family="Ubuntu" font-size="11" font-weight="400" font-style="normal" 
>
</g>

<g fill="none" stroke="#000000" stroke-opacity="1" stroke-width="1" stroke-linecap="square" stroke-linejoin="bevel" transform="matrix(1.00313,0,0,1.00313,615.417,452.911)"
font-family="Ubuntu" font-size="11" font-weight="400" font-style="normal" 
>
</g>

<g fill="none" stroke="#000000" stroke-opacity="1" stroke-width="1" stroke-linecap="square" stroke-linejoin="bevel" transform="matrix(1.00313,0,0,1.00313,615.417,452.911)"
font-family="Ubuntu" font-size="11" font-weight="400" font-style="normal" 
>
</g>

<g fill="none" stroke="#000000" stroke-opacity="1" stroke-width="1" stroke-linecap="square" stroke-linejoin="bevel" transform="matrix(1.00313,0,0,1.00313,615.417,452.911)"
font-family="Ubuntu" font-size="11" font-weight="400" font-style="normal" 
>
</g>

<g fill="none" stroke="#000000" stroke-opacity="1" stroke-width="1" stroke-linecap="square" stroke-linejoin="bevel" transform="matrix(1.00313,0,0,1.00313,615.417,452.911)"
font-family="Sans" font-size="9" font-weight="400" font-style="normal" 
>
<text fill="#000000" fill-opacity="1" stroke="none" xml:space="preserve" x="0" y="0" font-family="Sans" font-size="9" font-weight="400" font-style="normal" 
 > 1</text>
</g>

<g fill="none" stroke="#000000" stroke-opacity="1" stroke-width="1" stroke-linecap="square" stroke-linejoin="bevel" transform="matrix(1.00313,0,0,1.00313,615.417,452.911)"
font-family="Ubuntu" font-size="11" font-weight="400" font-style="normal" 
>
</g>

<g fill="none" stroke="#000000" stroke-opacity="1" stroke-width="1" stroke-linecap="square" stroke-linejoin="bevel" transform="matrix(1.00313,0,0,1.00313,0,0)"
font-family="Ubuntu" font-size="11" font-weight="400" font-style="normal" 
>
</g>

<g fill="none" stroke="#000000" stroke-opacity="1" stroke-width="1" stroke-linecap="round" stroke-linejoin="round" transform="matrix(1.00313,0,0,1.00313,0,0)"
font-family="Ubuntu" font-size="11" font-weight="400" font-style="normal" 
>
<polyline fill="none" vector-effect="none" points="60.5,45.5 60.5,432.5 618.5,432.5 618.5,45.5 60.5,45.5 " />
</g>

<g fill="none" stroke="#000000" stroke-opacity="1" stroke-width="1" stroke-linecap="square" stroke-linejoin="bevel" transform="matrix(1.00313,0,0,1.00313,0,0)"
font-family="Ubuntu" font-size="11" font-weight="400" font-style="normal" 
>
</g>

<g fill="none" stroke="#000000" stroke-opacity="1" stroke-width="1" stroke-linecap="square" stroke-linejoin="bevel" transform="matrix(0,-1.00313,1.00313,0,15.5484,242.255)"
font-family="Ubuntu" font-size="11" font-weight="400" font-style="normal" 
>
</g>

<g fill="none" stroke="#000000" stroke-opacity="1" stroke-width="1" stroke-linecap="square" stroke-linejoin="bevel" transform="matrix(0,-1.00313,1.00313,0,15.5484,242.255)"
font-family="Ubuntu" font-size="11" font-weight="400" font-style="normal" 
>
</g>

<g fill="none" stroke="#000000" stroke-opacity="1" stroke-width="1" stroke-linecap="square" stroke-linejoin="bevel" transform="matrix(0,-1.00313,1.00313,0,15.5484,242.255)"
font-family="Ubuntu" font-size="11" font-weight="400" font-style="normal" 
>
</g>

<g fill="none" stroke="#000000" stroke-opacity="1" stroke-width="1" stroke-linecap="square" stroke-linejoin="bevel" transform="matrix(0,-1.00313,1.00313,0,15.5484,242.255)"
font-family="Ubuntu" font-size="11" font-weight="400" font-style="normal" 
>
</g>

<g fill="none" stroke="#000000" stroke-opacity="1" stroke-width="1" stroke-linecap="square" stroke-linejoin="bevel" transform="matrix(0,-1.00313,1.00313,0,15.5484,242.255)"
font-family="Ubuntu" font-size="11" font-weight="400" font-style="normal" 
>
</g>

<g fill="none" stroke="#000000" stroke-opacity="1" stroke-width="1" stroke-linecap="square" stroke-linejoin="bevel" transform="matrix(0,-1.00313,1.00313,0,15.5484,242.255)"
font-family="Sans" font-size="9" font-weight="400" font-style="normal" 
>
<text fill="#000000" fill-opacity="1" stroke="none" xml:space="preserve" x="0" y="0" font-family="Sans" font-size="9" font-weight="400" font-style="normal" 
 >t</text>
</g>

<g fill="none" stroke="#000000" stroke-opacity="1" stroke-width="1" stroke-linecap="square" stroke-linejoin="bevel" transform="matrix(0,-1.00313,1.00313,0,15.5484,242.255)"
font-family="Ubuntu" font-size="11" font-weight="400" font-style="normal" 
>
</g>

<g fill="none" stroke="#000000" stroke-opacity="1" stroke-width="1" stroke-linecap="square" stroke-linejoin="bevel" transform="matrix(1.00313,0,0,1.00313,338.053,475.983)"
font-family="Ubuntu" font-size="11" font-weight="400" font-style="normal" 
>
</g>

<g fill="none" stroke="#000000" stroke-opacity="1" stroke-width="1" stroke-linecap="square" stroke-linejoin="bevel" transform="matrix(1.00313,0,0,1.00313,338.053,475.983)"
font-family="Ubuntu" font-size="11" font-weight="400" font-style="normal" 
>
</g>

<g fill="none" stroke="#000000" stroke-opacity="1" stroke-width="1" stroke-linecap="square" stroke-linejoin="bevel" transform="matrix(1.00313,0,0,1.00313,338.053,475.983)"
font-family="Ubuntu" font-size="11" font-weight="400" font-style="normal" 
>
</g>

<g fill="none" stroke="#000000" stroke-opacity="1" stroke-width="1" stroke-linecap="square" stroke-linejoin="bevel" transform="matrix(1.00313,0,0,1.00313,338.053,475.983)"
font-family="Ubuntu" font-size="11" font-weight="400" font-style="normal" 
>
</g>

<g fill="none" stroke="#000000" stroke-opacity="1" stroke-width="1" stroke-linecap="square" stroke-linejoin="bevel" transform="matrix(1.00313,0,0,1.00313,338.053,475.983)"
font-family="Ubuntu" font-size="11" font-weight="400" font-style="normal" 
>
</g>

<g fill="none" stroke="#000000" stroke-opacity="1" stroke-width="1" stroke-linecap="square" stroke-linejoin="bevel" transform="matrix(1.00313,0,0,1.00313,338.053,475.983)"
font-family="Sans" font-size="9" font-weight="400" font-style="normal" 
>
<text fill="#000000" fill-opacity="1" stroke="none" xml:space="preserve" x="0" y="0" font-family="Sans" font-size="9" font-weight="400" font-style="normal" 
 >z</text>
</g>

<g fill="none" stroke="#000000" stroke-opacity="1" stroke-width="1" stroke-linecap="square" stroke-linejoin="bevel" transform="matrix(1.00313,0,0,1.00313,338.053,475.983)"
font-family="Ubuntu" font-size="11" font-weight="400" font-style="normal" 
>
</g>

<g fill="none" stroke="#000000" stroke-opacity="1" stroke-width="1" stroke-linecap="square" stroke-linejoin="bevel" transform="matrix(1.00313,0,0,1.00313,319.495,27.5859)"
font-family="Ubuntu" font-size="11" font-weight="400" font-style="normal" 
>
</g>

<g fill="none" stroke="#000000" stroke-opacity="1" stroke-width="1" stroke-linecap="square" stroke-linejoin="bevel" transform="matrix(1.00313,0,0,1.00313,319.495,27.5859)"
font-family="Ubuntu" font-size="11" font-weight="400" font-style="normal" 
>
</g>

<g fill="none" stroke="#000000" stroke-opacity="1" stroke-width="1" stroke-linecap="square" stroke-linejoin="bevel" transform="matrix(1.00313,0,0,1.00313,319.495,27.5859)"
font-family="Ubuntu" font-size="11" font-weight="400" font-style="normal" 
>
</g>

<g fill="none" stroke="#000000" stroke-opacity="1" stroke-width="1" stroke-linecap="square" stroke-linejoin="bevel" transform="matrix(1.00313,0,0,1.00313,319.495,27.5859)"
font-family="Ubuntu" font-size="11" font-weight="400" font-style="normal" 
>
</g>

<g fill="none" stroke="#000000" stroke-opacity="1" stroke-width="1" stroke-linecap="square" stroke-linejoin="bevel" transform="matrix(1.00313,0,0,1.00313,319.495,27.5859)"
font-family="Ubuntu" font-size="11" font-weight="400" font-style="normal" 
>
</g>

<g fill="none" stroke="#000000" stroke-opacity="1" stroke-width="1" stroke-linecap="square" stroke-linejoin="bevel" transform="matrix(1.00313,0,0,1.00313,319.495,27.5859)"
font-family="Sans" font-size="9" font-weight="400" font-style="normal" 
>
<text fill="#000000" fill-opacity="1" stroke="none" xml:space="preserve" x="0" y="0" font-family="Sans" font-size="9" font-weight="400" font-style="normal" 
 >4</text>
<text fill="#000000" fill-opacity="1" stroke="none" xml:space="preserve" x="5.71875" y="0" font-family="Sans" font-size="9" font-weight="400" font-style="normal" 
 >d</text>
<text fill="#000000" fill-opacity="1" stroke="none" xml:space="preserve" x="11.4219" y="0" font-family="Sans" font-size="9" font-weight="400" font-style="normal" 
 > </text>
<text fill="#000000" fill-opacity="1" stroke="none" xml:space="preserve" x="14.2812" y="0" font-family="Sans" font-size="9" font-weight="400" font-style="normal" 
 >loop</text>
</g>

<g fill="none" stroke="#000000" stroke-opacity="1" stroke-width="1" stroke-linecap="square" stroke-linejoin="bevel" transform="matrix(1.00313,0,0,1.00313,319.495,27.5859)"
font-family="Ubuntu" font-size="11" font-weight="400" font-style="normal" 
>
</g>

<g fill="none" stroke="#000000" stroke-opacity="1" stroke-width="1" stroke-linecap="square" stroke-linejoin="bevel" transform="matrix(1.00313,0,0,1.00313,0,0)"
font-family="Ubuntu" font-size="11" font-weight="400" font-style="normal" 
>
</g>

<g fill="none" stroke="#000000" stroke-opacity="1" stroke-width="1" stroke-linecap="square" stroke-linejoin="bevel" transform="matrix(1.00313,0,0,1.00313,0,0)"
font-family="Ubuntu" font-size="11" font-weight="400" font-style="normal" 
>
</g>

<g fill="none" stroke="#000000" stroke-opacity="1" stroke-width="1" stroke-linecap="square" stroke-linejoin="bevel" transform="matrix(1.00313,0,0,1.00313,0,0)"
font-family="Ubuntu" font-size="11" font-weight="400" font-style="normal" 
>
</g>

<g fill="none" stroke="#9400d3" stroke-opacity="1" stroke-width="1" stroke-linecap="round" stroke-linejoin="round" transform="matrix(1.00313,0,0,1.00313,0,0)"
font-family="Ubuntu" font-size="11" font-weight="400" font-style="normal" 
>
<polyline fill="none" vector-effect="none" points="340.5,409.9 340.5,409.9 341.2,409.7 341.8,409.5 342.3,409.2 342.9,409 343.5,408.8 344,408.5 344.6,408.3 345.1,408 345.6,407.8 346.1,407.5 346.5,407.2 346.9,406.9 347.3,406.6 347.7,406.3 348,406 348.3,405.6 348.6,405.3 348.9,405 349.1,404.6 349.4,404.3 349.6,404 349.8,403.6 349.9,403.3 350.1,402.9 350.2,402.6 350.3,402.2 350.4,401.9 350.5,401.5 350.6,401.2 350.7,400.8 350.8,400.5 350.8,400.1 350.9,399.7 350.9,399.4 350.9,399 350.9,398.7 351,398.3 351,398 351,397.6 351,397.2 351,396.9 351,396.5 351,396.2 351,395.8 350.9,395.5 350.9,395.1 350.9,394.7 350.9,394.4 350.9,394 350.9,393.7 350.9,393.3 350.9,393 350.9,392.6 350.8,392.3 350.8,391.9 350.8,391.5 350.8,391.2 350.8,390.8 350.8,390.5 350.8,390.1 350.8,389.8 350.8,389.4 350.8,389 350.8,388.7 350.8,388.3 350.8,388 350.8,387.6 350.8,387.3 350.8,386.9 350.8,386.5 350.8,386.2 350.8,385.8 350.8,385.5 350.8,385.1 350.8,384.8 350.8,384.4 350.8,384 350.8,383.7 350.8,383.3 350.8,383 350.8,382.6 350.8,382.3 350.8,381.9 350.9,381.5 350.9,381.2 350.9,380.8 350.9,380.5 350.9,380.1 350.9,379.8 350.9,379.4 350.9,379.1 350.9,378.7 350.9,378.3 350.9,378 351,377.6 351,377.3 351,376.9 351,376.6 351,376.2 351,375.8 351,375.5 351,375.1 351,374.8 351.1,374.4 351.1,374.1 351.1,373.7 351.1,373.3 351.1,373 351.1,372.6 351.1,372.3 351.1,371.9 351.2,371.6 351.2,371.2 351.2,370.8 351.2,370.5 351.2,370.1 351.2,369.8 351.3,369.4 351.3,369.1 351.3,368.7 351.3,368.4 351.4,368 351.4,367.6 351.4,367.3 351.4,366.9 351.5,366.6 351.5,366.2 351.5,365.9 351.5,365.5 351.6,365.1 351.6,364.8 351.7,364.4 351.7,364.1 351.7,363.7 351.8,363.4 351.8,363 351.9,362.6 352,362.3 352,361.9 352.1,361.6 352.1,361.2 352.2,360.9 352.3,360.5 352.4,360.2 352.4,359.8 352.5,359.5 352.6,359.1 352.7,358.7 352.8,358.4 352.9,358 353,357.7 353.2,357.3 353.3,357 353.4,356.6 353.5,356.3 353.7,355.9 353.8,355.6 354,355.2 354.2,354.9 354.3,354.5 354.5,354.2 354.7,353.8 354.9,353.5 355.1,353.1 355.3,352.8 355.5,352.4 355.7,352.1 355.9,351.8 356.2,351.4 356.4,351.1 356.7,350.7 356.9,350.4 357.2,350.1 357.4,349.7 357.7,349.4 358,349.1 358.3,348.7 358.6,348.4 358.9,348.1 359.2,347.7 359.5,347.4 359.8,347.1 360.1,346.8 360.5,346.4 360.8,346.1 361.1,345.8 361.5,345.5 361.8,345.2 362.2,344.8 362.5,344.5 362.9,344.2 363.3,343.9 363.6,343.6 364,343.3 364.4,343 364.8,342.6 365.2,342.3 365.5,342 365.9,341.7 366.3,341.4 366.7,341.1 367.1,340.8 367.5,340.5 367.9,340.2 368.3,339.9 368.7,339.6 369.1,339.3 369.5,339 369.9,338.7 370.3,338.4 370.7,338.1 371.2,337.8 371.6,337.5 372,337.1 372.4,336.8 372.8,336.5 373.2,336.2 373.6,335.9 374.1,335.6 374.5,335.3 374.9,335 375.3,334.7 375.7,334.4 376.2,334.1 376.6,333.8 377,333.5 377.4,333.2 377.8,332.9 378.3,332.7 378.7,332.4 379.1,332.1 379.5,331.8 379.9,331.5 380.4,331.2 380.8,330.9 381.2,330.6 381.6,330.3 382,330 382.4,329.7 382.9,329.4 383.3,329.1 383.7,328.8 384.1,328.5 384.5,328.2 384.9,327.9 385.4,327.5 385.8,327.2 386.2,326.9 386.6,326.6 387,326.3 387.4,326 387.8,325.7 388.2,325.4 388.6,325.1 389,324.8 389.5,324.5 389.9,324.2 390.3,323.9 390.7,323.6 391.1,323.3 391.5,323 391.9,322.7 392.3,322.4 392.7,322.1 393.1,321.8 393.5,321.5 393.9,321.2 394.3,320.9 394.6,320.6 395,320.3 395.4,319.9 395.8,319.6 396.2,319.3 396.6,319 397,318.7 397.4,318.4 397.8,318.1 398.1,317.8 398.5,317.5 398.9,317.2 399.3,316.9 399.7,316.5 400,316.2 400.4,315.9 400.8,315.6 401.2,315.3 401.5,315 401.9,314.7 402.3,314.4 402.7,314.1 403,313.7 403.4,313.4 403.8,313.1 404.1,312.8 404.5,312.5 404.8,312.2 405.2,311.9 405.6,311.5 405.9,311.2 406.3,310.9 406.6,310.6 407,310.3 407.3,310 407.7,309.6 408,309.3 408.4,309 408.7,308.7 409.1,308.4 409.4,308 409.8,307.7 410.1,307.4 410.5,307.1 410.8,306.8 411.1,306.4 411.5,306.1 411.8,305.8 412.1,305.5 412.5,305.2 412.8,304.8 413.1,304.5 413.5,304.2 413.8,303.9 414.1,303.5 414.4,303.2 414.8,302.9 415.1,302.6 415.4,302.2 415.7,301.9 416,301.6 416.3,301.3 416.7,300.9 417,300.6 417.3,300.3 417.6,300 417.9,299.6 418.2,299.3 418.5,299 418.8,298.7 419.1,298.3 419.4,298 419.7,297.7 420,297.3 420.3,297 420.6,296.7 420.9,296.4 421.2,296 421.5,295.7 421.7,295.4 422,295 422.3,294.7 422.6,294.4 422.9,294 423.2,293.7 423.4,293.4 423.7,293 424,292.7 424.3,292.4 424.5,292 424.8,291.7 425.1,291.4 425.3,291 425.6,290.7 425.9,290.4 426.1,290 426.4,289.7 426.6,289.4 426.9,289 427.2,288.7 427.4,288.3 427.7,288 427.9,287.7 428.2,287.3 428.4,287 428.6,286.7 428.9,286.3 429.1,286 429.4,285.6 429.6,285.3 429.8,285 430.1,284.6 430.3,284.3 430.5,283.9 430.8,283.6 431,283.3 431.2,282.9 431.5,282.6 431.7,282.2 431.9,281.9 432.1,281.6 432.3,281.2 432.6,280.9 432.8,280.5 433,280.2 433.2,279.8 433.4,279.5 433.6,279.2 433.8,278.8 434,278.5 434.2,278.1 434.4,277.8 434.6,277.4 434.8,277.1 435,276.7 435.2,276.4 435.4,276.1 435.6,275.7 435.8,275.4 436,275 436.2,274.7 436.3,274.3 436.5,274 436.7,273.6 436.9,273.3 437.1,272.9 437.2,272.6 437.4,272.2 437.6,271.9 437.8,271.6 437.9,271.2 438.1,270.9 438.3,270.5 438.4,270.2 438.6,269.8 438.7,269.5 438.9,269.1 439,268.8 439.2,268.4 439.4,268.1 439.5,267.7 439.6,267.4 439.8,267 439.9,266.7 440.1,266.3 440.2,266 440.4,265.6 440.5,265.3 440.6,264.9 440.8,264.6 440.9,264.2 441,263.9 441.2,263.5 441.3,263.2 441.4,262.8 441.5,262.4 441.7,262.1 441.8,261.7 441.9,261.4 442,261 442.1,260.7 442.2,260.3 442.3,260 442.5,259.6 442.6,259.3 442.7,258.9 442.8,258.6 442.9,258.2 443,257.9 443.1,257.5 443.2,257.2 443.3,256.8 443.4,256.4 443.4,256.1 443.5,255.7 443.6,255.4 443.7,255 443.8,254.7 443.9,254.3 443.9,254 444,253.6 444.1,253.3 444.2,252.9 444.2,252.5 444.3,252.2 444.4,251.8 444.5,251.5 444.5,251.1 444.6,250.8 444.6,250.4 444.7,250.1 444.8,249.7 444.8,249.3 444.9,249 444.9,248.6 445,248.3 445,247.9 445.1,247.6 445.1,247.2 445.2,246.9 445.2,246.5 445.2,246.1 445.3,245.8 445.3,245.4 445.3,245.1 445.4,244.7 445.4,244.4 445.4,244 445.5,243.6 445.5,243.3 445.5,242.9 445.5,242.6 445.5,242.2 445.6,241.9 445.6,241.5 445.6,241.2 445.6,240.8 445.6,240.4 445.6,240.1 445.6,239.7 445.6,239.4 445.6,239 445.6,238.7 445.6,238.3 445.6,237.9 445.6,237.6 445.6,237.2 445.6,236.9 445.6,236.5 445.6,236.2 445.6,235.8 445.5,235.4 445.5,235.1 445.5,234.7 445.5,234.4 445.5,234 445.4,233.7 445.4,233.3 445.4,233 445.3,232.6 445.3,232.2 445.3,231.9 445.2,231.5 445.2,231.2 445.2,230.8 445.1,230.5 445.1,230.1 445,229.7 445,229.4 444.9,229 444.9,228.7 444.8,228.3 444.8,228 444.7,227.6 444.7,227.3 444.6,226.9 444.5,226.5 444.5,226.2 444.4,225.8 444.3,225.5 444.3,225.1 444.2,224.8 444.1,224.4 444,224.1 444,223.7 443.9,223.3 443.8,223 443.7,222.6 443.6,222.3 443.6,221.9 443.5,221.6 443.4,221.2 443.3,220.9 443.2,220.5 443.1,220.2 443,219.8 442.9,219.5 442.8,219.1 442.7,218.7 442.6,218.4 442.5,218 442.4,217.7 442.3,217.3 442.1,217 442,216.6 441.9,216.3 441.8,215.9 441.7,215.6 441.6,215.2 441.4,214.9 441.3,214.5 441.2,214.2 441.1,213.8 440.9,213.5 440.8,213.1 440.7,212.8 440.5,212.4 440.4,212.1 440.3,211.7 440.1,211.4 440,211 439.8,210.6 439.7,210.3 439.5,209.9 439.4,209.6 439.2,209.2 439.1,208.9 438.9,208.6 438.8,208.2 438.6,207.9 438.4,207.5 438.3,207.2 438.1,206.8 438,206.5 437.8,206.1 437.6,205.8 437.4,205.4 437.3,205.1 437.1,204.7 436.9,204.4 436.7,204 436.6,203.7 436.4,203.3 436.2,203 436,202.6 435.8,202.3 435.6,201.9 435.4,201.6 435.3,201.3 435.1,200.9 434.9,200.6 434.7,200.2 434.5,199.9 434.3,199.5 434.1,199.2 433.9,198.8 433.7,198.5 433.4,198.2 433.2,197.8 433,197.5 432.8,197.1 432.6,196.8 432.4,196.4 432.2,196.1 431.9,195.8 431.7,195.4 431.5,195.1 431.3,194.7 431.1,194.4 430.8,194 430.6,193.7 430.4,193.4 430.1,193 429.9,192.7 429.7,192.3 429.4,192 429.2,191.7 428.9,191.3 428.7,191 428.4,190.7 428.2,190.3 428,190 427.7,189.6 427.5,189.3 427.2,189 426.9,188.6 426.7,188.3 426.4,188 426.2,187.6 425.9,187.3 425.6,187 425.4,186.6 425.1,186.3 424.8,185.9 424.6,185.6 424.3,185.3 424,184.9 423.8,184.6 423.5,184.3 423.2,183.9 422.9,183.6 422.6,183.3 422.4,182.9 422.1,182.6 421.8,182.3 421.5,182 421.2,181.6 420.9,181.3 420.6,181 420.3,180.6 420.1,180.3 419.8,180 419.5,179.6 419.2,179.3 418.9,179 418.6,178.7 418.2,178.3 417.9,178 417.6,177.7 417.3,177.3 417,177 416.7,176.7 416.4,176.4 416.1,176 415.8,175.7 415.4,175.4 415.1,175.1 414.8,174.7 414.5,174.4 414.2,174.1 413.8,173.8 413.5,173.4 413.2,173.1 412.9,172.8 412.5,172.5 412.2,172.2 411.9,171.8 411.5,171.5 411.2,171.2 410.8,170.9 410.5,170.5 410.2,170.2 409.8,169.9 409.5,169.6 409.1,169.3 408.8,169 408.4,168.6 408.1,168.3 407.7,168 407.4,167.7 407,167.4 406.7,167 406.3,166.7 406,166.4 405.6,166.1 405.3,165.8 404.9,165.5 404.5,165.2 404.2,164.8 403.8,164.5 403.4,164.2 403.1,163.9 402.7,163.6 402.3,163.3 402,163 401.6,162.6 401.2,162.3 400.8,162 400.5,161.7 400.1,161.4 399.7,161.1 399.3,160.8 398.9,160.5 398.6,160.2 398.2,159.8 397.8,159.5 397.4,159.2 397,158.9 396.6,158.6 396.2,158.3 395.9,158 395.5,157.7 395.1,157.4 394.7,157.1 394.3,156.8 393.9,156.5 393.5,156.2 393.1,155.8 392.7,155.5 392.3,155.2 391.9,154.9 391.5,154.6 391.1,154.3 390.7,154 390.3,153.7 389.9,153.4 389.5,153.1 389.1,152.8 388.7,152.5 388.2,152.2 387.8,151.9 387.4,151.6 387,151.3 386.6,151 386.2,150.7 385.8,150.4 385.4,150.1 384.9,149.8 384.5,149.5 384.1,149.2 383.7,148.9 383.3,148.6 382.9,148.3 382.4,148 382,147.7 381.6,147.4 381.2,147.1 380.8,146.8 380.3,146.5 379.9,146.2 379.5,145.9 379.1,145.6 378.6,145.3 378.2,145 377.8,144.7 377.4,144.4 376.9,144.1 376.5,143.8 376.1,143.5 375.7,143.2 375.3,142.9 374.8,142.6 374.4,142.3 374,142 373.6,141.7 373.1,141.4 372.7,141.1 372.3,140.8 371.9,140.5 371.5,140.2 371,139.9 370.6,139.6 370.2,139.3 369.8,139 369.4,138.7 369,138.4 368.5,138.1 368.1,137.8 367.7,137.5 367.3,137.2 366.9,136.9 366.5,136.6 366.1,136.3 365.7,136 365.3,135.7 364.9,135.4 364.5,135.1 364.1,134.8 363.7,134.5 363.4,134.2 363,133.9 362.6,133.5 362.2,133.2 361.9,132.9 361.5,132.6 361.1,132.3 360.8,132 360.4,131.7 360.1,131.3 359.7,131 359.4,130.7 359,130.4 358.7,130.1 358.4,129.7 358.1,129.4 357.8,129.1 357.5,128.8 357.2,128.4 356.9,128.1 356.6,127.8 356.3,127.4 356,127.1 355.8,126.8 355.5,126.4 355.3,126.1 355,125.8 354.8,125.4 354.5,125.1 354.3,124.8 354.1,124.4 353.9,124.1 353.7,123.7 353.5,123.4 353.3,123 353.1,122.7 353,122.3 352.8,122 352.6,121.6 352.5,121.3 352.3,121 352.2,120.6 352.1,120.3 351.9,119.9 351.8,119.5 351.7,119.2 351.6,118.8 351.5,118.5 351.4,118.1 351.3,117.8 351.2,117.4 351.1,117.1 351,116.7 351,116.4 350.9,116 350.8,115.7 350.8,115.3 350.7,114.9 350.6,114.6 350.6,114.2 350.5,113.9 350.5,113.5 350.5,113.2 350.4,112.8 350.4,112.5 350.3,112.1 350.3,111.7 350.3,111.4 350.2,111 350.2,110.7 350.2,110.3 350.1,110 350.1,109.6 350.1,109.3 350.1,108.9 350.1,108.5 350,108.2 350,107.8 350,107.5 350,107.1 350,106.8 349.9,106.4 349.9,106 349.9,105.7 349.9,105.3 349.9,105 349.9,104.6 349.8,104.3 349.8,103.9 349.8,103.5 349.8,103.2 349.8,102.8 349.8,102.5 349.8,102.1 349.8,101.8 349.7,101.4 349.7,101.1 349.7,100.7 349.7,100.3 349.7,100 349.7,99.6 349.7,99.3 349.7,98.9 349.6,98.6 349.6,98.2 349.6,97.8 349.6,97.5 349.6,97.1 349.6,96.8 349.6,96.4 349.6,96.1 349.6,95.7 349.5,95.3 349.5,95 349.5,94.6 349.5,94.3 349.5,93.9 349.5,93.6 349.5,93.2 349.5,92.9 349.5,92.5 349.5,92.1 349.5,91.8 349.5,91.4 349.4,91.1 349.4,90.7 349.4,90.4 349.4,90 349.4,89.6 349.4,89.3 349.4,88.9 349.4,88.6 349.4,88.2 349.4,87.9 349.4,87.5 349.4,87.1 349.4,86.8 349.4,86.4 349.4,86.1 349.4,85.7 349.4,85.4 349.5,85 349.5,84.7 349.5,84.3 349.5,83.9 349.5,83.6 349.5,83.2 349.5,82.9 349.5,82.5 349.5,82.2 349.5,81.8 349.5,81.4 349.5,81.1 349.5,80.7 349.5,80.4 349.5,80 349.5,79.7 349.5,79.3 349.5,78.9 349.5,78.6 349.5,78.2 349.5,77.9 349.4,77.5 349.4,77.2 349.4,76.8 349.3,76.5 349.2,76.1 349.2,75.7 349.1,75.4 349,75 348.9,74.7 348.7,74.3 348.6,74 348.4,73.6 348.2,73.3 348,72.9 347.8,72.6 347.6,72.2 347.3,71.9 347,71.6 346.7,71.2 346.4,70.9 346,70.6 345.6,70.3 345.2,70 344.8,69.7 344.3,69.4 343.8,69.1 343.3,68.8 342.7,68.6 342.2,68.3 341.6,68.1 341,67.9 340.4,67.6 339.7,67.4 339.1,67.2 338.5,67.4 337.9,67.6 337.3,67.9 336.7,68.1 336.2,68.3 335.6,68.6 335.1,68.8 334.6,69.1 334.1,69.3 333.6,69.6 333.2,69.9 332.7,70.2 332.3,70.5 332,70.8 331.6,71.1 331.3,71.5 331,71.8 330.8,72.1 330.5,72.4 330.3,72.8 330.1,73.1 329.9,73.5 329.7,73.8 329.6,74.2 329.4,74.5 329.3,74.9 329.2,75.2 329.1,75.6 329,75.9 328.9,76.3 328.9,76.6 328.8,77 328.8,77.3 328.7,77.7 328.7,78 328.7,78.4 328.7,78.8 328.7,79.1 328.7,79.5 328.7,79.8 328.7,80.2 328.7,80.5 328.7,80.9 328.7,81.2 328.7,81.6 328.7,82 328.7,82.3 328.7,82.7 328.7,83 328.7,83.4 328.7,83.7 328.8,84.1 328.8,84.5 328.8,84.8 328.8,85.2 328.8,85.5 328.8,85.9 328.8,86.2 328.8,86.6 328.8,86.9 328.8,87.3 328.8,87.7 328.8,88 328.8,88.4 328.8,88.7 328.8,89.1 328.8,89.4 328.8,89.8 328.8,90.2 328.8,90.5 328.8,90.9 328.8,91.2 328.8,91.6 328.8,91.9 328.8,92.3 328.8,92.6 328.8,93 328.8,93.4 328.8,93.7 328.8,94.1 328.8,94.4 328.8,94.8 328.8,95.1 328.8,95.5 328.8,95.9 328.8,96.2 328.7,96.6 328.7,96.9 328.7,97.3 328.7,97.6 328.7,98 328.7,98.3 328.7,98.7 328.7,99.1 328.7,99.4 328.7,99.8 328.6,100.1 328.6,100.5 328.6,100.8 328.6,101.2 328.6,101.5 328.6,101.9 328.6,102.3 328.6,102.6 328.6,103 328.5,103.3 328.5,103.7 328.5,104 328.5,104.4 328.5,104.8 328.5,105.1 328.5,105.5 328.4,105.8 328.4,106.2 328.4,106.5 328.4,106.9 328.4,107.2 328.4,107.6 328.3,108 328.3,108.3 328.3,108.7 328.3,109 328.3,109.4 328.2,109.7 328.2,110.1 328.2,110.4 328.1,110.8 328.1,111.2 328.1,111.5 328,111.9 328,112.2 328,112.6 327.9,112.9 327.9,113.3 327.8,113.7 327.8,114 327.7,114.4 327.7,114.7 327.6,115.1 327.6,115.4 327.5,115.8 327.4,116.1 327.4,116.5 327.3,116.8 327.2,117.2 327.1,117.6 327,117.9 326.9,118.3 326.8,118.6 326.7,119 326.6,119.3 326.5,119.7 326.4,120 326.2,120.4 326.1,120.7 326,121.1 325.8,121.4 325.7,121.8 325.5,122.1 325.3,122.5 325.2,122.8 325,123.2 324.8,123.5 324.6,123.9 324.4,124.2 324.2,124.6 324,124.9 323.7,125.2 323.5,125.6 323.3,125.9 323,126.3 322.8,126.6 322.5,126.9 322.2,127.3 322,127.6 321.7,127.9 321.4,128.3 321.1,128.6 320.8,128.9 320.5,129.2 320.2,129.6 319.9,129.9 319.6,130.2 319.2,130.5 318.9,130.9 318.6,131.2 318.2,131.5 317.9,131.8 317.5,132.1 317.2,132.5 316.8,132.8 316.4,133.1 316.1,133.4 315.7,133.7 315.3,134 314.9,134.3 314.6,134.7 314.2,135 313.8,135.3 313.4,135.6 313,135.9 312.6,136.2 312.2,136.5 311.8,136.8 311.4,137.1 311,137.4 310.6,137.7 310.2,138 309.8,138.3 309.4,138.6 309,138.9 308.6,139.2 308.2,139.5 307.7,139.8 307.3,140.1 306.9,140.4 306.5,140.7 306.1,141 305.7,141.3 305.2,141.6 304.8,141.9 304.4,142.2 304,142.5 303.6,142.8 303.1,143.1 302.7,143.4 302.3,143.7 301.9,144 301.5,144.3 301,144.6 300.6,144.9 300.2,145.2 299.8,145.5 299.4,145.8 298.9,146.1 298.5,146.4 298.1,146.7 297.7,147 297.3,147.3 296.8,147.6 296.4,147.9 296,148.2 295.6,148.5 295.2,148.8 294.8,149.1 294.4,149.4 293.9,149.7 293.5,150 293.1,150.3 292.7,150.6 292.3,150.9 291.9,151.2 291.5,151.5 291.1,151.8 290.7,152.1 290.2,152.4 289.8,152.7 289.4,153 289,153.3 288.6,153.6 288.2,153.9 287.8,154.2 287.4,154.5 287,154.8 286.6,155.2 286.2,155.5 285.8,155.8 285.4,156.1 285,156.4 284.7,156.7 284.3,157 283.9,157.3 283.5,157.6 283.1,157.9 282.7,158.2 282.3,158.5 281.9,158.8 281.5,159.1 281.2,159.4 280.8,159.8 280.4,160.1 280,160.4 279.6,160.7 279.3,161 278.9,161.3 278.5,161.6 278.1,161.9 277.8,162.2 277.4,162.6 277,162.9 276.6,163.2 276.3,163.5 275.9,163.8 275.5,164.1 275.2,164.4 274.8,164.7 274.5,165.1 274.1,165.4 273.7,165.7 273.4,166 273,166.3 272.7,166.6 272.3,166.9 272,167.3 271.6,167.6 271.3,167.9 270.9,168.2 270.6,168.5 270.2,168.9 269.9,169.2 269.5,169.5 269.2,169.8 268.9,170.1 268.5,170.4 268.2,170.8 267.8,171.1 267.5,171.4 267.2,171.7 266.8,172.1 266.5,172.4 266.2,172.7 265.9,173 265.5,173.3 265.2,173.7 264.9,174 264.6,174.3 264.2,174.6 263.9,175 263.6,175.3 263.3,175.6 263,175.9 262.7,176.3 262.3,176.6 262,176.9 261.7,177.2 261.4,177.6 261.1,177.9 260.8,178.2 260.5,178.5 260.2,178.9 259.9,179.2 259.6,179.5 259.3,179.9 259,180.2 258.7,180.5 258.4,180.8 258.2,181.2 257.9,181.5 257.6,181.8 257.3,182.2 257,182.5 256.7,182.8 256.4,183.2 256.2,183.5 255.9,183.8 255.6,184.2 255.3,184.5 255.1,184.8 254.8,185.2 254.5,185.5 254.3,185.8 254,186.2 253.7,186.5 253.5,186.8 253.2,187.2 252.9,187.5 252.7,187.8 252.4,188.2 252.2,188.5 251.9,188.8 251.7,189.2 251.4,189.5 251.2,189.8 250.9,190.2 250.7,190.5 250.4,190.9 250.2,191.2 250,191.5 249.7,191.9 249.5,192.2 249.3,192.6 249,192.9 248.8,193.2 248.6,193.6 248.3,193.9 248.1,194.2 247.9,194.6 247.7,194.9 247.4,195.3 247.2,195.6 247,196 246.8,196.3 246.6,196.6 246.4,197 246.1,197.3 245.9,197.7 245.7,198 245.5,198.4 245.3,198.7 245.1,199 244.9,199.4 244.7,199.7 244.5,200.1 244.3,200.4 244.1,200.8 243.9,201.1 243.7,201.4 243.6,201.8 243.4,202.1 243.2,202.5 243,202.8 242.8,203.2 242.6,203.5 242.5,203.9 242.3,204.2 242.1,204.6 241.9,204.9 241.8,205.3 241.6,205.6 241.4,205.9 241.3,206.3 241.1,206.6 240.9,207 240.8,207.3 240.6,207.7 240.5,208 240.3,208.4 240.1,208.7 240,209.1 239.8,209.4 239.7,209.8 239.6,210.1 239.4,210.5 239.3,210.8 239.1,211.2 239,211.5 238.8,211.9 238.7,212.2 238.6,212.6 238.4,212.9 238.3,213.3 238.2,213.6 238.1,214 237.9,214.3 237.8,214.7 237.7,215 237.6,215.4 237.5,215.7 237.3,216.1 237.2,216.4 237.1,216.8 237,217.2 236.9,217.5 236.8,217.9 236.7,218.2 236.6,218.6 236.5,218.9 236.4,219.3 236.3,219.6 236.2,220 236.1,220.3 236,220.7 235.9,221 235.8,221.4 235.7,221.7 235.6,222.1 235.6,222.5 235.5,222.8 235.4,223.2 235.3,223.5 235.3,223.9 235.2,224.2 235.1,224.6 235,224.9 235,225.3 234.9,225.6 234.8,226 234.8,226.4 234.7,226.7 234.7,227.1 234.6,227.4 234.5,227.8 234.5,228.1 234.4,228.5 234.4,228.8 234.3,229.2 234.3,229.5 234.2,229.9 234.2,230.3 234.2,230.6 234.1,231 234.1,231.3 234,231.7 234,232 234,232.4 234,232.7 233.9,233.1 233.9,233.5 233.9,233.8 233.9,234.2 233.8,234.5 233.8,234.9 233.8,235.2 233.8,235.6 233.8,236 233.8,236.3 233.7,236.7 233.7,237 233.7,237.4 233.7,237.7 233.7,238.1 233.7,238.4 233.7,238.8 233.7,239.2 233.7,239.5 233.7,239.9 233.8,240.2 233.8,240.6 233.8,240.9 233.8,241.3 233.8,241.6 233.8,242 233.8,242.4 233.9,242.7 233.9,243.1 233.9,243.4 233.9,243.8 234,244.1 234,244.5 234,244.9 234.1,245.2 234.1,245.6 234.2,245.9 234.2,246.3 234.2,246.6 234.3,247 234.3,247.3 234.4,247.7 234.4,248 234.5,248.4 234.5,248.8 234.6,249.1 234.6,249.5 234.7,249.8 234.8,250.2 234.8,250.5 234.9,250.9 235,251.2 235,251.6 235.1,252 235.2,252.3 235.2,252.7 235.3,253 235.4,253.4 235.5,253.7 235.5,254.1 235.6,254.4 235.7,254.8 235.8,255.1 235.9,255.5 236,255.8 236.1,256.2 236.2,256.6 236.3,256.9 236.4,257.3 236.5,257.6 236.6,258 236.7,258.3 236.8,258.7 236.9,259 237,259.4 237.1,259.7 237.2,260.1 237.3,260.4 237.4,260.8 237.5,261.1 237.7,261.5 237.8,261.8 237.9,262.2 238,262.5 238.2,262.9 238.3,263.3 238.4,263.6 238.6,264 238.7,264.3 238.8,264.7 239,265 239.1,265.4 239.2,265.7 239.4,266.1 239.5,266.4 239.7,266.8 239.8,267.1 240,267.5 240.1,267.8 240.3,268.2 240.4,268.5 240.6,268.8 240.7,269.2 240.9,269.5 241.1,269.9 241.2,270.2 241.4,270.6 241.6,270.9 241.7,271.3 241.9,271.6 242.1,272 242.2,272.3 242.4,272.7 242.6,273 242.8,273.4 243,273.7 243.1,274.1 243.3,274.4 243.5,274.7 243.7,275.1 243.9,275.4 244.1,275.8 244.3,276.1 244.5,276.5 244.7,276.8 244.9,277.2 245.1,277.5 245.3,277.9 245.5,278.2 245.7,278.5 245.9,278.9 246.1,279.2 246.3,279.6 246.5,279.9 246.7,280.2 247,280.6 247.2,280.9 247.4,281.3 247.6,281.6 247.8,282 248.1,282.3 248.3,282.6 248.5,283 248.7,283.3 249,283.7 249.2,284 249.4,284.3 249.7,284.7 249.9,285 250.2,285.4 250.4,285.7 250.6,286 250.9,286.4 251.1,286.7 251.4,287 251.6,287.4 251.9,287.7 252.1,288.1 252.4,288.4 252.6,288.7 252.9,289.1 253.2,289.4 253.4,289.7 253.7,290.1 253.9,290.4 254.2,290.7 254.5,291.1 254.8,291.4 255,291.7 255.3,292.1 255.6,292.4 255.8,292.7 256.1,293.1 256.4,293.4 256.7,293.7 257,294.1 257.2,294.4 257.5,294.7 257.8,295.1 258.1,295.4 258.4,295.7 258.7,296 259,296.4 259.3,296.7 259.6,297 259.9,297.4 260.2,297.7 260.5,298 260.8,298.3 261.1,298.7 261.4,299 261.7,299.3 262,299.7 262.3,300 262.6,300.3 262.9,300.6 263.2,301 263.6,301.3 263.9,301.6 264.2,301.9 264.5,302.3 264.8,302.6 265.2,302.9 265.5,303.2 265.8,303.5 266.1,303.9 266.5,304.2 266.8,304.5 267.1,304.8 267.5,305.2 267.8,305.5 268.1,305.8 268.5,306.1 268.8,306.4 269.1,306.8 269.5,307.1 269.8,307.4 270.2,307.7 270.5,308 270.9,308.4 271.2,308.7 271.6,309 271.9,309.3 272.3,309.6 272.6,309.9 273,310.3 273.3,310.6 273.7,310.9 274.1,311.2 274.4,311.5 274.8,311.8 275.1,312.1 275.5,312.5 275.9,312.8 276.2,313.1 276.6,313.4 277,313.7 277.3,314 277.7,314.3 278.1,314.6 278.5,315 278.8,315.3 279.2,315.6 279.6,315.9 280,316.2 280.4,316.5 280.7,316.8 281.1,317.1 281.5,317.4 281.9,317.7 282.3,318.1 282.7,318.4 283.1,318.7 283.4,319 283.8,319.3 284.2,319.6 284.6,319.9 285,320.2 285.4,320.5 285.8,320.8 286.2,321.1 286.6,321.4 287,321.7 287.4,322 287.8,322.3 288.2,322.6 288.6,322.9 289,323.2 289.4,323.5 289.8,323.8 290.2,324.2 290.6,324.5 291.1,324.8 291.5,325.1 291.9,325.4 292.3,325.7 292.7,326 293.1,326.3 293.5,326.6 293.9,326.9 294.4,327.2 294.8,327.5 295.2,327.8 295.6,328.1 296,328.4 296.4,328.7 296.9,329 297.3,329.3 297.7,329.6 298.1,329.9 298.5,330.2 299,330.4 299.4,330.7 299.8,331 300.2,331.3 300.7,331.6 301.1,331.9 301.5,332.2 301.9,332.5 302.3,332.8 302.8,333.1 303.2,333.4 303.6,333.7 304,334 304.5,334.3 304.9,334.6 305.3,334.9 305.7,335.2 306.2,335.5 306.6,335.8 307,336.1 307.4,336.4 307.8,336.7 308.3,337 308.7,337.3 309.1,337.6 309.5,337.9 309.9,338.2 310.4,338.5 310.8,338.8 311.2,339.1 311.6,339.4 312,339.7 312.4,340 312.8,340.3 313.2,340.6 313.6,340.9 314,341.2 314.4,341.5 314.8,341.8 315.2,342.1 315.6,342.4 316,342.7 316.4,343 316.7,343.4 317.1,343.7 317.5,344 317.9,344.3 318.2,344.6 318.6,344.9 318.9,345.2 319.3,345.5 319.6,345.9 320,346.2 320.3,346.5 320.7,346.8 321,347.1 321.3,347.5 321.6,347.8 321.9,348.1 322.2,348.4 322.5,348.8 322.8,349.1 323.1,349.4 323.4,349.8 323.7,350.1 323.9,350.4 324.2,350.8 324.4,351.1 324.7,351.4 324.9,351.8 325.1,352.1 325.4,352.4 325.6,352.8 325.8,353.1 326,353.5 326.2,353.8 326.4,354.2 326.5,354.5 326.7,354.9 326.9,355.2 327,355.5 327.2,355.9 327.3,356.2 327.5,356.6 327.6,356.9 327.7,357.3 327.8,357.6 328,358 328.1,358.4 328.2,358.7 328.3,359.1 328.4,359.4 328.4,359.8 328.5,360.1 328.6,360.5 328.7,360.8 328.7,361.2 328.8,361.5 328.9,361.9 328.9,362.2 329,362.6 329,363 329.1,363.3 329.1,363.7 329.2,364 329.2,364.4 329.3,364.7 329.3,365.1 329.3,365.4 329.4,365.8 329.4,366.1 329.4,366.5 329.5,366.9 329.5,367.2 329.5,367.6 329.5,367.9 329.6,368.3 329.6,368.6 329.6,369 329.6,369.4 329.6,369.7 329.7,370.1 329.7,370.4 329.7,370.8 329.7,371.1 329.7,371.5 329.7,371.8 329.7,372.2 329.8,372.6 329.8,372.9 329.8,373.3 329.8,373.6 329.8,374 329.8,374.3 329.8,374.7 329.9,375 329.9,375.4 329.9,375.8 329.9,376.1 329.9,376.5 329.9,376.8 329.9,377.2 329.9,377.5 330,377.9 330,378.2 330,378.6 330,379 330,379.3 330,379.7 330,380 330,380.4 330,380.7 330.1,381.1 330.1,381.5 330.1,381.8 330.1,382.2 330.1,382.5 330.1,382.9 330.1,383.2 330.1,383.6 330.1,383.9 330.1,384.3 330.1,384.7 330.2,385 330.2,385.4 330.2,385.7 330.2,386.1 330.2,386.4 330.2,386.8 330.2,387.1 330.2,387.5 330.2,387.9 330.2,388.2 330.2,388.6 330.2,388.9 330.2,389.3 330.2,389.6 330.2,390 330.2,390.4 330.2,390.7 330.2,391.1 330.2,391.4 330.2,391.8 330.2,392.1 330.2,392.5 330.2,392.8 330.1,393.2 330.1,393.6 330.1,393.9 330.1,394.3 330.1,394.6 330.1,395 330.1,395.3 330.1,395.7 330.1,396 330.1,396.4 330.1,396.8 330.1,397.1 330.1,397.5 330.1,397.8 330.1,398.2 330.1,398.5 330.1,398.9 330.2,399.2 330.2,399.6 330.2,400 330.3,400.3 330.3,400.7 330.4,401 330.5,401.4 330.6,401.7 330.7,402.1 330.8,402.4 330.9,402.8 331.1,403.1 331.2,403.5 331.4,403.8 331.6,404.2 331.8,404.5 332.1,404.9 332.3,405.2 332.6,405.5 332.9,405.9 333.3,406.2 333.6,406.5 334,406.8 334.4,407.1 334.9,407.4 335.3,407.7 335.8,408 336.4,408.3 336.9,408.5 337.5,408.8 338.1,409 338.7,409.2 339.3,409.5 339.9,409.7 " />
</g>

<g fill="none" stroke="#000000" stroke-opacity="1" stroke-width="1" stroke-linecap="square" stroke-linejoin="bevel" transform="matrix(1.00313,0,0,1.00313,0,0)"
font-family="Ubuntu" font-size="11" font-weight="400" font-style="normal" 
>
</g>

<g fill="none" stroke="#000000" stroke-opacity="1" stroke-width="1" stroke-linecap="square" stroke-linejoin="bevel" transform="matrix(1.00313,0,0,1.00313,0,0)"
font-family="Ubuntu" font-size="11" font-weight="400" font-style="normal" 
>
</g>

<g fill="none" stroke="#000000" stroke-opacity="1" stroke-width="1" stroke-linecap="round" stroke-linejoin="round" transform="matrix(1.00313,0,0,1.00313,0,0)"
font-family="Ubuntu" font-size="11" font-weight="400" font-style="normal" 
>
<polyline fill="none" vector-effect="none" points="60.5,45.5 60.5,432.5 618.5,432.5 618.5,45.5 60.5,45.5 " />
</g>

<g fill="none" stroke="#000000" stroke-opacity="1" stroke-width="1" stroke-linecap="square" stroke-linejoin="bevel" transform="matrix(1.00313,0,0,1.00313,0,0)"
font-family="Ubuntu" font-size="11" font-weight="400" font-style="normal" 
>
</g>

<g fill="none" stroke="#000000" stroke-opacity="1" stroke-width="1" stroke-linecap="square" stroke-linejoin="bevel" transform="matrix(1,0,0,1,0,0)"
font-family="Ubuntu" font-size="11" font-weight="400" font-style="normal" 
>
</g>
</g>
</svg>
