<?xml version="1.0" encoding="UTF-8" standalone="no"?>
<svg width="226.483mm" height="170.039mm"
 viewBox="0 0 642 482"
 xmlns="http://www.w3.org/2000/svg" xmlns:xlink="http://www.w3.org/1999/xlink"  version="1.2" baseProfile="tiny">
<title>Qt SVG Document</title>
<desc>Generated with Qt</desc>
<defs>
</defs>
<g fill="none" stroke="black" stroke-width="1" fill-rule="evenodd" stroke-linecap="square" stroke-linejoin="bevel" >

<g fill="none" stroke="#000000" stroke-opacity="1" stroke-width="1" stroke-linecap="square" stroke-linejoin="bevel" transform="matrix(1,0,0,1,0,0)"
font-family="Ubuntu" font-size="11" font-weight="400" font-style="normal" 
>
</g>

<g fill="none" stroke="#000000" stroke-opacity="1" stroke-width="1" stroke-linecap="square" stroke-linejoin="bevel" transform="matrix(1.00313,0,0,1.00313,0,0)"
font-family="Ubuntu" font-size="11" font-weight="400" font-style="normal" 
>
</g>

<g fill="none" stroke="#000000" stroke-opacity="1" stroke-width="1" stroke-linecap="round" stroke-linejoin="round" transform="matrix(1.00313,0,0,1.00313,0,0)"
font-family="Ubuntu" font-size="11" font-weight="400" font-style="normal" 
>
<polyline fill="none" vector-effect="none" points="60.5,432.5 66.5,432.5 " />
<polyline fill="none" vector-effect="none" points="618.5,432.5 612.5,432.5 " />
</g>

<g fill="none" stroke="#000000" stroke-opacity="1" stroke-width="1" stroke-linecap="square" stroke-linejoin="bevel" transform="matrix(1.00313,0,0,1.00313,0,0)"
font-family="Ubuntu" font-size="11" font-weight="400" font-style="normal" 
>
</g>

<g fill="none" stroke="#000000" stroke-opacity="1" stroke-width="1" stroke-linecap="square" stroke-linejoin="bevel" transform="matrix(1.00313,0,0,1.00313,43.1344,437.864)"
font-family="Ubuntu" font-size="11" font-weight="400" font-style="normal" 
>
</g>

<g fill="none" stroke="#000000" stroke-opacity="1" stroke-width="1" stroke-linecap="square" stroke-linejoin="bevel" transform="matrix(1.00313,0,0,1.00313,43.1344,437.864)"
font-family="Ubuntu" font-size="11" font-weight="400" font-style="normal" 
>
</g>

<g fill="none" stroke="#000000" stroke-opacity="1" stroke-width="1" stroke-linecap="square" stroke-linejoin="bevel" transform="matrix(1.00313,0,0,1.00313,43.1344,437.864)"
font-family="Ubuntu" font-size="11" font-weight="400" font-style="normal" 
>
</g>

<g fill="none" stroke="#000000" stroke-opacity="1" stroke-width="1" stroke-linecap="square" stroke-linejoin="bevel" transform="matrix(1.00313,0,0,1.00313,43.1344,437.864)"
font-family="Ubuntu" font-size="11" font-weight="400" font-style="normal" 
>
</g>

<g fill="none" stroke="#000000" stroke-opacity="1" stroke-width="1" stroke-linecap="square" stroke-linejoin="bevel" transform="matrix(1.00313,0,0,1.00313,43.1344,437.864)"
font-family="Ubuntu" font-size="11" font-weight="400" font-style="normal" 
>
</g>

<g fill="none" stroke="#000000" stroke-opacity="1" stroke-width="1" stroke-linecap="square" stroke-linejoin="bevel" transform="matrix(1.00313,0,0,1.00313,43.1344,437.864)"
font-family="Sans" font-size="9" font-weight="400" font-style="normal" 
>
<text fill="#000000" fill-opacity="1" stroke="none" xml:space="preserve" x="0" y="0" font-family="Sans" font-size="9" font-weight="400" font-style="normal" 
 >-2</text>
</g>

<g fill="none" stroke="#000000" stroke-opacity="1" stroke-width="1" stroke-linecap="square" stroke-linejoin="bevel" transform="matrix(1.00313,0,0,1.00313,43.1344,437.864)"
font-family="Ubuntu" font-size="11" font-weight="400" font-style="normal" 
>
</g>

<g fill="none" stroke="#000000" stroke-opacity="1" stroke-width="1" stroke-linecap="square" stroke-linejoin="bevel" transform="matrix(1.00313,0,0,1.00313,0,0)"
font-family="Ubuntu" font-size="11" font-weight="400" font-style="normal" 
>
</g>

<g fill="none" stroke="#000000" stroke-opacity="1" stroke-width="1" stroke-linecap="round" stroke-linejoin="round" transform="matrix(1.00313,0,0,1.00313,0,0)"
font-family="Ubuntu" font-size="11" font-weight="400" font-style="normal" 
>
<polyline fill="none" vector-effect="none" points="60.5,383.5 66.5,383.5 " />
<polyline fill="none" vector-effect="none" points="618.5,383.5 612.5,383.5 " />
</g>

<g fill="none" stroke="#000000" stroke-opacity="1" stroke-width="1" stroke-linecap="square" stroke-linejoin="bevel" transform="matrix(1.00313,0,0,1.00313,0,0)"
font-family="Ubuntu" font-size="11" font-weight="400" font-style="normal" 
>
</g>

<g fill="none" stroke="#000000" stroke-opacity="1" stroke-width="1" stroke-linecap="square" stroke-linejoin="bevel" transform="matrix(1.00313,0,0,1.00313,31.0969,389.714)"
font-family="Ubuntu" font-size="11" font-weight="400" font-style="normal" 
>
</g>

<g fill="none" stroke="#000000" stroke-opacity="1" stroke-width="1" stroke-linecap="square" stroke-linejoin="bevel" transform="matrix(1.00313,0,0,1.00313,31.0969,389.714)"
font-family="Ubuntu" font-size="11" font-weight="400" font-style="normal" 
>
</g>

<g fill="none" stroke="#000000" stroke-opacity="1" stroke-width="1" stroke-linecap="square" stroke-linejoin="bevel" transform="matrix(1.00313,0,0,1.00313,31.0969,389.714)"
font-family="Ubuntu" font-size="11" font-weight="400" font-style="normal" 
>
</g>

<g fill="none" stroke="#000000" stroke-opacity="1" stroke-width="1" stroke-linecap="square" stroke-linejoin="bevel" transform="matrix(1.00313,0,0,1.00313,31.0969,389.714)"
font-family="Ubuntu" font-size="11" font-weight="400" font-style="normal" 
>
</g>

<g fill="none" stroke="#000000" stroke-opacity="1" stroke-width="1" stroke-linecap="square" stroke-linejoin="bevel" transform="matrix(1.00313,0,0,1.00313,31.0969,389.714)"
font-family="Ubuntu" font-size="11" font-weight="400" font-style="normal" 
>
</g>

<g fill="none" stroke="#000000" stroke-opacity="1" stroke-width="1" stroke-linecap="square" stroke-linejoin="bevel" transform="matrix(1.00313,0,0,1.00313,31.0969,389.714)"
font-family="Sans" font-size="9" font-weight="400" font-style="normal" 
>
<text fill="#000000" fill-opacity="1" stroke="none" xml:space="preserve" x="0" y="0" font-family="Sans" font-size="9" font-weight="400" font-style="normal" 
 >-1.5</text>
</g>

<g fill="none" stroke="#000000" stroke-opacity="1" stroke-width="1" stroke-linecap="square" stroke-linejoin="bevel" transform="matrix(1.00313,0,0,1.00313,31.0969,389.714)"
font-family="Ubuntu" font-size="11" font-weight="400" font-style="normal" 
>
</g>

<g fill="none" stroke="#000000" stroke-opacity="1" stroke-width="1" stroke-linecap="square" stroke-linejoin="bevel" transform="matrix(1.00313,0,0,1.00313,0,0)"
font-family="Ubuntu" font-size="11" font-weight="400" font-style="normal" 
>
</g>

<g fill="none" stroke="#000000" stroke-opacity="1" stroke-width="1" stroke-linecap="round" stroke-linejoin="round" transform="matrix(1.00313,0,0,1.00313,0,0)"
font-family="Ubuntu" font-size="11" font-weight="400" font-style="normal" 
>
<polyline fill="none" vector-effect="none" points="60.5,335.5 66.5,335.5 " />
<polyline fill="none" vector-effect="none" points="618.5,335.5 612.5,335.5 " />
</g>

<g fill="none" stroke="#000000" stroke-opacity="1" stroke-width="1" stroke-linecap="square" stroke-linejoin="bevel" transform="matrix(1.00313,0,0,1.00313,0,0)"
font-family="Ubuntu" font-size="11" font-weight="400" font-style="normal" 
>
</g>

<g fill="none" stroke="#000000" stroke-opacity="1" stroke-width="1" stroke-linecap="square" stroke-linejoin="bevel" transform="matrix(1.00313,0,0,1.00313,43.1344,340.561)"
font-family="Ubuntu" font-size="11" font-weight="400" font-style="normal" 
>
</g>

<g fill="none" stroke="#000000" stroke-opacity="1" stroke-width="1" stroke-linecap="square" stroke-linejoin="bevel" transform="matrix(1.00313,0,0,1.00313,43.1344,340.561)"
font-family="Ubuntu" font-size="11" font-weight="400" font-style="normal" 
>
</g>

<g fill="none" stroke="#000000" stroke-opacity="1" stroke-width="1" stroke-linecap="square" stroke-linejoin="bevel" transform="matrix(1.00313,0,0,1.00313,43.1344,340.561)"
font-family="Ubuntu" font-size="11" font-weight="400" font-style="normal" 
>
</g>

<g fill="none" stroke="#000000" stroke-opacity="1" stroke-width="1" stroke-linecap="square" stroke-linejoin="bevel" transform="matrix(1.00313,0,0,1.00313,43.1344,340.561)"
font-family="Ubuntu" font-size="11" font-weight="400" font-style="normal" 
>
</g>

<g fill="none" stroke="#000000" stroke-opacity="1" stroke-width="1" stroke-linecap="square" stroke-linejoin="bevel" transform="matrix(1.00313,0,0,1.00313,43.1344,340.561)"
font-family="Ubuntu" font-size="11" font-weight="400" font-style="normal" 
>
</g>

<g fill="none" stroke="#000000" stroke-opacity="1" stroke-width="1" stroke-linecap="square" stroke-linejoin="bevel" transform="matrix(1.00313,0,0,1.00313,43.1344,340.561)"
font-family="Sans" font-size="9" font-weight="400" font-style="normal" 
>
<text fill="#000000" fill-opacity="1" stroke="none" xml:space="preserve" x="0" y="0" font-family="Sans" font-size="9" font-weight="400" font-style="normal" 
 >-1</text>
</g>

<g fill="none" stroke="#000000" stroke-opacity="1" stroke-width="1" stroke-linecap="square" stroke-linejoin="bevel" transform="matrix(1.00313,0,0,1.00313,43.1344,340.561)"
font-family="Ubuntu" font-size="11" font-weight="400" font-style="normal" 
>
</g>

<g fill="none" stroke="#000000" stroke-opacity="1" stroke-width="1" stroke-linecap="square" stroke-linejoin="bevel" transform="matrix(1.00313,0,0,1.00313,0,0)"
font-family="Ubuntu" font-size="11" font-weight="400" font-style="normal" 
>
</g>

<g fill="none" stroke="#000000" stroke-opacity="1" stroke-width="1" stroke-linecap="round" stroke-linejoin="round" transform="matrix(1.00313,0,0,1.00313,0,0)"
font-family="Ubuntu" font-size="11" font-weight="400" font-style="normal" 
>
<polyline fill="none" vector-effect="none" points="60.5,286.5 66.5,286.5 " />
<polyline fill="none" vector-effect="none" points="618.5,286.5 612.5,286.5 " />
</g>

<g fill="none" stroke="#000000" stroke-opacity="1" stroke-width="1" stroke-linecap="square" stroke-linejoin="bevel" transform="matrix(1.00313,0,0,1.00313,0,0)"
font-family="Ubuntu" font-size="11" font-weight="400" font-style="normal" 
>
</g>

<g fill="none" stroke="#000000" stroke-opacity="1" stroke-width="1" stroke-linecap="square" stroke-linejoin="bevel" transform="matrix(1.00313,0,0,1.00313,31.0969,292.411)"
font-family="Ubuntu" font-size="11" font-weight="400" font-style="normal" 
>
</g>

<g fill="none" stroke="#000000" stroke-opacity="1" stroke-width="1" stroke-linecap="square" stroke-linejoin="bevel" transform="matrix(1.00313,0,0,1.00313,31.0969,292.411)"
font-family="Ubuntu" font-size="11" font-weight="400" font-style="normal" 
>
</g>

<g fill="none" stroke="#000000" stroke-opacity="1" stroke-width="1" stroke-linecap="square" stroke-linejoin="bevel" transform="matrix(1.00313,0,0,1.00313,31.0969,292.411)"
font-family="Ubuntu" font-size="11" font-weight="400" font-style="normal" 
>
</g>

<g fill="none" stroke="#000000" stroke-opacity="1" stroke-width="1" stroke-linecap="square" stroke-linejoin="bevel" transform="matrix(1.00313,0,0,1.00313,31.0969,292.411)"
font-family="Ubuntu" font-size="11" font-weight="400" font-style="normal" 
>
</g>

<g fill="none" stroke="#000000" stroke-opacity="1" stroke-width="1" stroke-linecap="square" stroke-linejoin="bevel" transform="matrix(1.00313,0,0,1.00313,31.0969,292.411)"
font-family="Ubuntu" font-size="11" font-weight="400" font-style="normal" 
>
</g>

<g fill="none" stroke="#000000" stroke-opacity="1" stroke-width="1" stroke-linecap="square" stroke-linejoin="bevel" transform="matrix(1.00313,0,0,1.00313,31.0969,292.411)"
font-family="Sans" font-size="9" font-weight="400" font-style="normal" 
>
<text fill="#000000" fill-opacity="1" stroke="none" xml:space="preserve" x="0" y="0" font-family="Sans" font-size="9" font-weight="400" font-style="normal" 
 >-0.5</text>
</g>

<g fill="none" stroke="#000000" stroke-opacity="1" stroke-width="1" stroke-linecap="square" stroke-linejoin="bevel" transform="matrix(1.00313,0,0,1.00313,31.0969,292.411)"
font-family="Ubuntu" font-size="11" font-weight="400" font-style="normal" 
>
</g>

<g fill="none" stroke="#000000" stroke-opacity="1" stroke-width="1" stroke-linecap="square" stroke-linejoin="bevel" transform="matrix(1.00313,0,0,1.00313,0,0)"
font-family="Ubuntu" font-size="11" font-weight="400" font-style="normal" 
>
</g>

<g fill="none" stroke="#000000" stroke-opacity="1" stroke-width="1" stroke-linecap="round" stroke-linejoin="round" transform="matrix(1.00313,0,0,1.00313,0,0)"
font-family="Ubuntu" font-size="11" font-weight="400" font-style="normal" 
>
<polyline fill="none" vector-effect="none" points="60.5,238.5 66.5,238.5 " />
<polyline fill="none" vector-effect="none" points="618.5,238.5 612.5,238.5 " />
</g>

<g fill="none" stroke="#000000" stroke-opacity="1" stroke-width="1" stroke-linecap="square" stroke-linejoin="bevel" transform="matrix(1.00313,0,0,1.00313,0,0)"
font-family="Ubuntu" font-size="11" font-weight="400" font-style="normal" 
>
</g>

<g fill="none" stroke="#000000" stroke-opacity="1" stroke-width="1" stroke-linecap="square" stroke-linejoin="bevel" transform="matrix(1.00313,0,0,1.00313,43.1344,244.261)"
font-family="Ubuntu" font-size="11" font-weight="400" font-style="normal" 
>
</g>

<g fill="none" stroke="#000000" stroke-opacity="1" stroke-width="1" stroke-linecap="square" stroke-linejoin="bevel" transform="matrix(1.00313,0,0,1.00313,43.1344,244.261)"
font-family="Ubuntu" font-size="11" font-weight="400" font-style="normal" 
>
</g>

<g fill="none" stroke="#000000" stroke-opacity="1" stroke-width="1" stroke-linecap="square" stroke-linejoin="bevel" transform="matrix(1.00313,0,0,1.00313,43.1344,244.261)"
font-family="Ubuntu" font-size="11" font-weight="400" font-style="normal" 
>
</g>

<g fill="none" stroke="#000000" stroke-opacity="1" stroke-width="1" stroke-linecap="square" stroke-linejoin="bevel" transform="matrix(1.00313,0,0,1.00313,43.1344,244.261)"
font-family="Ubuntu" font-size="11" font-weight="400" font-style="normal" 
>
</g>

<g fill="none" stroke="#000000" stroke-opacity="1" stroke-width="1" stroke-linecap="square" stroke-linejoin="bevel" transform="matrix(1.00313,0,0,1.00313,43.1344,244.261)"
font-family="Ubuntu" font-size="11" font-weight="400" font-style="normal" 
>
</g>

<g fill="none" stroke="#000000" stroke-opacity="1" stroke-width="1" stroke-linecap="square" stroke-linejoin="bevel" transform="matrix(1.00313,0,0,1.00313,43.1344,244.261)"
font-family="Sans" font-size="9" font-weight="400" font-style="normal" 
>
<text fill="#000000" fill-opacity="1" stroke="none" xml:space="preserve" x="0" y="0" font-family="Sans" font-size="9" font-weight="400" font-style="normal" 
 > 0</text>
</g>

<g fill="none" stroke="#000000" stroke-opacity="1" stroke-width="1" stroke-linecap="square" stroke-linejoin="bevel" transform="matrix(1.00313,0,0,1.00313,43.1344,244.261)"
font-family="Ubuntu" font-size="11" font-weight="400" font-style="normal" 
>
</g>

<g fill="none" stroke="#000000" stroke-opacity="1" stroke-width="1" stroke-linecap="square" stroke-linejoin="bevel" transform="matrix(1.00313,0,0,1.00313,0,0)"
font-family="Ubuntu" font-size="11" font-weight="400" font-style="normal" 
>
</g>

<g fill="none" stroke="#000000" stroke-opacity="1" stroke-width="1" stroke-linecap="round" stroke-linejoin="round" transform="matrix(1.00313,0,0,1.00313,0,0)"
font-family="Ubuntu" font-size="11" font-weight="400" font-style="normal" 
>
<polyline fill="none" vector-effect="none" points="60.5,190.5 66.5,190.5 " />
<polyline fill="none" vector-effect="none" points="618.5,190.5 612.5,190.5 " />
</g>

<g fill="none" stroke="#000000" stroke-opacity="1" stroke-width="1" stroke-linecap="square" stroke-linejoin="bevel" transform="matrix(1.00313,0,0,1.00313,0,0)"
font-family="Ubuntu" font-size="11" font-weight="400" font-style="normal" 
>
</g>

<g fill="none" stroke="#000000" stroke-opacity="1" stroke-width="1" stroke-linecap="square" stroke-linejoin="bevel" transform="matrix(1.00313,0,0,1.00313,31.0969,195.108)"
font-family="Ubuntu" font-size="11" font-weight="400" font-style="normal" 
>
</g>

<g fill="none" stroke="#000000" stroke-opacity="1" stroke-width="1" stroke-linecap="square" stroke-linejoin="bevel" transform="matrix(1.00313,0,0,1.00313,31.0969,195.108)"
font-family="Ubuntu" font-size="11" font-weight="400" font-style="normal" 
>
</g>

<g fill="none" stroke="#000000" stroke-opacity="1" stroke-width="1" stroke-linecap="square" stroke-linejoin="bevel" transform="matrix(1.00313,0,0,1.00313,31.0969,195.108)"
font-family="Ubuntu" font-size="11" font-weight="400" font-style="normal" 
>
</g>

<g fill="none" stroke="#000000" stroke-opacity="1" stroke-width="1" stroke-linecap="square" stroke-linejoin="bevel" transform="matrix(1.00313,0,0,1.00313,31.0969,195.108)"
font-family="Ubuntu" font-size="11" font-weight="400" font-style="normal" 
>
</g>

<g fill="none" stroke="#000000" stroke-opacity="1" stroke-width="1" stroke-linecap="square" stroke-linejoin="bevel" transform="matrix(1.00313,0,0,1.00313,31.0969,195.108)"
font-family="Ubuntu" font-size="11" font-weight="400" font-style="normal" 
>
</g>

<g fill="none" stroke="#000000" stroke-opacity="1" stroke-width="1" stroke-linecap="square" stroke-linejoin="bevel" transform="matrix(1.00313,0,0,1.00313,31.0969,195.108)"
font-family="Sans" font-size="9" font-weight="400" font-style="normal" 
>
<text fill="#000000" fill-opacity="1" stroke="none" xml:space="preserve" x="0" y="0" font-family="Sans" font-size="9" font-weight="400" font-style="normal" 
 > 0.5</text>
</g>

<g fill="none" stroke="#000000" stroke-opacity="1" stroke-width="1" stroke-linecap="square" stroke-linejoin="bevel" transform="matrix(1.00313,0,0,1.00313,31.0969,195.108)"
font-family="Ubuntu" font-size="11" font-weight="400" font-style="normal" 
>
</g>

<g fill="none" stroke="#000000" stroke-opacity="1" stroke-width="1" stroke-linecap="square" stroke-linejoin="bevel" transform="matrix(1.00313,0,0,1.00313,0,0)"
font-family="Ubuntu" font-size="11" font-weight="400" font-style="normal" 
>
</g>

<g fill="none" stroke="#000000" stroke-opacity="1" stroke-width="1" stroke-linecap="round" stroke-linejoin="round" transform="matrix(1.00313,0,0,1.00313,0,0)"
font-family="Ubuntu" font-size="11" font-weight="400" font-style="normal" 
>
<polyline fill="none" vector-effect="none" points="60.5,141.5 66.5,141.5 " />
<polyline fill="none" vector-effect="none" points="618.5,141.5 612.5,141.5 " />
</g>

<g fill="none" stroke="#000000" stroke-opacity="1" stroke-width="1" stroke-linecap="square" stroke-linejoin="bevel" transform="matrix(1.00313,0,0,1.00313,0,0)"
font-family="Ubuntu" font-size="11" font-weight="400" font-style="normal" 
>
</g>

<g fill="none" stroke="#000000" stroke-opacity="1" stroke-width="1" stroke-linecap="square" stroke-linejoin="bevel" transform="matrix(1.00313,0,0,1.00313,43.1344,146.958)"
font-family="Ubuntu" font-size="11" font-weight="400" font-style="normal" 
>
</g>

<g fill="none" stroke="#000000" stroke-opacity="1" stroke-width="1" stroke-linecap="square" stroke-linejoin="bevel" transform="matrix(1.00313,0,0,1.00313,43.1344,146.958)"
font-family="Ubuntu" font-size="11" font-weight="400" font-style="normal" 
>
</g>

<g fill="none" stroke="#000000" stroke-opacity="1" stroke-width="1" stroke-linecap="square" stroke-linejoin="bevel" transform="matrix(1.00313,0,0,1.00313,43.1344,146.958)"
font-family="Ubuntu" font-size="11" font-weight="400" font-style="normal" 
>
</g>

<g fill="none" stroke="#000000" stroke-opacity="1" stroke-width="1" stroke-linecap="square" stroke-linejoin="bevel" transform="matrix(1.00313,0,0,1.00313,43.1344,146.958)"
font-family="Ubuntu" font-size="11" font-weight="400" font-style="normal" 
>
</g>

<g fill="none" stroke="#000000" stroke-opacity="1" stroke-width="1" stroke-linecap="square" stroke-linejoin="bevel" transform="matrix(1.00313,0,0,1.00313,43.1344,146.958)"
font-family="Ubuntu" font-size="11" font-weight="400" font-style="normal" 
>
</g>

<g fill="none" stroke="#000000" stroke-opacity="1" stroke-width="1" stroke-linecap="square" stroke-linejoin="bevel" transform="matrix(1.00313,0,0,1.00313,43.1344,146.958)"
font-family="Sans" font-size="9" font-weight="400" font-style="normal" 
>
<text fill="#000000" fill-opacity="1" stroke="none" xml:space="preserve" x="0" y="0" font-family="Sans" font-size="9" font-weight="400" font-style="normal" 
 > 1</text>
</g>

<g fill="none" stroke="#000000" stroke-opacity="1" stroke-width="1" stroke-linecap="square" stroke-linejoin="bevel" transform="matrix(1.00313,0,0,1.00313,43.1344,146.958)"
font-family="Ubuntu" font-size="11" font-weight="400" font-style="normal" 
>
</g>

<g fill="none" stroke="#000000" stroke-opacity="1" stroke-width="1" stroke-linecap="square" stroke-linejoin="bevel" transform="matrix(1.00313,0,0,1.00313,0,0)"
font-family="Ubuntu" font-size="11" font-weight="400" font-style="normal" 
>
</g>

<g fill="none" stroke="#000000" stroke-opacity="1" stroke-width="1" stroke-linecap="round" stroke-linejoin="round" transform="matrix(1.00313,0,0,1.00313,0,0)"
font-family="Ubuntu" font-size="11" font-weight="400" font-style="normal" 
>
<polyline fill="none" vector-effect="none" points="60.5,93.5 66.5,93.5 " />
<polyline fill="none" vector-effect="none" points="618.5,93.5 612.5,93.5 " />
</g>

<g fill="none" stroke="#000000" stroke-opacity="1" stroke-width="1" stroke-linecap="square" stroke-linejoin="bevel" transform="matrix(1.00313,0,0,1.00313,0,0)"
font-family="Ubuntu" font-size="11" font-weight="400" font-style="normal" 
>
</g>

<g fill="none" stroke="#000000" stroke-opacity="1" stroke-width="1" stroke-linecap="square" stroke-linejoin="bevel" transform="matrix(1.00313,0,0,1.00313,31.0969,98.8078)"
font-family="Ubuntu" font-size="11" font-weight="400" font-style="normal" 
>
</g>

<g fill="none" stroke="#000000" stroke-opacity="1" stroke-width="1" stroke-linecap="square" stroke-linejoin="bevel" transform="matrix(1.00313,0,0,1.00313,31.0969,98.8078)"
font-family="Ubuntu" font-size="11" font-weight="400" font-style="normal" 
>
</g>

<g fill="none" stroke="#000000" stroke-opacity="1" stroke-width="1" stroke-linecap="square" stroke-linejoin="bevel" transform="matrix(1.00313,0,0,1.00313,31.0969,98.8078)"
font-family="Ubuntu" font-size="11" font-weight="400" font-style="normal" 
>
</g>

<g fill="none" stroke="#000000" stroke-opacity="1" stroke-width="1" stroke-linecap="square" stroke-linejoin="bevel" transform="matrix(1.00313,0,0,1.00313,31.0969,98.8078)"
font-family="Ubuntu" font-size="11" font-weight="400" font-style="normal" 
>
</g>

<g fill="none" stroke="#000000" stroke-opacity="1" stroke-width="1" stroke-linecap="square" stroke-linejoin="bevel" transform="matrix(1.00313,0,0,1.00313,31.0969,98.8078)"
font-family="Ubuntu" font-size="11" font-weight="400" font-style="normal" 
>
</g>

<g fill="none" stroke="#000000" stroke-opacity="1" stroke-width="1" stroke-linecap="square" stroke-linejoin="bevel" transform="matrix(1.00313,0,0,1.00313,31.0969,98.8078)"
font-family="Sans" font-size="9" font-weight="400" font-style="normal" 
>
<text fill="#000000" fill-opacity="1" stroke="none" xml:space="preserve" x="0" y="0" font-family="Sans" font-size="9" font-weight="400" font-style="normal" 
 > 1.5</text>
</g>

<g fill="none" stroke="#000000" stroke-opacity="1" stroke-width="1" stroke-linecap="square" stroke-linejoin="bevel" transform="matrix(1.00313,0,0,1.00313,31.0969,98.8078)"
font-family="Ubuntu" font-size="11" font-weight="400" font-style="normal" 
>
</g>

<g fill="none" stroke="#000000" stroke-opacity="1" stroke-width="1" stroke-linecap="square" stroke-linejoin="bevel" transform="matrix(1.00313,0,0,1.00313,0,0)"
font-family="Ubuntu" font-size="11" font-weight="400" font-style="normal" 
>
</g>

<g fill="none" stroke="#000000" stroke-opacity="1" stroke-width="1" stroke-linecap="round" stroke-linejoin="round" transform="matrix(1.00313,0,0,1.00313,0,0)"
font-family="Ubuntu" font-size="11" font-weight="400" font-style="normal" 
>
<polyline fill="none" vector-effect="none" points="60.5,45.5 66.5,45.5 " />
<polyline fill="none" vector-effect="none" points="618.5,45.5 612.5,45.5 " />
</g>

<g fill="none" stroke="#000000" stroke-opacity="1" stroke-width="1" stroke-linecap="square" stroke-linejoin="bevel" transform="matrix(1.00313,0,0,1.00313,0,0)"
font-family="Ubuntu" font-size="11" font-weight="400" font-style="normal" 
>
</g>

<g fill="none" stroke="#000000" stroke-opacity="1" stroke-width="1" stroke-linecap="square" stroke-linejoin="bevel" transform="matrix(1.00313,0,0,1.00313,43.1344,49.6547)"
font-family="Ubuntu" font-size="11" font-weight="400" font-style="normal" 
>
</g>

<g fill="none" stroke="#000000" stroke-opacity="1" stroke-width="1" stroke-linecap="square" stroke-linejoin="bevel" transform="matrix(1.00313,0,0,1.00313,43.1344,49.6547)"
font-family="Ubuntu" font-size="11" font-weight="400" font-style="normal" 
>
</g>

<g fill="none" stroke="#000000" stroke-opacity="1" stroke-width="1" stroke-linecap="square" stroke-linejoin="bevel" transform="matrix(1.00313,0,0,1.00313,43.1344,49.6547)"
font-family="Ubuntu" font-size="11" font-weight="400" font-style="normal" 
>
</g>

<g fill="none" stroke="#000000" stroke-opacity="1" stroke-width="1" stroke-linecap="square" stroke-linejoin="bevel" transform="matrix(1.00313,0,0,1.00313,43.1344,49.6547)"
font-family="Ubuntu" font-size="11" font-weight="400" font-style="normal" 
>
</g>

<g fill="none" stroke="#000000" stroke-opacity="1" stroke-width="1" stroke-linecap="square" stroke-linejoin="bevel" transform="matrix(1.00313,0,0,1.00313,43.1344,49.6547)"
font-family="Ubuntu" font-size="11" font-weight="400" font-style="normal" 
>
</g>

<g fill="none" stroke="#000000" stroke-opacity="1" stroke-width="1" stroke-linecap="square" stroke-linejoin="bevel" transform="matrix(1.00313,0,0,1.00313,43.1344,49.6547)"
font-family="Sans" font-size="9" font-weight="400" font-style="normal" 
>
<text fill="#000000" fill-opacity="1" stroke="none" xml:space="preserve" x="0" y="0" font-family="Sans" font-size="9" font-weight="400" font-style="normal" 
 > 2</text>
</g>

<g fill="none" stroke="#000000" stroke-opacity="1" stroke-width="1" stroke-linecap="square" stroke-linejoin="bevel" transform="matrix(1.00313,0,0,1.00313,43.1344,49.6547)"
font-family="Ubuntu" font-size="11" font-weight="400" font-style="normal" 
>
</g>

<g fill="none" stroke="#000000" stroke-opacity="1" stroke-width="1" stroke-linecap="square" stroke-linejoin="bevel" transform="matrix(1.00313,0,0,1.00313,0,0)"
font-family="Ubuntu" font-size="11" font-weight="400" font-style="normal" 
>
</g>

<g fill="none" stroke="#000000" stroke-opacity="1" stroke-width="1" stroke-linecap="round" stroke-linejoin="round" transform="matrix(1.00313,0,0,1.00313,0,0)"
font-family="Ubuntu" font-size="11" font-weight="400" font-style="normal" 
>
<polyline fill="none" vector-effect="none" points="60.5,432.5 60.5,426.5 " />
<polyline fill="none" vector-effect="none" points="60.5,45.5 60.5,51.5 " />
</g>

<g fill="none" stroke="#000000" stroke-opacity="1" stroke-width="1" stroke-linecap="square" stroke-linejoin="bevel" transform="matrix(1.00313,0,0,1.00313,0,0)"
font-family="Ubuntu" font-size="11" font-weight="400" font-style="normal" 
>
</g>

<g fill="none" stroke="#000000" stroke-opacity="1" stroke-width="1" stroke-linecap="square" stroke-linejoin="bevel" transform="matrix(1.00313,0,0,1.00313,55.6734,452.911)"
font-family="Ubuntu" font-size="11" font-weight="400" font-style="normal" 
>
</g>

<g fill="none" stroke="#000000" stroke-opacity="1" stroke-width="1" stroke-linecap="square" stroke-linejoin="bevel" transform="matrix(1.00313,0,0,1.00313,55.6734,452.911)"
font-family="Ubuntu" font-size="11" font-weight="400" font-style="normal" 
>
</g>

<g fill="none" stroke="#000000" stroke-opacity="1" stroke-width="1" stroke-linecap="square" stroke-linejoin="bevel" transform="matrix(1.00313,0,0,1.00313,55.6734,452.911)"
font-family="Ubuntu" font-size="11" font-weight="400" font-style="normal" 
>
</g>

<g fill="none" stroke="#000000" stroke-opacity="1" stroke-width="1" stroke-linecap="square" stroke-linejoin="bevel" transform="matrix(1.00313,0,0,1.00313,55.6734,452.911)"
font-family="Ubuntu" font-size="11" font-weight="400" font-style="normal" 
>
</g>

<g fill="none" stroke="#000000" stroke-opacity="1" stroke-width="1" stroke-linecap="square" stroke-linejoin="bevel" transform="matrix(1.00313,0,0,1.00313,55.6734,452.911)"
font-family="Ubuntu" font-size="11" font-weight="400" font-style="normal" 
>
</g>

<g fill="none" stroke="#000000" stroke-opacity="1" stroke-width="1" stroke-linecap="square" stroke-linejoin="bevel" transform="matrix(1.00313,0,0,1.00313,55.6734,452.911)"
font-family="Sans" font-size="9" font-weight="400" font-style="normal" 
>
<text fill="#000000" fill-opacity="1" stroke="none" xml:space="preserve" x="0" y="0" font-family="Sans" font-size="9" font-weight="400" font-style="normal" 
 >-1</text>
</g>

<g fill="none" stroke="#000000" stroke-opacity="1" stroke-width="1" stroke-linecap="square" stroke-linejoin="bevel" transform="matrix(1.00313,0,0,1.00313,55.6734,452.911)"
font-family="Ubuntu" font-size="11" font-weight="400" font-style="normal" 
>
</g>

<g fill="none" stroke="#000000" stroke-opacity="1" stroke-width="1" stroke-linecap="square" stroke-linejoin="bevel" transform="matrix(1.00313,0,0,1.00313,0,0)"
font-family="Ubuntu" font-size="11" font-weight="400" font-style="normal" 
>
</g>

<g fill="none" stroke="#000000" stroke-opacity="1" stroke-width="1" stroke-linecap="round" stroke-linejoin="round" transform="matrix(1.00313,0,0,1.00313,0,0)"
font-family="Ubuntu" font-size="11" font-weight="400" font-style="normal" 
>
<polyline fill="none" vector-effect="none" points="200.5,432.5 200.5,426.5 " />
<polyline fill="none" vector-effect="none" points="200.5,45.5 200.5,51.5 " />
</g>

<g fill="none" stroke="#000000" stroke-opacity="1" stroke-width="1" stroke-linecap="square" stroke-linejoin="bevel" transform="matrix(1.00313,0,0,1.00313,0,0)"
font-family="Ubuntu" font-size="11" font-weight="400" font-style="normal" 
>
</g>

<g fill="none" stroke="#000000" stroke-opacity="1" stroke-width="1" stroke-linecap="square" stroke-linejoin="bevel" transform="matrix(1.00313,0,0,1.00313,189.089,452.911)"
font-family="Ubuntu" font-size="11" font-weight="400" font-style="normal" 
>
</g>

<g fill="none" stroke="#000000" stroke-opacity="1" stroke-width="1" stroke-linecap="square" stroke-linejoin="bevel" transform="matrix(1.00313,0,0,1.00313,189.089,452.911)"
font-family="Ubuntu" font-size="11" font-weight="400" font-style="normal" 
>
</g>

<g fill="none" stroke="#000000" stroke-opacity="1" stroke-width="1" stroke-linecap="square" stroke-linejoin="bevel" transform="matrix(1.00313,0,0,1.00313,189.089,452.911)"
font-family="Ubuntu" font-size="11" font-weight="400" font-style="normal" 
>
</g>

<g fill="none" stroke="#000000" stroke-opacity="1" stroke-width="1" stroke-linecap="square" stroke-linejoin="bevel" transform="matrix(1.00313,0,0,1.00313,189.089,452.911)"
font-family="Ubuntu" font-size="11" font-weight="400" font-style="normal" 
>
</g>

<g fill="none" stroke="#000000" stroke-opacity="1" stroke-width="1" stroke-linecap="square" stroke-linejoin="bevel" transform="matrix(1.00313,0,0,1.00313,189.089,452.911)"
font-family="Ubuntu" font-size="11" font-weight="400" font-style="normal" 
>
</g>

<g fill="none" stroke="#000000" stroke-opacity="1" stroke-width="1" stroke-linecap="square" stroke-linejoin="bevel" transform="matrix(1.00313,0,0,1.00313,189.089,452.911)"
font-family="Sans" font-size="9" font-weight="400" font-style="normal" 
>
<text fill="#000000" fill-opacity="1" stroke="none" xml:space="preserve" x="0" y="0" font-family="Sans" font-size="9" font-weight="400" font-style="normal" 
 >-0.5</text>
</g>

<g fill="none" stroke="#000000" stroke-opacity="1" stroke-width="1" stroke-linecap="square" stroke-linejoin="bevel" transform="matrix(1.00313,0,0,1.00313,189.089,452.911)"
font-family="Ubuntu" font-size="11" font-weight="400" font-style="normal" 
>
</g>

<g fill="none" stroke="#000000" stroke-opacity="1" stroke-width="1" stroke-linecap="square" stroke-linejoin="bevel" transform="matrix(1.00313,0,0,1.00313,0,0)"
font-family="Ubuntu" font-size="11" font-weight="400" font-style="normal" 
>
</g>

<g fill="none" stroke="#000000" stroke-opacity="1" stroke-width="1" stroke-linecap="round" stroke-linejoin="round" transform="matrix(1.00313,0,0,1.00313,0,0)"
font-family="Ubuntu" font-size="11" font-weight="400" font-style="normal" 
>
<polyline fill="none" vector-effect="none" points="339.5,432.5 339.5,426.5 " />
<polyline fill="none" vector-effect="none" points="339.5,45.5 339.5,51.5 " />
</g>

<g fill="none" stroke="#000000" stroke-opacity="1" stroke-width="1" stroke-linecap="square" stroke-linejoin="bevel" transform="matrix(1.00313,0,0,1.00313,0,0)"
font-family="Ubuntu" font-size="11" font-weight="400" font-style="normal" 
>
</g>

<g fill="none" stroke="#000000" stroke-opacity="1" stroke-width="1" stroke-linecap="square" stroke-linejoin="bevel" transform="matrix(1.00313,0,0,1.00313,335.545,452.911)"
font-family="Ubuntu" font-size="11" font-weight="400" font-style="normal" 
>
</g>

<g fill="none" stroke="#000000" stroke-opacity="1" stroke-width="1" stroke-linecap="square" stroke-linejoin="bevel" transform="matrix(1.00313,0,0,1.00313,335.545,452.911)"
font-family="Ubuntu" font-size="11" font-weight="400" font-style="normal" 
>
</g>

<g fill="none" stroke="#000000" stroke-opacity="1" stroke-width="1" stroke-linecap="square" stroke-linejoin="bevel" transform="matrix(1.00313,0,0,1.00313,335.545,452.911)"
font-family="Ubuntu" font-size="11" font-weight="400" font-style="normal" 
>
</g>

<g fill="none" stroke="#000000" stroke-opacity="1" stroke-width="1" stroke-linecap="square" stroke-linejoin="bevel" transform="matrix(1.00313,0,0,1.00313,335.545,452.911)"
font-family="Ubuntu" font-size="11" font-weight="400" font-style="normal" 
>
</g>

<g fill="none" stroke="#000000" stroke-opacity="1" stroke-width="1" stroke-linecap="square" stroke-linejoin="bevel" transform="matrix(1.00313,0,0,1.00313,335.545,452.911)"
font-family="Ubuntu" font-size="11" font-weight="400" font-style="normal" 
>
</g>

<g fill="none" stroke="#000000" stroke-opacity="1" stroke-width="1" stroke-linecap="square" stroke-linejoin="bevel" transform="matrix(1.00313,0,0,1.00313,335.545,452.911)"
font-family="Sans" font-size="9" font-weight="400" font-style="normal" 
>
<text fill="#000000" fill-opacity="1" stroke="none" xml:space="preserve" x="0" y="0" font-family="Sans" font-size="9" font-weight="400" font-style="normal" 
 > 0</text>
</g>

<g fill="none" stroke="#000000" stroke-opacity="1" stroke-width="1" stroke-linecap="square" stroke-linejoin="bevel" transform="matrix(1.00313,0,0,1.00313,335.545,452.911)"
font-family="Ubuntu" font-size="11" font-weight="400" font-style="normal" 
>
</g>

<g fill="none" stroke="#000000" stroke-opacity="1" stroke-width="1" stroke-linecap="square" stroke-linejoin="bevel" transform="matrix(1.00313,0,0,1.00313,0,0)"
font-family="Ubuntu" font-size="11" font-weight="400" font-style="normal" 
>
</g>

<g fill="none" stroke="#000000" stroke-opacity="1" stroke-width="1" stroke-linecap="round" stroke-linejoin="round" transform="matrix(1.00313,0,0,1.00313,0,0)"
font-family="Ubuntu" font-size="11" font-weight="400" font-style="normal" 
>
<polyline fill="none" vector-effect="none" points="479.5,432.5 479.5,426.5 " />
<polyline fill="none" vector-effect="none" points="479.5,45.5 479.5,51.5 " />
</g>

<g fill="none" stroke="#000000" stroke-opacity="1" stroke-width="1" stroke-linecap="square" stroke-linejoin="bevel" transform="matrix(1.00313,0,0,1.00313,0,0)"
font-family="Ubuntu" font-size="11" font-weight="400" font-style="normal" 
>
</g>

<g fill="none" stroke="#000000" stroke-opacity="1" stroke-width="1" stroke-linecap="square" stroke-linejoin="bevel" transform="matrix(1.00313,0,0,1.00313,468.961,452.911)"
font-family="Ubuntu" font-size="11" font-weight="400" font-style="normal" 
>
</g>

<g fill="none" stroke="#000000" stroke-opacity="1" stroke-width="1" stroke-linecap="square" stroke-linejoin="bevel" transform="matrix(1.00313,0,0,1.00313,468.961,452.911)"
font-family="Ubuntu" font-size="11" font-weight="400" font-style="normal" 
>
</g>

<g fill="none" stroke="#000000" stroke-opacity="1" stroke-width="1" stroke-linecap="square" stroke-linejoin="bevel" transform="matrix(1.00313,0,0,1.00313,468.961,452.911)"
font-family="Ubuntu" font-size="11" font-weight="400" font-style="normal" 
>
</g>

<g fill="none" stroke="#000000" stroke-opacity="1" stroke-width="1" stroke-linecap="square" stroke-linejoin="bevel" transform="matrix(1.00313,0,0,1.00313,468.961,452.911)"
font-family="Ubuntu" font-size="11" font-weight="400" font-style="normal" 
>
</g>

<g fill="none" stroke="#000000" stroke-opacity="1" stroke-width="1" stroke-linecap="square" stroke-linejoin="bevel" transform="matrix(1.00313,0,0,1.00313,468.961,452.911)"
font-family="Ubuntu" font-size="11" font-weight="400" font-style="normal" 
>
</g>

<g fill="none" stroke="#000000" stroke-opacity="1" stroke-width="1" stroke-linecap="square" stroke-linejoin="bevel" transform="matrix(1.00313,0,0,1.00313,468.961,452.911)"
font-family="Sans" font-size="9" font-weight="400" font-style="normal" 
>
<text fill="#000000" fill-opacity="1" stroke="none" xml:space="preserve" x="0" y="0" font-family="Sans" font-size="9" font-weight="400" font-style="normal" 
 > 0.5</text>
</g>

<g fill="none" stroke="#000000" stroke-opacity="1" stroke-width="1" stroke-linecap="square" stroke-linejoin="bevel" transform="matrix(1.00313,0,0,1.00313,468.961,452.911)"
font-family="Ubuntu" font-size="11" font-weight="400" font-style="normal" 
>
</g>

<g fill="none" stroke="#000000" stroke-opacity="1" stroke-width="1" stroke-linecap="square" stroke-linejoin="bevel" transform="matrix(1.00313,0,0,1.00313,0,0)"
font-family="Ubuntu" font-size="11" font-weight="400" font-style="normal" 
>
</g>

<g fill="none" stroke="#000000" stroke-opacity="1" stroke-width="1" stroke-linecap="round" stroke-linejoin="round" transform="matrix(1.00313,0,0,1.00313,0,0)"
font-family="Ubuntu" font-size="11" font-weight="400" font-style="normal" 
>
<polyline fill="none" vector-effect="none" points="618.5,432.5 618.5,426.5 " />
<polyline fill="none" vector-effect="none" points="618.5,45.5 618.5,51.5 " />
</g>

<g fill="none" stroke="#000000" stroke-opacity="1" stroke-width="1" stroke-linecap="square" stroke-linejoin="bevel" transform="matrix(1.00313,0,0,1.00313,0,0)"
font-family="Ubuntu" font-size="11" font-weight="400" font-style="normal" 
>
</g>

<g fill="none" stroke="#000000" stroke-opacity="1" stroke-width="1" stroke-linecap="square" stroke-linejoin="bevel" transform="matrix(1.00313,0,0,1.00313,615.417,452.911)"
font-family="Ubuntu" font-size="11" font-weight="400" font-style="normal" 
>
</g>

<g fill="none" stroke="#000000" stroke-opacity="1" stroke-width="1" stroke-linecap="square" stroke-linejoin="bevel" transform="matrix(1.00313,0,0,1.00313,615.417,452.911)"
font-family="Ubuntu" font-size="11" font-weight="400" font-style="normal" 
>
</g>

<g fill="none" stroke="#000000" stroke-opacity="1" stroke-width="1" stroke-linecap="square" stroke-linejoin="bevel" transform="matrix(1.00313,0,0,1.00313,615.417,452.911)"
font-family="Ubuntu" font-size="11" font-weight="400" font-style="normal" 
>
</g>

<g fill="none" stroke="#000000" stroke-opacity="1" stroke-width="1" stroke-linecap="square" stroke-linejoin="bevel" transform="matrix(1.00313,0,0,1.00313,615.417,452.911)"
font-family="Ubuntu" font-size="11" font-weight="400" font-style="normal" 
>
</g>

<g fill="none" stroke="#000000" stroke-opacity="1" stroke-width="1" stroke-linecap="square" stroke-linejoin="bevel" transform="matrix(1.00313,0,0,1.00313,615.417,452.911)"
font-family="Ubuntu" font-size="11" font-weight="400" font-style="normal" 
>
</g>

<g fill="none" stroke="#000000" stroke-opacity="1" stroke-width="1" stroke-linecap="square" stroke-linejoin="bevel" transform="matrix(1.00313,0,0,1.00313,615.417,452.911)"
font-family="Sans" font-size="9" font-weight="400" font-style="normal" 
>
<text fill="#000000" fill-opacity="1" stroke="none" xml:space="preserve" x="0" y="0" font-family="Sans" font-size="9" font-weight="400" font-style="normal" 
 > 1</text>
</g>

<g fill="none" stroke="#000000" stroke-opacity="1" stroke-width="1" stroke-linecap="square" stroke-linejoin="bevel" transform="matrix(1.00313,0,0,1.00313,615.417,452.911)"
font-family="Ubuntu" font-size="11" font-weight="400" font-style="normal" 
>
</g>

<g fill="none" stroke="#000000" stroke-opacity="1" stroke-width="1" stroke-linecap="square" stroke-linejoin="bevel" transform="matrix(1.00313,0,0,1.00313,0,0)"
font-family="Ubuntu" font-size="11" font-weight="400" font-style="normal" 
>
</g>

<g fill="none" stroke="#000000" stroke-opacity="1" stroke-width="1" stroke-linecap="round" stroke-linejoin="round" transform="matrix(1.00313,0,0,1.00313,0,0)"
font-family="Ubuntu" font-size="11" font-weight="400" font-style="normal" 
>
<polyline fill="none" vector-effect="none" points="60.5,45.5 60.5,432.5 618.5,432.5 618.5,45.5 60.5,45.5 " />
</g>

<g fill="none" stroke="#000000" stroke-opacity="1" stroke-width="1" stroke-linecap="square" stroke-linejoin="bevel" transform="matrix(1.00313,0,0,1.00313,0,0)"
font-family="Ubuntu" font-size="11" font-weight="400" font-style="normal" 
>
</g>

<g fill="none" stroke="#000000" stroke-opacity="1" stroke-width="1" stroke-linecap="square" stroke-linejoin="bevel" transform="matrix(0,-1.00313,1.00313,0,15.5484,242.255)"
font-family="Ubuntu" font-size="11" font-weight="400" font-style="normal" 
>
</g>

<g fill="none" stroke="#000000" stroke-opacity="1" stroke-width="1" stroke-linecap="square" stroke-linejoin="bevel" transform="matrix(0,-1.00313,1.00313,0,15.5484,242.255)"
font-family="Ubuntu" font-size="11" font-weight="400" font-style="normal" 
>
</g>

<g fill="none" stroke="#000000" stroke-opacity="1" stroke-width="1" stroke-linecap="square" stroke-linejoin="bevel" transform="matrix(0,-1.00313,1.00313,0,15.5484,242.255)"
font-family="Ubuntu" font-size="11" font-weight="400" font-style="normal" 
>
</g>

<g fill="none" stroke="#000000" stroke-opacity="1" stroke-width="1" stroke-linecap="square" stroke-linejoin="bevel" transform="matrix(0,-1.00313,1.00313,0,15.5484,242.255)"
font-family="Ubuntu" font-size="11" font-weight="400" font-style="normal" 
>
</g>

<g fill="none" stroke="#000000" stroke-opacity="1" stroke-width="1" stroke-linecap="square" stroke-linejoin="bevel" transform="matrix(0,-1.00313,1.00313,0,15.5484,242.255)"
font-family="Ubuntu" font-size="11" font-weight="400" font-style="normal" 
>
</g>

<g fill="none" stroke="#000000" stroke-opacity="1" stroke-width="1" stroke-linecap="square" stroke-linejoin="bevel" transform="matrix(0,-1.00313,1.00313,0,15.5484,242.255)"
font-family="Sans" font-size="9" font-weight="400" font-style="normal" 
>
<text fill="#000000" fill-opacity="1" stroke="none" xml:space="preserve" x="0" y="0" font-family="Sans" font-size="9" font-weight="400" font-style="normal" 
 >t</text>
</g>

<g fill="none" stroke="#000000" stroke-opacity="1" stroke-width="1" stroke-linecap="square" stroke-linejoin="bevel" transform="matrix(0,-1.00313,1.00313,0,15.5484,242.255)"
font-family="Ubuntu" font-size="11" font-weight="400" font-style="normal" 
>
</g>

<g fill="none" stroke="#000000" stroke-opacity="1" stroke-width="1" stroke-linecap="square" stroke-linejoin="bevel" transform="matrix(1.00313,0,0,1.00313,338.053,475.983)"
font-family="Ubuntu" font-size="11" font-weight="400" font-style="normal" 
>
</g>

<g fill="none" stroke="#000000" stroke-opacity="1" stroke-width="1" stroke-linecap="square" stroke-linejoin="bevel" transform="matrix(1.00313,0,0,1.00313,338.053,475.983)"
font-family="Ubuntu" font-size="11" font-weight="400" font-style="normal" 
>
</g>

<g fill="none" stroke="#000000" stroke-opacity="1" stroke-width="1" stroke-linecap="square" stroke-linejoin="bevel" transform="matrix(1.00313,0,0,1.00313,338.053,475.983)"
font-family="Ubuntu" font-size="11" font-weight="400" font-style="normal" 
>
</g>

<g fill="none" stroke="#000000" stroke-opacity="1" stroke-width="1" stroke-linecap="square" stroke-linejoin="bevel" transform="matrix(1.00313,0,0,1.00313,338.053,475.983)"
font-family="Ubuntu" font-size="11" font-weight="400" font-style="normal" 
>
</g>

<g fill="none" stroke="#000000" stroke-opacity="1" stroke-width="1" stroke-linecap="square" stroke-linejoin="bevel" transform="matrix(1.00313,0,0,1.00313,338.053,475.983)"
font-family="Ubuntu" font-size="11" font-weight="400" font-style="normal" 
>
</g>

<g fill="none" stroke="#000000" stroke-opacity="1" stroke-width="1" stroke-linecap="square" stroke-linejoin="bevel" transform="matrix(1.00313,0,0,1.00313,338.053,475.983)"
font-family="Sans" font-size="9" font-weight="400" font-style="normal" 
>
<text fill="#000000" fill-opacity="1" stroke="none" xml:space="preserve" x="0" y="0" font-family="Sans" font-size="9" font-weight="400" font-style="normal" 
 >z</text>
</g>

<g fill="none" stroke="#000000" stroke-opacity="1" stroke-width="1" stroke-linecap="square" stroke-linejoin="bevel" transform="matrix(1.00313,0,0,1.00313,338.053,475.983)"
font-family="Ubuntu" font-size="11" font-weight="400" font-style="normal" 
>
</g>

<g fill="none" stroke="#000000" stroke-opacity="1" stroke-width="1" stroke-linecap="square" stroke-linejoin="bevel" transform="matrix(1.00313,0,0,1.00313,319.495,27.5859)"
font-family="Ubuntu" font-size="11" font-weight="400" font-style="normal" 
>
</g>

<g fill="none" stroke="#000000" stroke-opacity="1" stroke-width="1" stroke-linecap="square" stroke-linejoin="bevel" transform="matrix(1.00313,0,0,1.00313,319.495,27.5859)"
font-family="Ubuntu" font-size="11" font-weight="400" font-style="normal" 
>
</g>

<g fill="none" stroke="#000000" stroke-opacity="1" stroke-width="1" stroke-linecap="square" stroke-linejoin="bevel" transform="matrix(1.00313,0,0,1.00313,319.495,27.5859)"
font-family="Ubuntu" font-size="11" font-weight="400" font-style="normal" 
>
</g>

<g fill="none" stroke="#000000" stroke-opacity="1" stroke-width="1" stroke-linecap="square" stroke-linejoin="bevel" transform="matrix(1.00313,0,0,1.00313,319.495,27.5859)"
font-family="Ubuntu" font-size="11" font-weight="400" font-style="normal" 
>
</g>

<g fill="none" stroke="#000000" stroke-opacity="1" stroke-width="1" stroke-linecap="square" stroke-linejoin="bevel" transform="matrix(1.00313,0,0,1.00313,319.495,27.5859)"
font-family="Ubuntu" font-size="11" font-weight="400" font-style="normal" 
>
</g>

<g fill="none" stroke="#000000" stroke-opacity="1" stroke-width="1" stroke-linecap="square" stroke-linejoin="bevel" transform="matrix(1.00313,0,0,1.00313,319.495,27.5859)"
font-family="Sans" font-size="9" font-weight="400" font-style="normal" 
>
<text fill="#000000" fill-opacity="1" stroke="none" xml:space="preserve" x="0" y="0" font-family="Sans" font-size="9" font-weight="400" font-style="normal" 
 >4</text>
<text fill="#000000" fill-opacity="1" stroke="none" xml:space="preserve" x="5.71875" y="0" font-family="Sans" font-size="9" font-weight="400" font-style="normal" 
 >d</text>
<text fill="#000000" fill-opacity="1" stroke="none" xml:space="preserve" x="11.4219" y="0" font-family="Sans" font-size="9" font-weight="400" font-style="normal" 
 > </text>
<text fill="#000000" fill-opacity="1" stroke="none" xml:space="preserve" x="14.2812" y="0" font-family="Sans" font-size="9" font-weight="400" font-style="normal" 
 >loop</text>
</g>

<g fill="none" stroke="#000000" stroke-opacity="1" stroke-width="1" stroke-linecap="square" stroke-linejoin="bevel" transform="matrix(1.00313,0,0,1.00313,319.495,27.5859)"
font-family="Ubuntu" font-size="11" font-weight="400" font-style="normal" 
>
</g>

<g fill="none" stroke="#000000" stroke-opacity="1" stroke-width="1" stroke-linecap="square" stroke-linejoin="bevel" transform="matrix(1.00313,0,0,1.00313,0,0)"
font-family="Ubuntu" font-size="11" font-weight="400" font-style="normal" 
>
</g>

<g fill="none" stroke="#000000" stroke-opacity="1" stroke-width="1" stroke-linecap="square" stroke-linejoin="bevel" transform="matrix(1.00313,0,0,1.00313,0,0)"
font-family="Ubuntu" font-size="11" font-weight="400" font-style="normal" 
>
</g>

<g fill="none" stroke="#000000" stroke-opacity="1" stroke-width="1" stroke-linecap="square" stroke-linejoin="bevel" transform="matrix(1.00313,0,0,1.00313,0,0)"
font-family="Ubuntu" font-size="11" font-weight="400" font-style="normal" 
>
</g>

<g fill="none" stroke="#9400d3" stroke-opacity="1" stroke-width="1" stroke-linecap="round" stroke-linejoin="round" transform="matrix(1.00313,0,0,1.00313,0,0)"
font-family="Ubuntu" font-size="11" font-weight="400" font-style="normal" 
>
<polyline fill="none" vector-effect="none" points="340.8,393.2 340.8,393.2 341.6,393 342.3,392.8 342.9,392.6 343.6,392.4 344.3,392.2 344.9,392 345.5,391.8 346.1,391.5 346.7,391.3 347.3,391 347.8,390.8 348.3,390.5 348.8,390.2 349.2,390 349.6,389.7 350,389.4 350.3,389.1 350.7,388.8 351,388.5 351.2,388.2 351.5,387.9 351.7,387.6 351.8,387.3 352,387 352.2,386.7 352.3,386.4 352.4,386.1 352.5,385.7 352.6,385.4 352.6,385.1 352.7,384.8 352.7,384.5 352.7,384.2 352.8,383.8 352.8,383.5 352.8,383.2 352.8,382.9 352.8,382.6 352.8,382.3 352.8,381.9 352.7,381.6 352.7,381.3 352.7,381 352.7,380.7 352.7,380.4 352.7,380 352.6,379.7 352.6,379.4 352.6,379.1 352.6,378.8 352.6,378.5 352.5,378.1 352.5,377.8 352.5,377.5 352.5,377.2 352.5,376.9 352.5,376.6 352.5,376.2 352.5,375.9 352.5,375.6 352.5,375.3 352.4,375 352.4,374.7 352.4,374.3 352.4,374 352.4,373.7 352.4,373.4 352.4,373.1 352.4,372.8 352.4,372.4 352.4,372.1 352.4,371.8 352.4,371.5 352.4,371.2 352.4,370.9 352.4,370.5 352.4,370.2 352.4,369.9 352.4,369.6 352.4,369.3 352.4,369 352.4,368.6 352.4,368.3 352.5,368 352.5,367.7 352.5,367.4 352.5,367.1 352.5,366.7 352.5,366.4 352.5,366.1 352.5,365.8 352.5,365.5 352.5,365.2 352.5,364.8 352.5,364.5 352.5,364.2 352.5,363.9 352.5,363.6 352.5,363.3 352.5,362.9 352.5,362.6 352.5,362.3 352.5,362 352.5,361.7 352.5,361.4 352.5,361 352.5,360.7 352.5,360.4 352.5,360.1 352.5,359.8 352.5,359.5 352.5,359.1 352.5,358.8 352.5,358.5 352.5,358.2 352.5,357.9 352.5,357.6 352.5,357.2 352.5,356.9 352.5,356.6 352.5,356.3 352.5,356 352.5,355.7 352.5,355.3 352.5,355 352.5,354.7 352.5,354.4 352.5,354.1 352.5,353.8 352.5,353.4 352.5,353.1 352.5,352.8 352.5,352.5 352.5,352.2 352.5,351.9 352.5,351.5 352.5,351.2 352.5,350.9 352.5,350.6 352.5,350.3 352.5,350 352.5,349.6 352.5,349.3 352.5,349 352.5,348.7 352.5,348.4 352.5,348.1 352.5,347.7 352.5,347.4 352.5,347.1 352.5,346.8 352.6,346.5 352.6,346.2 352.6,345.8 352.6,345.5 352.6,345.2 352.6,344.9 352.6,344.6 352.6,344.3 352.6,343.9 352.6,343.6 352.6,343.3 352.6,343 352.6,342.7 352.6,342.4 352.6,342 352.6,341.7 352.6,341.4 352.6,341.1 352.6,340.8 352.6,340.5 352.7,340.1 352.7,339.8 352.7,339.5 352.7,339.2 352.7,338.9 352.7,338.6 352.7,338.2 352.7,337.9 352.7,337.6 352.7,337.3 352.8,337 352.8,336.7 352.8,336.3 352.8,336 352.8,335.7 352.8,335.4 352.8,335.1 352.9,334.8 352.9,334.4 352.9,334.1 352.9,333.8 353,333.5 353,333.2 353,332.9 353,332.5 353.1,332.2 353.1,331.9 353.2,331.6 353.2,331.3 353.2,331 353.3,330.6 353.3,330.3 353.4,330 353.5,329.7 353.5,329.4 353.6,329.1 353.7,328.7 353.8,328.4 353.8,328.1 353.9,327.8 354,327.5 354.1,327.2 354.2,326.8 354.4,326.5 354.5,326.2 354.6,325.9 354.8,325.6 354.9,325.3 355.1,325 355.2,324.7 355.4,324.3 355.6,324 355.8,323.7 356,323.4 356.2,323.1 356.4,322.8 356.6,322.5 356.8,322.2 357.1,321.9 357.3,321.6 357.6,321.3 357.9,321 358.1,320.7 358.4,320.4 358.7,320.1 359,319.8 359.3,319.5 359.6,319.2 360,318.9 360.3,318.6 360.6,318.3 361,318 361.4,317.7 361.7,317.4 362.1,317.1 362.5,316.8 362.8,316.5 363.2,316.2 363.6,315.9 364,315.7 364.4,315.4 364.8,315.1 365.2,314.8 365.6,314.5 366.1,314.2 366.5,314 366.9,313.7 367.3,313.4 367.8,313.1 368.2,312.8 368.6,312.6 369.1,312.3 369.5,312 370,311.7 370.4,311.5 370.9,311.2 371.3,310.9 371.8,310.6 372.2,310.3 372.7,310.1 373.1,309.8 373.6,309.5 374,309.2 374.5,309 375,308.7 375.4,308.4 375.9,308.2 376.3,307.9 376.8,307.6 377.3,307.3 377.7,307.1 378.2,306.8 378.7,306.5 379.1,306.2 379.6,306 380,305.7 380.5,305.4 381,305.1 381.4,304.9 381.9,304.6 382.3,304.3 382.8,304 383.3,303.8 383.7,303.5 384.2,303.2 384.6,303 385.1,302.7 385.5,302.4 386,302.1 386.4,301.9 386.9,301.6 387.3,301.3 387.8,301 388.2,300.7 388.7,300.5 389.1,300.2 389.6,299.9 390,299.6 390.5,299.4 390.9,299.1 391.3,298.8 391.8,298.5 392.2,298.3 392.6,298 393.1,297.7 393.5,297.4 393.9,297.1 394.4,296.9 394.8,296.6 395.2,296.3 395.7,296 396.1,295.7 396.5,295.5 396.9,295.2 397.3,294.9 397.8,294.6 398.2,294.3 398.6,294 399,293.8 399.4,293.5 399.8,293.2 400.2,292.9 400.6,292.6 401,292.3 401.4,292.1 401.8,291.8 402.2,291.5 402.6,291.2 403,290.9 403.4,290.6 403.8,290.4 404.2,290.1 404.6,289.8 405,289.5 405.4,289.2 405.8,288.9 406.1,288.6 406.5,288.3 406.9,288.1 407.3,287.8 407.6,287.5 408,287.2 408.4,286.9 408.8,286.6 409.1,286.3 409.5,286 409.8,285.7 410.2,285.4 410.6,285.2 410.9,284.9 411.3,284.6 411.6,284.3 412,284 412.3,283.7 412.7,283.4 413,283.1 413.4,282.8 413.7,282.5 414,282.2 414.4,281.9 414.7,281.6 415,281.3 415.4,281 415.7,280.7 416,280.5 416.3,280.2 416.7,279.9 417,279.6 417.3,279.3 417.6,279 417.9,278.7 418.2,278.4 418.5,278.1 418.8,277.8 419.1,277.5 419.4,277.2 419.7,276.9 420,276.6 420.3,276.3 420.6,276 420.9,275.7 421.2,275.4 421.5,275.1 421.8,274.8 422.1,274.5 422.3,274.2 422.6,273.9 422.9,273.6 423.2,273.3 423.4,273 423.7,272.7 424,272.4 424.2,272.1 424.5,271.8 424.7,271.5 425,271.1 425.3,270.8 425.5,270.5 425.8,270.2 426,269.9 426.2,269.6 426.5,269.3 426.7,269 427,268.7 427.2,268.4 427.4,268.1 427.7,267.8 427.9,267.5 428.1,267.2 428.3,266.9 428.6,266.6 428.8,266.3 429,265.9 429.2,265.6 429.4,265.3 429.6,265 429.8,264.7 430,264.4 430.2,264.1 430.4,263.8 430.6,263.5 430.8,263.2 431,262.9 431.2,262.6 431.4,262.2 431.6,261.9 431.8,261.6 432,261.3 432.1,261 432.3,260.7 432.5,260.4 432.7,260.1 432.8,259.8 433,259.4 433.1,259.1 433.3,258.8 433.5,258.5 433.6,258.2 433.8,257.9 433.9,257.6 434.1,257.3 434.2,256.9 434.4,256.6 434.5,256.3 434.6,256 434.8,255.7 434.9,255.4 435,255.1 435.2,254.8 435.3,254.4 435.4,254.1 435.5,253.8 435.7,253.5 435.8,253.2 435.9,252.9 436,252.6 436.1,252.2 436.2,251.9 436.3,251.6 436.4,251.3 436.5,251 436.6,250.7 436.7,250.4 436.8,250 436.9,249.7 437,249.4 437.1,249.1 437.1,248.8 437.2,248.5 437.3,248.1 437.4,247.8 437.4,247.5 437.5,247.2 437.6,246.9 437.6,246.6 437.7,246.3 437.8,245.9 437.8,245.6 437.9,245.3 437.9,245 438,244.7 438,244.4 438.1,244 438.1,243.7 438.1,243.4 438.2,243.1 438.2,242.8 438.2,242.5 438.3,242.1 438.3,241.8 438.3,241.5 438.3,241.2 438.4,240.9 438.4,240.6 438.4,240.2 438.4,239.9 438.4,239.6 438.4,239.3 438.4,239 438.4,238.7 438.4,238.3 438.4,238 438.4,237.7 438.4,237.4 438.4,237.1 438.4,236.8 438.3,236.4 438.3,236.1 438.3,235.8 438.3,235.5 438.2,235.2 438.2,234.9 438.2,234.5 438.2,234.2 438.1,233.9 438.1,233.6 438,233.3 438,233 437.9,232.6 437.9,232.3 437.8,232 437.8,231.7 437.7,231.4 437.7,231.1 437.6,230.7 437.5,230.4 437.5,230.1 437.4,229.8 437.3,229.5 437.2,229.2 437.2,228.8 437.1,228.5 437,228.2 436.9,227.9 436.8,227.6 436.7,227.3 436.6,227 436.5,226.6 436.4,226.3 436.3,226 436.2,225.7 436.1,225.4 436,225.1 435.9,224.8 435.8,224.4 435.7,224.1 435.6,223.8 435.5,223.5 435.3,223.2 435.2,222.9 435.1,222.6 434.9,222.2 434.8,221.9 434.7,221.6 434.5,221.3 434.4,221 434.3,220.7 434.1,220.4 434,220.1 433.8,219.7 433.7,219.4 433.5,219.1 433.3,218.8 433.2,218.5 433,218.2 432.9,217.9 432.7,217.6 432.5,217.2 432.3,216.9 432.2,216.6 432,216.3 431.8,216 431.6,215.7 431.4,215.4 431.3,215.1 431.1,214.8 430.9,214.5 430.7,214.1 430.5,213.8 430.3,213.5 430.1,213.2 429.9,212.9 429.7,212.6 429.5,212.3 429.3,212 429,211.7 428.8,211.4 428.6,211.1 428.4,210.7 428.2,210.4 427.9,210.1 427.7,209.8 427.5,209.5 427.2,209.2 427,208.9 426.8,208.6 426.5,208.3 426.3,208 426,207.7 425.8,207.4 425.6,207.1 425.3,206.8 425,206.5 424.8,206.2 424.5,205.9 424.3,205.6 424,205.3 423.7,204.9 423.5,204.6 423.2,204.3 422.9,204 422.7,203.7 422.4,203.4 422.1,203.1 421.8,202.8 421.5,202.5 421.3,202.2 421,201.9 420.7,201.6 420.4,201.3 420.1,201 419.8,200.7 419.5,200.4 419.2,200.1 418.9,199.8 418.6,199.5 418.3,199.2 418,198.9 417.7,198.6 417.3,198.3 417,198 416.7,197.7 416.4,197.5 416.1,197.2 415.7,196.9 415.4,196.6 415.1,196.3 414.8,196 414.4,195.7 414.1,195.4 413.7,195.1 413.4,194.8 413.1,194.5 412.7,194.2 412.4,193.9 412,193.6 411.7,193.3 411.3,193 411,192.7 410.6,192.5 410.3,192.2 409.9,191.9 409.5,191.6 409.2,191.3 408.8,191 408.4,190.7 408.1,190.4 407.7,190.1 407.3,189.8 406.9,189.5 406.6,189.3 406.2,189 405.8,188.7 405.4,188.4 405,188.1 404.7,187.8 404.3,187.5 403.9,187.2 403.5,187 403.1,186.7 402.7,186.4 402.3,186.1 401.9,185.8 401.5,185.5 401.1,185.3 400.7,185 400.3,184.7 399.9,184.4 399.5,184.1 399,183.8 398.6,183.6 398.2,183.3 397.8,183 397.4,182.7 397,182.4 396.5,182.1 396.1,181.9 395.7,181.6 395.3,181.3 394.8,181 394.4,180.7 394,180.5 393.5,180.2 393.1,179.9 392.7,179.6 392.2,179.3 391.8,179.1 391.4,178.8 390.9,178.5 390.5,178.2 390,178 389.6,177.7 389.1,177.4 388.7,177.1 388.2,176.9 387.8,176.6 387.3,176.3 386.9,176 386.4,175.8 386,175.5 385.5,175.2 385.1,174.9 384.6,174.7 384.2,174.4 383.7,174.1 383.2,173.8 382.8,173.6 382.3,173.3 381.9,173 381.4,172.7 380.9,172.5 380.5,172.2 380,171.9 379.5,171.7 379.1,171.4 378.6,171.1 378.1,170.8 377.7,170.6 377.2,170.3 376.7,170 376.3,169.7 375.8,169.5 375.3,169.2 374.9,168.9 374.4,168.7 373.9,168.4 373.5,168.1 373,167.8 372.5,167.6 372.1,167.3 371.6,167 371.2,166.7 370.7,166.5 370.2,166.2 369.8,165.9 369.3,165.7 368.9,165.4 368.4,165.1 368,164.8 367.5,164.5 367.1,164.3 366.6,164 366.2,163.7 365.8,163.4 365.3,163.2 364.9,162.9 364.5,162.6 364.1,162.3 363.7,162 363.2,161.8 362.8,161.5 362.4,161.2 362,160.9 361.6,160.6 361.2,160.3 360.9,160 360.5,159.8 360.1,159.5 359.8,159.2 359.4,158.9 359.1,158.6 358.7,158.3 358.4,158 358.1,157.7 357.7,157.4 357.4,157.1 357.1,156.8 356.8,156.5 356.6,156.2 356.3,155.9 356,155.6 355.8,155.3 355.5,155 355.3,154.7 355,154.4 354.8,154.1 354.6,153.8 354.4,153.5 354.2,153.2 354,152.9 353.9,152.6 353.7,152.2 353.5,151.9 353.4,151.6 353.2,151.3 353.1,151 353,150.7 352.9,150.4 352.7,150.1 352.6,149.7 352.5,149.4 352.4,149.1 352.4,148.8 352.3,148.5 352.2,148.2 352.1,147.9 352.1,147.5 352,147.2 351.9,146.9 351.9,146.6 351.8,146.3 351.8,146 351.7,145.6 351.7,145.3 351.7,145 351.6,144.7 351.6,144.4 351.6,144.1 351.5,143.7 351.5,143.4 351.5,143.1 351.5,142.8 351.4,142.5 351.4,142.2 351.4,141.8 351.4,141.5 351.4,141.2 351.3,140.9 351.3,140.6 351.3,140.3 351.3,139.9 351.3,139.6 351.3,139.3 351.3,139 351.2,138.7 351.2,138.4 351.2,138 351.2,137.7 351.2,137.4 351.2,137.1 351.2,136.8 351.2,136.5 351.2,136.1 351.2,135.8 351.1,135.5 351.1,135.2 351.1,134.9 351.1,134.6 351.1,134.2 351.1,133.9 351.1,133.6 351.1,133.3 351.1,133 351.1,132.7 351.1,132.3 351.1,132 351.1,131.7 351.1,131.4 351,131.1 351,130.8 351,130.4 351,130.1 351,129.8 351,129.5 351,129.2 351,128.9 351,128.5 351,128.2 351,127.9 351,127.6 351,127.3 351,127 351,126.6 351,126.3 350.9,126 350.9,125.7 350.9,125.4 350.9,125.1 350.9,124.7 350.9,124.4 350.9,124.1 350.9,123.8 350.9,123.5 350.9,123.2 350.9,122.8 350.9,122.5 350.9,122.2 350.9,121.9 350.9,121.6 350.9,121.3 350.9,120.9 350.9,120.6 350.9,120.3 350.9,120 350.8,119.7 350.8,119.4 350.8,119 350.8,118.7 350.8,118.4 350.8,118.1 350.8,117.8 350.8,117.5 350.8,117.1 350.8,116.8 350.8,116.5 350.8,116.2 350.8,115.9 350.8,115.6 350.8,115.2 350.8,114.9 350.8,114.6 350.8,114.3 350.8,114 350.7,113.7 350.7,113.3 350.7,113 350.7,112.7 350.7,112.4 350.7,112.1 350.7,111.8 350.7,111.4 350.7,111.1 350.7,110.8 350.7,110.5 350.7,110.2 350.7,109.9 350.7,109.5 350.7,109.2 350.6,108.9 350.6,108.6 350.6,108.3 350.6,108 350.6,107.6 350.6,107.3 350.6,107 350.6,106.7 350.6,106.4 350.6,106.1 350.6,105.7 350.6,105.4 350.6,105.1 350.6,104.8 350.5,104.5 350.5,104.2 350.5,103.8 350.5,103.5 350.5,103.2 350.5,102.9 350.5,102.6 350.5,102.3 350.5,101.9 350.5,101.6 350.5,101.3 350.5,101 350.5,100.7 350.5,100.4 350.5,100 350.5,99.7 350.6,99.4 350.6,99.1 350.6,98.8 350.6,98.5 350.6,98.1 350.6,97.8 350.6,97.5 350.6,97.2 350.6,96.9 350.7,96.6 350.7,96.2 350.7,95.9 350.7,95.6 350.7,95.3 350.7,95 350.7,94.7 350.7,94.3 350.7,94 350.7,93.7 350.7,93.4 350.7,93.1 350.7,92.8 350.6,92.4 350.6,92.1 350.5,91.8 350.5,91.5 350.4,91.2 350.3,90.9 350.2,90.5 350,90.2 349.9,89.9 349.7,89.6 349.5,89.3 349.3,89 349,88.7 348.7,88.4 348.4,88.1 348.1,87.8 347.7,87.5 347.3,87.2 346.9,86.9 346.4,86.6 345.9,86.4 345.4,86.1 344.8,85.9 344.2,85.6 343.6,85.4 343,85.1 342.3,84.9 341.6,84.7 340.9,84.5 340.2,84.3 339.5,84.1 338.8,83.9 338.1,84.1 337.4,84.3 336.7,84.5 336,84.7 335.3,84.9 334.7,85.1 334.1,85.3 333.5,85.6 332.9,85.8 332.3,86.1 331.8,86.3 331.3,86.6 330.8,86.8 330.4,87.1 330,87.4 329.6,87.7 329.3,88 328.9,88.3 328.6,88.6 328.4,88.9 328.1,89.2 327.9,89.5 327.7,89.8 327.6,90.1 327.4,90.4 327.3,90.7 327.2,91 327.1,91.3 327,91.6 327,92 326.9,92.3 326.9,92.6 326.8,92.9 326.8,93.2 326.8,93.5 326.8,93.9 326.8,94.2 326.8,94.5 326.8,94.8 326.8,95.1 326.8,95.4 326.9,95.8 326.9,96.1 326.9,96.4 326.9,96.7 326.9,97 326.9,97.3 327,97.7 327,98 327,98.3 327,98.6 327,98.9 327,99.2 327.1,99.6 327.1,99.9 327.1,100.2 327.1,100.5 327.1,100.8 327.1,101.1 327.1,101.4 327.1,101.8 327.1,102.1 327.1,102.4 327.1,102.7 327.1,103 327.1,103.3 327.1,103.7 327.1,104 327.1,104.3 327.1,104.6 327.1,104.9 327.1,105.2 327.1,105.6 327.1,105.9 327.1,106.2 327.1,106.5 327.1,106.8 327.1,107.1 327.1,107.5 327.1,107.8 327.1,108.1 327.1,108.4 327.1,108.7 327.1,109 327.1,109.4 327.1,109.7 327.1,110 327.1,110.3 327.1,110.6 327.1,110.9 327.1,111.3 327.1,111.6 327.1,111.9 327.1,112.2 327.1,112.5 327.1,112.8 327.1,113.1 327.1,113.5 327.1,113.8 327.1,114.1 327.1,114.4 327.1,114.7 327.1,115 327.1,115.4 327.1,115.7 327.1,116 327.1,116.3 327.1,116.6 327.1,116.9 327.1,117.3 327.1,117.6 327.1,117.9 327.1,118.2 327.1,118.5 327.1,118.8 327.1,119.2 327.1,119.5 327.1,119.8 327.1,120.1 327.1,120.4 327.1,120.7 327.1,121.1 327.1,121.4 327.1,121.7 327.1,122 327.1,122.3 327.1,122.6 327.1,123 327.1,123.3 327.1,123.6 327.1,123.9 327.1,124.2 327.1,124.5 327.1,124.8 327.1,125.2 327.1,125.5 327.1,125.8 327.1,126.1 327.1,126.4 327.1,126.7 327.1,127.1 327.1,127.4 327.1,127.7 327.1,128 327,128.3 327,128.6 327,129 327,129.3 327,129.6 327,129.9 327,130.2 327,130.5 327,130.9 327,131.2 327,131.5 327,131.8 327,132.1 327,132.4 327,132.8 327,133.1 327,133.4 327,133.7 327,134 327,134.3 327,134.6 327,135 327,135.3 327,135.6 326.9,135.9 326.9,136.2 326.9,136.5 326.9,136.9 326.9,137.2 326.9,137.5 326.9,137.8 326.9,138.1 326.9,138.4 326.9,138.8 326.9,139.1 326.9,139.4 326.8,139.7 326.8,140 326.8,140.3 326.8,140.7 326.8,141 326.8,141.3 326.8,141.6 326.7,141.9 326.7,142.2 326.7,142.6 326.7,142.9 326.7,143.2 326.6,143.5 326.6,143.8 326.6,144.1 326.5,144.5 326.5,144.8 326.5,145.1 326.4,145.4 326.4,145.7 326.3,146 326.3,146.3 326.2,146.7 326.2,147 326.1,147.3 326.1,147.6 326,147.9 325.9,148.2 325.8,148.6 325.8,148.9 325.7,149.2 325.6,149.5 325.5,149.8 325.4,150.1 325.3,150.4 325.1,150.8 325,151.1 324.9,151.4 324.7,151.7 324.6,152 324.4,152.3 324.2,152.6 324.1,152.9 323.9,153.3 323.7,153.6 323.5,153.9 323.3,154.2 323.1,154.5 322.8,154.8 322.6,155.1 322.3,155.4 322.1,155.7 321.8,156 321.5,156.3 321.3,156.6 321,156.9 320.7,157.2 320.4,157.5 320,157.8 319.7,158.1 319.4,158.4 319.1,158.7 318.7,159 318.4,159.3 318,159.6 317.6,159.9 317.3,160.2 316.9,160.4 316.5,160.7 316.1,161 315.7,161.3 315.3,161.6 314.9,161.9 314.5,162.2 314.1,162.4 313.7,162.7 313.2,163 312.8,163.3 312.4,163.6 312,163.8 311.5,164.1 311.1,164.4 310.7,164.7 310.2,165 309.8,165.2 309.3,165.5 308.9,165.8 308.4,166.1 308,166.3 307.5,166.6 307.1,166.9 306.6,167.2 306.2,167.4 305.7,167.7 305.2,168 304.8,168.3 304.3,168.5 303.9,168.8 303.4,169.1 302.9,169.3 302.5,169.6 302,169.9 301.5,170.2 301.1,170.4 300.6,170.7 300.2,171 299.7,171.3 299.2,171.5 298.8,171.8 298.3,172.1 297.9,172.3 297.4,172.6 296.9,172.9 296.5,173.2 296,173.4 295.6,173.7 295.1,174 294.7,174.3 294.2,174.5 293.7,174.8 293.3,175.1 292.8,175.4 292.4,175.6 291.9,175.9 291.5,176.2 291,176.5 290.6,176.7 290.1,177 289.7,177.3 289.3,177.6 288.8,177.8 288.4,178.1 287.9,178.4 287.5,178.7 287.1,179 286.6,179.2 286.2,179.5 285.8,179.8 285.3,180.1 284.9,180.3 284.5,180.6 284,180.9 283.6,181.2 283.2,181.5 282.8,181.7 282.4,182 281.9,182.3 281.5,182.6 281.1,182.9 280.7,183.1 280.3,183.4 279.9,183.7 279.5,184 279,184.3 278.6,184.6 278.2,184.8 277.8,185.1 277.4,185.4 277,185.7 276.6,186 276.2,186.3 275.9,186.6 275.5,186.8 275.1,187.1 274.7,187.4 274.3,187.7 273.9,188 273.5,188.3 273.1,188.6 272.8,188.8 272.4,189.1 272,189.4 271.6,189.7 271.3,190 270.9,190.3 270.5,190.6 270.2,190.9 269.8,191.2 269.4,191.4 269.1,191.7 268.7,192 268.4,192.3 268,192.6 267.7,192.9 267.3,193.2 267,193.5 266.6,193.8 266.3,194.1 265.9,194.4 265.6,194.7 265.3,195 264.9,195.2 264.6,195.5 264.3,195.8 263.9,196.1 263.6,196.4 263.3,196.7 263,197 262.6,197.3 262.3,197.6 262,197.9 261.7,198.2 261.4,198.5 261.1,198.8 260.8,199.1 260.5,199.4 260.2,199.7 259.9,200 259.6,200.3 259.3,200.6 259,200.9 258.7,201.2 258.4,201.5 258.1,201.8 257.8,202.1 257.5,202.4 257.3,202.7 257,203 256.7,203.3 256.4,203.6 256.2,203.9 255.9,204.2 255.6,204.5 255.3,204.8 255.1,205.1 254.8,205.4 254.6,205.7 254.3,206 254.1,206.3 253.8,206.6 253.6,206.9 253.3,207.2 253.1,207.5 252.8,207.8 252.6,208.1 252.3,208.4 252.1,208.7 251.9,209.1 251.7,209.4 251.4,209.7 251.2,210 251,210.3 250.8,210.6 250.5,210.9 250.3,211.2 250.1,211.5 249.9,211.8 249.7,212.1 249.5,212.4 249.3,212.7 249.1,213 248.9,213.4 248.7,213.7 248.5,214 248.3,214.3 248.1,214.6 247.9,214.9 247.7,215.2 247.5,215.5 247.4,215.8 247.2,216.1 247,216.4 246.8,216.8 246.7,217.1 246.5,217.4 246.3,217.7 246.2,218 246,218.3 245.9,218.6 245.7,218.9 245.5,219.2 245.4,219.6 245.2,219.9 245.1,220.2 245,220.5 244.8,220.8 244.7,221.1 244.5,221.4 244.4,221.7 244.3,222.1 244.1,222.4 244,222.7 243.9,223 243.8,223.3 243.7,223.6 243.5,223.9 243.4,224.3 243.3,224.6 243.2,224.9 243.1,225.2 243,225.5 242.9,225.8 242.8,226.1 242.7,226.5 242.6,226.8 242.5,227.1 242.4,227.4 242.3,227.7 242.3,228 242.2,228.3 242.1,228.7 242,229 242,229.3 241.9,229.6 241.8,229.9 241.7,230.2 241.7,230.5 241.6,230.9 241.6,231.2 241.5,231.5 241.5,231.8 241.4,232.1 241.4,232.4 241.3,232.8 241.3,233.1 241.2,233.4 241.2,233.7 241.2,234 241.1,234.3 241.1,234.7 241.1,235 241,235.3 241,235.6 241,235.9 241,236.2 241,236.5 240.9,236.9 240.9,237.2 240.9,237.5 240.9,237.8 240.9,238.1 240.9,238.4 240.9,238.8 240.9,239.1 240.9,239.4 240.9,239.7 241,240 241,240.3 241,240.7 241,241 241,241.3 241.1,241.6 241.1,241.9 241.1,242.2 241.1,242.6 241.2,242.9 241.2,243.2 241.3,243.5 241.3,243.8 241.3,244.1 241.4,244.4 241.4,244.8 241.5,245.1 241.6,245.4 241.6,245.7 241.7,246 241.7,246.3 241.8,246.7 241.9,247 241.9,247.3 242,247.6 242.1,247.9 242.2,248.2 242.2,248.5 242.3,248.9 242.4,249.2 242.5,249.5 242.6,249.8 242.7,250.1 242.8,250.4 242.9,250.8 243,251.1 243.1,251.4 243.2,251.7 243.3,252 243.4,252.3 243.5,252.6 243.6,252.9 243.8,253.3 243.9,253.6 244,253.9 244.1,254.2 244.2,254.5 244.4,254.8 244.5,255.1 244.6,255.5 244.8,255.8 244.9,256.1 245.1,256.4 245.2,256.7 245.4,257 245.5,257.3 245.7,257.6 245.8,258 246,258.3 246.1,258.6 246.3,258.9 246.5,259.2 246.6,259.5 246.8,259.8 247,260.1 247.1,260.4 247.3,260.7 247.5,261.1 247.7,261.4 247.9,261.7 248.1,262 248.2,262.3 248.4,262.6 248.6,262.9 248.8,263.2 249,263.5 249.2,263.8 249.4,264.2 249.6,264.5 249.9,264.8 250.1,265.1 250.3,265.4 250.5,265.7 250.7,266 250.9,266.3 251.2,266.6 251.4,266.9 251.6,267.2 251.8,267.5 252.1,267.8 252.3,268.1 252.5,268.4 252.8,268.8 253,269.1 253.3,269.4 253.5,269.7 253.8,270 254,270.3 254.3,270.6 254.5,270.9 254.8,271.2 255,271.5 255.3,271.8 255.6,272.1 255.8,272.4 256.1,272.7 256.4,273 256.6,273.3 256.9,273.6 257.2,273.9 257.5,274.2 257.8,274.5 258,274.8 258.3,275.1 258.6,275.4 258.9,275.7 259.2,276 259.5,276.3 259.8,276.6 260.1,276.9 260.4,277.2 260.7,277.5 261,277.8 261.3,278.1 261.6,278.4 262,278.7 262.3,279 262.6,279.3 262.9,279.6 263.2,279.9 263.6,280.2 263.9,280.5 264.2,280.8 264.5,281.1 264.9,281.3 265.2,281.6 265.5,281.9 265.9,282.2 266.2,282.5 266.6,282.8 266.9,283.1 267.3,283.4 267.6,283.7 268,284 268.3,284.3 268.7,284.6 269,284.9 269.4,285.2 269.8,285.4 270.1,285.7 270.5,286 270.9,286.3 271.2,286.6 271.6,286.9 272,287.2 272.3,287.5 272.7,287.8 273.1,288 273.5,288.3 273.9,288.6 274.2,288.9 274.6,289.2 275,289.5 275.4,289.8 275.8,290 276.2,290.3 276.6,290.6 277,290.9 277.4,291.2 277.8,291.5 278.2,291.8 278.6,292 279,292.3 279.4,292.6 279.8,292.9 280.2,293.2 280.6,293.5 281.1,293.7 281.5,294 281.9,294.3 282.3,294.6 282.7,294.9 283.2,295.1 283.6,295.4 284,295.7 284.4,296 284.9,296.3 285.3,296.5 285.7,296.8 286.2,297.1 286.6,297.4 287,297.6 287.5,297.9 287.9,298.2 288.4,298.5 288.8,298.8 289.2,299 289.7,299.3 290.1,299.6 290.6,299.9 291,300.1 291.5,300.4 291.9,300.7 292.4,301 292.8,301.2 293.3,301.5 293.7,301.8 294.2,302.1 294.7,302.3 295.1,302.6 295.6,302.9 296,303.1 296.5,303.4 297,303.7 297.4,304 297.9,304.2 298.3,304.5 298.8,304.8 299.3,305.1 299.7,305.3 300.2,305.6 300.7,305.9 301.1,306.1 301.6,306.4 302.1,306.7 302.5,307 303,307.2 303.5,307.5 303.9,307.8 304.4,308 304.9,308.3 305.3,308.6 305.8,308.9 306.3,309.1 306.7,309.4 307.2,309.7 307.7,309.9 308.1,310.2 308.6,310.5 309,310.8 309.5,311 310,311.3 310.4,311.6 310.9,311.9 311.3,312.1 311.8,312.4 312.2,312.7 312.6,313 313.1,313.2 313.5,313.5 314,313.8 314.4,314.1 314.8,314.3 315.2,314.6 315.7,314.9 316.1,315.2 316.5,315.5 316.9,315.8 317.3,316 317.7,316.3 318.1,316.6 318.5,316.9 318.8,317.2 319.2,317.5 319.6,317.8 319.9,318 320.3,318.3 320.6,318.6 321,318.9 321.3,319.2 321.6,319.5 322,319.8 322.3,320.1 322.6,320.4 322.8,320.7 323.1,321 323.4,321.3 323.7,321.6 323.9,321.9 324.2,322.2 324.4,322.5 324.6,322.8 324.8,323.1 325,323.4 325.2,323.7 325.4,324.1 325.6,324.4 325.8,324.7 325.9,325 326.1,325.3 326.3,325.6 326.4,325.9 326.5,326.2 326.6,326.5 326.8,326.9 326.9,327.2 327,327.5 327.1,327.8 327.2,328.1 327.3,328.4 327.3,328.7 327.4,329.1 327.5,329.4 327.5,329.7 327.6,330 327.7,330.3 327.7,330.6 327.8,330.9 327.8,331.3 327.9,331.6 327.9,331.9 327.9,332.2 328,332.5 328,332.8 328,333.2 328.1,333.5 328.1,333.8 328.1,334.1 328.1,334.4 328.2,334.7 328.2,335 328.2,335.4 328.2,335.7 328.2,336 328.2,336.3 328.3,336.6 328.3,336.9 328.3,337.3 328.3,337.6 328.3,337.9 328.3,338.2 328.3,338.5 328.3,338.8 328.4,339.2 328.4,339.5 328.4,339.8 328.4,340.1 328.4,340.4 328.4,340.7 328.4,341.1 328.4,341.4 328.4,341.7 328.4,342 328.4,342.3 328.5,342.6 328.5,343 328.5,343.3 328.5,343.6 328.5,343.9 328.5,344.2 328.5,344.5 328.5,344.8 328.5,345.2 328.5,345.5 328.5,345.8 328.5,346.1 328.5,346.4 328.5,346.7 328.6,347.1 328.6,347.4 328.6,347.7 328.6,348 328.6,348.3 328.6,348.6 328.6,349 328.6,349.3 328.6,349.6 328.6,349.9 328.6,350.2 328.6,350.5 328.6,350.9 328.6,351.2 328.6,351.5 328.6,351.8 328.6,352.1 328.7,352.4 328.7,352.8 328.7,353.1 328.7,353.4 328.7,353.7 328.7,354 328.7,354.3 328.7,354.6 328.7,355 328.7,355.3 328.7,355.6 328.7,355.9 328.7,356.2 328.7,356.5 328.7,356.9 328.7,357.2 328.7,357.5 328.7,357.8 328.7,358.1 328.7,358.4 328.8,358.8 328.8,359.1 328.8,359.4 328.8,359.7 328.8,360 328.8,360.3 328.8,360.7 328.8,361 328.8,361.3 328.8,361.6 328.8,361.9 328.8,362.2 328.8,362.6 328.8,362.9 328.8,363.2 328.8,363.5 328.8,363.8 328.8,364.1 328.9,364.5 328.9,364.8 328.9,365.1 328.9,365.4 328.9,365.7 328.9,366 328.9,366.3 328.9,366.7 328.9,367 328.9,367.3 328.9,367.6 328.9,367.9 328.9,368.2 328.9,368.6 328.9,368.9 329,369.2 329,369.5 329,369.8 329,370.1 329,370.5 329,370.8 329,371.1 329,371.4 329,371.7 329,372 329,372.4 329,372.7 329,373 329,373.3 329,373.6 329,373.9 329,374.3 329.1,374.6 329.1,374.9 329.1,375.2 329.1,375.5 329.1,375.8 329,376.1 329,376.5 329,376.8 329,377.1 329,377.4 329,377.7 329,378 329,378.4 329,378.7 329,379 329,379.3 329,379.6 328.9,379.9 328.9,380.3 328.9,380.6 328.9,380.9 328.9,381.2 328.9,381.5 328.9,381.8 328.9,382.1 328.9,382.5 328.9,382.8 328.9,383.1 328.9,383.4 328.9,383.7 328.9,384 328.9,384.4 329,384.7 329,385 329.1,385.3 329.1,385.6 329.2,385.9 329.3,386.3 329.4,386.6 329.6,386.9 329.7,387.2 329.9,387.5 330.1,387.8 330.3,388.1 330.6,388.4 330.9,388.7 331.2,389 331.5,389.3 331.9,389.6 332.3,389.9 332.7,390.2 333.2,390.5 333.7,390.7 334.2,391 334.8,391.3 335.4,391.5 336,391.7 336.6,392 337.3,392.2 338,392.4 338.7,392.6 339.4,392.8 340.1,393 " />
</g>

<g fill="none" stroke="#000000" stroke-opacity="1" stroke-width="1" stroke-linecap="square" stroke-linejoin="bevel" transform="matrix(1.00313,0,0,1.00313,0,0)"
font-family="Ubuntu" font-size="11" font-weight="400" font-style="normal" 
>
</g>

<g fill="none" stroke="#000000" stroke-opacity="1" stroke-width="1" stroke-linecap="square" stroke-linejoin="bevel" transform="matrix(1.00313,0,0,1.00313,0,0)"
font-family="Ubuntu" font-size="11" font-weight="400" font-style="normal" 
>
</g>

<g fill="none" stroke="#000000" stroke-opacity="1" stroke-width="1" stroke-linecap="round" stroke-linejoin="round" transform="matrix(1.00313,0,0,1.00313,0,0)"
font-family="Ubuntu" font-size="11" font-weight="400" font-style="normal" 
>
<polyline fill="none" vector-effect="none" points="60.5,45.5 60.5,432.5 618.5,432.5 618.5,45.5 60.5,45.5 " />
</g>

<g fill="none" stroke="#000000" stroke-opacity="1" stroke-width="1" stroke-linecap="square" stroke-linejoin="bevel" transform="matrix(1.00313,0,0,1.00313,0,0)"
font-family="Ubuntu" font-size="11" font-weight="400" font-style="normal" 
>
</g>

<g fill="none" stroke="#000000" stroke-opacity="1" stroke-width="1" stroke-linecap="square" stroke-linejoin="bevel" transform="matrix(1,0,0,1,0,0)"
font-family="Ubuntu" font-size="11" font-weight="400" font-style="normal" 
>
</g>
</g>
</svg>
