<?xml version="1.0" encoding="UTF-8" standalone="no"?>
<svg width="226.483mm" height="170.039mm"
 viewBox="0 0 642 482"
 xmlns="http://www.w3.org/2000/svg" xmlns:xlink="http://www.w3.org/1999/xlink"  version="1.2" baseProfile="tiny">
<title>Qt SVG Document</title>
<desc>Generated with Qt</desc>
<defs>
</defs>
<g fill="none" stroke="black" stroke-width="1" fill-rule="evenodd" stroke-linecap="square" stroke-linejoin="bevel" >

<g fill="none" stroke="#000000" stroke-opacity="1" stroke-width="1" stroke-linecap="square" stroke-linejoin="bevel" transform="matrix(1,0,0,1,0,0)"
font-family="Ubuntu" font-size="11" font-weight="400" font-style="normal" 
>
</g>

<g fill="none" stroke="#000000" stroke-opacity="1" stroke-width="1" stroke-linecap="square" stroke-linejoin="bevel" transform="matrix(1.00313,0,0,1.00313,0,0)"
font-family="Ubuntu" font-size="11" font-weight="400" font-style="normal" 
>
</g>

<g fill="none" stroke="#000000" stroke-opacity="1" stroke-width="1" stroke-linecap="round" stroke-linejoin="round" transform="matrix(1.00313,0,0,1.00313,0,0)"
font-family="Ubuntu" font-size="11" font-weight="400" font-style="normal" 
>
<polyline fill="none" vector-effect="none" points="60.5,432.5 66.5,432.5 " />
<polyline fill="none" vector-effect="none" points="618.5,432.5 612.5,432.5 " />
</g>

<g fill="none" stroke="#000000" stroke-opacity="1" stroke-width="1" stroke-linecap="square" stroke-linejoin="bevel" transform="matrix(1.00313,0,0,1.00313,0,0)"
font-family="Ubuntu" font-size="11" font-weight="400" font-style="normal" 
>
</g>

<g fill="none" stroke="#000000" stroke-opacity="1" stroke-width="1" stroke-linecap="square" stroke-linejoin="bevel" transform="matrix(1.00313,0,0,1.00313,43.1344,437.864)"
font-family="Ubuntu" font-size="11" font-weight="400" font-style="normal" 
>
</g>

<g fill="none" stroke="#000000" stroke-opacity="1" stroke-width="1" stroke-linecap="square" stroke-linejoin="bevel" transform="matrix(1.00313,0,0,1.00313,43.1344,437.864)"
font-family="Ubuntu" font-size="11" font-weight="400" font-style="normal" 
>
</g>

<g fill="none" stroke="#000000" stroke-opacity="1" stroke-width="1" stroke-linecap="square" stroke-linejoin="bevel" transform="matrix(1.00313,0,0,1.00313,43.1344,437.864)"
font-family="Ubuntu" font-size="11" font-weight="400" font-style="normal" 
>
</g>

<g fill="none" stroke="#000000" stroke-opacity="1" stroke-width="1" stroke-linecap="square" stroke-linejoin="bevel" transform="matrix(1.00313,0,0,1.00313,43.1344,437.864)"
font-family="Ubuntu" font-size="11" font-weight="400" font-style="normal" 
>
</g>

<g fill="none" stroke="#000000" stroke-opacity="1" stroke-width="1" stroke-linecap="square" stroke-linejoin="bevel" transform="matrix(1.00313,0,0,1.00313,43.1344,437.864)"
font-family="Ubuntu" font-size="11" font-weight="400" font-style="normal" 
>
</g>

<g fill="none" stroke="#000000" stroke-opacity="1" stroke-width="1" stroke-linecap="square" stroke-linejoin="bevel" transform="matrix(1.00313,0,0,1.00313,43.1344,437.864)"
font-family="Sans" font-size="9" font-weight="400" font-style="normal" 
>
<text fill="#000000" fill-opacity="1" stroke="none" xml:space="preserve" x="0" y="0" font-family="Sans" font-size="9" font-weight="400" font-style="normal" 
 >-2</text>
</g>

<g fill="none" stroke="#000000" stroke-opacity="1" stroke-width="1" stroke-linecap="square" stroke-linejoin="bevel" transform="matrix(1.00313,0,0,1.00313,43.1344,437.864)"
font-family="Ubuntu" font-size="11" font-weight="400" font-style="normal" 
>
</g>

<g fill="none" stroke="#000000" stroke-opacity="1" stroke-width="1" stroke-linecap="square" stroke-linejoin="bevel" transform="matrix(1.00313,0,0,1.00313,0,0)"
font-family="Ubuntu" font-size="11" font-weight="400" font-style="normal" 
>
</g>

<g fill="none" stroke="#000000" stroke-opacity="1" stroke-width="1" stroke-linecap="round" stroke-linejoin="round" transform="matrix(1.00313,0,0,1.00313,0,0)"
font-family="Ubuntu" font-size="11" font-weight="400" font-style="normal" 
>
<polyline fill="none" vector-effect="none" points="60.5,383.5 66.5,383.5 " />
<polyline fill="none" vector-effect="none" points="618.5,383.5 612.5,383.5 " />
</g>

<g fill="none" stroke="#000000" stroke-opacity="1" stroke-width="1" stroke-linecap="square" stroke-linejoin="bevel" transform="matrix(1.00313,0,0,1.00313,0,0)"
font-family="Ubuntu" font-size="11" font-weight="400" font-style="normal" 
>
</g>

<g fill="none" stroke="#000000" stroke-opacity="1" stroke-width="1" stroke-linecap="square" stroke-linejoin="bevel" transform="matrix(1.00313,0,0,1.00313,31.0969,389.714)"
font-family="Ubuntu" font-size="11" font-weight="400" font-style="normal" 
>
</g>

<g fill="none" stroke="#000000" stroke-opacity="1" stroke-width="1" stroke-linecap="square" stroke-linejoin="bevel" transform="matrix(1.00313,0,0,1.00313,31.0969,389.714)"
font-family="Ubuntu" font-size="11" font-weight="400" font-style="normal" 
>
</g>

<g fill="none" stroke="#000000" stroke-opacity="1" stroke-width="1" stroke-linecap="square" stroke-linejoin="bevel" transform="matrix(1.00313,0,0,1.00313,31.0969,389.714)"
font-family="Ubuntu" font-size="11" font-weight="400" font-style="normal" 
>
</g>

<g fill="none" stroke="#000000" stroke-opacity="1" stroke-width="1" stroke-linecap="square" stroke-linejoin="bevel" transform="matrix(1.00313,0,0,1.00313,31.0969,389.714)"
font-family="Ubuntu" font-size="11" font-weight="400" font-style="normal" 
>
</g>

<g fill="none" stroke="#000000" stroke-opacity="1" stroke-width="1" stroke-linecap="square" stroke-linejoin="bevel" transform="matrix(1.00313,0,0,1.00313,31.0969,389.714)"
font-family="Ubuntu" font-size="11" font-weight="400" font-style="normal" 
>
</g>

<g fill="none" stroke="#000000" stroke-opacity="1" stroke-width="1" stroke-linecap="square" stroke-linejoin="bevel" transform="matrix(1.00313,0,0,1.00313,31.0969,389.714)"
font-family="Sans" font-size="9" font-weight="400" font-style="normal" 
>
<text fill="#000000" fill-opacity="1" stroke="none" xml:space="preserve" x="0" y="0" font-family="Sans" font-size="9" font-weight="400" font-style="normal" 
 >-1.5</text>
</g>

<g fill="none" stroke="#000000" stroke-opacity="1" stroke-width="1" stroke-linecap="square" stroke-linejoin="bevel" transform="matrix(1.00313,0,0,1.00313,31.0969,389.714)"
font-family="Ubuntu" font-size="11" font-weight="400" font-style="normal" 
>
</g>

<g fill="none" stroke="#000000" stroke-opacity="1" stroke-width="1" stroke-linecap="square" stroke-linejoin="bevel" transform="matrix(1.00313,0,0,1.00313,0,0)"
font-family="Ubuntu" font-size="11" font-weight="400" font-style="normal" 
>
</g>

<g fill="none" stroke="#000000" stroke-opacity="1" stroke-width="1" stroke-linecap="round" stroke-linejoin="round" transform="matrix(1.00313,0,0,1.00313,0,0)"
font-family="Ubuntu" font-size="11" font-weight="400" font-style="normal" 
>
<polyline fill="none" vector-effect="none" points="60.5,335.5 66.5,335.5 " />
<polyline fill="none" vector-effect="none" points="618.5,335.5 612.5,335.5 " />
</g>

<g fill="none" stroke="#000000" stroke-opacity="1" stroke-width="1" stroke-linecap="square" stroke-linejoin="bevel" transform="matrix(1.00313,0,0,1.00313,0,0)"
font-family="Ubuntu" font-size="11" font-weight="400" font-style="normal" 
>
</g>

<g fill="none" stroke="#000000" stroke-opacity="1" stroke-width="1" stroke-linecap="square" stroke-linejoin="bevel" transform="matrix(1.00313,0,0,1.00313,43.1344,340.561)"
font-family="Ubuntu" font-size="11" font-weight="400" font-style="normal" 
>
</g>

<g fill="none" stroke="#000000" stroke-opacity="1" stroke-width="1" stroke-linecap="square" stroke-linejoin="bevel" transform="matrix(1.00313,0,0,1.00313,43.1344,340.561)"
font-family="Ubuntu" font-size="11" font-weight="400" font-style="normal" 
>
</g>

<g fill="none" stroke="#000000" stroke-opacity="1" stroke-width="1" stroke-linecap="square" stroke-linejoin="bevel" transform="matrix(1.00313,0,0,1.00313,43.1344,340.561)"
font-family="Ubuntu" font-size="11" font-weight="400" font-style="normal" 
>
</g>

<g fill="none" stroke="#000000" stroke-opacity="1" stroke-width="1" stroke-linecap="square" stroke-linejoin="bevel" transform="matrix(1.00313,0,0,1.00313,43.1344,340.561)"
font-family="Ubuntu" font-size="11" font-weight="400" font-style="normal" 
>
</g>

<g fill="none" stroke="#000000" stroke-opacity="1" stroke-width="1" stroke-linecap="square" stroke-linejoin="bevel" transform="matrix(1.00313,0,0,1.00313,43.1344,340.561)"
font-family="Ubuntu" font-size="11" font-weight="400" font-style="normal" 
>
</g>

<g fill="none" stroke="#000000" stroke-opacity="1" stroke-width="1" stroke-linecap="square" stroke-linejoin="bevel" transform="matrix(1.00313,0,0,1.00313,43.1344,340.561)"
font-family="Sans" font-size="9" font-weight="400" font-style="normal" 
>
<text fill="#000000" fill-opacity="1" stroke="none" xml:space="preserve" x="0" y="0" font-family="Sans" font-size="9" font-weight="400" font-style="normal" 
 >-1</text>
</g>

<g fill="none" stroke="#000000" stroke-opacity="1" stroke-width="1" stroke-linecap="square" stroke-linejoin="bevel" transform="matrix(1.00313,0,0,1.00313,43.1344,340.561)"
font-family="Ubuntu" font-size="11" font-weight="400" font-style="normal" 
>
</g>

<g fill="none" stroke="#000000" stroke-opacity="1" stroke-width="1" stroke-linecap="square" stroke-linejoin="bevel" transform="matrix(1.00313,0,0,1.00313,0,0)"
font-family="Ubuntu" font-size="11" font-weight="400" font-style="normal" 
>
</g>

<g fill="none" stroke="#000000" stroke-opacity="1" stroke-width="1" stroke-linecap="round" stroke-linejoin="round" transform="matrix(1.00313,0,0,1.00313,0,0)"
font-family="Ubuntu" font-size="11" font-weight="400" font-style="normal" 
>
<polyline fill="none" vector-effect="none" points="60.5,286.5 66.5,286.5 " />
<polyline fill="none" vector-effect="none" points="618.5,286.5 612.5,286.5 " />
</g>

<g fill="none" stroke="#000000" stroke-opacity="1" stroke-width="1" stroke-linecap="square" stroke-linejoin="bevel" transform="matrix(1.00313,0,0,1.00313,0,0)"
font-family="Ubuntu" font-size="11" font-weight="400" font-style="normal" 
>
</g>

<g fill="none" stroke="#000000" stroke-opacity="1" stroke-width="1" stroke-linecap="square" stroke-linejoin="bevel" transform="matrix(1.00313,0,0,1.00313,31.0969,292.411)"
font-family="Ubuntu" font-size="11" font-weight="400" font-style="normal" 
>
</g>

<g fill="none" stroke="#000000" stroke-opacity="1" stroke-width="1" stroke-linecap="square" stroke-linejoin="bevel" transform="matrix(1.00313,0,0,1.00313,31.0969,292.411)"
font-family="Ubuntu" font-size="11" font-weight="400" font-style="normal" 
>
</g>

<g fill="none" stroke="#000000" stroke-opacity="1" stroke-width="1" stroke-linecap="square" stroke-linejoin="bevel" transform="matrix(1.00313,0,0,1.00313,31.0969,292.411)"
font-family="Ubuntu" font-size="11" font-weight="400" font-style="normal" 
>
</g>

<g fill="none" stroke="#000000" stroke-opacity="1" stroke-width="1" stroke-linecap="square" stroke-linejoin="bevel" transform="matrix(1.00313,0,0,1.00313,31.0969,292.411)"
font-family="Ubuntu" font-size="11" font-weight="400" font-style="normal" 
>
</g>

<g fill="none" stroke="#000000" stroke-opacity="1" stroke-width="1" stroke-linecap="square" stroke-linejoin="bevel" transform="matrix(1.00313,0,0,1.00313,31.0969,292.411)"
font-family="Ubuntu" font-size="11" font-weight="400" font-style="normal" 
>
</g>

<g fill="none" stroke="#000000" stroke-opacity="1" stroke-width="1" stroke-linecap="square" stroke-linejoin="bevel" transform="matrix(1.00313,0,0,1.00313,31.0969,292.411)"
font-family="Sans" font-size="9" font-weight="400" font-style="normal" 
>
<text fill="#000000" fill-opacity="1" stroke="none" xml:space="preserve" x="0" y="0" font-family="Sans" font-size="9" font-weight="400" font-style="normal" 
 >-0.5</text>
</g>

<g fill="none" stroke="#000000" stroke-opacity="1" stroke-width="1" stroke-linecap="square" stroke-linejoin="bevel" transform="matrix(1.00313,0,0,1.00313,31.0969,292.411)"
font-family="Ubuntu" font-size="11" font-weight="400" font-style="normal" 
>
</g>

<g fill="none" stroke="#000000" stroke-opacity="1" stroke-width="1" stroke-linecap="square" stroke-linejoin="bevel" transform="matrix(1.00313,0,0,1.00313,0,0)"
font-family="Ubuntu" font-size="11" font-weight="400" font-style="normal" 
>
</g>

<g fill="none" stroke="#000000" stroke-opacity="1" stroke-width="1" stroke-linecap="round" stroke-linejoin="round" transform="matrix(1.00313,0,0,1.00313,0,0)"
font-family="Ubuntu" font-size="11" font-weight="400" font-style="normal" 
>
<polyline fill="none" vector-effect="none" points="60.5,238.5 66.5,238.5 " />
<polyline fill="none" vector-effect="none" points="618.5,238.5 612.5,238.5 " />
</g>

<g fill="none" stroke="#000000" stroke-opacity="1" stroke-width="1" stroke-linecap="square" stroke-linejoin="bevel" transform="matrix(1.00313,0,0,1.00313,0,0)"
font-family="Ubuntu" font-size="11" font-weight="400" font-style="normal" 
>
</g>

<g fill="none" stroke="#000000" stroke-opacity="1" stroke-width="1" stroke-linecap="square" stroke-linejoin="bevel" transform="matrix(1.00313,0,0,1.00313,43.1344,244.261)"
font-family="Ubuntu" font-size="11" font-weight="400" font-style="normal" 
>
</g>

<g fill="none" stroke="#000000" stroke-opacity="1" stroke-width="1" stroke-linecap="square" stroke-linejoin="bevel" transform="matrix(1.00313,0,0,1.00313,43.1344,244.261)"
font-family="Ubuntu" font-size="11" font-weight="400" font-style="normal" 
>
</g>

<g fill="none" stroke="#000000" stroke-opacity="1" stroke-width="1" stroke-linecap="square" stroke-linejoin="bevel" transform="matrix(1.00313,0,0,1.00313,43.1344,244.261)"
font-family="Ubuntu" font-size="11" font-weight="400" font-style="normal" 
>
</g>

<g fill="none" stroke="#000000" stroke-opacity="1" stroke-width="1" stroke-linecap="square" stroke-linejoin="bevel" transform="matrix(1.00313,0,0,1.00313,43.1344,244.261)"
font-family="Ubuntu" font-size="11" font-weight="400" font-style="normal" 
>
</g>

<g fill="none" stroke="#000000" stroke-opacity="1" stroke-width="1" stroke-linecap="square" stroke-linejoin="bevel" transform="matrix(1.00313,0,0,1.00313,43.1344,244.261)"
font-family="Ubuntu" font-size="11" font-weight="400" font-style="normal" 
>
</g>

<g fill="none" stroke="#000000" stroke-opacity="1" stroke-width="1" stroke-linecap="square" stroke-linejoin="bevel" transform="matrix(1.00313,0,0,1.00313,43.1344,244.261)"
font-family="Sans" font-size="9" font-weight="400" font-style="normal" 
>
<text fill="#000000" fill-opacity="1" stroke="none" xml:space="preserve" x="0" y="0" font-family="Sans" font-size="9" font-weight="400" font-style="normal" 
 > 0</text>
</g>

<g fill="none" stroke="#000000" stroke-opacity="1" stroke-width="1" stroke-linecap="square" stroke-linejoin="bevel" transform="matrix(1.00313,0,0,1.00313,43.1344,244.261)"
font-family="Ubuntu" font-size="11" font-weight="400" font-style="normal" 
>
</g>

<g fill="none" stroke="#000000" stroke-opacity="1" stroke-width="1" stroke-linecap="square" stroke-linejoin="bevel" transform="matrix(1.00313,0,0,1.00313,0,0)"
font-family="Ubuntu" font-size="11" font-weight="400" font-style="normal" 
>
</g>

<g fill="none" stroke="#000000" stroke-opacity="1" stroke-width="1" stroke-linecap="round" stroke-linejoin="round" transform="matrix(1.00313,0,0,1.00313,0,0)"
font-family="Ubuntu" font-size="11" font-weight="400" font-style="normal" 
>
<polyline fill="none" vector-effect="none" points="60.5,190.5 66.5,190.5 " />
<polyline fill="none" vector-effect="none" points="618.5,190.5 612.5,190.5 " />
</g>

<g fill="none" stroke="#000000" stroke-opacity="1" stroke-width="1" stroke-linecap="square" stroke-linejoin="bevel" transform="matrix(1.00313,0,0,1.00313,0,0)"
font-family="Ubuntu" font-size="11" font-weight="400" font-style="normal" 
>
</g>

<g fill="none" stroke="#000000" stroke-opacity="1" stroke-width="1" stroke-linecap="square" stroke-linejoin="bevel" transform="matrix(1.00313,0,0,1.00313,31.0969,195.108)"
font-family="Ubuntu" font-size="11" font-weight="400" font-style="normal" 
>
</g>

<g fill="none" stroke="#000000" stroke-opacity="1" stroke-width="1" stroke-linecap="square" stroke-linejoin="bevel" transform="matrix(1.00313,0,0,1.00313,31.0969,195.108)"
font-family="Ubuntu" font-size="11" font-weight="400" font-style="normal" 
>
</g>

<g fill="none" stroke="#000000" stroke-opacity="1" stroke-width="1" stroke-linecap="square" stroke-linejoin="bevel" transform="matrix(1.00313,0,0,1.00313,31.0969,195.108)"
font-family="Ubuntu" font-size="11" font-weight="400" font-style="normal" 
>
</g>

<g fill="none" stroke="#000000" stroke-opacity="1" stroke-width="1" stroke-linecap="square" stroke-linejoin="bevel" transform="matrix(1.00313,0,0,1.00313,31.0969,195.108)"
font-family="Ubuntu" font-size="11" font-weight="400" font-style="normal" 
>
</g>

<g fill="none" stroke="#000000" stroke-opacity="1" stroke-width="1" stroke-linecap="square" stroke-linejoin="bevel" transform="matrix(1.00313,0,0,1.00313,31.0969,195.108)"
font-family="Ubuntu" font-size="11" font-weight="400" font-style="normal" 
>
</g>

<g fill="none" stroke="#000000" stroke-opacity="1" stroke-width="1" stroke-linecap="square" stroke-linejoin="bevel" transform="matrix(1.00313,0,0,1.00313,31.0969,195.108)"
font-family="Sans" font-size="9" font-weight="400" font-style="normal" 
>
<text fill="#000000" fill-opacity="1" stroke="none" xml:space="preserve" x="0" y="0" font-family="Sans" font-size="9" font-weight="400" font-style="normal" 
 > 0.5</text>
</g>

<g fill="none" stroke="#000000" stroke-opacity="1" stroke-width="1" stroke-linecap="square" stroke-linejoin="bevel" transform="matrix(1.00313,0,0,1.00313,31.0969,195.108)"
font-family="Ubuntu" font-size="11" font-weight="400" font-style="normal" 
>
</g>

<g fill="none" stroke="#000000" stroke-opacity="1" stroke-width="1" stroke-linecap="square" stroke-linejoin="bevel" transform="matrix(1.00313,0,0,1.00313,0,0)"
font-family="Ubuntu" font-size="11" font-weight="400" font-style="normal" 
>
</g>

<g fill="none" stroke="#000000" stroke-opacity="1" stroke-width="1" stroke-linecap="round" stroke-linejoin="round" transform="matrix(1.00313,0,0,1.00313,0,0)"
font-family="Ubuntu" font-size="11" font-weight="400" font-style="normal" 
>
<polyline fill="none" vector-effect="none" points="60.5,141.5 66.5,141.5 " />
<polyline fill="none" vector-effect="none" points="618.5,141.5 612.5,141.5 " />
</g>

<g fill="none" stroke="#000000" stroke-opacity="1" stroke-width="1" stroke-linecap="square" stroke-linejoin="bevel" transform="matrix(1.00313,0,0,1.00313,0,0)"
font-family="Ubuntu" font-size="11" font-weight="400" font-style="normal" 
>
</g>

<g fill="none" stroke="#000000" stroke-opacity="1" stroke-width="1" stroke-linecap="square" stroke-linejoin="bevel" transform="matrix(1.00313,0,0,1.00313,43.1344,146.958)"
font-family="Ubuntu" font-size="11" font-weight="400" font-style="normal" 
>
</g>

<g fill="none" stroke="#000000" stroke-opacity="1" stroke-width="1" stroke-linecap="square" stroke-linejoin="bevel" transform="matrix(1.00313,0,0,1.00313,43.1344,146.958)"
font-family="Ubuntu" font-size="11" font-weight="400" font-style="normal" 
>
</g>

<g fill="none" stroke="#000000" stroke-opacity="1" stroke-width="1" stroke-linecap="square" stroke-linejoin="bevel" transform="matrix(1.00313,0,0,1.00313,43.1344,146.958)"
font-family="Ubuntu" font-size="11" font-weight="400" font-style="normal" 
>
</g>

<g fill="none" stroke="#000000" stroke-opacity="1" stroke-width="1" stroke-linecap="square" stroke-linejoin="bevel" transform="matrix(1.00313,0,0,1.00313,43.1344,146.958)"
font-family="Ubuntu" font-size="11" font-weight="400" font-style="normal" 
>
</g>

<g fill="none" stroke="#000000" stroke-opacity="1" stroke-width="1" stroke-linecap="square" stroke-linejoin="bevel" transform="matrix(1.00313,0,0,1.00313,43.1344,146.958)"
font-family="Ubuntu" font-size="11" font-weight="400" font-style="normal" 
>
</g>

<g fill="none" stroke="#000000" stroke-opacity="1" stroke-width="1" stroke-linecap="square" stroke-linejoin="bevel" transform="matrix(1.00313,0,0,1.00313,43.1344,146.958)"
font-family="Sans" font-size="9" font-weight="400" font-style="normal" 
>
<text fill="#000000" fill-opacity="1" stroke="none" xml:space="preserve" x="0" y="0" font-family="Sans" font-size="9" font-weight="400" font-style="normal" 
 > 1</text>
</g>

<g fill="none" stroke="#000000" stroke-opacity="1" stroke-width="1" stroke-linecap="square" stroke-linejoin="bevel" transform="matrix(1.00313,0,0,1.00313,43.1344,146.958)"
font-family="Ubuntu" font-size="11" font-weight="400" font-style="normal" 
>
</g>

<g fill="none" stroke="#000000" stroke-opacity="1" stroke-width="1" stroke-linecap="square" stroke-linejoin="bevel" transform="matrix(1.00313,0,0,1.00313,0,0)"
font-family="Ubuntu" font-size="11" font-weight="400" font-style="normal" 
>
</g>

<g fill="none" stroke="#000000" stroke-opacity="1" stroke-width="1" stroke-linecap="round" stroke-linejoin="round" transform="matrix(1.00313,0,0,1.00313,0,0)"
font-family="Ubuntu" font-size="11" font-weight="400" font-style="normal" 
>
<polyline fill="none" vector-effect="none" points="60.5,93.5 66.5,93.5 " />
<polyline fill="none" vector-effect="none" points="618.5,93.5 612.5,93.5 " />
</g>

<g fill="none" stroke="#000000" stroke-opacity="1" stroke-width="1" stroke-linecap="square" stroke-linejoin="bevel" transform="matrix(1.00313,0,0,1.00313,0,0)"
font-family="Ubuntu" font-size="11" font-weight="400" font-style="normal" 
>
</g>

<g fill="none" stroke="#000000" stroke-opacity="1" stroke-width="1" stroke-linecap="square" stroke-linejoin="bevel" transform="matrix(1.00313,0,0,1.00313,31.0969,98.8078)"
font-family="Ubuntu" font-size="11" font-weight="400" font-style="normal" 
>
</g>

<g fill="none" stroke="#000000" stroke-opacity="1" stroke-width="1" stroke-linecap="square" stroke-linejoin="bevel" transform="matrix(1.00313,0,0,1.00313,31.0969,98.8078)"
font-family="Ubuntu" font-size="11" font-weight="400" font-style="normal" 
>
</g>

<g fill="none" stroke="#000000" stroke-opacity="1" stroke-width="1" stroke-linecap="square" stroke-linejoin="bevel" transform="matrix(1.00313,0,0,1.00313,31.0969,98.8078)"
font-family="Ubuntu" font-size="11" font-weight="400" font-style="normal" 
>
</g>

<g fill="none" stroke="#000000" stroke-opacity="1" stroke-width="1" stroke-linecap="square" stroke-linejoin="bevel" transform="matrix(1.00313,0,0,1.00313,31.0969,98.8078)"
font-family="Ubuntu" font-size="11" font-weight="400" font-style="normal" 
>
</g>

<g fill="none" stroke="#000000" stroke-opacity="1" stroke-width="1" stroke-linecap="square" stroke-linejoin="bevel" transform="matrix(1.00313,0,0,1.00313,31.0969,98.8078)"
font-family="Ubuntu" font-size="11" font-weight="400" font-style="normal" 
>
</g>

<g fill="none" stroke="#000000" stroke-opacity="1" stroke-width="1" stroke-linecap="square" stroke-linejoin="bevel" transform="matrix(1.00313,0,0,1.00313,31.0969,98.8078)"
font-family="Sans" font-size="9" font-weight="400" font-style="normal" 
>
<text fill="#000000" fill-opacity="1" stroke="none" xml:space="preserve" x="0" y="0" font-family="Sans" font-size="9" font-weight="400" font-style="normal" 
 > 1.5</text>
</g>

<g fill="none" stroke="#000000" stroke-opacity="1" stroke-width="1" stroke-linecap="square" stroke-linejoin="bevel" transform="matrix(1.00313,0,0,1.00313,31.0969,98.8078)"
font-family="Ubuntu" font-size="11" font-weight="400" font-style="normal" 
>
</g>

<g fill="none" stroke="#000000" stroke-opacity="1" stroke-width="1" stroke-linecap="square" stroke-linejoin="bevel" transform="matrix(1.00313,0,0,1.00313,0,0)"
font-family="Ubuntu" font-size="11" font-weight="400" font-style="normal" 
>
</g>

<g fill="none" stroke="#000000" stroke-opacity="1" stroke-width="1" stroke-linecap="round" stroke-linejoin="round" transform="matrix(1.00313,0,0,1.00313,0,0)"
font-family="Ubuntu" font-size="11" font-weight="400" font-style="normal" 
>
<polyline fill="none" vector-effect="none" points="60.5,45.5 66.5,45.5 " />
<polyline fill="none" vector-effect="none" points="618.5,45.5 612.5,45.5 " />
</g>

<g fill="none" stroke="#000000" stroke-opacity="1" stroke-width="1" stroke-linecap="square" stroke-linejoin="bevel" transform="matrix(1.00313,0,0,1.00313,0,0)"
font-family="Ubuntu" font-size="11" font-weight="400" font-style="normal" 
>
</g>

<g fill="none" stroke="#000000" stroke-opacity="1" stroke-width="1" stroke-linecap="square" stroke-linejoin="bevel" transform="matrix(1.00313,0,0,1.00313,43.1344,49.6547)"
font-family="Ubuntu" font-size="11" font-weight="400" font-style="normal" 
>
</g>

<g fill="none" stroke="#000000" stroke-opacity="1" stroke-width="1" stroke-linecap="square" stroke-linejoin="bevel" transform="matrix(1.00313,0,0,1.00313,43.1344,49.6547)"
font-family="Ubuntu" font-size="11" font-weight="400" font-style="normal" 
>
</g>

<g fill="none" stroke="#000000" stroke-opacity="1" stroke-width="1" stroke-linecap="square" stroke-linejoin="bevel" transform="matrix(1.00313,0,0,1.00313,43.1344,49.6547)"
font-family="Ubuntu" font-size="11" font-weight="400" font-style="normal" 
>
</g>

<g fill="none" stroke="#000000" stroke-opacity="1" stroke-width="1" stroke-linecap="square" stroke-linejoin="bevel" transform="matrix(1.00313,0,0,1.00313,43.1344,49.6547)"
font-family="Ubuntu" font-size="11" font-weight="400" font-style="normal" 
>
</g>

<g fill="none" stroke="#000000" stroke-opacity="1" stroke-width="1" stroke-linecap="square" stroke-linejoin="bevel" transform="matrix(1.00313,0,0,1.00313,43.1344,49.6547)"
font-family="Ubuntu" font-size="11" font-weight="400" font-style="normal" 
>
</g>

<g fill="none" stroke="#000000" stroke-opacity="1" stroke-width="1" stroke-linecap="square" stroke-linejoin="bevel" transform="matrix(1.00313,0,0,1.00313,43.1344,49.6547)"
font-family="Sans" font-size="9" font-weight="400" font-style="normal" 
>
<text fill="#000000" fill-opacity="1" stroke="none" xml:space="preserve" x="0" y="0" font-family="Sans" font-size="9" font-weight="400" font-style="normal" 
 > 2</text>
</g>

<g fill="none" stroke="#000000" stroke-opacity="1" stroke-width="1" stroke-linecap="square" stroke-linejoin="bevel" transform="matrix(1.00313,0,0,1.00313,43.1344,49.6547)"
font-family="Ubuntu" font-size="11" font-weight="400" font-style="normal" 
>
</g>

<g fill="none" stroke="#000000" stroke-opacity="1" stroke-width="1" stroke-linecap="square" stroke-linejoin="bevel" transform="matrix(1.00313,0,0,1.00313,0,0)"
font-family="Ubuntu" font-size="11" font-weight="400" font-style="normal" 
>
</g>

<g fill="none" stroke="#000000" stroke-opacity="1" stroke-width="1" stroke-linecap="round" stroke-linejoin="round" transform="matrix(1.00313,0,0,1.00313,0,0)"
font-family="Ubuntu" font-size="11" font-weight="400" font-style="normal" 
>
<polyline fill="none" vector-effect="none" points="60.5,432.5 60.5,426.5 " />
<polyline fill="none" vector-effect="none" points="60.5,45.5 60.5,51.5 " />
</g>

<g fill="none" stroke="#000000" stroke-opacity="1" stroke-width="1" stroke-linecap="square" stroke-linejoin="bevel" transform="matrix(1.00313,0,0,1.00313,0,0)"
font-family="Ubuntu" font-size="11" font-weight="400" font-style="normal" 
>
</g>

<g fill="none" stroke="#000000" stroke-opacity="1" stroke-width="1" stroke-linecap="square" stroke-linejoin="bevel" transform="matrix(1.00313,0,0,1.00313,55.6734,452.911)"
font-family="Ubuntu" font-size="11" font-weight="400" font-style="normal" 
>
</g>

<g fill="none" stroke="#000000" stroke-opacity="1" stroke-width="1" stroke-linecap="square" stroke-linejoin="bevel" transform="matrix(1.00313,0,0,1.00313,55.6734,452.911)"
font-family="Ubuntu" font-size="11" font-weight="400" font-style="normal" 
>
</g>

<g fill="none" stroke="#000000" stroke-opacity="1" stroke-width="1" stroke-linecap="square" stroke-linejoin="bevel" transform="matrix(1.00313,0,0,1.00313,55.6734,452.911)"
font-family="Ubuntu" font-size="11" font-weight="400" font-style="normal" 
>
</g>

<g fill="none" stroke="#000000" stroke-opacity="1" stroke-width="1" stroke-linecap="square" stroke-linejoin="bevel" transform="matrix(1.00313,0,0,1.00313,55.6734,452.911)"
font-family="Ubuntu" font-size="11" font-weight="400" font-style="normal" 
>
</g>

<g fill="none" stroke="#000000" stroke-opacity="1" stroke-width="1" stroke-linecap="square" stroke-linejoin="bevel" transform="matrix(1.00313,0,0,1.00313,55.6734,452.911)"
font-family="Ubuntu" font-size="11" font-weight="400" font-style="normal" 
>
</g>

<g fill="none" stroke="#000000" stroke-opacity="1" stroke-width="1" stroke-linecap="square" stroke-linejoin="bevel" transform="matrix(1.00313,0,0,1.00313,55.6734,452.911)"
font-family="Sans" font-size="9" font-weight="400" font-style="normal" 
>
<text fill="#000000" fill-opacity="1" stroke="none" xml:space="preserve" x="0" y="0" font-family="Sans" font-size="9" font-weight="400" font-style="normal" 
 >-1</text>
</g>

<g fill="none" stroke="#000000" stroke-opacity="1" stroke-width="1" stroke-linecap="square" stroke-linejoin="bevel" transform="matrix(1.00313,0,0,1.00313,55.6734,452.911)"
font-family="Ubuntu" font-size="11" font-weight="400" font-style="normal" 
>
</g>

<g fill="none" stroke="#000000" stroke-opacity="1" stroke-width="1" stroke-linecap="square" stroke-linejoin="bevel" transform="matrix(1.00313,0,0,1.00313,0,0)"
font-family="Ubuntu" font-size="11" font-weight="400" font-style="normal" 
>
</g>

<g fill="none" stroke="#000000" stroke-opacity="1" stroke-width="1" stroke-linecap="round" stroke-linejoin="round" transform="matrix(1.00313,0,0,1.00313,0,0)"
font-family="Ubuntu" font-size="11" font-weight="400" font-style="normal" 
>
<polyline fill="none" vector-effect="none" points="200.5,432.5 200.5,426.5 " />
<polyline fill="none" vector-effect="none" points="200.5,45.5 200.5,51.5 " />
</g>

<g fill="none" stroke="#000000" stroke-opacity="1" stroke-width="1" stroke-linecap="square" stroke-linejoin="bevel" transform="matrix(1.00313,0,0,1.00313,0,0)"
font-family="Ubuntu" font-size="11" font-weight="400" font-style="normal" 
>
</g>

<g fill="none" stroke="#000000" stroke-opacity="1" stroke-width="1" stroke-linecap="square" stroke-linejoin="bevel" transform="matrix(1.00313,0,0,1.00313,189.089,452.911)"
font-family="Ubuntu" font-size="11" font-weight="400" font-style="normal" 
>
</g>

<g fill="none" stroke="#000000" stroke-opacity="1" stroke-width="1" stroke-linecap="square" stroke-linejoin="bevel" transform="matrix(1.00313,0,0,1.00313,189.089,452.911)"
font-family="Ubuntu" font-size="11" font-weight="400" font-style="normal" 
>
</g>

<g fill="none" stroke="#000000" stroke-opacity="1" stroke-width="1" stroke-linecap="square" stroke-linejoin="bevel" transform="matrix(1.00313,0,0,1.00313,189.089,452.911)"
font-family="Ubuntu" font-size="11" font-weight="400" font-style="normal" 
>
</g>

<g fill="none" stroke="#000000" stroke-opacity="1" stroke-width="1" stroke-linecap="square" stroke-linejoin="bevel" transform="matrix(1.00313,0,0,1.00313,189.089,452.911)"
font-family="Ubuntu" font-size="11" font-weight="400" font-style="normal" 
>
</g>

<g fill="none" stroke="#000000" stroke-opacity="1" stroke-width="1" stroke-linecap="square" stroke-linejoin="bevel" transform="matrix(1.00313,0,0,1.00313,189.089,452.911)"
font-family="Ubuntu" font-size="11" font-weight="400" font-style="normal" 
>
</g>

<g fill="none" stroke="#000000" stroke-opacity="1" stroke-width="1" stroke-linecap="square" stroke-linejoin="bevel" transform="matrix(1.00313,0,0,1.00313,189.089,452.911)"
font-family="Sans" font-size="9" font-weight="400" font-style="normal" 
>
<text fill="#000000" fill-opacity="1" stroke="none" xml:space="preserve" x="0" y="0" font-family="Sans" font-size="9" font-weight="400" font-style="normal" 
 >-0.5</text>
</g>

<g fill="none" stroke="#000000" stroke-opacity="1" stroke-width="1" stroke-linecap="square" stroke-linejoin="bevel" transform="matrix(1.00313,0,0,1.00313,189.089,452.911)"
font-family="Ubuntu" font-size="11" font-weight="400" font-style="normal" 
>
</g>

<g fill="none" stroke="#000000" stroke-opacity="1" stroke-width="1" stroke-linecap="square" stroke-linejoin="bevel" transform="matrix(1.00313,0,0,1.00313,0,0)"
font-family="Ubuntu" font-size="11" font-weight="400" font-style="normal" 
>
</g>

<g fill="none" stroke="#000000" stroke-opacity="1" stroke-width="1" stroke-linecap="round" stroke-linejoin="round" transform="matrix(1.00313,0,0,1.00313,0,0)"
font-family="Ubuntu" font-size="11" font-weight="400" font-style="normal" 
>
<polyline fill="none" vector-effect="none" points="339.5,432.5 339.5,426.5 " />
<polyline fill="none" vector-effect="none" points="339.5,45.5 339.5,51.5 " />
</g>

<g fill="none" stroke="#000000" stroke-opacity="1" stroke-width="1" stroke-linecap="square" stroke-linejoin="bevel" transform="matrix(1.00313,0,0,1.00313,0,0)"
font-family="Ubuntu" font-size="11" font-weight="400" font-style="normal" 
>
</g>

<g fill="none" stroke="#000000" stroke-opacity="1" stroke-width="1" stroke-linecap="square" stroke-linejoin="bevel" transform="matrix(1.00313,0,0,1.00313,335.545,452.911)"
font-family="Ubuntu" font-size="11" font-weight="400" font-style="normal" 
>
</g>

<g fill="none" stroke="#000000" stroke-opacity="1" stroke-width="1" stroke-linecap="square" stroke-linejoin="bevel" transform="matrix(1.00313,0,0,1.00313,335.545,452.911)"
font-family="Ubuntu" font-size="11" font-weight="400" font-style="normal" 
>
</g>

<g fill="none" stroke="#000000" stroke-opacity="1" stroke-width="1" stroke-linecap="square" stroke-linejoin="bevel" transform="matrix(1.00313,0,0,1.00313,335.545,452.911)"
font-family="Ubuntu" font-size="11" font-weight="400" font-style="normal" 
>
</g>

<g fill="none" stroke="#000000" stroke-opacity="1" stroke-width="1" stroke-linecap="square" stroke-linejoin="bevel" transform="matrix(1.00313,0,0,1.00313,335.545,452.911)"
font-family="Ubuntu" font-size="11" font-weight="400" font-style="normal" 
>
</g>

<g fill="none" stroke="#000000" stroke-opacity="1" stroke-width="1" stroke-linecap="square" stroke-linejoin="bevel" transform="matrix(1.00313,0,0,1.00313,335.545,452.911)"
font-family="Ubuntu" font-size="11" font-weight="400" font-style="normal" 
>
</g>

<g fill="none" stroke="#000000" stroke-opacity="1" stroke-width="1" stroke-linecap="square" stroke-linejoin="bevel" transform="matrix(1.00313,0,0,1.00313,335.545,452.911)"
font-family="Sans" font-size="9" font-weight="400" font-style="normal" 
>
<text fill="#000000" fill-opacity="1" stroke="none" xml:space="preserve" x="0" y="0" font-family="Sans" font-size="9" font-weight="400" font-style="normal" 
 > 0</text>
</g>

<g fill="none" stroke="#000000" stroke-opacity="1" stroke-width="1" stroke-linecap="square" stroke-linejoin="bevel" transform="matrix(1.00313,0,0,1.00313,335.545,452.911)"
font-family="Ubuntu" font-size="11" font-weight="400" font-style="normal" 
>
</g>

<g fill="none" stroke="#000000" stroke-opacity="1" stroke-width="1" stroke-linecap="square" stroke-linejoin="bevel" transform="matrix(1.00313,0,0,1.00313,0,0)"
font-family="Ubuntu" font-size="11" font-weight="400" font-style="normal" 
>
</g>

<g fill="none" stroke="#000000" stroke-opacity="1" stroke-width="1" stroke-linecap="round" stroke-linejoin="round" transform="matrix(1.00313,0,0,1.00313,0,0)"
font-family="Ubuntu" font-size="11" font-weight="400" font-style="normal" 
>
<polyline fill="none" vector-effect="none" points="479.5,432.5 479.5,426.5 " />
<polyline fill="none" vector-effect="none" points="479.5,45.5 479.5,51.5 " />
</g>

<g fill="none" stroke="#000000" stroke-opacity="1" stroke-width="1" stroke-linecap="square" stroke-linejoin="bevel" transform="matrix(1.00313,0,0,1.00313,0,0)"
font-family="Ubuntu" font-size="11" font-weight="400" font-style="normal" 
>
</g>

<g fill="none" stroke="#000000" stroke-opacity="1" stroke-width="1" stroke-linecap="square" stroke-linejoin="bevel" transform="matrix(1.00313,0,0,1.00313,468.961,452.911)"
font-family="Ubuntu" font-size="11" font-weight="400" font-style="normal" 
>
</g>

<g fill="none" stroke="#000000" stroke-opacity="1" stroke-width="1" stroke-linecap="square" stroke-linejoin="bevel" transform="matrix(1.00313,0,0,1.00313,468.961,452.911)"
font-family="Ubuntu" font-size="11" font-weight="400" font-style="normal" 
>
</g>

<g fill="none" stroke="#000000" stroke-opacity="1" stroke-width="1" stroke-linecap="square" stroke-linejoin="bevel" transform="matrix(1.00313,0,0,1.00313,468.961,452.911)"
font-family="Ubuntu" font-size="11" font-weight="400" font-style="normal" 
>
</g>

<g fill="none" stroke="#000000" stroke-opacity="1" stroke-width="1" stroke-linecap="square" stroke-linejoin="bevel" transform="matrix(1.00313,0,0,1.00313,468.961,452.911)"
font-family="Ubuntu" font-size="11" font-weight="400" font-style="normal" 
>
</g>

<g fill="none" stroke="#000000" stroke-opacity="1" stroke-width="1" stroke-linecap="square" stroke-linejoin="bevel" transform="matrix(1.00313,0,0,1.00313,468.961,452.911)"
font-family="Ubuntu" font-size="11" font-weight="400" font-style="normal" 
>
</g>

<g fill="none" stroke="#000000" stroke-opacity="1" stroke-width="1" stroke-linecap="square" stroke-linejoin="bevel" transform="matrix(1.00313,0,0,1.00313,468.961,452.911)"
font-family="Sans" font-size="9" font-weight="400" font-style="normal" 
>
<text fill="#000000" fill-opacity="1" stroke="none" xml:space="preserve" x="0" y="0" font-family="Sans" font-size="9" font-weight="400" font-style="normal" 
 > 0.5</text>
</g>

<g fill="none" stroke="#000000" stroke-opacity="1" stroke-width="1" stroke-linecap="square" stroke-linejoin="bevel" transform="matrix(1.00313,0,0,1.00313,468.961,452.911)"
font-family="Ubuntu" font-size="11" font-weight="400" font-style="normal" 
>
</g>

<g fill="none" stroke="#000000" stroke-opacity="1" stroke-width="1" stroke-linecap="square" stroke-linejoin="bevel" transform="matrix(1.00313,0,0,1.00313,0,0)"
font-family="Ubuntu" font-size="11" font-weight="400" font-style="normal" 
>
</g>

<g fill="none" stroke="#000000" stroke-opacity="1" stroke-width="1" stroke-linecap="round" stroke-linejoin="round" transform="matrix(1.00313,0,0,1.00313,0,0)"
font-family="Ubuntu" font-size="11" font-weight="400" font-style="normal" 
>
<polyline fill="none" vector-effect="none" points="618.5,432.5 618.5,426.5 " />
<polyline fill="none" vector-effect="none" points="618.5,45.5 618.5,51.5 " />
</g>

<g fill="none" stroke="#000000" stroke-opacity="1" stroke-width="1" stroke-linecap="square" stroke-linejoin="bevel" transform="matrix(1.00313,0,0,1.00313,0,0)"
font-family="Ubuntu" font-size="11" font-weight="400" font-style="normal" 
>
</g>

<g fill="none" stroke="#000000" stroke-opacity="1" stroke-width="1" stroke-linecap="square" stroke-linejoin="bevel" transform="matrix(1.00313,0,0,1.00313,615.417,452.911)"
font-family="Ubuntu" font-size="11" font-weight="400" font-style="normal" 
>
</g>

<g fill="none" stroke="#000000" stroke-opacity="1" stroke-width="1" stroke-linecap="square" stroke-linejoin="bevel" transform="matrix(1.00313,0,0,1.00313,615.417,452.911)"
font-family="Ubuntu" font-size="11" font-weight="400" font-style="normal" 
>
</g>

<g fill="none" stroke="#000000" stroke-opacity="1" stroke-width="1" stroke-linecap="square" stroke-linejoin="bevel" transform="matrix(1.00313,0,0,1.00313,615.417,452.911)"
font-family="Ubuntu" font-size="11" font-weight="400" font-style="normal" 
>
</g>

<g fill="none" stroke="#000000" stroke-opacity="1" stroke-width="1" stroke-linecap="square" stroke-linejoin="bevel" transform="matrix(1.00313,0,0,1.00313,615.417,452.911)"
font-family="Ubuntu" font-size="11" font-weight="400" font-style="normal" 
>
</g>

<g fill="none" stroke="#000000" stroke-opacity="1" stroke-width="1" stroke-linecap="square" stroke-linejoin="bevel" transform="matrix(1.00313,0,0,1.00313,615.417,452.911)"
font-family="Ubuntu" font-size="11" font-weight="400" font-style="normal" 
>
</g>

<g fill="none" stroke="#000000" stroke-opacity="1" stroke-width="1" stroke-linecap="square" stroke-linejoin="bevel" transform="matrix(1.00313,0,0,1.00313,615.417,452.911)"
font-family="Sans" font-size="9" font-weight="400" font-style="normal" 
>
<text fill="#000000" fill-opacity="1" stroke="none" xml:space="preserve" x="0" y="0" font-family="Sans" font-size="9" font-weight="400" font-style="normal" 
 > 1</text>
</g>

<g fill="none" stroke="#000000" stroke-opacity="1" stroke-width="1" stroke-linecap="square" stroke-linejoin="bevel" transform="matrix(1.00313,0,0,1.00313,615.417,452.911)"
font-family="Ubuntu" font-size="11" font-weight="400" font-style="normal" 
>
</g>

<g fill="none" stroke="#000000" stroke-opacity="1" stroke-width="1" stroke-linecap="square" stroke-linejoin="bevel" transform="matrix(1.00313,0,0,1.00313,0,0)"
font-family="Ubuntu" font-size="11" font-weight="400" font-style="normal" 
>
</g>

<g fill="none" stroke="#000000" stroke-opacity="1" stroke-width="1" stroke-linecap="round" stroke-linejoin="round" transform="matrix(1.00313,0,0,1.00313,0,0)"
font-family="Ubuntu" font-size="11" font-weight="400" font-style="normal" 
>
<polyline fill="none" vector-effect="none" points="60.5,45.5 60.5,432.5 618.5,432.5 618.5,45.5 60.5,45.5 " />
</g>

<g fill="none" stroke="#000000" stroke-opacity="1" stroke-width="1" stroke-linecap="square" stroke-linejoin="bevel" transform="matrix(1.00313,0,0,1.00313,0,0)"
font-family="Ubuntu" font-size="11" font-weight="400" font-style="normal" 
>
</g>

<g fill="none" stroke="#000000" stroke-opacity="1" stroke-width="1" stroke-linecap="square" stroke-linejoin="bevel" transform="matrix(0,-1.00313,1.00313,0,15.5484,242.255)"
font-family="Ubuntu" font-size="11" font-weight="400" font-style="normal" 
>
</g>

<g fill="none" stroke="#000000" stroke-opacity="1" stroke-width="1" stroke-linecap="square" stroke-linejoin="bevel" transform="matrix(0,-1.00313,1.00313,0,15.5484,242.255)"
font-family="Ubuntu" font-size="11" font-weight="400" font-style="normal" 
>
</g>

<g fill="none" stroke="#000000" stroke-opacity="1" stroke-width="1" stroke-linecap="square" stroke-linejoin="bevel" transform="matrix(0,-1.00313,1.00313,0,15.5484,242.255)"
font-family="Ubuntu" font-size="11" font-weight="400" font-style="normal" 
>
</g>

<g fill="none" stroke="#000000" stroke-opacity="1" stroke-width="1" stroke-linecap="square" stroke-linejoin="bevel" transform="matrix(0,-1.00313,1.00313,0,15.5484,242.255)"
font-family="Ubuntu" font-size="11" font-weight="400" font-style="normal" 
>
</g>

<g fill="none" stroke="#000000" stroke-opacity="1" stroke-width="1" stroke-linecap="square" stroke-linejoin="bevel" transform="matrix(0,-1.00313,1.00313,0,15.5484,242.255)"
font-family="Ubuntu" font-size="11" font-weight="400" font-style="normal" 
>
</g>

<g fill="none" stroke="#000000" stroke-opacity="1" stroke-width="1" stroke-linecap="square" stroke-linejoin="bevel" transform="matrix(0,-1.00313,1.00313,0,15.5484,242.255)"
font-family="Sans" font-size="9" font-weight="400" font-style="normal" 
>
<text fill="#000000" fill-opacity="1" stroke="none" xml:space="preserve" x="0" y="0" font-family="Sans" font-size="9" font-weight="400" font-style="normal" 
 >t</text>
</g>

<g fill="none" stroke="#000000" stroke-opacity="1" stroke-width="1" stroke-linecap="square" stroke-linejoin="bevel" transform="matrix(0,-1.00313,1.00313,0,15.5484,242.255)"
font-family="Ubuntu" font-size="11" font-weight="400" font-style="normal" 
>
</g>

<g fill="none" stroke="#000000" stroke-opacity="1" stroke-width="1" stroke-linecap="square" stroke-linejoin="bevel" transform="matrix(1.00313,0,0,1.00313,338.053,475.983)"
font-family="Ubuntu" font-size="11" font-weight="400" font-style="normal" 
>
</g>

<g fill="none" stroke="#000000" stroke-opacity="1" stroke-width="1" stroke-linecap="square" stroke-linejoin="bevel" transform="matrix(1.00313,0,0,1.00313,338.053,475.983)"
font-family="Ubuntu" font-size="11" font-weight="400" font-style="normal" 
>
</g>

<g fill="none" stroke="#000000" stroke-opacity="1" stroke-width="1" stroke-linecap="square" stroke-linejoin="bevel" transform="matrix(1.00313,0,0,1.00313,338.053,475.983)"
font-family="Ubuntu" font-size="11" font-weight="400" font-style="normal" 
>
</g>

<g fill="none" stroke="#000000" stroke-opacity="1" stroke-width="1" stroke-linecap="square" stroke-linejoin="bevel" transform="matrix(1.00313,0,0,1.00313,338.053,475.983)"
font-family="Ubuntu" font-size="11" font-weight="400" font-style="normal" 
>
</g>

<g fill="none" stroke="#000000" stroke-opacity="1" stroke-width="1" stroke-linecap="square" stroke-linejoin="bevel" transform="matrix(1.00313,0,0,1.00313,338.053,475.983)"
font-family="Ubuntu" font-size="11" font-weight="400" font-style="normal" 
>
</g>

<g fill="none" stroke="#000000" stroke-opacity="1" stroke-width="1" stroke-linecap="square" stroke-linejoin="bevel" transform="matrix(1.00313,0,0,1.00313,338.053,475.983)"
font-family="Sans" font-size="9" font-weight="400" font-style="normal" 
>
<text fill="#000000" fill-opacity="1" stroke="none" xml:space="preserve" x="0" y="0" font-family="Sans" font-size="9" font-weight="400" font-style="normal" 
 >z</text>
</g>

<g fill="none" stroke="#000000" stroke-opacity="1" stroke-width="1" stroke-linecap="square" stroke-linejoin="bevel" transform="matrix(1.00313,0,0,1.00313,338.053,475.983)"
font-family="Ubuntu" font-size="11" font-weight="400" font-style="normal" 
>
</g>

<g fill="none" stroke="#000000" stroke-opacity="1" stroke-width="1" stroke-linecap="square" stroke-linejoin="bevel" transform="matrix(1.00313,0,0,1.00313,319.495,27.5859)"
font-family="Ubuntu" font-size="11" font-weight="400" font-style="normal" 
>
</g>

<g fill="none" stroke="#000000" stroke-opacity="1" stroke-width="1" stroke-linecap="square" stroke-linejoin="bevel" transform="matrix(1.00313,0,0,1.00313,319.495,27.5859)"
font-family="Ubuntu" font-size="11" font-weight="400" font-style="normal" 
>
</g>

<g fill="none" stroke="#000000" stroke-opacity="1" stroke-width="1" stroke-linecap="square" stroke-linejoin="bevel" transform="matrix(1.00313,0,0,1.00313,319.495,27.5859)"
font-family="Ubuntu" font-size="11" font-weight="400" font-style="normal" 
>
</g>

<g fill="none" stroke="#000000" stroke-opacity="1" stroke-width="1" stroke-linecap="square" stroke-linejoin="bevel" transform="matrix(1.00313,0,0,1.00313,319.495,27.5859)"
font-family="Ubuntu" font-size="11" font-weight="400" font-style="normal" 
>
</g>

<g fill="none" stroke="#000000" stroke-opacity="1" stroke-width="1" stroke-linecap="square" stroke-linejoin="bevel" transform="matrix(1.00313,0,0,1.00313,319.495,27.5859)"
font-family="Ubuntu" font-size="11" font-weight="400" font-style="normal" 
>
</g>

<g fill="none" stroke="#000000" stroke-opacity="1" stroke-width="1" stroke-linecap="square" stroke-linejoin="bevel" transform="matrix(1.00313,0,0,1.00313,319.495,27.5859)"
font-family="Sans" font-size="9" font-weight="400" font-style="normal" 
>
<text fill="#000000" fill-opacity="1" stroke="none" xml:space="preserve" x="0" y="0" font-family="Sans" font-size="9" font-weight="400" font-style="normal" 
 >4</text>
<text fill="#000000" fill-opacity="1" stroke="none" xml:space="preserve" x="5.71875" y="0" font-family="Sans" font-size="9" font-weight="400" font-style="normal" 
 >d</text>
<text fill="#000000" fill-opacity="1" stroke="none" xml:space="preserve" x="11.4219" y="0" font-family="Sans" font-size="9" font-weight="400" font-style="normal" 
 > </text>
<text fill="#000000" fill-opacity="1" stroke="none" xml:space="preserve" x="14.2812" y="0" font-family="Sans" font-size="9" font-weight="400" font-style="normal" 
 >loop</text>
</g>

<g fill="none" stroke="#000000" stroke-opacity="1" stroke-width="1" stroke-linecap="square" stroke-linejoin="bevel" transform="matrix(1.00313,0,0,1.00313,319.495,27.5859)"
font-family="Ubuntu" font-size="11" font-weight="400" font-style="normal" 
>
</g>

<g fill="none" stroke="#000000" stroke-opacity="1" stroke-width="1" stroke-linecap="square" stroke-linejoin="bevel" transform="matrix(1.00313,0,0,1.00313,0,0)"
font-family="Ubuntu" font-size="11" font-weight="400" font-style="normal" 
>
</g>

<g fill="none" stroke="#000000" stroke-opacity="1" stroke-width="1" stroke-linecap="square" stroke-linejoin="bevel" transform="matrix(1.00313,0,0,1.00313,0,0)"
font-family="Ubuntu" font-size="11" font-weight="400" font-style="normal" 
>
</g>

<g fill="none" stroke="#000000" stroke-opacity="1" stroke-width="1" stroke-linecap="square" stroke-linejoin="bevel" transform="matrix(1.00313,0,0,1.00313,0,0)"
font-family="Ubuntu" font-size="11" font-weight="400" font-style="normal" 
>
</g>

<g fill="none" stroke="#9400d3" stroke-opacity="1" stroke-width="1" stroke-linecap="round" stroke-linejoin="round" transform="matrix(1.00313,0,0,1.00313,0,0)"
font-family="Ubuntu" font-size="11" font-weight="400" font-style="normal" 
>
<polyline fill="none" vector-effect="none" points="340.7,390 340.7,390 341.3,389.8 341.9,389.6 342.5,389.4 343.1,389.2 343.7,389 344.3,388.8 344.9,388.5 345.5,388.3 346,388.1 346.6,387.8 347.1,387.6 347.7,387.4 348.2,387.1 348.7,386.9 349.2,386.6 349.7,386.4 350.1,386.1 350.6,385.9 351,385.6 351.5,385.4 351.9,385.1 352.3,384.8 352.7,384.6 353,384.3 353.4,384 353.7,383.7 354,383.5 354.4,383.2 354.7,382.9 354.9,382.6 355.2,382.3 355.5,382 355.7,381.7 355.9,381.5 356.1,381.2 356.3,380.9 356.5,380.6 356.7,380.3 356.9,380 357,379.7 357.2,379.4 357.3,379.1 357.5,378.8 357.6,378.5 357.7,378.2 357.8,377.9 357.9,377.6 358,377.3 358.1,377 358.2,376.7 358.3,376.4 358.3,376.1 358.4,375.8 358.4,375.5 358.5,375.2 358.6,374.9 358.6,374.6 358.6,374.3 358.7,374 358.7,373.7 358.8,373.4 358.8,373.1 358.8,372.8 358.8,372.5 358.9,372.2 358.9,371.9 358.9,371.6 358.9,371.3 359,371 359,370.7 359,370.4 359,370.1 359,369.8 359,369.5 359,369.2 359.1,368.9 359.1,368.5 359.1,368.2 359.1,367.9 359.1,367.6 359.1,367.3 359.1,367 359.1,366.7 359.1,366.4 359.1,366.1 359.1,365.8 359.2,365.5 359.2,365.2 359.2,364.9 359.2,364.6 359.2,364.3 359.2,364 359.2,363.7 359.2,363.4 359.2,363.1 359.2,362.8 359.2,362.5 359.2,362.2 359.2,361.9 359.2,361.6 359.2,361.3 359.2,361 359.3,360.7 359.3,360.4 359.3,360.1 359.3,359.8 359.3,359.5 359.3,359.2 359.3,358.9 359.3,358.6 359.3,358.3 359.3,358 359.3,357.7 359.3,357.4 359.3,357.1 359.3,356.8 359.4,356.5 359.4,356.2 359.4,355.9 359.4,355.6 359.4,355.3 359.4,355 359.4,354.6 359.4,354.3 359.4,354 359.4,353.7 359.4,353.4 359.4,353.1 359.4,352.8 359.4,352.5 359.5,352.2 359.5,351.9 359.5,351.6 359.5,351.3 359.5,351 359.5,350.7 359.5,350.4 359.5,350.1 359.5,349.8 359.5,349.5 359.5,349.2 359.5,348.9 359.6,348.6 359.6,348.3 359.6,348 359.6,347.7 359.6,347.4 359.6,347.1 359.6,346.8 359.6,346.5 359.6,346.2 359.6,345.9 359.6,345.6 359.7,345.3 359.7,345 359.7,344.7 359.7,344.4 359.7,344.1 359.7,343.8 359.7,343.5 359.7,343.2 359.7,342.9 359.8,342.6 359.8,342.3 359.8,342 359.8,341.7 359.8,341.4 359.8,341.1 359.8,340.7 359.8,340.4 359.9,340.1 359.9,339.8 359.9,339.5 359.9,339.2 359.9,338.9 359.9,338.6 360,338.3 360,338 360,337.7 360,337.4 360,337.1 360,336.8 360.1,336.5 360.1,336.2 360.1,335.9 360.1,335.6 360.1,335.3 360.2,335 360.2,334.7 360.2,334.4 360.2,334.1 360.2,333.8 360.3,333.5 360.3,333.2 360.3,332.9 360.3,332.6 360.4,332.3 360.4,332 360.4,331.7 360.5,331.4 360.5,331.1 360.5,330.8 360.6,330.5 360.6,330.2 360.6,329.9 360.7,329.6 360.7,329.3 360.7,329 360.8,328.7 360.8,328.4 360.8,328.1 360.9,327.8 360.9,327.5 361,327.2 361,326.9 361.1,326.6 361.1,326.3 361.2,326 361.2,325.6 361.3,325.3 361.3,325 361.4,324.7 361.4,324.4 361.5,324.1 361.5,323.8 361.6,323.5 361.6,323.2 361.7,322.9 361.8,322.6 361.8,322.3 361.9,322 362,321.7 362,321.4 362.1,321.1 362.2,320.8 362.3,320.5 362.3,320.2 362.4,319.9 362.5,319.6 362.6,319.3 362.7,319 362.8,318.7 362.8,318.4 362.9,318.1 363,317.8 363.1,317.5 363.2,317.2 363.3,316.9 363.4,316.6 363.5,316.3 363.6,316 363.7,315.7 363.8,315.4 364,315.1 364.1,314.8 364.2,314.5 364.3,314.2 364.4,313.9 364.5,313.6 364.7,313.3 364.8,313 364.9,312.7 365.1,312.4 365.2,312.1 365.3,311.8 365.5,311.5 365.6,311.2 365.7,310.9 365.9,310.6 366,310.3 366.2,310 366.3,309.7 366.5,309.4 366.6,309.1 366.8,308.8 366.9,308.5 367.1,308.2 367.2,308 367.4,307.7 367.6,307.4 367.7,307.1 367.9,306.8 368.1,306.5 368.2,306.2 368.4,305.9 368.6,305.6 368.8,305.3 368.9,305 369.1,304.7 369.3,304.4 369.5,304.1 369.7,303.8 369.9,303.5 370,303.2 370.2,302.9 370.4,302.6 370.6,302.3 370.8,302 371,301.7 371.2,301.4 371.4,301.1 371.6,300.9 371.8,300.6 372,300.3 372.2,300 372.4,299.7 372.6,299.4 372.8,299.1 373,298.8 373.2,298.5 373.4,298.2 373.6,297.9 373.8,297.6 374,297.3 374.2,297 374.4,296.7 374.6,296.4 374.8,296.1 375,295.9 375.2,295.6 375.4,295.3 375.7,295 375.9,294.7 376.1,294.4 376.3,294.1 376.5,293.8 376.7,293.5 376.9,293.2 377.1,292.9 377.3,292.6 377.6,292.3 377.8,292 378,291.7 378.2,291.5 378.4,291.2 378.6,290.9 378.8,290.6 379,290.3 379.2,290 379.5,289.7 379.7,289.4 379.9,289.1 380.1,288.8 380.3,288.5 380.5,288.2 380.7,287.9 380.9,287.6 381.1,287.4 381.3,287.1 381.6,286.8 381.8,286.5 382,286.2 382.2,285.9 382.4,285.6 382.6,285.3 382.8,285 383,284.7 383.2,284.4 383.4,284.1 383.6,283.8 383.8,283.5 384,283.2 384.2,282.9 384.4,282.7 384.6,282.4 384.8,282.1 385,281.8 385.2,281.5 385.4,281.2 385.6,280.9 385.8,280.6 386,280.3 386.2,280 386.4,279.7 386.6,279.4 386.8,279.1 386.9,278.8 387.1,278.5 387.3,278.2 387.5,277.9 387.7,277.6 387.9,277.3 388.1,277.1 388.2,276.8 388.4,276.5 388.6,276.2 388.8,275.9 389,275.6 389.1,275.3 389.3,275 389.5,274.7 389.7,274.4 389.8,274.1 390,273.8 390.2,273.5 390.4,273.2 390.5,272.9 390.7,272.6 390.9,272.3 391,272 391.2,271.7 391.4,271.4 391.5,271.1 391.7,270.8 391.8,270.5 392,270.2 392.2,269.9 392.3,269.6 392.5,269.3 392.6,269 392.8,268.7 392.9,268.5 393.1,268.2 393.2,267.9 393.4,267.6 393.5,267.3 393.7,267 393.8,266.7 393.9,266.4 394.1,266.1 394.2,265.8 394.4,265.5 394.5,265.2 394.6,264.9 394.8,264.6 394.9,264.3 395,264 395.1,263.7 395.3,263.4 395.4,263.1 395.5,262.8 395.7,262.5 395.8,262.2 395.9,261.9 396,261.6 396.1,261.3 396.2,261 396.4,260.7 396.5,260.4 396.6,260.1 396.7,259.8 396.8,259.5 396.9,259.2 397,258.9 397.1,258.6 397.2,258.3 397.3,258 397.4,257.7 397.5,257.4 397.6,257.1 397.7,256.8 397.8,256.5 397.9,256.2 398,255.9 398.1,255.6 398.2,255.3 398.3,255 398.3,254.7 398.4,254.4 398.5,254.1 398.6,253.8 398.7,253.5 398.8,253.2 398.8,252.9 398.9,252.6 399,252.3 399,252 399.1,251.7 399.2,251.4 399.2,251.1 399.3,250.8 399.4,250.5 399.4,250.2 399.5,249.9 399.6,249.6 399.6,249.3 399.7,249 399.7,248.7 399.8,248.4 399.8,248.1 399.9,247.8 399.9,247.5 400,247.2 400,246.9 400,246.6 400.1,246.2 400.1,245.9 400.2,245.6 400.2,245.3 400.2,245 400.3,244.7 400.3,244.4 400.3,244.1 400.4,243.8 400.4,243.5 400.4,243.2 400.4,242.9 400.4,242.6 400.5,242.3 400.5,242 400.5,241.7 400.5,241.4 400.5,241.1 400.5,240.8 400.5,240.5 400.6,240.2 400.6,239.9 400.6,239.6 400.6,239.3 400.6,239 400.6,238.7 400.6,238.4 400.6,238.1 400.6,237.8 400.6,237.5 400.5,237.2 400.5,236.9 400.5,236.6 400.5,236.3 400.5,236 400.5,235.7 400.5,235.4 400.4,235.1 400.4,234.8 400.4,234.5 400.4,234.2 400.3,233.9 400.3,233.6 400.3,233.3 400.3,233 400.2,232.7 400.2,232.4 400.2,232.1 400.1,231.8 400.1,231.4 400,231.1 400,230.8 399.9,230.5 399.9,230.2 399.9,229.9 399.8,229.6 399.8,229.3 399.7,229 399.6,228.7 399.6,228.4 399.5,228.1 399.5,227.8 399.4,227.5 399.4,227.2 399.3,226.9 399.2,226.6 399.2,226.3 399.1,226 399,225.7 399,225.4 398.9,225.1 398.8,224.8 398.7,224.5 398.7,224.2 398.6,223.9 398.5,223.6 398.4,223.3 398.3,223 398.2,222.7 398.2,222.4 398.1,222.1 398,221.8 397.9,221.5 397.8,221.2 397.7,220.9 397.6,220.6 397.5,220.3 397.4,220 397.3,219.7 397.2,219.4 397.1,219.1 397,218.8 396.9,218.5 396.8,218.2 396.7,217.9 396.6,217.6 396.4,217.3 396.3,217 396.2,216.7 396.1,216.4 396,216.1 395.9,215.8 395.7,215.5 395.6,215.2 395.5,214.9 395.4,214.6 395.2,214.3 395.1,214 395,213.7 394.8,213.4 394.7,213.1 394.6,212.8 394.4,212.5 394.3,212.2 394.2,211.9 394,211.6 393.9,211.3 393.7,211 393.6,210.7 393.4,210.4 393.3,210.1 393.2,209.8 393,209.5 392.9,209.2 392.7,208.9 392.5,208.6 392.4,208.4 392.2,208.1 392.1,207.8 391.9,207.5 391.8,207.2 391.6,206.9 391.4,206.6 391.3,206.3 391.1,206 390.9,205.7 390.8,205.4 390.6,205.1 390.4,204.8 390.3,204.5 390.1,204.2 389.9,203.9 389.8,203.6 389.6,203.3 389.4,203 389.2,202.7 389,202.4 388.9,202.1 388.7,201.8 388.5,201.5 388.3,201.2 388.1,200.9 388,200.6 387.8,200.4 387.6,200.1 387.4,199.8 387.2,199.5 387,199.2 386.8,198.9 386.6,198.6 386.4,198.3 386.2,198 386.1,197.7 385.9,197.4 385.7,197.1 385.5,196.8 385.3,196.5 385.1,196.2 384.9,195.9 384.7,195.6 384.5,195.3 384.3,195.1 384.1,194.8 383.9,194.5 383.7,194.2 383.5,193.9 383.2,193.6 383,193.3 382.8,193 382.6,192.7 382.4,192.4 382.2,192.1 382,191.8 381.8,191.5 381.6,191.2 381.4,190.9 381.2,190.6 380.9,190.4 380.7,190.1 380.5,189.8 380.3,189.5 380.1,189.2 379.9,188.9 379.7,188.6 379.5,188.3 379.2,188 379,187.7 378.8,187.4 378.6,187.1 378.4,186.8 378.2,186.5 378,186.3 377.7,186 377.5,185.7 377.3,185.4 377.1,185.1 376.9,184.8 376.7,184.5 376.4,184.2 376.2,183.9 376,183.6 375.8,183.3 375.6,183 375.4,182.7 375.2,182.5 374.9,182.2 374.7,181.9 374.5,181.6 374.3,181.3 374.1,181 373.9,180.7 373.7,180.4 373.5,180.1 373.2,179.8 373,179.5 372.8,179.2 372.6,178.9 372.4,178.6 372.2,178.3 372,178.1 371.8,177.8 371.6,177.5 371.4,177.2 371.2,176.9 371,176.6 370.8,176.3 370.6,176 370.4,175.7 370.2,175.4 370,175.1 369.8,174.8 369.6,174.5 369.4,174.2 369.2,173.9 369,173.6 368.8,173.3 368.6,173.1 368.5,172.8 368.3,172.5 368.1,172.2 367.9,171.9 367.7,171.6 367.5,171.3 367.4,171 367.2,170.7 367,170.4 366.9,170.1 366.7,169.8 366.5,169.5 366.3,169.2 366.2,168.9 366,168.6 365.9,168.3 365.7,168 365.5,167.7 365.4,167.4 365.2,167.1 365.1,166.8 364.9,166.5 364.8,166.2 364.6,165.9 364.5,165.6 364.4,165.3 364.2,165 364.1,164.7 364,164.4 363.8,164.2 363.7,163.9 363.6,163.6 363.4,163.3 363.3,163 363.2,162.7 363.1,162.4 363,162.1 362.8,161.8 362.7,161.5 362.6,161.2 362.5,160.9 362.4,160.6 362.3,160.3 362.2,160 362.1,159.7 362,159.4 361.9,159.1 361.8,158.8 361.7,158.5 361.6,158.2 361.5,157.9 361.4,157.6 361.4,157.3 361.3,157 361.2,156.7 361.1,156.4 361,156.1 361,155.8 360.9,155.5 360.8,155.2 360.7,154.9 360.7,154.5 360.6,154.2 360.5,153.9 360.5,153.6 360.4,153.3 360.4,153 360.3,152.7 360.2,152.4 360.2,152.1 360.1,151.8 360.1,151.5 360,151.2 360,150.9 359.9,150.6 359.9,150.3 359.8,150 359.8,149.7 359.7,149.4 359.7,149.1 359.6,148.8 359.6,148.5 359.6,148.2 359.5,147.9 359.5,147.6 359.4,147.3 359.4,147 359.4,146.7 359.3,146.4 359.3,146.1 359.3,145.8 359.2,145.5 359.2,145.2 359.2,144.9 359.1,144.6 359.1,144.3 359.1,144 359,143.7 359,143.4 359,143.1 359,142.8 358.9,142.5 358.9,142.2 358.9,141.9 358.9,141.6 358.8,141.3 358.8,141 358.8,140.7 358.8,140.4 358.7,140.1 358.7,139.8 358.7,139.5 358.7,139.2 358.7,138.9 358.6,138.6 358.6,138.3 358.6,138 358.6,137.7 358.6,137.3 358.6,137 358.5,136.7 358.5,136.4 358.5,136.1 358.5,135.8 358.5,135.5 358.5,135.2 358.4,134.9 358.4,134.6 358.4,134.3 358.4,134 358.4,133.7 358.4,133.4 358.3,133.1 358.3,132.8 358.3,132.5 358.3,132.2 358.3,131.9 358.3,131.6 358.3,131.3 358.3,131 358.2,130.7 358.2,130.4 358.2,130.1 358.2,129.8 358.2,129.5 358.2,129.2 358.2,128.9 358.1,128.6 358.1,128.3 358.1,128 358.1,127.7 358.1,127.4 358.1,127.1 358.1,126.8 358.1,126.5 358,126.2 358,125.9 358,125.6 358,125.3 358,125 358,124.7 358,124.4 358,124.1 358,123.8 357.9,123.5 357.9,123.2 357.9,122.8 357.9,122.5 357.9,122.2 357.9,121.9 357.9,121.6 357.9,121.3 357.9,121 357.8,120.7 357.8,120.4 357.8,120.1 357.8,119.8 357.8,119.5 357.8,119.2 357.8,118.9 357.8,118.6 357.8,118.3 357.7,118 357.7,117.7 357.7,117.4 357.7,117.1 357.7,116.8 357.7,116.5 357.7,116.2 357.7,115.9 357.7,115.6 357.6,115.3 357.6,115 357.6,114.7 357.6,114.4 357.6,114.1 357.6,113.8 357.6,113.5 357.6,113.2 357.6,112.9 357.5,112.6 357.5,112.3 357.5,112 357.5,111.7 357.5,111.4 357.5,111.1 357.5,110.8 357.5,110.5 357.5,110.2 357.4,109.9 357.4,109.6 357.4,109.3 357.4,109 357.4,108.7 357.4,108.3 357.4,108 357.3,107.7 357.3,107.4 357.3,107.1 357.3,106.8 357.3,106.5 357.3,106.2 357.2,105.9 357.2,105.6 357.2,105.3 357.2,105 357.1,104.7 357.1,104.4 357.1,104.1 357,103.8 357,103.5 357,103.2 356.9,102.9 356.9,102.6 356.8,102.3 356.8,102 356.7,101.7 356.7,101.4 356.6,101.1 356.5,100.8 356.4,100.5 356.4,100.2 356.3,99.9 356.2,99.6 356.1,99.3 356,99 355.9,98.7 355.7,98.4 355.6,98.1 355.5,97.8 355.3,97.5 355.2,97.2 355,96.9 354.8,96.6 354.6,96.3 354.4,96 354.2,95.7 354,95.4 353.8,95.1 353.5,94.9 353.2,94.6 353,94.3 352.7,94 352.4,93.7 352,93.4 351.7,93.1 351.4,92.9 351,92.6 350.6,92.3 350.2,92 349.8,91.8 349.4,91.5 348.9,91.3 348.5,91 348,90.7 347.5,90.5 347,90.2 346.5,90 346,89.7 345.4,89.5 344.9,89.3 344.3,89 343.7,88.8 343.1,88.6 342.6,88.4 342,88.1 341.3,87.9 340.7,87.7 340.1,87.5 339.5,87.3 338.9,87.1 338.2,87.3 337.6,87.5 337,87.7 336.4,87.9 335.8,88.1 335.2,88.3 334.7,88.6 334.1,88.8 333.5,89 333,89.2 332.4,89.5 331.9,89.7 331.4,90 330.9,90.2 330.4,90.4 329.9,90.7 329.4,90.9 328.9,91.2 328.5,91.5 328.1,91.7 327.7,92 327.3,92.2 326.9,92.5 326.5,92.8 326.2,93.1 325.8,93.3 325.5,93.6 325.2,93.9 324.9,94.2 324.6,94.5 324.3,94.8 324.1,95 323.8,95.3 323.6,95.6 323.4,95.9 323.2,96.2 323,96.5 322.8,96.8 322.6,97.1 322.5,97.4 322.3,97.7 322.2,98 322,98.3 321.9,98.6 321.8,98.9 321.7,99.2 321.6,99.5 321.5,99.8 321.4,100.1 321.3,100.4 321.3,100.7 321.2,101 321.1,101.3 321.1,101.6 321,101.9 321,102.2 320.9,102.5 320.9,102.8 320.8,103.1 320.8,103.4 320.7,103.7 320.7,104 320.7,104.3 320.7,104.6 320.6,104.9 320.6,105.2 320.6,105.5 320.6,105.8 320.5,106.1 320.5,106.4 320.5,106.7 320.5,107 320.5,107.3 320.5,107.6 320.5,107.9 320.4,108.2 320.4,108.5 320.4,108.8 320.4,109.1 320.4,109.4 320.4,109.7 320.4,110 320.4,110.3 320.4,110.6 320.4,110.9 320.4,111.2 320.3,111.5 320.3,111.8 320.3,112.1 320.3,112.4 320.3,112.7 320.3,113 320.3,113.3 320.3,113.6 320.3,113.9 320.3,114.2 320.3,114.5 320.3,114.8 320.3,115.1 320.3,115.4 320.3,115.7 320.3,116 320.2,116.3 320.2,116.6 320.2,116.9 320.2,117.2 320.2,117.5 320.2,117.8 320.2,118.2 320.2,118.5 320.2,118.8 320.2,119.1 320.2,119.4 320.2,119.7 320.2,120 320.2,120.3 320.1,120.6 320.1,120.9 320.1,121.2 320.1,121.5 320.1,121.8 320.1,122.1 320.1,122.4 320.1,122.7 320.1,123 320.1,123.3 320.1,123.6 320.1,123.9 320.1,124.2 320.1,124.5 320,124.8 320,125.1 320,125.4 320,125.7 320,126 320,126.3 320,126.6 320,126.9 320,127.2 320,127.5 320,127.8 320,128.1 319.9,128.4 319.9,128.7 319.9,129 319.9,129.3 319.9,129.6 319.9,129.9 319.9,130.2 319.9,130.5 319.9,130.8 319.9,131.1 319.9,131.4 319.8,131.7 319.8,132 319.8,132.3 319.8,132.6 319.8,132.9 319.8,133.2 319.8,133.5 319.8,133.8 319.8,134.1 319.7,134.4 319.7,134.7 319.7,135 319.7,135.3 319.7,135.6 319.7,135.9 319.7,136.2 319.7,136.5 319.6,136.9 319.6,137.2 319.6,137.5 319.6,137.8 319.6,138.1 319.6,138.4 319.6,138.7 319.5,139 319.5,139.3 319.5,139.6 319.5,139.9 319.5,140.2 319.4,140.5 319.4,140.8 319.4,141.1 319.4,141.4 319.4,141.7 319.3,142 319.3,142.3 319.3,142.6 319.3,142.9 319.3,143.2 319.2,143.5 319.2,143.8 319.2,144.1 319.2,144.4 319.1,144.7 319.1,145 319.1,145.3 319,145.6 319,145.9 319,146.2 319,146.5 318.9,146.8 318.9,147.1 318.9,147.4 318.8,147.7 318.8,148 318.7,148.3 318.7,148.6 318.7,148.9 318.6,149.2 318.6,149.5 318.5,149.8 318.5,150.1 318.5,150.4 318.4,150.7 318.4,151 318.3,151.3 318.3,151.6 318.2,151.9 318.2,152.2 318.1,152.5 318,152.8 318,153.1 317.9,153.4 317.9,153.7 317.8,154 317.7,154.3 317.7,154.6 317.6,154.9 317.5,155.2 317.5,155.5 317.4,155.8 317.3,156.1 317.3,156.4 317.2,156.7 317.1,157 317,157.3 316.9,157.6 316.9,157.9 316.8,158.2 316.7,158.5 316.6,158.8 316.5,159.1 316.4,159.4 316.3,159.7 316.2,160 316.1,160.3 316,160.6 315.9,160.9 315.8,161.2 315.7,161.5 315.6,161.8 315.5,162.1 315.4,162.4 315.2,162.7 315.1,163 315,163.3 314.9,163.6 314.8,163.9 314.6,164.2 314.5,164.5 314.4,164.8 314.2,165.1 314.1,165.4 314,165.7 313.8,166 313.7,166.3 313.5,166.6 313.4,166.9 313.2,167.2 313.1,167.5 312.9,167.8 312.8,168.1 312.6,168.4 312.5,168.7 312.3,169 312.2,169.3 312,169.6 311.8,169.9 311.7,170.2 311.5,170.5 311.3,170.8 311.1,171.1 311,171.4 310.8,171.7 310.6,171.9 310.4,172.2 310.3,172.5 310.1,172.8 309.9,173.1 309.7,173.4 309.5,173.7 309.3,174 309.2,174.3 309,174.6 308.8,174.9 308.6,175.2 308.4,175.5 308.2,175.8 308,176.1 307.8,176.4 307.6,176.7 307.4,177 307.2,177.2 307,177.5 306.8,177.8 306.6,178.1 306.4,178.4 306.2,178.7 306,179 305.8,179.3 305.6,179.6 305.4,179.9 305.2,180.2 305,180.5 304.8,180.8 304.6,181.1 304.3,181.4 304.1,181.6 303.9,181.9 303.7,182.2 303.5,182.5 303.3,182.8 303.1,183.1 302.9,183.4 302.7,183.7 302.5,184 302.2,184.3 302,184.6 301.8,184.9 301.6,185.2 301.4,185.5 301.2,185.7 301,186 300.8,186.3 300.5,186.6 300.3,186.9 300.1,187.2 299.9,187.5 299.7,187.8 299.5,188.1 299.3,188.4 299.1,188.7 298.9,189 298.7,189.3 298.4,189.5 298.2,189.8 298,190.1 297.8,190.4 297.6,190.7 297.4,191 297.2,191.3 297,191.6 296.8,191.9 296.6,192.2 296.4,192.5 296.2,192.8 296,193.1 295.8,193.4 295.6,193.7 295.4,193.9 295.2,194.2 295,194.5 294.8,194.8 294.6,195.1 294.4,195.4 294.2,195.7 294,196 293.8,196.3 293.6,196.6 293.4,196.9 293.2,197.2 293,197.5 292.8,197.8 292.6,198.1 292.4,198.4 292.2,198.6 292.1,198.9 291.9,199.2 291.7,199.5 291.5,199.8 291.3,200.1 291.1,200.4 290.9,200.7 290.8,201 290.6,201.3 290.4,201.6 290.2,201.9 290.1,202.2 289.9,202.5 289.7,202.8 289.5,203.1 289.4,203.4 289.2,203.7 289,204 288.8,204.3 288.7,204.6 288.5,204.8 288.3,205.1 288.2,205.4 288,205.7 287.9,206 287.7,206.3 287.5,206.6 287.4,206.9 287.2,207.2 287.1,207.5 286.9,207.8 286.8,208.1 286.6,208.4 286.5,208.7 286.3,209 286.2,209.3 286,209.6 285.9,209.9 285.7,210.2 285.6,210.5 285.4,210.8 285.3,211.1 285.2,211.4 285,211.7 284.9,212 284.8,212.3 284.6,212.6 284.5,212.9 284.4,213.2 284.2,213.5 284.1,213.8 284,214.1 283.8,214.4 283.7,214.7 283.6,215 283.5,215.3 283.4,215.6 283.2,215.9 283.1,216.2 283,216.5 282.9,216.8 282.8,217.1 282.7,217.3 282.6,217.6 282.5,217.9 282.4,218.2 282.3,218.5 282.2,218.8 282,219.1 281.9,219.4 281.9,219.7 281.8,220 281.7,220.3 281.6,220.6 281.5,220.9 281.4,221.2 281.3,221.5 281.2,221.8 281.1,222.1 281,222.4 280.9,222.7 280.9,223 280.8,223.3 280.7,223.6 280.6,223.9 280.6,224.2 280.5,224.5 280.4,224.8 280.3,225.1 280.3,225.4 280.2,225.7 280.1,226 280.1,226.4 280,226.7 279.9,227 279.9,227.3 279.8,227.6 279.8,227.9 279.7,228.2 279.7,228.5 279.6,228.8 279.6,229.1 279.5,229.4 279.5,229.7 279.4,230 279.4,230.3 279.3,230.6 279.3,230.9 279.3,231.2 279.2,231.5 279.2,231.8 279.2,232.1 279.1,232.4 279.1,232.7 279.1,233 279,233.3 279,233.6 279,233.9 279,234.2 278.9,234.5 278.9,234.8 278.9,235.1 278.9,235.4 278.9,235.7 278.9,236 278.8,236.3 278.8,236.6 278.8,236.9 278.8,237.2 278.8,237.5 278.8,237.8 278.8,238.1 278.8,238.4 278.8,238.7 278.8,239 278.8,239.3 278.8,239.6 278.8,239.9 278.8,240.2 278.9,240.5 278.9,240.8 278.9,241.1 278.9,241.4 278.9,241.7 278.9,242 279,242.3 279,242.6 279,242.9 279,243.2 279.1,243.5 279.1,243.8 279.1,244.1 279.2,244.4 279.2,244.7 279.2,245 279.3,245.3 279.3,245.6 279.3,245.9 279.4,246.2 279.4,246.5 279.5,246.8 279.5,247.1 279.6,247.4 279.6,247.7 279.7,248 279.7,248.3 279.8,248.7 279.8,249 279.9,249.3 280,249.6 280,249.9 280.1,250.2 280.2,250.5 280.2,250.8 280.3,251.1 280.4,251.4 280.4,251.7 280.5,252 280.6,252.3 280.7,252.6 280.7,252.9 280.8,253.2 280.9,253.5 281,253.8 281.1,254.1 281.1,254.4 281.2,254.7 281.3,255 281.4,255.3 281.5,255.6 281.6,255.9 281.7,256.2 281.8,256.5 281.9,256.8 282,257.1 282.1,257.4 282.2,257.7 282.3,258 282.4,258.3 282.5,258.6 282.6,258.9 282.7,259.2 282.8,259.5 282.9,259.8 283.1,260.1 283.2,260.4 283.3,260.7 283.4,260.9 283.5,261.2 283.6,261.5 283.8,261.8 283.9,262.1 284,262.4 284.1,262.7 284.3,263 284.4,263.3 284.5,263.6 284.7,263.9 284.8,264.2 284.9,264.5 285.1,264.8 285.2,265.1 285.4,265.4 285.5,265.7 285.6,266 285.8,266.3 285.9,266.6 286.1,266.9 286.2,267.2 286.4,267.5 286.5,267.8 286.7,268.1 286.8,268.4 287,268.7 287.1,269 287.3,269.3 287.5,269.6 287.6,269.9 287.8,270.2 287.9,270.5 288.1,270.8 288.3,271.1 288.4,271.4 288.6,271.7 288.8,272 288.9,272.2 289.1,272.5 289.3,272.8 289.4,273.1 289.6,273.4 289.8,273.7 290,274 290.1,274.3 290.3,274.6 290.5,274.9 290.7,275.2 290.9,275.5 291,275.8 291.2,276.1 291.4,276.4 291.6,276.7 291.8,277 292,277.3 292.2,277.6 292.4,277.9 292.5,278.1 292.7,278.4 292.9,278.7 293.1,279 293.3,279.3 293.5,279.6 293.7,279.9 293.9,280.2 294.1,280.5 294.3,280.8 294.5,281.1 294.7,281.4 294.9,281.7 295.1,282 295.3,282.3 295.5,282.6 295.7,282.8 295.9,283.1 296.1,283.4 296.3,283.7 296.5,284 296.7,284.3 296.9,284.6 297.2,284.9 297.4,285.2 297.6,285.5 297.8,285.8 298,286.1 298.2,286.4 298.4,286.7 298.6,286.9 298.8,287.2 299.1,287.5 299.3,287.8 299.5,288.1 299.7,288.4 299.9,288.7 300.1,289 300.3,289.3 300.6,289.6 300.8,289.9 301,290.2 301.2,290.5 301.4,290.7 301.6,291 301.8,291.3 302.1,291.6 302.3,291.9 302.5,292.2 302.7,292.5 302.9,292.8 303.1,293.1 303.4,293.4 303.6,293.7 303.8,294 304,294.3 304.2,294.5 304.4,294.8 304.6,295.1 304.9,295.4 305.1,295.7 305.3,296 305.5,296.3 305.7,296.6 305.9,296.9 306.1,297.2 306.3,297.5 306.6,297.8 306.8,298.1 307,298.3 307.2,298.6 307.4,298.9 307.6,299.2 307.8,299.5 308,299.8 308.2,300.1 308.4,300.4 308.6,300.7 308.8,301 309,301.3 309.2,301.6 309.4,301.9 309.6,302.2 309.8,302.5 310,302.7 310.2,303 310.4,303.3 310.6,303.6 310.7,303.9 310.9,304.2 311.1,304.5 311.3,304.8 311.5,305.1 311.7,305.4 311.8,305.7 312,306 312.2,306.3 312.4,306.6 312.5,306.9 312.7,307.2 312.9,307.5 313.1,307.8 313.2,308.1 313.4,308.3 313.5,308.6 313.7,308.9 313.9,309.2 314,309.5 314.2,309.8 314.3,310.1 314.5,310.4 314.6,310.7 314.8,311 314.9,311.3 315,311.6 315.2,311.9 315.3,312.2 315.5,312.5 315.6,312.8 315.7,313.1 315.9,313.4 316,313.7 316.1,314 316.2,314.3 316.3,314.6 316.5,314.9 316.6,315.2 316.7,315.5 316.8,315.8 316.9,316.1 317,316.4 317.1,316.7 317.2,317 317.3,317.3 317.4,317.6 317.5,317.9 317.6,318.2 317.7,318.5 317.8,318.8 317.9,319.1 318,319.4 318.1,319.7 318.2,320 318.2,320.3 318.3,320.6 318.4,320.9 318.5,321.2 318.6,321.5 318.6,321.8 318.7,322.1 318.8,322.4 318.8,322.7 318.9,323 319,323.3 319,323.6 319.1,323.9 319.2,324.2 319.2,324.5 319.3,324.8 319.3,325.1 319.4,325.4 319.4,325.7 319.5,326 319.6,326.3 319.6,326.6 319.6,326.9 319.7,327.2 319.7,327.5 319.8,327.8 319.8,328.1 319.9,328.4 319.9,328.7 320,329 320,329.3 320,329.6 320.1,329.9 320.1,330.2 320.1,330.5 320.2,330.8 320.2,331.1 320.2,331.4 320.3,331.7 320.3,332 320.3,332.3 320.4,332.6 320.4,332.9 320.4,333.2 320.5,333.5 320.5,333.8 320.5,334.1 320.5,334.4 320.6,334.7 320.6,335 320.6,335.3 320.6,335.6 320.7,335.9 320.7,336.2 320.7,336.5 320.7,336.8 320.8,337.1 320.8,337.4 320.8,337.7 320.8,338 320.8,338.3 320.9,338.7 320.9,339 320.9,339.3 320.9,339.6 320.9,339.9 320.9,340.2 321,340.5 321,340.8 321,341.1 321,341.4 321,341.7 321,342 321.1,342.3 321.1,342.6 321.1,342.9 321.1,343.2 321.1,343.5 321.1,343.8 321.2,344.1 321.2,344.4 321.2,344.7 321.2,345 321.2,345.3 321.2,345.6 321.2,345.9 321.3,346.2 321.3,346.5 321.3,346.8 321.3,347.1 321.3,347.4 321.3,347.7 321.3,348 321.3,348.3 321.4,348.6 321.4,348.9 321.4,349.2 321.4,349.5 321.4,349.8 321.4,350.1 321.4,350.4 321.4,350.7 321.5,351 321.5,351.3 321.5,351.6 321.5,351.9 321.5,352.2 321.5,352.5 321.5,352.8 321.5,353.1 321.5,353.4 321.6,353.7 321.6,354 321.6,354.3 321.6,354.6 321.6,354.9 321.6,355.2 321.6,355.5 321.6,355.8 321.6,356.1 321.7,356.4 321.7,356.7 321.7,357 321.7,357.3 321.7,357.6 321.7,357.9 321.7,358.3 321.7,358.6 321.7,358.9 321.8,359.2 321.8,359.5 321.8,359.8 321.8,360.1 321.8,360.4 321.8,360.7 321.8,361 321.8,361.3 321.8,361.6 321.9,361.9 321.9,362.2 321.9,362.5 321.9,362.8 321.9,363.1 321.9,363.4 321.9,363.7 321.9,364 321.9,364.3 322,364.6 322,364.9 322,365.2 322,365.5 322,365.8 322,366.1 322,366.4 322,366.7 322,367 322.1,367.3 322.1,367.6 322.1,367.9 322.1,368.2 322.1,368.5 322.1,368.8 322.1,369.1 322.2,369.4 322.2,369.7 322.2,370 322.2,370.3 322.2,370.6 322.2,370.9 322.3,371.2 322.3,371.5 322.3,371.8 322.3,372.1 322.4,372.4 322.4,372.7 322.4,373 322.5,373.3 322.5,373.6 322.5,373.9 322.6,374.2 322.6,374.5 322.7,374.8 322.7,375.1 322.8,375.4 322.9,375.7 322.9,376 323,376.3 323.1,376.6 323.2,376.9 323.2,377.2 323.3,377.5 323.4,377.8 323.5,378.1 323.7,378.4 323.8,378.7 323.9,379 324,379.3 324.2,379.6 324.4,379.9 324.5,380.2 324.7,380.5 324.9,380.8 325.1,381.1 325.3,381.4 325.5,381.7 325.8,382 326,382.3 326.3,382.6 326.6,382.8 326.9,383.1 327.2,383.4 327.5,383.7 327.8,384 328.2,384.3 328.6,384.5 328.9,384.8 329.3,385.1 329.8,385.3 330.2,385.6 330.6,385.9 331.1,386.1 331.6,386.4 332,386.6 332.5,386.9 333.1,387.1 333.6,387.4 334.1,387.6 334.7,387.8 335.2,388.1 335.8,388.3 336.4,388.5 337,388.8 337.6,389 338.2,389.2 338.8,389.4 339.4,389.6 340.1,389.8 " />
</g>

<g fill="none" stroke="#000000" stroke-opacity="1" stroke-width="1" stroke-linecap="square" stroke-linejoin="bevel" transform="matrix(1.00313,0,0,1.00313,0,0)"
font-family="Ubuntu" font-size="11" font-weight="400" font-style="normal" 
>
</g>

<g fill="none" stroke="#000000" stroke-opacity="1" stroke-width="1" stroke-linecap="square" stroke-linejoin="bevel" transform="matrix(1.00313,0,0,1.00313,0,0)"
font-family="Ubuntu" font-size="11" font-weight="400" font-style="normal" 
>
</g>

<g fill="none" stroke="#000000" stroke-opacity="1" stroke-width="1" stroke-linecap="round" stroke-linejoin="round" transform="matrix(1.00313,0,0,1.00313,0,0)"
font-family="Ubuntu" font-size="11" font-weight="400" font-style="normal" 
>
<polyline fill="none" vector-effect="none" points="60.5,45.5 60.5,432.5 618.5,432.5 618.5,45.5 60.5,45.5 " />
</g>

<g fill="none" stroke="#000000" stroke-opacity="1" stroke-width="1" stroke-linecap="square" stroke-linejoin="bevel" transform="matrix(1.00313,0,0,1.00313,0,0)"
font-family="Ubuntu" font-size="11" font-weight="400" font-style="normal" 
>
</g>

<g fill="none" stroke="#000000" stroke-opacity="1" stroke-width="1" stroke-linecap="square" stroke-linejoin="bevel" transform="matrix(1,0,0,1,0,0)"
font-family="Ubuntu" font-size="11" font-weight="400" font-style="normal" 
>
</g>
</g>
</svg>
